G04 #@! TF.FileFunction,Legend,Bot*
%FSLAX46Y46*%
G04 Gerber Fmt 4.6, Leading zero omitted, Abs format (unit mm)*
G04 Created by KiCad (PCBNEW 4.0.7-e2-6376~58~ubuntu16.04.1) date Sat Jan 13 09:53:06 2018*
%MOMM*%
%LPD*%
G01*
G04 APERTURE LIST*
%ADD10C,0.100000*%
%ADD11C,0.120000*%
%ADD12C,0.150000*%
G04 APERTURE END LIST*
D10*
D11*
X159960000Y-113220000D02*
X159960000Y-115880000D01*
X170240000Y-113220000D02*
X170240000Y-115880000D01*
X162050000Y-115880000D02*
X165610000Y-115880000D01*
X167130000Y-115880000D02*
X170240000Y-115880000D01*
X159960000Y-113220000D02*
X163070000Y-113220000D01*
X160530000Y-115880000D02*
X160530000Y-117400000D01*
X159960000Y-115880000D02*
X160530000Y-115880000D01*
X169670000Y-113220000D02*
X170240000Y-113220000D01*
X164590000Y-113220000D02*
X168150000Y-113220000D01*
X159960000Y-105735000D02*
X159960000Y-108395000D01*
X170240000Y-105735000D02*
X170240000Y-108395000D01*
X162050000Y-108395000D02*
X165610000Y-108395000D01*
X167130000Y-108395000D02*
X170240000Y-108395000D01*
X159960000Y-105735000D02*
X163070000Y-105735000D01*
X160530000Y-108395000D02*
X160530000Y-109915000D01*
X159960000Y-108395000D02*
X160530000Y-108395000D01*
X169670000Y-105735000D02*
X170240000Y-105735000D01*
X164590000Y-105735000D02*
X168150000Y-105735000D01*
D12*
X158412381Y-114216667D02*
X159126667Y-114216667D01*
X159269524Y-114169047D01*
X159364762Y-114073809D01*
X159412381Y-113930952D01*
X159412381Y-113835714D01*
X158507619Y-114645238D02*
X158460000Y-114692857D01*
X158412381Y-114788095D01*
X158412381Y-115026191D01*
X158460000Y-115121429D01*
X158507619Y-115169048D01*
X158602857Y-115216667D01*
X158698095Y-115216667D01*
X158840952Y-115169048D01*
X159412381Y-114597619D01*
X159412381Y-115216667D01*
X158412381Y-106731667D02*
X159126667Y-106731667D01*
X159269524Y-106684047D01*
X159364762Y-106588809D01*
X159412381Y-106445952D01*
X159412381Y-106350714D01*
X158412381Y-107112619D02*
X158412381Y-107731667D01*
X158793333Y-107398333D01*
X158793333Y-107541191D01*
X158840952Y-107636429D01*
X158888571Y-107684048D01*
X158983810Y-107731667D01*
X159221905Y-107731667D01*
X159317143Y-107684048D01*
X159364762Y-107636429D01*
X159412381Y-107541191D01*
X159412381Y-107255476D01*
X159364762Y-107160238D01*
X159317143Y-107112619D01*
M02*
