G04 #@! TF.FileFunction,Profile,NP*
%FSLAX46Y46*%
G04 Gerber Fmt 4.6, Leading zero omitted, Abs format (unit mm)*
G04 Created by KiCad (PCBNEW 4.0.7-e2-6376~58~ubuntu16.04.1) date Sat Jan 13 11:54:52 2018*
%MOMM*%
%LPD*%
G01*
G04 APERTURE LIST*
%ADD10C,0.100000*%
%ADD11C,0.150000*%
G04 APERTURE END LIST*
D10*
D11*
X156337000Y-93853000D02*
X155067000Y-93853000D01*
X153035000Y-96901000D02*
X156337000Y-93853000D01*
X155067000Y-96774000D02*
X153035000Y-96901000D01*
X154686000Y-97028000D02*
X155067000Y-96774000D01*
X148717000Y-101473000D02*
X154686000Y-97028000D01*
X152781000Y-97409000D02*
X148717000Y-101473000D01*
X151257000Y-97663000D02*
X152781000Y-97409000D01*
X155067000Y-93853000D02*
X151257000Y-97663000D01*
X151182605Y-95048605D02*
G75*
G03X151182605Y-95048605I-179605J0D01*
G01*
X150368000Y-95250000D02*
X150241000Y-95250000D01*
X150368000Y-94869000D02*
X150241000Y-94869000D01*
X150368000Y-95250000D02*
X150368000Y-94869000D01*
X150241000Y-94869000D02*
X148971000Y-94869000D01*
X148590000Y-95250000D02*
X150241000Y-95250000D01*
X148971000Y-94742000D02*
X148971000Y-94869000D01*
X150241000Y-92710000D02*
X148590000Y-92710000D01*
X148590000Y-92710000D02*
X148590000Y-95250000D01*
X148971000Y-93091000D02*
X148971000Y-94742000D01*
X150368000Y-93091000D02*
X150368000Y-92710000D01*
X150241000Y-93091000D02*
X148971000Y-93091000D01*
X150368000Y-93091000D02*
X150241000Y-93091000D01*
X150368000Y-92710000D02*
X150241000Y-92710000D01*
X151003000Y-108204000D02*
X151003000Y-107950000D01*
X149987000Y-109093000D02*
X149987000Y-108204000D01*
X149987000Y-108204000D02*
X151003000Y-108204000D01*
X151003000Y-107950000D02*
X149733000Y-107950000D01*
X149733000Y-107950000D02*
X149733000Y-109347000D01*
X151003000Y-109093000D02*
X149987000Y-109093000D01*
X149733000Y-109347000D02*
X150749000Y-109347000D01*
X150749000Y-109347000D02*
X150749000Y-110236000D01*
X150749000Y-110236000D02*
X149733000Y-110236000D01*
X151003000Y-110490000D02*
X151003000Y-109093000D01*
X149733000Y-110490000D02*
X151003000Y-110490000D01*
X149733000Y-110236000D02*
X149733000Y-110490000D01*
X144653000Y-107950000D02*
X143383000Y-107950000D01*
X144653000Y-109093000D02*
X143637000Y-109093000D01*
X143383000Y-109347000D02*
X144399000Y-109347000D01*
X143637000Y-108204000D02*
X144653000Y-108204000D01*
X144653000Y-108204000D02*
X144653000Y-107950000D01*
X143383000Y-110236000D02*
X143383000Y-110490000D01*
X144399000Y-110236000D02*
X143383000Y-110236000D01*
X143383000Y-110490000D02*
X144653000Y-110490000D01*
X144653000Y-110490000D02*
X144653000Y-109093000D01*
X144399000Y-109347000D02*
X144399000Y-110236000D01*
X143637000Y-109093000D02*
X143637000Y-108204000D01*
X143383000Y-107950000D02*
X143383000Y-109347000D01*
X154051000Y-118618000D02*
X155067000Y-118618000D01*
X155067000Y-118618000D02*
X155067000Y-118872000D01*
X155067000Y-118872000D02*
X154051000Y-118872000D01*
X154051000Y-118872000D02*
X154051000Y-119761000D01*
X155321000Y-117475000D02*
X153670000Y-117475000D01*
X155321000Y-117729000D02*
X155321000Y-117475000D01*
X155321000Y-119761000D02*
X155321000Y-120015000D01*
X153670000Y-120015000D02*
X155321000Y-120015000D01*
X155321000Y-119761000D02*
X154051000Y-119761000D01*
X154051000Y-117729000D02*
X154051000Y-118618000D01*
X154051000Y-117729000D02*
X155321000Y-117729000D01*
X153670000Y-117475000D02*
X153670000Y-120015000D01*
X153162000Y-119634000D02*
X151892000Y-119634000D01*
X153289000Y-120015000D02*
X153162000Y-120015000D01*
X153289000Y-119634000D02*
X153162000Y-119634000D01*
X153289000Y-120015000D02*
X153289000Y-119634000D01*
X151511000Y-120015000D02*
X153162000Y-120015000D01*
X153162000Y-117475000D02*
X151511000Y-117475000D01*
X151511000Y-117475000D02*
X151511000Y-120015000D01*
X151892000Y-117856000D02*
X151892000Y-119507000D01*
X151892000Y-119507000D02*
X151892000Y-119634000D01*
X153289000Y-117475000D02*
X153162000Y-117475000D01*
X153289000Y-117856000D02*
X153162000Y-117856000D01*
X153289000Y-117856000D02*
X153289000Y-117475000D01*
X153162000Y-117856000D02*
X151892000Y-117856000D01*
X150749000Y-120015000D02*
X151130000Y-120015000D01*
X151130000Y-120015000D02*
X151130000Y-117475000D01*
X150876000Y-117475000D02*
X150876000Y-119634000D01*
X149352000Y-120015000D02*
X149606000Y-120015000D01*
X149352000Y-120015000D02*
X149352000Y-117475000D01*
X149606000Y-117729000D02*
X150749000Y-120015000D01*
X149606000Y-120015000D02*
X149606000Y-117729000D01*
X150876000Y-119634000D02*
X149733000Y-117475000D01*
X151130000Y-117475000D02*
X150876000Y-117475000D01*
X149733000Y-117475000D02*
X149606000Y-117475000D01*
X149352000Y-117475000D02*
X149606000Y-117475000D01*
X148971000Y-119761000D02*
X147701000Y-119761000D01*
X148971000Y-119761000D02*
X148971000Y-120015000D01*
X147701000Y-118872000D02*
X147701000Y-119761000D01*
X148717000Y-118872000D02*
X147701000Y-118872000D01*
X148717000Y-118618000D02*
X148717000Y-118872000D01*
X147320000Y-120015000D02*
X148971000Y-120015000D01*
X148971000Y-117729000D02*
X148971000Y-117475000D01*
X147701000Y-117729000D02*
X148971000Y-117729000D01*
X147701000Y-117729000D02*
X147701000Y-118618000D01*
X147701000Y-118618000D02*
X148717000Y-118618000D01*
X148971000Y-117475000D02*
X147320000Y-117475000D01*
X147320000Y-117475000D02*
X147320000Y-120015000D01*
X146939000Y-120015000D02*
X146939000Y-119761000D01*
X146939000Y-119761000D02*
X146304000Y-119761000D01*
X145288000Y-120015000D02*
X146812000Y-120015000D01*
X146812000Y-120015000D02*
X146939000Y-120015000D01*
X146304000Y-117729000D02*
X146939000Y-117729000D01*
X145288000Y-117729000D02*
X145923000Y-117729000D01*
X146939000Y-117729000D02*
X146939000Y-117475000D01*
X145288000Y-117475000D02*
X145288000Y-117729000D01*
X146939000Y-117475000D02*
X145288000Y-117475000D01*
X145923000Y-117729000D02*
X145923000Y-119761000D01*
X145923000Y-119761000D02*
X145288000Y-119761000D01*
X146304000Y-119761000D02*
X146304000Y-117729000D01*
X145288000Y-119761000D02*
X145288000Y-120015000D01*
X143510000Y-119507000D02*
X143510000Y-119634000D01*
X143510000Y-117856000D02*
X143510000Y-119507000D01*
X143129000Y-117475000D02*
X143129000Y-120015000D01*
X144780000Y-119634000D02*
X143510000Y-119634000D01*
X144780000Y-117856000D02*
X143510000Y-117856000D01*
X144780000Y-117475000D02*
X143129000Y-117475000D01*
X143129000Y-120015000D02*
X144780000Y-120015000D01*
X144907000Y-120015000D02*
X144780000Y-120015000D01*
X144907000Y-119634000D02*
X144780000Y-119634000D01*
X144907000Y-117856000D02*
X144780000Y-117856000D01*
X144907000Y-117475000D02*
X144780000Y-117475000D01*
X144907000Y-117856000D02*
X144907000Y-117475000D01*
X144907000Y-120015000D02*
X144907000Y-119634000D01*
X142748000Y-118618000D02*
X141732000Y-118618000D01*
X142748000Y-120015000D02*
X142748000Y-118618000D01*
X141478000Y-120015000D02*
X142748000Y-120015000D01*
X141478000Y-119761000D02*
X141478000Y-120015000D01*
X142748000Y-117475000D02*
X141478000Y-117475000D01*
X142748000Y-117729000D02*
X142748000Y-117475000D01*
X141732000Y-117729000D02*
X142748000Y-117729000D01*
X141732000Y-118618000D02*
X141732000Y-117729000D01*
X142494000Y-119761000D02*
X141478000Y-119761000D01*
X142494000Y-118872000D02*
X142494000Y-119761000D01*
X141478000Y-118872000D02*
X142494000Y-118872000D01*
X141478000Y-117475000D02*
X141478000Y-118872000D01*
X153416000Y-114300000D02*
X153670000Y-114300000D01*
X153670000Y-114427000D02*
X153670000Y-114300000D01*
X151384000Y-114300000D02*
X153416000Y-114300000D01*
X151384000Y-114681000D02*
X151384000Y-114300000D01*
X152400000Y-114681000D02*
X151384000Y-114681000D01*
X152781000Y-116840000D02*
X152400000Y-116840000D01*
X152781000Y-116840000D02*
X152781000Y-114681000D01*
X152400000Y-116840000D02*
X152400000Y-114681000D01*
X153670000Y-114681000D02*
X153670000Y-114427000D01*
X152781000Y-114681000D02*
X153670000Y-114681000D01*
X149733000Y-114554000D02*
X151003000Y-114554000D01*
X149733000Y-115443000D02*
X150749000Y-115443000D01*
X151003000Y-114300000D02*
X149352000Y-114300000D01*
X151003000Y-114554000D02*
X151003000Y-114300000D01*
X149733000Y-114554000D02*
X149733000Y-115443000D01*
X150749000Y-115443000D02*
X150749000Y-115697000D01*
X150749000Y-115697000D02*
X149733000Y-115697000D01*
X149733000Y-115697000D02*
X149733000Y-116586000D01*
X151003000Y-116586000D02*
X151003000Y-116840000D01*
X149352000Y-116840000D02*
X151003000Y-116840000D01*
X151003000Y-116586000D02*
X149733000Y-116586000D01*
X149352000Y-114300000D02*
X149352000Y-116840000D01*
X147828000Y-115570000D02*
X147828000Y-115443000D01*
X148971000Y-116840000D02*
X147828000Y-115570000D01*
X148844000Y-114300000D02*
X147828000Y-115443000D01*
X148717000Y-114300000D02*
X148844000Y-114300000D01*
X148844000Y-116840000D02*
X148971000Y-116840000D01*
X148717000Y-116840000D02*
X148844000Y-116840000D01*
X148590000Y-116840000D02*
X148717000Y-116840000D01*
X148463000Y-114300000D02*
X148717000Y-114300000D01*
X147574000Y-114300000D02*
X147320000Y-114300000D01*
X147574000Y-115316000D02*
X147574000Y-114300000D01*
X148463000Y-114300000D02*
X147574000Y-115316000D01*
X147574000Y-115697000D02*
X148590000Y-116840000D01*
X147574000Y-116840000D02*
X147574000Y-115697000D01*
X147320000Y-116840000D02*
X147574000Y-116840000D01*
X147320000Y-114300000D02*
X147320000Y-116840000D01*
X146939000Y-116840000D02*
X146812000Y-116840000D01*
X146939000Y-116459000D02*
X146812000Y-116459000D01*
X146939000Y-114681000D02*
X146812000Y-114681000D01*
X146939000Y-114300000D02*
X146812000Y-114300000D01*
X146939000Y-114681000D02*
X146939000Y-114300000D01*
X146812000Y-116459000D02*
X145542000Y-116459000D01*
X146939000Y-116840000D02*
X146939000Y-116459000D01*
X145542000Y-116332000D02*
X145542000Y-116459000D01*
X145542000Y-114681000D02*
X145542000Y-116332000D01*
X146812000Y-114681000D02*
X145542000Y-114681000D01*
X145161000Y-116840000D02*
X146812000Y-116840000D01*
X145161000Y-114300000D02*
X145161000Y-116840000D01*
X146812000Y-114300000D02*
X145161000Y-114300000D01*
X144680882Y-115597882D02*
G75*
G03X144680882Y-115597882I-1170882J0D01*
G01*
X141732000Y-116840000D02*
X141859000Y-116713000D01*
X141859000Y-116713000D02*
X141986000Y-116586000D01*
X141986000Y-116586000D02*
X141097000Y-115570000D01*
X141732000Y-115570000D02*
X141732000Y-114300000D01*
X140208000Y-114300000D02*
X140208000Y-116840000D01*
X140462000Y-115570000D02*
X141732000Y-116840000D01*
X141097000Y-115570000D02*
X141732000Y-115570000D01*
X141732000Y-114300000D02*
X140208000Y-114300000D01*
X140462000Y-116840000D02*
X140462000Y-115570000D01*
X140208000Y-116840000D02*
X140462000Y-116840000D01*
X145288000Y-113538000D02*
X145288000Y-111379000D01*
X146177000Y-111379000D02*
X146177000Y-111125000D01*
X146177000Y-111125000D02*
X146177000Y-110998000D01*
X145288000Y-111379000D02*
X146177000Y-111379000D01*
X145923000Y-110998000D02*
X146177000Y-110998000D01*
X143891000Y-110998000D02*
X145923000Y-110998000D01*
X144907000Y-111379000D02*
X143891000Y-111379000D01*
X144907000Y-113538000D02*
X144907000Y-111379000D01*
X145288000Y-113538000D02*
X144907000Y-113538000D01*
X143891000Y-111379000D02*
X143891000Y-110998000D01*
X143791882Y-112422882D02*
G75*
G03X143791882Y-112422882I-1170882J0D01*
G01*
X139192000Y-113665000D02*
X139192000Y-111125000D01*
X139446000Y-113665000D02*
X139446000Y-111379000D01*
X139192000Y-113665000D02*
X139446000Y-113665000D01*
X139192000Y-111125000D02*
X139446000Y-111125000D01*
X139446000Y-111379000D02*
X140589000Y-113665000D01*
X140970000Y-113665000D02*
X140970000Y-111125000D01*
X140589000Y-113665000D02*
X140970000Y-113665000D01*
X140716000Y-113284000D02*
X139573000Y-111125000D01*
X140716000Y-111125000D02*
X140716000Y-113284000D01*
X139573000Y-111125000D02*
X139446000Y-111125000D01*
X140970000Y-111125000D02*
X140716000Y-111125000D01*
X148717000Y-110236000D02*
X148717000Y-108204000D01*
X148336000Y-108204000D02*
X148336000Y-110236000D01*
X149352000Y-110236000D02*
X148717000Y-110236000D01*
X147701000Y-110236000D02*
X147701000Y-110490000D01*
X149225000Y-110490000D02*
X149352000Y-110490000D01*
X148336000Y-110236000D02*
X147701000Y-110236000D01*
X147701000Y-110490000D02*
X149225000Y-110490000D01*
X149352000Y-110490000D02*
X149352000Y-110236000D01*
X148717000Y-108204000D02*
X149352000Y-108204000D01*
X147701000Y-108204000D02*
X148336000Y-108204000D01*
X149352000Y-108204000D02*
X149352000Y-107950000D01*
X149352000Y-107950000D02*
X147701000Y-107950000D01*
X147701000Y-107950000D02*
X147701000Y-108204000D01*
X139700000Y-107950000D02*
X139446000Y-107950000D01*
X139700000Y-109093000D02*
X139700000Y-107950000D01*
X140716000Y-109093000D02*
X139700000Y-109093000D01*
X140716000Y-107950000D02*
X140716000Y-109093000D01*
X140970000Y-107950000D02*
X140716000Y-107950000D01*
X140970000Y-110490000D02*
X140970000Y-107950000D01*
X140716000Y-110490000D02*
X140970000Y-110490000D01*
X140716000Y-109474000D02*
X140716000Y-110490000D01*
X139700000Y-109474000D02*
X140716000Y-109474000D01*
X139700000Y-110490000D02*
X139700000Y-109474000D01*
X139446000Y-110490000D02*
X139700000Y-110490000D01*
X139446000Y-107950000D02*
X139446000Y-110490000D01*
X139065000Y-108077000D02*
X139065000Y-107950000D01*
X139065000Y-108331000D02*
X139065000Y-108077000D01*
X138176000Y-108331000D02*
X139065000Y-108331000D01*
X138176000Y-110490000D02*
X138176000Y-108331000D01*
X136779000Y-108331000D02*
X136779000Y-107950000D01*
X137795000Y-108331000D02*
X136779000Y-108331000D01*
X137795000Y-110490000D02*
X137795000Y-108331000D01*
X138176000Y-110490000D02*
X137795000Y-110490000D01*
X138811000Y-107950000D02*
X139065000Y-107950000D01*
X136779000Y-107950000D02*
X138811000Y-107950000D01*
X142367000Y-110236000D02*
X142367000Y-108204000D01*
X141351000Y-108204000D02*
X141986000Y-108204000D01*
X141351000Y-107950000D02*
X141351000Y-108204000D01*
X141986000Y-108204000D02*
X141986000Y-110236000D01*
X142367000Y-108204000D02*
X143002000Y-108204000D01*
X143002000Y-108204000D02*
X143002000Y-107950000D01*
X143002000Y-107950000D02*
X141351000Y-107950000D01*
X143002000Y-110236000D02*
X142367000Y-110236000D01*
X142875000Y-110490000D02*
X143002000Y-110490000D01*
X141986000Y-110236000D02*
X141351000Y-110236000D01*
X143002000Y-110490000D02*
X143002000Y-110236000D01*
X141351000Y-110236000D02*
X141351000Y-110490000D01*
X141351000Y-110490000D02*
X142875000Y-110490000D01*
X136196605Y-109220000D02*
G75*
G03X136196605Y-109220000I-179605J0D01*
G01*
X136196605Y-110236000D02*
G75*
G03X136196605Y-110236000I-179605J0D01*
G01*
X135001000Y-110236000D02*
X134112000Y-110236000D01*
X134239000Y-111760000D02*
X135255000Y-111760000D01*
X135001000Y-109220000D02*
X135001000Y-110236000D01*
X135255000Y-109220000D02*
X135001000Y-109220000D01*
X135255000Y-111760000D02*
X135255000Y-109220000D01*
X134239000Y-111379000D02*
X134239000Y-111760000D01*
X133858000Y-109220000D02*
X134112000Y-109220000D01*
X134112000Y-110236000D02*
X134112000Y-109220000D01*
X134874000Y-111379000D02*
X134239000Y-111379000D01*
X133858000Y-110490000D02*
X134874000Y-110490000D01*
X133858000Y-109220000D02*
X133858000Y-110490000D01*
X134874000Y-110490000D02*
X134874000Y-111379000D01*
X132080000Y-107950000D02*
X132461000Y-107950000D01*
X133350000Y-109220000D02*
X132461000Y-109220000D01*
X133350000Y-110490000D02*
X133350000Y-109220000D01*
X132461000Y-109220000D02*
X132461000Y-107950000D01*
X132080000Y-107950000D02*
X132080000Y-110490000D01*
X132080000Y-110490000D02*
X133350000Y-110490000D01*
X146050000Y-105029000D02*
X146050000Y-104902000D01*
X147701000Y-106680000D02*
X146050000Y-105029000D01*
X148082000Y-106426000D02*
X146558000Y-104902000D01*
X150114000Y-106807000D02*
X150114000Y-107061000D01*
X148463000Y-107061000D02*
X150114000Y-107061000D01*
X150114000Y-106807000D02*
X148844000Y-106807000D01*
X150114000Y-104521000D02*
X148463000Y-104521000D01*
X148844000Y-104775000D02*
X150114000Y-104775000D01*
X152019000Y-104521000D02*
X150495000Y-104521000D01*
X150495000Y-104521000D02*
X150495000Y-107061000D01*
X150749000Y-107061000D02*
X150749000Y-105791000D01*
X150495000Y-107061000D02*
X150749000Y-107061000D01*
X150749000Y-105791000D02*
X152019000Y-107061000D01*
X148463000Y-104521000D02*
X148463000Y-107061000D01*
X148844000Y-104775000D02*
X148844000Y-105664000D01*
X148844000Y-105918000D02*
X148844000Y-106807000D01*
X148844000Y-105664000D02*
X149860000Y-105664000D01*
X149860000Y-105918000D02*
X148844000Y-105918000D01*
X149860000Y-105664000D02*
X149860000Y-105918000D01*
X150114000Y-104775000D02*
X150114000Y-104521000D01*
X152019000Y-107061000D02*
X152146000Y-106934000D01*
X151384000Y-105791000D02*
X152019000Y-105791000D01*
X152273000Y-106807000D02*
X151384000Y-105791000D01*
X152146000Y-106934000D02*
X152273000Y-106807000D01*
X152019000Y-105791000D02*
X152019000Y-104521000D01*
X146050000Y-104521000D02*
X146050000Y-104648000D01*
X146050000Y-106680000D02*
X146050000Y-107061000D01*
X147701000Y-106680000D02*
X146050000Y-106680000D01*
X146050000Y-104648000D02*
X146050000Y-104902000D01*
X148082000Y-104902000D02*
X148082000Y-104521000D01*
X146558000Y-104902000D02*
X148082000Y-104902000D01*
X148082000Y-104521000D02*
X146050000Y-104521000D01*
X148082000Y-107061000D02*
X148082000Y-106426000D01*
X146050000Y-107061000D02*
X148082000Y-107061000D01*
X144653000Y-104775000D02*
X144653000Y-106807000D01*
X144018000Y-106807000D02*
X144018000Y-107061000D01*
X144653000Y-106807000D02*
X144018000Y-106807000D01*
X144018000Y-104775000D02*
X144653000Y-104775000D01*
X144018000Y-104521000D02*
X144018000Y-104775000D01*
X145669000Y-104521000D02*
X144018000Y-104521000D01*
X145669000Y-104775000D02*
X145669000Y-104521000D01*
X145542000Y-107061000D02*
X145669000Y-107061000D01*
X145034000Y-104775000D02*
X145669000Y-104775000D01*
X145034000Y-106807000D02*
X145034000Y-104775000D01*
X145669000Y-106807000D02*
X145034000Y-106807000D01*
X145669000Y-107061000D02*
X145669000Y-106807000D01*
X144018000Y-107061000D02*
X145542000Y-107061000D01*
X142494000Y-104521000D02*
X142240000Y-104521000D01*
X142494000Y-106807000D02*
X142494000Y-104521000D01*
X143637000Y-106807000D02*
X142494000Y-106807000D01*
X143637000Y-107061000D02*
X143637000Y-106807000D01*
X142240000Y-107061000D02*
X143637000Y-107061000D01*
X142240000Y-104521000D02*
X142240000Y-107061000D01*
X141859000Y-106807000D02*
X140589000Y-106807000D01*
X141605000Y-105664000D02*
X141605000Y-105918000D01*
X140208000Y-107061000D02*
X141859000Y-107061000D01*
X141859000Y-106807000D02*
X141859000Y-107061000D01*
X140589000Y-105918000D02*
X140589000Y-106807000D01*
X140589000Y-105664000D02*
X141605000Y-105664000D01*
X141605000Y-105918000D02*
X140589000Y-105918000D01*
X140589000Y-104775000D02*
X141859000Y-104775000D01*
X141859000Y-104521000D02*
X140208000Y-104521000D01*
X140208000Y-104521000D02*
X140208000Y-107061000D01*
X141859000Y-104775000D02*
X141859000Y-104521000D01*
X140589000Y-104775000D02*
X140589000Y-105664000D01*
X138049000Y-104521000D02*
X138303000Y-104521000D01*
X138303000Y-107061000D02*
X138303000Y-104775000D01*
X139446000Y-107061000D02*
X139827000Y-107061000D01*
X138303000Y-104775000D02*
X139446000Y-107061000D01*
X139827000Y-107061000D02*
X139827000Y-104521000D01*
X138049000Y-107061000D02*
X138303000Y-107061000D01*
X138049000Y-107061000D02*
X138049000Y-104521000D01*
X139827000Y-104521000D02*
X139573000Y-104521000D01*
X138430000Y-104521000D02*
X138303000Y-104521000D01*
X139573000Y-106680000D02*
X138430000Y-104521000D01*
X139573000Y-104521000D02*
X139573000Y-106680000D01*
X137668000Y-104521000D02*
X136271000Y-104521000D01*
X137668000Y-107061000D02*
X137668000Y-104521000D01*
X137541000Y-107061000D02*
X137668000Y-107061000D01*
X137414000Y-107061000D02*
X137541000Y-107061000D01*
X137414000Y-105918000D02*
X137414000Y-107061000D01*
X137287000Y-105918000D02*
X137414000Y-105918000D01*
X136525000Y-105918000D02*
X137287000Y-105918000D01*
X136525000Y-107061000D02*
X136525000Y-105918000D01*
X136271000Y-107061000D02*
X136525000Y-107061000D01*
X136271000Y-104521000D02*
X136271000Y-107061000D01*
X135890000Y-104521000D02*
X134366000Y-104521000D01*
X135890000Y-105791000D02*
X135890000Y-104521000D01*
X134747000Y-105791000D02*
X135890000Y-105791000D01*
X134747000Y-107061000D02*
X134747000Y-105791000D01*
X134366000Y-107061000D02*
X134747000Y-107061000D01*
X134366000Y-104521000D02*
X134366000Y-107061000D01*
X140208000Y-104013000D02*
X141859000Y-104013000D01*
X140589000Y-102870000D02*
X140589000Y-103759000D01*
X141605000Y-102616000D02*
X141605000Y-102870000D01*
X141859000Y-103759000D02*
X140589000Y-103759000D01*
X141859000Y-103759000D02*
X141859000Y-104013000D01*
X141605000Y-102870000D02*
X140589000Y-102870000D01*
X140589000Y-102616000D02*
X141605000Y-102616000D01*
X140589000Y-101727000D02*
X140589000Y-102616000D01*
X141859000Y-101473000D02*
X140208000Y-101473000D01*
X141859000Y-101727000D02*
X141859000Y-101473000D01*
X140589000Y-101727000D02*
X141859000Y-101727000D01*
X140208000Y-101473000D02*
X140208000Y-104013000D01*
X144018000Y-103759000D02*
X143129000Y-102743000D01*
X143891000Y-103886000D02*
X144018000Y-103759000D01*
X143764000Y-102743000D02*
X143764000Y-101473000D01*
X142240000Y-101473000D02*
X142240000Y-104013000D01*
X143764000Y-101473000D02*
X142240000Y-101473000D01*
X142494000Y-104013000D02*
X142494000Y-102743000D01*
X142494000Y-102743000D02*
X143764000Y-104013000D01*
X142240000Y-104013000D02*
X142494000Y-104013000D01*
X143129000Y-102743000D02*
X143764000Y-102743000D01*
X143764000Y-104013000D02*
X143891000Y-103886000D01*
X138557000Y-104013000D02*
X139827000Y-104013000D01*
X138557000Y-101473000D02*
X138938000Y-101473000D01*
X138938000Y-102743000D02*
X138938000Y-101473000D01*
X139827000Y-102743000D02*
X138938000Y-102743000D01*
X139827000Y-104013000D02*
X139827000Y-102743000D01*
X138557000Y-101473000D02*
X138557000Y-104013000D01*
X138176000Y-103759000D02*
X137287000Y-102743000D01*
X138049000Y-103886000D02*
X138176000Y-103759000D01*
X137922000Y-104013000D02*
X138049000Y-103886000D01*
X137922000Y-101473000D02*
X136398000Y-101473000D01*
X137922000Y-102743000D02*
X137922000Y-101473000D01*
X137287000Y-102743000D02*
X137922000Y-102743000D01*
X136652000Y-102743000D02*
X137922000Y-104013000D01*
X136652000Y-104013000D02*
X136652000Y-102743000D01*
X136398000Y-104013000D02*
X136652000Y-104013000D01*
X136398000Y-101473000D02*
X136398000Y-104013000D01*
X135763000Y-102870000D02*
X134747000Y-102870000D01*
X135763000Y-102616000D02*
X135763000Y-102870000D01*
X134747000Y-102616000D02*
X135763000Y-102616000D01*
X134747000Y-102870000D02*
X134747000Y-103759000D01*
X134747000Y-101727000D02*
X134747000Y-102616000D01*
X136017000Y-103759000D02*
X136017000Y-104013000D01*
X134366000Y-101473000D02*
X134366000Y-104013000D01*
X136017000Y-101473000D02*
X134366000Y-101473000D01*
X136017000Y-101727000D02*
X136017000Y-101473000D01*
X134747000Y-101727000D02*
X136017000Y-101727000D01*
X136017000Y-103759000D02*
X134747000Y-103759000D01*
X134366000Y-104013000D02*
X136017000Y-104013000D01*
X133985000Y-101473000D02*
X132334000Y-101473000D01*
X133985000Y-101854000D02*
X133985000Y-101473000D01*
X132715000Y-101854000D02*
X133985000Y-101854000D01*
X132715000Y-103632000D02*
X132715000Y-101854000D01*
X132334000Y-101473000D02*
X132334000Y-104013000D01*
X133604000Y-103632000D02*
X132715000Y-103632000D01*
X132969000Y-102743000D02*
X132969000Y-103124000D01*
X133604000Y-103124000D02*
X133604000Y-103632000D01*
X132969000Y-103124000D02*
X133604000Y-103124000D01*
X133985000Y-102743000D02*
X132969000Y-102743000D01*
X133985000Y-104013000D02*
X133985000Y-102743000D01*
X132334000Y-104013000D02*
X133985000Y-104013000D01*
X141149605Y-99568000D02*
G75*
G03X141149605Y-99568000I-179605J0D01*
G01*
X141149605Y-98552000D02*
G75*
G03X141149605Y-98552000I-179605J0D01*
G01*
X140208000Y-97790000D02*
X138557000Y-97790000D01*
X140208000Y-98171000D02*
X140208000Y-97790000D01*
X138938000Y-98171000D02*
X140208000Y-98171000D01*
X138938000Y-99949000D02*
X138938000Y-98171000D01*
X139827000Y-99949000D02*
X138938000Y-99949000D01*
X139827000Y-99441000D02*
X139827000Y-99949000D01*
X139192000Y-99441000D02*
X139827000Y-99441000D01*
X139192000Y-99060000D02*
X139192000Y-99441000D01*
X140208000Y-99060000D02*
X139192000Y-99060000D01*
X140208000Y-100330000D02*
X140208000Y-99060000D01*
X138557000Y-100330000D02*
X140208000Y-100330000D01*
X138557000Y-97790000D02*
X138557000Y-100330000D01*
X136779000Y-97790000D02*
X136652000Y-97790000D01*
X137922000Y-99949000D02*
X136779000Y-97790000D01*
X137922000Y-97790000D02*
X137922000Y-99949000D01*
X138176000Y-97790000D02*
X137922000Y-97790000D01*
X138176000Y-100330000D02*
X138176000Y-97790000D01*
X137795000Y-100330000D02*
X138176000Y-100330000D01*
X136652000Y-98044000D02*
X137795000Y-100330000D01*
X136652000Y-100330000D02*
X136652000Y-98044000D01*
X136398000Y-100330000D02*
X136652000Y-100330000D01*
X136398000Y-97790000D02*
X136652000Y-97790000D01*
X136398000Y-100330000D02*
X136398000Y-97790000D01*
X136017000Y-97790000D02*
X134366000Y-97790000D01*
X136017000Y-98044000D02*
X136017000Y-97790000D01*
X135382000Y-98044000D02*
X136017000Y-98044000D01*
X135382000Y-100076000D02*
X135382000Y-98044000D01*
X136017000Y-100076000D02*
X135382000Y-100076000D01*
X136017000Y-100330000D02*
X136017000Y-100076000D01*
X135890000Y-100330000D02*
X136017000Y-100330000D01*
X134366000Y-100330000D02*
X135890000Y-100330000D01*
X134366000Y-100076000D02*
X134366000Y-100330000D01*
X135001000Y-100076000D02*
X134366000Y-100076000D01*
X135001000Y-98044000D02*
X135001000Y-100076000D01*
X134366000Y-98044000D02*
X135001000Y-98044000D01*
X134366000Y-97790000D02*
X134366000Y-98044000D01*
X133985000Y-97790000D02*
X132715000Y-97790000D01*
X133985000Y-98044000D02*
X133985000Y-97790000D01*
X132969000Y-98044000D02*
X133985000Y-98044000D01*
X132969000Y-98933000D02*
X132969000Y-98044000D01*
X133985000Y-98933000D02*
X132969000Y-98933000D01*
X133985000Y-100330000D02*
X133985000Y-98933000D01*
X132715000Y-100330000D02*
X133985000Y-100330000D01*
X132715000Y-100076000D02*
X132715000Y-100330000D01*
X133731000Y-100076000D02*
X132715000Y-100076000D01*
X133731000Y-99187000D02*
X133731000Y-100076000D01*
X132715000Y-99187000D02*
X133731000Y-99187000D01*
X132715000Y-97790000D02*
X132715000Y-99187000D01*
X131064000Y-97790000D02*
X130810000Y-97790000D01*
X131064000Y-100076000D02*
X131064000Y-97790000D01*
X132080000Y-100076000D02*
X131064000Y-100076000D01*
X132080000Y-97790000D02*
X132080000Y-100076000D01*
X132334000Y-97790000D02*
X132080000Y-97790000D01*
X132334000Y-100330000D02*
X132334000Y-97790000D01*
X132207000Y-100330000D02*
X132334000Y-100330000D01*
X130810000Y-100330000D02*
X132207000Y-100330000D01*
X130810000Y-97790000D02*
X130810000Y-100330000D01*
X144653000Y-92710000D02*
X144526000Y-92710000D01*
X145796000Y-94869000D02*
X144653000Y-92710000D01*
X145796000Y-92710000D02*
X145796000Y-94869000D01*
X146050000Y-92710000D02*
X145796000Y-92710000D01*
X146050000Y-95250000D02*
X146050000Y-92710000D01*
X145669000Y-95250000D02*
X146050000Y-95250000D01*
X144526000Y-92964000D02*
X145669000Y-95250000D01*
X144526000Y-95250000D02*
X144526000Y-92964000D01*
X144272000Y-95250000D02*
X144526000Y-95250000D01*
X144272000Y-92710000D02*
X144526000Y-92710000D01*
X144272000Y-95250000D02*
X144272000Y-92710000D01*
X143918882Y-93980000D02*
G75*
G03X143918882Y-93980000I-1170882J0D01*
G01*
X140970000Y-92710000D02*
X139446000Y-92710000D01*
X140970000Y-93980000D02*
X140970000Y-92710000D01*
X140335000Y-93980000D02*
X140970000Y-93980000D01*
X141224000Y-94996000D02*
X140335000Y-93980000D01*
X141097000Y-95123000D02*
X141224000Y-94996000D01*
X140970000Y-95250000D02*
X141097000Y-95123000D01*
X139700000Y-93980000D02*
X140970000Y-95250000D01*
X139700000Y-95250000D02*
X139700000Y-93980000D01*
X139446000Y-95250000D02*
X139700000Y-95250000D01*
X139446000Y-92710000D02*
X139446000Y-95250000D01*
X137922000Y-95250000D02*
X137668000Y-95250000D01*
X137922000Y-94107000D02*
X137922000Y-95250000D01*
X138811000Y-94107000D02*
X137922000Y-94107000D01*
X138811000Y-95250000D02*
X138811000Y-94107000D01*
X139065000Y-95250000D02*
X138811000Y-95250000D01*
X139065000Y-92710000D02*
X139065000Y-95250000D01*
X137668000Y-92710000D02*
X139065000Y-92710000D01*
X137668000Y-95250000D02*
X137668000Y-92710000D01*
X137287000Y-92710000D02*
X135890000Y-92710000D01*
X137287000Y-95250000D02*
X137287000Y-92710000D01*
X137160000Y-95250000D02*
X137287000Y-95250000D01*
X137033000Y-95250000D02*
X137160000Y-95250000D01*
X137033000Y-94107000D02*
X137033000Y-95250000D01*
X136906000Y-94107000D02*
X137033000Y-94107000D01*
X136144000Y-94107000D02*
X136906000Y-94107000D01*
X136144000Y-95250000D02*
X136144000Y-94107000D01*
X135890000Y-95250000D02*
X136144000Y-95250000D01*
X135890000Y-92710000D02*
X135890000Y-95250000D01*
X134926605Y-94996000D02*
G75*
G03X134926605Y-94996000I-179605J0D01*
G01*
X134926605Y-93980000D02*
G75*
G03X134926605Y-93980000I-179605J0D01*
G01*
X132588000Y-93980000D02*
X132842000Y-93980000D01*
X132842000Y-94996000D02*
X132842000Y-93980000D01*
X133731000Y-94996000D02*
X132842000Y-94996000D01*
X133731000Y-93980000D02*
X133731000Y-94996000D01*
X133985000Y-93980000D02*
X133731000Y-93980000D01*
X133985000Y-96520000D02*
X133985000Y-93980000D01*
X132969000Y-96520000D02*
X133985000Y-96520000D01*
X132969000Y-96139000D02*
X132969000Y-96520000D01*
X133604000Y-96139000D02*
X132969000Y-96139000D01*
X133604000Y-95250000D02*
X133604000Y-96139000D01*
X132588000Y-95250000D02*
X133604000Y-95250000D01*
X132588000Y-93980000D02*
X132588000Y-95250000D01*
X130810000Y-92710000D02*
X131191000Y-92710000D01*
X131191000Y-93980000D02*
X131191000Y-92710000D01*
X132080000Y-93980000D02*
X131191000Y-93980000D01*
X132080000Y-95250000D02*
X132080000Y-93980000D01*
X130810000Y-95250000D02*
X132080000Y-95250000D01*
X130810000Y-92710000D02*
X130810000Y-95250000D01*
X128270000Y-91440000D02*
X128270000Y-121412000D01*
X158242000Y-121412000D02*
X128270000Y-121412000D01*
X158242000Y-91440000D02*
X158242000Y-121412000D01*
X128270000Y-91440000D02*
X158242000Y-91440000D01*
M02*
