G04 #@! TF.FileFunction,Soldermask,Top*
%FSLAX46Y46*%
G04 Gerber Fmt 4.6, Leading zero omitted, Abs format (unit mm)*
G04 Created by KiCad (PCBNEW 4.0.7-e2-6376~58~ubuntu16.04.1) date Sat Jan 13 09:47:37 2018*
%MOMM*%
%LPD*%
G01*
G04 APERTURE LIST*
%ADD10C,0.100000*%
%ADD11R,3.400000X1.400000*%
G04 APERTURE END LIST*
D10*
D11*
X140930000Y-78105000D03*
X135890000Y-78105000D03*
X140930000Y-80645000D03*
X135890000Y-80645000D03*
X140930000Y-83185000D03*
X135890000Y-83185000D03*
X140930000Y-85725000D03*
X135890000Y-85725000D03*
X140930000Y-88265000D03*
X135890000Y-88265000D03*
X140930000Y-90805000D03*
X135890000Y-90805000D03*
X140930000Y-93345000D03*
X135890000Y-93345000D03*
X140930000Y-95885000D03*
X135890000Y-95885000D03*
X140930000Y-98425000D03*
X135890000Y-98425000D03*
X140930000Y-100965000D03*
X135890000Y-100965000D03*
X140930000Y-103505000D03*
X135890000Y-103505000D03*
X140930000Y-106045000D03*
X135890000Y-106045000D03*
X140930000Y-108585000D03*
X135890000Y-108585000D03*
X140930000Y-111125000D03*
X135890000Y-111125000D03*
X140930000Y-113665000D03*
X135890000Y-113665000D03*
X140930000Y-116205000D03*
X135890000Y-116205000D03*
X140930000Y-118745000D03*
X135890000Y-118745000D03*
X140930000Y-121285000D03*
X135890000Y-121285000D03*
X140930000Y-123825000D03*
X135890000Y-123825000D03*
X140930000Y-126365000D03*
X135890000Y-126365000D03*
X140930000Y-128905000D03*
X135890000Y-128905000D03*
X140930000Y-131445000D03*
X135890000Y-131445000D03*
X140930000Y-133985000D03*
X135890000Y-133985000D03*
M02*
