G04 #@! TF.FileFunction,Copper,L2,Bot,Signal*
%FSLAX46Y46*%
G04 Gerber Fmt 4.6, Leading zero omitted, Abs format (unit mm)*
G04 Created by KiCad (PCBNEW 4.0.7-e2-6376~58~ubuntu16.04.1) date Sat Jan 13 09:44:16 2018*
%MOMM*%
%LPD*%
G01*
G04 APERTURE LIST*
%ADD10C,0.100000*%
%ADD11R,2.510000X1.000000*%
%ADD12C,0.850000*%
%ADD13C,0.250000*%
G04 APERTURE END LIST*
D10*
D11*
X146185000Y-96139000D03*
X146185000Y-101219000D03*
X146185000Y-106299000D03*
X146185000Y-111379000D03*
X146185000Y-116459000D03*
X142875000Y-93599000D03*
X142875000Y-98679000D03*
X142875000Y-103759000D03*
X142875000Y-108839000D03*
X142875000Y-113919000D03*
X153797000Y-96139000D03*
X153797000Y-101219000D03*
X153797000Y-106299000D03*
X153797000Y-111379000D03*
X153797000Y-116459000D03*
X150487000Y-93599000D03*
X150487000Y-98679000D03*
X150487000Y-103759000D03*
X150487000Y-108839000D03*
X150487000Y-113919000D03*
D12*
X147765300Y-97211900D03*
X147696300Y-100091300D03*
X147765300Y-107381800D03*
X147765300Y-112451900D03*
X147696300Y-117584300D03*
X144237400Y-91957000D03*
X143895700Y-97528100D03*
X143895700Y-104909800D03*
X143895700Y-109966100D03*
X143895700Y-112768100D03*
X148906700Y-92533700D03*
X152746300Y-97289900D03*
X151443000Y-97535300D03*
X152746300Y-100068100D03*
X148906700Y-104850400D03*
X152746300Y-105148100D03*
X148906700Y-109928800D03*
X152746300Y-112529900D03*
X148906700Y-112827600D03*
X152356200Y-117847000D03*
D13*
X146185000Y-96139000D02*
X147765300Y-96139000D01*
X147765300Y-96139000D02*
X147765300Y-97211900D01*
X147765300Y-100160300D02*
X147696300Y-100091300D01*
X147765300Y-101219000D02*
X147765300Y-100160300D01*
X146185000Y-101219000D02*
X147765300Y-101219000D01*
X146185000Y-106299000D02*
X147765300Y-106299000D01*
X147765300Y-106299000D02*
X147765300Y-107381800D01*
X146185000Y-111379000D02*
X147765300Y-111379000D01*
X147765300Y-111379000D02*
X147765300Y-112451900D01*
X147765300Y-117515300D02*
X147696300Y-117584300D01*
X147765300Y-116459000D02*
X147765300Y-117515300D01*
X146185000Y-116459000D02*
X147765300Y-116459000D01*
X144455300Y-92174900D02*
X144455300Y-93599000D01*
X144237400Y-91957000D02*
X144455300Y-92174900D01*
X142875000Y-93599000D02*
X144455300Y-93599000D01*
X142875000Y-98679000D02*
X144455300Y-98679000D01*
X144025900Y-97528100D02*
X143895700Y-97528100D01*
X144455300Y-97957500D02*
X144025900Y-97528100D01*
X144455300Y-98679000D02*
X144455300Y-97957500D01*
X142875000Y-103759000D02*
X144455300Y-103759000D01*
X144002800Y-104909800D02*
X143895700Y-104909800D01*
X144455300Y-104457300D02*
X144002800Y-104909800D01*
X144455300Y-103759000D02*
X144455300Y-104457300D01*
X142875000Y-108839000D02*
X144455300Y-108839000D01*
X144002100Y-109966100D02*
X143895700Y-109966100D01*
X144455300Y-109512900D02*
X144002100Y-109966100D01*
X144455300Y-108839000D02*
X144455300Y-109512900D01*
X142875000Y-113919000D02*
X144455300Y-113919000D01*
X144025900Y-112768100D02*
X143895700Y-112768100D01*
X144455300Y-113197500D02*
X144025900Y-112768100D01*
X144455300Y-113919000D02*
X144455300Y-113197500D01*
X150487000Y-93599000D02*
X148906700Y-93599000D01*
X148906700Y-93599000D02*
X148906700Y-92533700D01*
X153797000Y-96139000D02*
X152216700Y-96139000D01*
X152646100Y-97289900D02*
X152746300Y-97289900D01*
X152216700Y-96860500D02*
X152646100Y-97289900D01*
X152216700Y-96139000D02*
X152216700Y-96860500D01*
X150487000Y-98679000D02*
X152067300Y-98679000D01*
X151645800Y-97535300D02*
X151443000Y-97535300D01*
X152067300Y-97956800D02*
X151645800Y-97535300D01*
X152067300Y-98679000D02*
X152067300Y-97956800D01*
X153797000Y-101219000D02*
X152216700Y-101219000D01*
X152646100Y-100068100D02*
X152746300Y-100068100D01*
X152216700Y-100497500D02*
X152646100Y-100068100D01*
X152216700Y-101219000D02*
X152216700Y-100497500D01*
X150487000Y-103759000D02*
X148906700Y-103759000D01*
X148906700Y-103759000D02*
X148906700Y-104850400D01*
X153797000Y-106299000D02*
X152216700Y-106299000D01*
X152646100Y-105148100D02*
X152746300Y-105148100D01*
X152216700Y-105577500D02*
X152646100Y-105148100D01*
X152216700Y-106299000D02*
X152216700Y-105577500D01*
X150487000Y-108839000D02*
X148906700Y-108839000D01*
X148906700Y-108839000D02*
X148906700Y-109928800D01*
X153797000Y-111379000D02*
X152216700Y-111379000D01*
X152646100Y-112529900D02*
X152746300Y-112529900D01*
X152216700Y-112100500D02*
X152646100Y-112529900D01*
X152216700Y-111379000D02*
X152216700Y-112100500D01*
X150487000Y-113919000D02*
X148906700Y-113919000D01*
X148906700Y-113919000D02*
X148906700Y-112827600D01*
X152216700Y-117707500D02*
X152216700Y-116459000D01*
X152356200Y-117847000D02*
X152216700Y-117707500D01*
X153797000Y-116459000D02*
X152216700Y-116459000D01*
M02*
