M48
INCH,TZ
T1C0.018
%
G90
G05
T1
X56652Y-38397
X56652Y-41303
X56652Y-43294
X56652Y-44397
X56786Y-36204
X58148Y-39406
X58148Y-46293
X58175Y-38272
X58175Y-42276
X58175Y-44272
X58625Y-36431
X58625Y-41280
X58625Y-43279
X58625Y-44420
X59623Y-38400
X59983Y-46396
X60136Y-38303
X60136Y-39397
X60136Y-41397
X60136Y-44303
T0
M30
