G04 #@! TF.FileFunction,Legend,Top*
%FSLAX46Y46*%
G04 Gerber Fmt 4.6, Leading zero omitted, Abs format (unit mm)*
G04 Created by KiCad (PCBNEW 4.0.7-e2-6376~58~ubuntu16.04.1) date Sat Jan 13 09:44:16 2018*
%MOMM*%
%LPD*%
G01*
G04 APERTURE LIST*
%ADD10C,0.100000*%
%ADD11C,0.120000*%
%ADD12C,0.150000*%
G04 APERTURE END LIST*
D10*
D11*
X145721000Y-92269000D02*
X150921000Y-92269000D01*
X145721000Y-117789000D02*
X150921000Y-117789000D01*
X144281000Y-92839000D02*
X145721000Y-92839000D01*
X145721000Y-92269000D02*
X145721000Y-92839000D01*
X150921000Y-92269000D02*
X150921000Y-92839000D01*
X145721000Y-117219000D02*
X145721000Y-117789000D01*
X150921000Y-117219000D02*
X150921000Y-117789000D01*
X145721000Y-94359000D02*
X145721000Y-95379000D01*
X150921000Y-94359000D02*
X150921000Y-95379000D01*
X145721000Y-96899000D02*
X145721000Y-97919000D01*
X150921000Y-96899000D02*
X150921000Y-97919000D01*
X145721000Y-99439000D02*
X145721000Y-100459000D01*
X150921000Y-99439000D02*
X150921000Y-100459000D01*
X145721000Y-101979000D02*
X145721000Y-102999000D01*
X150921000Y-101979000D02*
X150921000Y-102999000D01*
X145721000Y-104519000D02*
X145721000Y-105539000D01*
X150921000Y-104519000D02*
X150921000Y-105539000D01*
X145721000Y-107059000D02*
X145721000Y-108079000D01*
X150921000Y-107059000D02*
X150921000Y-108079000D01*
X145721000Y-109599000D02*
X145721000Y-110619000D01*
X150921000Y-109599000D02*
X150921000Y-110619000D01*
X145721000Y-112139000D02*
X145721000Y-113159000D01*
X150921000Y-112139000D02*
X150921000Y-113159000D01*
X145721000Y-114679000D02*
X145721000Y-115699000D01*
X150921000Y-114679000D02*
X150921000Y-115699000D01*
D12*
X147987667Y-90721381D02*
X147987667Y-91435667D01*
X147940047Y-91578524D01*
X147844809Y-91673762D01*
X147701952Y-91721381D01*
X147606714Y-91721381D01*
X148416238Y-90816619D02*
X148463857Y-90769000D01*
X148559095Y-90721381D01*
X148797191Y-90721381D01*
X148892429Y-90769000D01*
X148940048Y-90816619D01*
X148987667Y-90911857D01*
X148987667Y-91007095D01*
X148940048Y-91149952D01*
X148368619Y-91721381D01*
X148987667Y-91721381D01*
M02*
