G04 #@! TF.FileFunction,Copper,L1,Top,Signal*
%FSLAX46Y46*%
G04 Gerber Fmt 4.6, Leading zero omitted, Abs format (unit mm)*
G04 Created by KiCad (PCBNEW 4.0.7-e2-6376~58~ubuntu16.04.1) date Sat Jan 13 09:46:35 2018*
%MOMM*%
%LPD*%
G01*
G04 APERTURE LIST*
%ADD10C,0.100000*%
%ADD11R,3.000000X1.000000*%
%ADD12C,0.850000*%
%ADD13C,0.250000*%
G04 APERTURE END LIST*
D10*
D11*
X161290000Y-80874000D03*
X156250000Y-80874000D03*
X161290000Y-83414000D03*
X156250000Y-83414000D03*
X161290000Y-85954000D03*
X156250000Y-85954000D03*
X161290000Y-88494000D03*
X156250000Y-88494000D03*
X161290000Y-91034000D03*
X156250000Y-91034000D03*
X161290000Y-93574000D03*
X156250000Y-93574000D03*
X161290000Y-96114000D03*
X156250000Y-96114000D03*
X161290000Y-98654000D03*
X156250000Y-98654000D03*
X161290000Y-101194000D03*
X156250000Y-101194000D03*
X161290000Y-103734000D03*
X156250000Y-103734000D03*
X161290000Y-106274000D03*
X156250000Y-106274000D03*
X161290000Y-108814000D03*
X156250000Y-108814000D03*
X161290000Y-111354000D03*
X156250000Y-111354000D03*
X161290000Y-113894000D03*
X156250000Y-113894000D03*
X161290000Y-116434000D03*
X156250000Y-116434000D03*
X161290000Y-118974000D03*
X156250000Y-118974000D03*
X161290000Y-121514000D03*
X156250000Y-121514000D03*
X161290000Y-124054000D03*
X156250000Y-124054000D03*
X161290000Y-126594000D03*
X156250000Y-126594000D03*
X161290000Y-129134000D03*
X156250000Y-129134000D03*
D12*
X163115300Y-84565000D03*
X163115300Y-89645000D03*
X161077000Y-92304000D03*
X163204000Y-99803600D03*
X163115300Y-104885000D03*
X163115300Y-109965000D03*
X161210100Y-112757100D03*
X162901600Y-120103700D03*
X162995700Y-122909200D03*
X161077000Y-130534500D03*
X159887800Y-82002300D03*
X159464700Y-84891500D03*
X159464700Y-89971500D03*
X159464700Y-97178200D03*
X159464700Y-102255000D03*
X159464700Y-105211500D03*
X159464700Y-110291500D03*
X159464700Y-117498200D03*
X159464700Y-122576800D03*
X159464700Y-125531500D03*
X154424700Y-79726100D03*
X155875200Y-82279100D03*
X154424700Y-84803100D03*
X158075300Y-89640900D03*
X154424700Y-92184900D03*
X158075300Y-92447300D03*
X154424700Y-97247000D03*
X158075300Y-99785200D03*
X154899400Y-102375500D03*
X158075300Y-102602100D03*
X154424700Y-105123100D03*
X158075300Y-109960900D03*
X154424700Y-112504900D03*
X158075300Y-112767300D03*
X154424700Y-117567000D03*
X158075300Y-120105200D03*
X154424700Y-122640800D03*
X155910000Y-122926500D03*
X154424700Y-125443100D03*
X158075300Y-130265000D03*
D13*
X161290000Y-83414000D02*
X163115300Y-83414000D01*
X163115300Y-83414000D02*
X163115300Y-84565000D01*
X161290000Y-88494000D02*
X163115300Y-88494000D01*
X163115300Y-88494000D02*
X163115300Y-89645000D01*
X160099600Y-92304000D02*
X161077000Y-92304000D01*
X159464700Y-92938900D02*
X160099600Y-92304000D01*
X159464700Y-93574000D02*
X159464700Y-92938900D01*
X161290000Y-93574000D02*
X159464700Y-93574000D01*
X161290000Y-98654000D02*
X163115300Y-98654000D01*
X163115300Y-99714900D02*
X163204000Y-99803600D01*
X163115300Y-98654000D02*
X163115300Y-99714900D01*
X161290000Y-103734000D02*
X163115300Y-103734000D01*
X163115300Y-103734000D02*
X163115300Y-104885000D01*
X161290000Y-108814000D02*
X163115300Y-108814000D01*
X163115300Y-108814000D02*
X163115300Y-109965000D01*
X161210100Y-112757200D02*
X161210100Y-112757100D01*
X159940800Y-112757200D02*
X161210100Y-112757200D01*
X159464700Y-113233300D02*
X159940800Y-112757200D01*
X159464700Y-113894000D02*
X159464700Y-113233300D01*
X161290000Y-113894000D02*
X159464700Y-113894000D01*
X161290000Y-118974000D02*
X163115300Y-118974000D01*
X163115300Y-119890000D02*
X162901600Y-120103700D01*
X163115300Y-118974000D02*
X163115300Y-119890000D01*
X161290000Y-124054000D02*
X163115300Y-124054000D01*
X163115300Y-123028800D02*
X162995700Y-122909200D01*
X163115300Y-124054000D02*
X163115300Y-123028800D01*
X160164900Y-130534500D02*
X161077000Y-130534500D01*
X159464700Y-129834300D02*
X160164900Y-130534500D01*
X159464700Y-129134000D02*
X159464700Y-129834300D01*
X161290000Y-129134000D02*
X159464700Y-129134000D01*
X161290000Y-80874000D02*
X159464700Y-80874000D01*
X159464700Y-81579200D02*
X159887800Y-82002300D01*
X159464700Y-80874000D02*
X159464700Y-81579200D01*
X161290000Y-85954000D02*
X159464700Y-85954000D01*
X159464700Y-85954000D02*
X159464700Y-84891500D01*
X161290000Y-91034000D02*
X159464700Y-91034000D01*
X159464700Y-91034000D02*
X159464700Y-89971500D01*
X161290000Y-96114000D02*
X159464700Y-96114000D01*
X159464700Y-96114000D02*
X159464700Y-97178200D01*
X161290000Y-101194000D02*
X159464700Y-101194000D01*
X159464700Y-101194000D02*
X159464700Y-102255000D01*
X161290000Y-106274000D02*
X159464700Y-106274000D01*
X159464700Y-106274000D02*
X159464700Y-105211500D01*
X161290000Y-111354000D02*
X159464700Y-111354000D01*
X159464700Y-111354000D02*
X159464700Y-110291500D01*
X161290000Y-116434000D02*
X159464700Y-116434000D01*
X159464700Y-116434000D02*
X159464700Y-117498200D01*
X161290000Y-121514000D02*
X159464700Y-121514000D01*
X159464700Y-121514000D02*
X159464700Y-122576800D01*
X161290000Y-126594000D02*
X159464700Y-126594000D01*
X159464700Y-126594000D02*
X159464700Y-125531500D01*
X156250000Y-80874000D02*
X154424700Y-80874000D01*
X154424700Y-80874000D02*
X154424700Y-79726100D01*
X155875200Y-83039200D02*
X155875200Y-82279100D01*
X156250000Y-83414000D02*
X155875200Y-83039200D01*
X156250000Y-85954000D02*
X154424700Y-85954000D01*
X154424700Y-85954000D02*
X154424700Y-84803100D01*
X156250000Y-88494000D02*
X158075300Y-88494000D01*
X158075300Y-88494000D02*
X158075300Y-89640900D01*
X156250000Y-91034000D02*
X154424700Y-91034000D01*
X154424700Y-91034000D02*
X154424700Y-92184900D01*
X156250000Y-93574000D02*
X158075300Y-93574000D01*
X158075300Y-93574000D02*
X158075300Y-92447300D01*
X156250000Y-96114000D02*
X154424700Y-96114000D01*
X154424700Y-96114000D02*
X154424700Y-97247000D01*
X156250000Y-98654000D02*
X158075300Y-98654000D01*
X158075300Y-98654000D02*
X158075300Y-99785200D01*
X154424700Y-101900800D02*
X154899400Y-102375500D01*
X154424700Y-101194000D02*
X154424700Y-101900800D01*
X156250000Y-101194000D02*
X154424700Y-101194000D01*
X156250000Y-103734000D02*
X158075300Y-103734000D01*
X158075300Y-103734000D02*
X158075300Y-102602100D01*
X156250000Y-106274000D02*
X154424700Y-106274000D01*
X154424700Y-106274000D02*
X154424700Y-105123100D01*
X156250000Y-108814000D02*
X158075300Y-108814000D01*
X158075300Y-108814000D02*
X158075300Y-109960900D01*
X156250000Y-111354000D02*
X154424700Y-111354000D01*
X154424700Y-111354000D02*
X154424700Y-112504900D01*
X156250000Y-113894000D02*
X158075300Y-113894000D01*
X158075300Y-113894000D02*
X158075300Y-112767300D01*
X156250000Y-116434000D02*
X154424700Y-116434000D01*
X154424700Y-116434000D02*
X154424700Y-117567000D01*
X156250000Y-118974000D02*
X158075300Y-118974000D01*
X158075300Y-118974000D02*
X158075300Y-120105200D01*
X156250000Y-121514000D02*
X154424700Y-121514000D01*
X154424700Y-121514000D02*
X154424700Y-122640800D01*
X155910000Y-123714000D02*
X155910000Y-122926500D01*
X156250000Y-124054000D02*
X155910000Y-123714000D01*
X156250000Y-126594000D02*
X154424700Y-126594000D01*
X154424700Y-126594000D02*
X154424700Y-125443100D01*
X156250000Y-129134000D02*
X158075300Y-129134000D01*
X158075300Y-129134000D02*
X158075300Y-130265000D01*
M02*
