G04 #@! TF.FileFunction,Legend,Bot*
%FSLAX46Y46*%
G04 Gerber Fmt 4.6, Leading zero omitted, Abs format (unit mm)*
G04 Created by KiCad (PCBNEW 4.0.7-e2-6376~58~ubuntu16.04.1) date Sat Jan 13 09:46:35 2018*
%MOMM*%
%LPD*%
G01*
G04 APERTURE LIST*
%ADD10C,0.100000*%
%ADD11C,0.120000*%
%ADD12C,0.150000*%
G04 APERTURE END LIST*
D10*
D11*
X164140000Y-79544000D02*
X161480000Y-79544000D01*
X164140000Y-130464000D02*
X161480000Y-130464000D01*
X161480000Y-81634000D02*
X161480000Y-85194000D01*
X161480000Y-86714000D02*
X161480000Y-90274000D01*
X161480000Y-91794000D02*
X161480000Y-95354000D01*
X161480000Y-96874000D02*
X161480000Y-100434000D01*
X161480000Y-101954000D02*
X161480000Y-105514000D01*
X161480000Y-107034000D02*
X161480000Y-110594000D01*
X161480000Y-112114000D02*
X161480000Y-115674000D01*
X161480000Y-117194000D02*
X161480000Y-120754000D01*
X161480000Y-122274000D02*
X161480000Y-125834000D01*
X161480000Y-127354000D02*
X161480000Y-130464000D01*
X164140000Y-79544000D02*
X164140000Y-82654000D01*
X161480000Y-80114000D02*
X159960000Y-80114000D01*
X161480000Y-79544000D02*
X161480000Y-80114000D01*
X164140000Y-129894000D02*
X164140000Y-130464000D01*
X164140000Y-84174000D02*
X164140000Y-87734000D01*
X164140000Y-89254000D02*
X164140000Y-92814000D01*
X164140000Y-94334000D02*
X164140000Y-97894000D01*
X164140000Y-99414000D02*
X164140000Y-102974000D01*
X164140000Y-104494000D02*
X164140000Y-108054000D01*
X164140000Y-109574000D02*
X164140000Y-113134000D01*
X164140000Y-114654000D02*
X164140000Y-118214000D01*
X164140000Y-119734000D02*
X164140000Y-123294000D01*
X164140000Y-124814000D02*
X164140000Y-128374000D01*
X156655000Y-79544000D02*
X153995000Y-79544000D01*
X156655000Y-130464000D02*
X153995000Y-130464000D01*
X153995000Y-81634000D02*
X153995000Y-85194000D01*
X153995000Y-86714000D02*
X153995000Y-90274000D01*
X153995000Y-91794000D02*
X153995000Y-95354000D01*
X153995000Y-96874000D02*
X153995000Y-100434000D01*
X153995000Y-101954000D02*
X153995000Y-105514000D01*
X153995000Y-107034000D02*
X153995000Y-110594000D01*
X153995000Y-112114000D02*
X153995000Y-115674000D01*
X153995000Y-117194000D02*
X153995000Y-120754000D01*
X153995000Y-122274000D02*
X153995000Y-125834000D01*
X153995000Y-127354000D02*
X153995000Y-130464000D01*
X156655000Y-79544000D02*
X156655000Y-82654000D01*
X153995000Y-80114000D02*
X152475000Y-80114000D01*
X153995000Y-79544000D02*
X153995000Y-80114000D01*
X156655000Y-129894000D02*
X156655000Y-130464000D01*
X156655000Y-84174000D02*
X156655000Y-87734000D01*
X156655000Y-89254000D02*
X156655000Y-92814000D01*
X156655000Y-94334000D02*
X156655000Y-97894000D01*
X156655000Y-99414000D02*
X156655000Y-102974000D01*
X156655000Y-104494000D02*
X156655000Y-108054000D01*
X156655000Y-109574000D02*
X156655000Y-113134000D01*
X156655000Y-114654000D02*
X156655000Y-118214000D01*
X156655000Y-119734000D02*
X156655000Y-123294000D01*
X156655000Y-124814000D02*
X156655000Y-128374000D01*
D12*
X164163333Y-79462781D02*
X164163333Y-80177067D01*
X164210953Y-80319924D01*
X164306191Y-80415162D01*
X164449048Y-80462781D01*
X164544286Y-80462781D01*
X163163333Y-80462781D02*
X163734762Y-80462781D01*
X163449048Y-80462781D02*
X163449048Y-79462781D01*
X163544286Y-79605638D01*
X163639524Y-79700876D01*
X163734762Y-79748495D01*
X156543333Y-79462781D02*
X156543333Y-80177067D01*
X156590953Y-80319924D01*
X156686191Y-80415162D01*
X156829048Y-80462781D01*
X156924286Y-80462781D01*
X156162381Y-79462781D02*
X155543333Y-79462781D01*
X155876667Y-79843733D01*
X155733809Y-79843733D01*
X155638571Y-79891352D01*
X155590952Y-79938971D01*
X155543333Y-80034210D01*
X155543333Y-80272305D01*
X155590952Y-80367543D01*
X155638571Y-80415162D01*
X155733809Y-80462781D01*
X156019524Y-80462781D01*
X156114762Y-80415162D01*
X156162381Y-80367543D01*
M02*
