G04 #@! TF.FileFunction,Soldermask,Top*
%FSLAX46Y46*%
G04 Gerber Fmt 4.6, Leading zero omitted, Abs format (unit mm)*
G04 Created by KiCad (PCBNEW 4.0.7-e2-6376~58~ubuntu16.04.1) date Sat Jan 13 09:46:35 2018*
%MOMM*%
%LPD*%
G01*
G04 APERTURE LIST*
%ADD10C,0.100000*%
%ADD11R,3.400000X1.400000*%
G04 APERTURE END LIST*
D10*
D11*
X161290000Y-80874000D03*
X156250000Y-80874000D03*
X161290000Y-83414000D03*
X156250000Y-83414000D03*
X161290000Y-85954000D03*
X156250000Y-85954000D03*
X161290000Y-88494000D03*
X156250000Y-88494000D03*
X161290000Y-91034000D03*
X156250000Y-91034000D03*
X161290000Y-93574000D03*
X156250000Y-93574000D03*
X161290000Y-96114000D03*
X156250000Y-96114000D03*
X161290000Y-98654000D03*
X156250000Y-98654000D03*
X161290000Y-101194000D03*
X156250000Y-101194000D03*
X161290000Y-103734000D03*
X156250000Y-103734000D03*
X161290000Y-106274000D03*
X156250000Y-106274000D03*
X161290000Y-108814000D03*
X156250000Y-108814000D03*
X161290000Y-111354000D03*
X156250000Y-111354000D03*
X161290000Y-113894000D03*
X156250000Y-113894000D03*
X161290000Y-116434000D03*
X156250000Y-116434000D03*
X161290000Y-118974000D03*
X156250000Y-118974000D03*
X161290000Y-121514000D03*
X156250000Y-121514000D03*
X161290000Y-124054000D03*
X156250000Y-124054000D03*
X161290000Y-126594000D03*
X156250000Y-126594000D03*
X161290000Y-129134000D03*
X156250000Y-129134000D03*
M02*
