M48
INCH,TZ
T1C0.018
%
G90
G05
T1
X60797Y-31388
X60797Y-33387
X60797Y-36293
X60797Y-38286
X60797Y-41387
X60797Y-44293
X60797Y-46286
X60797Y-48284
X60797Y-49387
X60984Y-40305
X61368Y-32393
X61382Y-48396
X62234Y-35292
X62234Y-36397
X62234Y-39286
X62234Y-40395
X62234Y-43292
X62234Y-44397
X62234Y-47286
X62234Y-51285
X62781Y-33422
X62781Y-35422
X62781Y-38259
X62781Y-40258
X62781Y-41422
X62781Y-43422
X62781Y-46259
X62781Y-48259
X62781Y-49422
X62948Y-32284
X63416Y-36340
X63416Y-51392
X63469Y-44393
X64134Y-47285
X64172Y-48389
X64219Y-33293
X64219Y-35293
X64219Y-41293
X64219Y-43293
X64254Y-39293
T0
M30
