G04 #@! TF.GenerationSoftware,KiCad,Pcbnew,5.1.2-f72e74a~84~ubuntu18.04.1*
G04 #@! TF.CreationDate,2019-06-12T20:12:04-04:00*
G04 #@! TF.ProjectId,picoblade_01x06_2.54,7069636f-626c-4616-9465-5f3031783036,rev?*
G04 #@! TF.SameCoordinates,Original*
G04 #@! TF.FileFunction,Legend,Top*
G04 #@! TF.FilePolarity,Positive*
%FSLAX46Y46*%
G04 Gerber Fmt 4.6, Leading zero omitted, Abs format (unit mm)*
G04 Created by KiCad (PCBNEW 5.1.2-f72e74a~84~ubuntu18.04.1) date 2019-06-12 20:12:04*
%MOMM*%
%LPD*%
G04 APERTURE LIST*
%ADD10C,0.120000*%
%ADD11C,0.150000*%
G04 APERTURE END LIST*
D10*
X40760000Y-78990000D02*
X40460000Y-78990000D01*
X40460000Y-78990000D02*
X40460000Y-79490000D01*
X41050000Y-75615000D02*
X41050000Y-79280000D01*
X41050000Y-79280000D02*
X40750000Y-79280000D01*
X40750000Y-79280000D02*
X40750000Y-80350000D01*
X40750000Y-80350000D02*
X46470000Y-80350000D01*
X46470000Y-80350000D02*
X46470000Y-75615000D01*
X41050000Y-75615000D02*
X41050000Y-71950000D01*
X41050000Y-71950000D02*
X40750000Y-71950000D01*
X40750000Y-71950000D02*
X40750000Y-70880000D01*
X40750000Y-70880000D02*
X46470000Y-70880000D01*
X46470000Y-70880000D02*
X46470000Y-75615000D01*
X38715001Y-67964999D02*
X36055001Y-67964999D01*
X38715001Y-80724999D02*
X38715001Y-67964999D01*
X36055001Y-80724999D02*
X36055001Y-67964999D01*
X38715001Y-80724999D02*
X36055001Y-80724999D01*
X38715001Y-81994999D02*
X38715001Y-83324999D01*
X38715001Y-83324999D02*
X37385001Y-83324999D01*
D11*
X39412380Y-75953333D02*
X40126666Y-75953333D01*
X40269523Y-76000952D01*
X40364761Y-76096190D01*
X40412380Y-76239047D01*
X40412380Y-76334285D01*
X40412380Y-74953333D02*
X40412380Y-75524761D01*
X40412380Y-75239047D02*
X39412380Y-75239047D01*
X39555238Y-75334285D01*
X39650476Y-75429523D01*
X39698095Y-75524761D01*
X37051667Y-83777379D02*
X37051667Y-84491665D01*
X37004048Y-84634522D01*
X36908810Y-84729760D01*
X36765953Y-84777379D01*
X36670715Y-84777379D01*
X37480239Y-83872618D02*
X37527858Y-83824999D01*
X37623096Y-83777379D01*
X37861191Y-83777379D01*
X37956429Y-83824999D01*
X38004048Y-83872618D01*
X38051667Y-83967856D01*
X38051667Y-84063094D01*
X38004048Y-84205951D01*
X37432620Y-84777379D01*
X38051667Y-84777379D01*
M02*
