G04 #@! TF.GenerationSoftware,KiCad,Pcbnew,5.1.2-f72e74a~84~ubuntu18.04.1*
G04 #@! TF.CreationDate,2019-06-12T20:12:04-04:00*
G04 #@! TF.ProjectId,picoblade_01x06_2.54,7069636f-626c-4616-9465-5f3031783036,rev?*
G04 #@! TF.SameCoordinates,Original*
G04 #@! TF.FileFunction,Copper,L2,Bot*
G04 #@! TF.FilePolarity,Positive*
%FSLAX46Y46*%
G04 Gerber Fmt 4.6, Leading zero omitted, Abs format (unit mm)*
G04 Created by KiCad (PCBNEW 5.1.2-f72e74a~84~ubuntu18.04.1) date 2019-06-12 20:12:04*
%MOMM*%
%LPD*%
G04 APERTURE LIST*
%ADD10C,0.100000*%
%ADD11C,0.800000*%
%ADD12O,1.300000X0.800000*%
%ADD13R,1.700000X1.700000*%
%ADD14O,1.700000X1.700000*%
%ADD15C,0.250000*%
G04 APERTURE END LIST*
D10*
G36*
X42379603Y-78340963D02*
G01*
X42399018Y-78343843D01*
X42418057Y-78348612D01*
X42436537Y-78355224D01*
X42454279Y-78363616D01*
X42471114Y-78373706D01*
X42486879Y-78385398D01*
X42501421Y-78398579D01*
X42514602Y-78413121D01*
X42526294Y-78428886D01*
X42536384Y-78445721D01*
X42544776Y-78463463D01*
X42551388Y-78481943D01*
X42556157Y-78500982D01*
X42559037Y-78520397D01*
X42560000Y-78540000D01*
X42560000Y-78940000D01*
X42559037Y-78959603D01*
X42556157Y-78979018D01*
X42551388Y-78998057D01*
X42544776Y-79016537D01*
X42536384Y-79034279D01*
X42526294Y-79051114D01*
X42514602Y-79066879D01*
X42501421Y-79081421D01*
X42486879Y-79094602D01*
X42471114Y-79106294D01*
X42454279Y-79116384D01*
X42436537Y-79124776D01*
X42418057Y-79131388D01*
X42399018Y-79136157D01*
X42379603Y-79139037D01*
X42360000Y-79140000D01*
X41460000Y-79140000D01*
X41440397Y-79139037D01*
X41420982Y-79136157D01*
X41401943Y-79131388D01*
X41383463Y-79124776D01*
X41365721Y-79116384D01*
X41348886Y-79106294D01*
X41333121Y-79094602D01*
X41318579Y-79081421D01*
X41305398Y-79066879D01*
X41293706Y-79051114D01*
X41283616Y-79034279D01*
X41275224Y-79016537D01*
X41268612Y-78998057D01*
X41263843Y-78979018D01*
X41260963Y-78959603D01*
X41260000Y-78940000D01*
X41260000Y-78540000D01*
X41260963Y-78520397D01*
X41263843Y-78500982D01*
X41268612Y-78481943D01*
X41275224Y-78463463D01*
X41283616Y-78445721D01*
X41293706Y-78428886D01*
X41305398Y-78413121D01*
X41318579Y-78398579D01*
X41333121Y-78385398D01*
X41348886Y-78373706D01*
X41365721Y-78363616D01*
X41383463Y-78355224D01*
X41401943Y-78348612D01*
X41420982Y-78343843D01*
X41440397Y-78340963D01*
X41460000Y-78340000D01*
X42360000Y-78340000D01*
X42379603Y-78340963D01*
X42379603Y-78340963D01*
G37*
D11*
X41910000Y-78740000D03*
D12*
X41910000Y-77490000D03*
X41910000Y-76240000D03*
X41910000Y-74990000D03*
X41910000Y-73740000D03*
X41910000Y-72490000D03*
D13*
X37385001Y-81994999D03*
D14*
X37385001Y-79454999D03*
X37385001Y-76914999D03*
X37385001Y-74374999D03*
X37385001Y-71834999D03*
X37385001Y-69294999D03*
D15*
X37385001Y-79454999D02*
X39350000Y-77490000D01*
X41910000Y-77490000D02*
X39390000Y-77490000D01*
X37385001Y-76914999D02*
X38235000Y-76065000D01*
X38235000Y-76065000D02*
X41775000Y-76065000D01*
X37385001Y-74374999D02*
X38235000Y-75224998D01*
X38235000Y-75224998D02*
X41615002Y-75224998D01*
M02*
