G04 #@! TF.GenerationSoftware,KiCad,Pcbnew,5.1.2-f72e74a~84~ubuntu18.04.1*
G04 #@! TF.CreationDate,2019-06-12T20:12:04-04:00*
G04 #@! TF.ProjectId,picoblade_01x06_2.54,7069636f-626c-4616-9465-5f3031783036,rev?*
G04 #@! TF.SameCoordinates,Original*
G04 #@! TF.FileFunction,Soldermask,Bot*
G04 #@! TF.FilePolarity,Negative*
%FSLAX46Y46*%
G04 Gerber Fmt 4.6, Leading zero omitted, Abs format (unit mm)*
G04 Created by KiCad (PCBNEW 5.1.2-f72e74a~84~ubuntu18.04.1) date 2019-06-12 20:12:04*
%MOMM*%
%LPD*%
G04 APERTURE LIST*
%ADD10C,0.100000*%
G04 APERTURE END LIST*
D10*
G36*
X38286001Y-82895999D02*
G01*
X36484001Y-82895999D01*
X36484001Y-81093999D01*
X38286001Y-81093999D01*
X38286001Y-82895999D01*
X38286001Y-82895999D01*
G37*
G36*
X37495444Y-78560518D02*
G01*
X37561628Y-78567036D01*
X37731467Y-78618556D01*
X37887992Y-78702221D01*
X37923730Y-78731551D01*
X38025187Y-78814813D01*
X38108449Y-78916270D01*
X38137779Y-78952008D01*
X38221444Y-79108533D01*
X38272964Y-79278372D01*
X38290360Y-79454999D01*
X38272964Y-79631626D01*
X38221444Y-79801465D01*
X38137779Y-79957990D01*
X38108449Y-79993728D01*
X38025187Y-80095185D01*
X37923730Y-80178447D01*
X37887992Y-80207777D01*
X37731467Y-80291442D01*
X37561628Y-80342962D01*
X37495443Y-80349481D01*
X37429261Y-80355999D01*
X37340741Y-80355999D01*
X37274559Y-80349481D01*
X37208374Y-80342962D01*
X37038535Y-80291442D01*
X36882010Y-80207777D01*
X36846272Y-80178447D01*
X36744815Y-80095185D01*
X36661553Y-79993728D01*
X36632223Y-79957990D01*
X36548558Y-79801465D01*
X36497038Y-79631626D01*
X36479642Y-79454999D01*
X36497038Y-79278372D01*
X36548558Y-79108533D01*
X36632223Y-78952008D01*
X36661553Y-78916270D01*
X36744815Y-78814813D01*
X36846272Y-78731551D01*
X36882010Y-78702221D01*
X37038535Y-78618556D01*
X37208374Y-78567036D01*
X37274558Y-78560518D01*
X37340741Y-78553999D01*
X37429261Y-78553999D01*
X37495444Y-78560518D01*
X37495444Y-78560518D01*
G37*
G36*
X42479683Y-78292725D02*
G01*
X42510143Y-78301966D01*
X42538223Y-78316974D01*
X42562831Y-78337169D01*
X42583026Y-78361777D01*
X42598034Y-78389857D01*
X42607275Y-78420317D01*
X42611000Y-78458140D01*
X42611000Y-79021860D01*
X42607275Y-79059683D01*
X42598034Y-79090143D01*
X42583026Y-79118223D01*
X42562831Y-79142831D01*
X42538223Y-79163026D01*
X42510143Y-79178034D01*
X42479683Y-79187275D01*
X42441860Y-79191000D01*
X41378140Y-79191000D01*
X41340317Y-79187275D01*
X41309857Y-79178034D01*
X41281777Y-79163026D01*
X41257169Y-79142831D01*
X41236974Y-79118223D01*
X41221966Y-79090143D01*
X41212725Y-79059683D01*
X41209000Y-79021860D01*
X41209000Y-78458140D01*
X41212725Y-78420317D01*
X41221966Y-78389857D01*
X41236974Y-78361777D01*
X41257169Y-78337169D01*
X41281777Y-78316974D01*
X41309857Y-78301966D01*
X41340317Y-78292725D01*
X41378140Y-78289000D01*
X42441860Y-78289000D01*
X42479683Y-78292725D01*
X42479683Y-78292725D01*
G37*
G36*
X42248410Y-77045525D02*
G01*
X42333426Y-77071314D01*
X42411775Y-77113193D01*
X42480449Y-77169551D01*
X42536807Y-77238225D01*
X42578686Y-77316574D01*
X42604475Y-77401590D01*
X42613182Y-77490000D01*
X42604475Y-77578410D01*
X42578686Y-77663426D01*
X42536807Y-77741775D01*
X42480449Y-77810449D01*
X42411775Y-77866807D01*
X42333426Y-77908686D01*
X42248410Y-77934475D01*
X42182158Y-77941000D01*
X41637842Y-77941000D01*
X41571590Y-77934475D01*
X41486574Y-77908686D01*
X41408225Y-77866807D01*
X41339551Y-77810449D01*
X41283193Y-77741775D01*
X41241314Y-77663426D01*
X41215525Y-77578410D01*
X41206818Y-77490000D01*
X41215525Y-77401590D01*
X41241314Y-77316574D01*
X41283193Y-77238225D01*
X41339551Y-77169551D01*
X41408225Y-77113193D01*
X41486574Y-77071314D01*
X41571590Y-77045525D01*
X41637842Y-77039000D01*
X42182158Y-77039000D01*
X42248410Y-77045525D01*
X42248410Y-77045525D01*
G37*
G36*
X37495444Y-76020518D02*
G01*
X37561628Y-76027036D01*
X37731467Y-76078556D01*
X37887992Y-76162221D01*
X37923730Y-76191551D01*
X38025187Y-76274813D01*
X38108449Y-76376270D01*
X38137779Y-76412008D01*
X38137780Y-76412010D01*
X38217123Y-76560448D01*
X38221444Y-76568533D01*
X38272964Y-76738372D01*
X38290360Y-76914999D01*
X38272964Y-77091626D01*
X38221444Y-77261465D01*
X38137779Y-77417990D01*
X38108449Y-77453728D01*
X38025187Y-77555185D01*
X37923730Y-77638447D01*
X37887992Y-77667777D01*
X37887990Y-77667778D01*
X37749555Y-77741774D01*
X37731467Y-77751442D01*
X37561628Y-77802962D01*
X37495444Y-77809480D01*
X37429261Y-77815999D01*
X37340741Y-77815999D01*
X37274558Y-77809480D01*
X37208374Y-77802962D01*
X37038535Y-77751442D01*
X37020448Y-77741774D01*
X36882012Y-77667778D01*
X36882010Y-77667777D01*
X36846272Y-77638447D01*
X36744815Y-77555185D01*
X36661553Y-77453728D01*
X36632223Y-77417990D01*
X36548558Y-77261465D01*
X36497038Y-77091626D01*
X36479642Y-76914999D01*
X36497038Y-76738372D01*
X36548558Y-76568533D01*
X36552880Y-76560448D01*
X36632222Y-76412010D01*
X36632223Y-76412008D01*
X36661553Y-76376270D01*
X36744815Y-76274813D01*
X36846272Y-76191551D01*
X36882010Y-76162221D01*
X37038535Y-76078556D01*
X37208374Y-76027036D01*
X37274558Y-76020518D01*
X37340741Y-76013999D01*
X37429261Y-76013999D01*
X37495444Y-76020518D01*
X37495444Y-76020518D01*
G37*
G36*
X42248410Y-75795525D02*
G01*
X42333426Y-75821314D01*
X42411775Y-75863193D01*
X42480449Y-75919551D01*
X42536807Y-75988225D01*
X42578686Y-76066574D01*
X42604475Y-76151590D01*
X42613182Y-76240000D01*
X42604475Y-76328410D01*
X42578686Y-76413426D01*
X42536807Y-76491775D01*
X42480449Y-76560449D01*
X42411775Y-76616807D01*
X42333426Y-76658686D01*
X42248410Y-76684475D01*
X42182158Y-76691000D01*
X41637842Y-76691000D01*
X41571590Y-76684475D01*
X41486574Y-76658686D01*
X41408225Y-76616807D01*
X41339551Y-76560449D01*
X41283193Y-76491775D01*
X41241314Y-76413426D01*
X41215525Y-76328410D01*
X41206818Y-76240000D01*
X41215525Y-76151590D01*
X41241314Y-76066574D01*
X41283193Y-75988225D01*
X41339551Y-75919551D01*
X41408225Y-75863193D01*
X41486574Y-75821314D01*
X41571590Y-75795525D01*
X41637842Y-75789000D01*
X42182158Y-75789000D01*
X42248410Y-75795525D01*
X42248410Y-75795525D01*
G37*
G36*
X42248410Y-74545525D02*
G01*
X42333426Y-74571314D01*
X42411775Y-74613193D01*
X42480449Y-74669551D01*
X42536807Y-74738225D01*
X42578686Y-74816574D01*
X42604475Y-74901590D01*
X42613182Y-74990000D01*
X42604475Y-75078410D01*
X42578686Y-75163426D01*
X42536807Y-75241775D01*
X42480449Y-75310449D01*
X42411775Y-75366807D01*
X42333426Y-75408686D01*
X42248410Y-75434475D01*
X42182158Y-75441000D01*
X41637842Y-75441000D01*
X41571590Y-75434475D01*
X41486574Y-75408686D01*
X41408225Y-75366807D01*
X41339551Y-75310449D01*
X41283193Y-75241775D01*
X41241314Y-75163426D01*
X41215525Y-75078410D01*
X41206818Y-74990000D01*
X41215525Y-74901590D01*
X41241314Y-74816574D01*
X41283193Y-74738225D01*
X41339551Y-74669551D01*
X41408225Y-74613193D01*
X41486574Y-74571314D01*
X41571590Y-74545525D01*
X41637842Y-74539000D01*
X42182158Y-74539000D01*
X42248410Y-74545525D01*
X42248410Y-74545525D01*
G37*
G36*
X37495443Y-73480517D02*
G01*
X37561628Y-73487036D01*
X37731467Y-73538556D01*
X37731469Y-73538557D01*
X37809730Y-73580389D01*
X37887992Y-73622221D01*
X37923730Y-73651551D01*
X38025187Y-73734813D01*
X38101999Y-73828410D01*
X38137779Y-73872008D01*
X38221444Y-74028533D01*
X38272964Y-74198372D01*
X38290360Y-74374999D01*
X38272964Y-74551626D01*
X38221444Y-74721465D01*
X38137779Y-74877990D01*
X38118411Y-74901590D01*
X38025187Y-75015185D01*
X37923730Y-75098447D01*
X37887992Y-75127777D01*
X37731467Y-75211442D01*
X37561628Y-75262962D01*
X37495444Y-75269480D01*
X37429261Y-75275999D01*
X37340741Y-75275999D01*
X37274558Y-75269480D01*
X37208374Y-75262962D01*
X37038535Y-75211442D01*
X36882010Y-75127777D01*
X36846272Y-75098447D01*
X36744815Y-75015185D01*
X36651591Y-74901590D01*
X36632223Y-74877990D01*
X36548558Y-74721465D01*
X36497038Y-74551626D01*
X36479642Y-74374999D01*
X36497038Y-74198372D01*
X36548558Y-74028533D01*
X36632223Y-73872008D01*
X36668003Y-73828410D01*
X36744815Y-73734813D01*
X36846272Y-73651551D01*
X36882010Y-73622221D01*
X36960272Y-73580389D01*
X37038533Y-73538557D01*
X37038535Y-73538556D01*
X37208374Y-73487036D01*
X37274559Y-73480517D01*
X37340741Y-73473999D01*
X37429261Y-73473999D01*
X37495443Y-73480517D01*
X37495443Y-73480517D01*
G37*
G36*
X42248410Y-73295525D02*
G01*
X42333426Y-73321314D01*
X42411775Y-73363193D01*
X42480449Y-73419551D01*
X42536807Y-73488225D01*
X42578686Y-73566574D01*
X42604475Y-73651590D01*
X42613182Y-73740000D01*
X42604475Y-73828410D01*
X42578686Y-73913426D01*
X42536807Y-73991775D01*
X42480449Y-74060449D01*
X42411775Y-74116807D01*
X42333426Y-74158686D01*
X42248410Y-74184475D01*
X42182158Y-74191000D01*
X41637842Y-74191000D01*
X41571590Y-74184475D01*
X41486574Y-74158686D01*
X41408225Y-74116807D01*
X41339551Y-74060449D01*
X41283193Y-73991775D01*
X41241314Y-73913426D01*
X41215525Y-73828410D01*
X41206818Y-73740000D01*
X41215525Y-73651590D01*
X41241314Y-73566574D01*
X41283193Y-73488225D01*
X41339551Y-73419551D01*
X41408225Y-73363193D01*
X41486574Y-73321314D01*
X41571590Y-73295525D01*
X41637842Y-73289000D01*
X42182158Y-73289000D01*
X42248410Y-73295525D01*
X42248410Y-73295525D01*
G37*
G36*
X42248410Y-72045525D02*
G01*
X42333426Y-72071314D01*
X42411775Y-72113193D01*
X42480449Y-72169551D01*
X42536807Y-72238225D01*
X42578686Y-72316574D01*
X42604475Y-72401590D01*
X42613182Y-72490000D01*
X42604475Y-72578410D01*
X42578686Y-72663426D01*
X42536807Y-72741775D01*
X42480449Y-72810449D01*
X42411775Y-72866807D01*
X42333426Y-72908686D01*
X42248410Y-72934475D01*
X42182158Y-72941000D01*
X41637842Y-72941000D01*
X41571590Y-72934475D01*
X41486574Y-72908686D01*
X41408225Y-72866807D01*
X41339551Y-72810449D01*
X41283193Y-72741775D01*
X41241314Y-72663426D01*
X41215525Y-72578410D01*
X41206818Y-72490000D01*
X41215525Y-72401590D01*
X41241314Y-72316574D01*
X41283193Y-72238225D01*
X41339551Y-72169551D01*
X41408225Y-72113193D01*
X41486574Y-72071314D01*
X41571590Y-72045525D01*
X41637842Y-72039000D01*
X42182158Y-72039000D01*
X42248410Y-72045525D01*
X42248410Y-72045525D01*
G37*
G36*
X37495444Y-70940518D02*
G01*
X37561628Y-70947036D01*
X37731467Y-70998556D01*
X37887992Y-71082221D01*
X37923730Y-71111551D01*
X38025187Y-71194813D01*
X38108449Y-71296270D01*
X38137779Y-71332008D01*
X38221444Y-71488533D01*
X38272964Y-71658372D01*
X38290360Y-71834999D01*
X38272964Y-72011626D01*
X38221444Y-72181465D01*
X38137779Y-72337990D01*
X38108449Y-72373728D01*
X38025187Y-72475185D01*
X37923730Y-72558447D01*
X37887992Y-72587777D01*
X37731467Y-72671442D01*
X37561628Y-72722962D01*
X37495444Y-72729480D01*
X37429261Y-72735999D01*
X37340741Y-72735999D01*
X37274558Y-72729480D01*
X37208374Y-72722962D01*
X37038535Y-72671442D01*
X36882010Y-72587777D01*
X36846272Y-72558447D01*
X36744815Y-72475185D01*
X36661553Y-72373728D01*
X36632223Y-72337990D01*
X36548558Y-72181465D01*
X36497038Y-72011626D01*
X36479642Y-71834999D01*
X36497038Y-71658372D01*
X36548558Y-71488533D01*
X36632223Y-71332008D01*
X36661553Y-71296270D01*
X36744815Y-71194813D01*
X36846272Y-71111551D01*
X36882010Y-71082221D01*
X37038535Y-70998556D01*
X37208374Y-70947036D01*
X37274558Y-70940518D01*
X37340741Y-70933999D01*
X37429261Y-70933999D01*
X37495444Y-70940518D01*
X37495444Y-70940518D01*
G37*
G36*
X37495444Y-68400518D02*
G01*
X37561628Y-68407036D01*
X37731467Y-68458556D01*
X37887992Y-68542221D01*
X37923730Y-68571551D01*
X38025187Y-68654813D01*
X38108449Y-68756270D01*
X38137779Y-68792008D01*
X38221444Y-68948533D01*
X38272964Y-69118372D01*
X38290360Y-69294999D01*
X38272964Y-69471626D01*
X38221444Y-69641465D01*
X38137779Y-69797990D01*
X38108449Y-69833728D01*
X38025187Y-69935185D01*
X37923730Y-70018447D01*
X37887992Y-70047777D01*
X37731467Y-70131442D01*
X37561628Y-70182962D01*
X37495443Y-70189481D01*
X37429261Y-70195999D01*
X37340741Y-70195999D01*
X37274559Y-70189481D01*
X37208374Y-70182962D01*
X37038535Y-70131442D01*
X36882010Y-70047777D01*
X36846272Y-70018447D01*
X36744815Y-69935185D01*
X36661553Y-69833728D01*
X36632223Y-69797990D01*
X36548558Y-69641465D01*
X36497038Y-69471626D01*
X36479642Y-69294999D01*
X36497038Y-69118372D01*
X36548558Y-68948533D01*
X36632223Y-68792008D01*
X36661553Y-68756270D01*
X36744815Y-68654813D01*
X36846272Y-68571551D01*
X36882010Y-68542221D01*
X37038535Y-68458556D01*
X37208374Y-68407036D01*
X37274558Y-68400518D01*
X37340741Y-68393999D01*
X37429261Y-68393999D01*
X37495444Y-68400518D01*
X37495444Y-68400518D01*
G37*
M02*
