G04 #@! TF.GenerationSoftware,KiCad,Pcbnew,5.1.2-f72e74a~84~ubuntu18.04.1*
G04 #@! TF.CreationDate,2019-06-12T19:59:39-04:00*
G04 #@! TF.ProjectId,picoblade_01x06_2.54,7069636f-626c-4616-9465-5f3031783036,rev?*
G04 #@! TF.SameCoordinates,Original*
G04 #@! TF.FileFunction,Copper,L2,Bot*
G04 #@! TF.FilePolarity,Positive*
%FSLAX46Y46*%
G04 Gerber Fmt 4.6, Leading zero omitted, Abs format (unit mm)*
G04 Created by KiCad (PCBNEW 5.1.2-f72e74a~84~ubuntu18.04.1) date 2019-06-12 19:59:39*
%MOMM*%
%LPD*%
G04 APERTURE LIST*
%ADD10C,0.100000*%
%ADD11C,0.800000*%
%ADD12O,1.300000X0.800000*%
%ADD13R,1.700000X1.700000*%
%ADD14O,1.700000X1.700000*%
G04 APERTURE END LIST*
D10*
G36*
X42379603Y-45320963D02*
G01*
X42399018Y-45323843D01*
X42418057Y-45328612D01*
X42436537Y-45335224D01*
X42454279Y-45343616D01*
X42471114Y-45353706D01*
X42486879Y-45365398D01*
X42501421Y-45378579D01*
X42514602Y-45393121D01*
X42526294Y-45408886D01*
X42536384Y-45425721D01*
X42544776Y-45443463D01*
X42551388Y-45461943D01*
X42556157Y-45480982D01*
X42559037Y-45500397D01*
X42560000Y-45520000D01*
X42560000Y-45920000D01*
X42559037Y-45939603D01*
X42556157Y-45959018D01*
X42551388Y-45978057D01*
X42544776Y-45996537D01*
X42536384Y-46014279D01*
X42526294Y-46031114D01*
X42514602Y-46046879D01*
X42501421Y-46061421D01*
X42486879Y-46074602D01*
X42471114Y-46086294D01*
X42454279Y-46096384D01*
X42436537Y-46104776D01*
X42418057Y-46111388D01*
X42399018Y-46116157D01*
X42379603Y-46119037D01*
X42360000Y-46120000D01*
X41460000Y-46120000D01*
X41440397Y-46119037D01*
X41420982Y-46116157D01*
X41401943Y-46111388D01*
X41383463Y-46104776D01*
X41365721Y-46096384D01*
X41348886Y-46086294D01*
X41333121Y-46074602D01*
X41318579Y-46061421D01*
X41305398Y-46046879D01*
X41293706Y-46031114D01*
X41283616Y-46014279D01*
X41275224Y-45996537D01*
X41268612Y-45978057D01*
X41263843Y-45959018D01*
X41260963Y-45939603D01*
X41260000Y-45920000D01*
X41260000Y-45520000D01*
X41260963Y-45500397D01*
X41263843Y-45480982D01*
X41268612Y-45461943D01*
X41275224Y-45443463D01*
X41283616Y-45425721D01*
X41293706Y-45408886D01*
X41305398Y-45393121D01*
X41318579Y-45378579D01*
X41333121Y-45365398D01*
X41348886Y-45353706D01*
X41365721Y-45343616D01*
X41383463Y-45335224D01*
X41401943Y-45328612D01*
X41420982Y-45323843D01*
X41440397Y-45320963D01*
X41460000Y-45320000D01*
X42360000Y-45320000D01*
X42379603Y-45320963D01*
X42379603Y-45320963D01*
G37*
D11*
X41910000Y-45720000D03*
D12*
X41910000Y-46970000D03*
X41910000Y-48220000D03*
X41910000Y-49470000D03*
X41910000Y-50720000D03*
X41910000Y-51970000D03*
D13*
X37385001Y-42465001D03*
D14*
X37385001Y-45005001D03*
X37385001Y-47545001D03*
X37385001Y-50085001D03*
X37385001Y-52625001D03*
X37385001Y-55165001D03*
M02*
