G04 #@! TF.FileFunction,Legend,Bot*
%FSLAX46Y46*%
G04 Gerber Fmt 4.6, Leading zero omitted, Abs format (unit mm)*
G04 Created by KiCad (PCBNEW 4.0.7-e2-6376~58~ubuntu16.04.1) date Sat Jan 13 09:41:31 2018*
%MOMM*%
%LPD*%
G01*
G04 APERTURE LIST*
%ADD10C,0.100000*%
%ADD11C,0.120000*%
%ADD12C,0.150000*%
G04 APERTURE END LIST*
D10*
D11*
X113602000Y-96206000D02*
X110942000Y-96206000D01*
X113602000Y-109026000D02*
X110942000Y-109026000D01*
X110942000Y-98296000D02*
X110942000Y-101856000D01*
X110942000Y-103376000D02*
X110942000Y-106936000D01*
X113602000Y-96206000D02*
X113602000Y-99316000D01*
X110942000Y-96776000D02*
X109422000Y-96776000D01*
X110942000Y-96206000D02*
X110942000Y-96776000D01*
X113602000Y-108456000D02*
X113602000Y-109026000D01*
X113602000Y-100836000D02*
X113602000Y-104396000D01*
X113602000Y-105916000D02*
X113602000Y-109026000D01*
X121222000Y-96206000D02*
X118562000Y-96206000D01*
X121222000Y-109026000D02*
X118562000Y-109026000D01*
X118562000Y-98296000D02*
X118562000Y-101856000D01*
X118562000Y-103376000D02*
X118562000Y-106936000D01*
X121222000Y-96206000D02*
X121222000Y-99316000D01*
X118562000Y-96776000D02*
X117042000Y-96776000D01*
X118562000Y-96206000D02*
X118562000Y-96776000D01*
X121222000Y-108456000D02*
X121222000Y-109026000D01*
X121222000Y-100836000D02*
X121222000Y-104396000D01*
X121222000Y-105916000D02*
X121222000Y-109026000D01*
D12*
X112605333Y-94658381D02*
X112605333Y-95372667D01*
X112652953Y-95515524D01*
X112748191Y-95610762D01*
X112891048Y-95658381D01*
X112986286Y-95658381D01*
X111605333Y-95658381D02*
X112176762Y-95658381D01*
X111891048Y-95658381D02*
X111891048Y-94658381D01*
X111986286Y-94801238D01*
X112081524Y-94896476D01*
X112176762Y-94944095D01*
X120225333Y-94658381D02*
X120225333Y-95372667D01*
X120272953Y-95515524D01*
X120368191Y-95610762D01*
X120511048Y-95658381D01*
X120606286Y-95658381D01*
X119844381Y-94658381D02*
X119225333Y-94658381D01*
X119558667Y-95039333D01*
X119415809Y-95039333D01*
X119320571Y-95086952D01*
X119272952Y-95134571D01*
X119225333Y-95229810D01*
X119225333Y-95467905D01*
X119272952Y-95563143D01*
X119320571Y-95610762D01*
X119415809Y-95658381D01*
X119701524Y-95658381D01*
X119796762Y-95610762D01*
X119844381Y-95563143D01*
M02*
