%MOIN*%
%OFA0B0*%
%FSLAX46Y46*%
%IPPOS*%
%LPD*%
%ADD10C,0.0039370078740157488*%
%ADD21C,0.0039370078740157488*%
%ADD22R,0.12401574803149606X0.03937007874015748*%
%ADD23C,0.033464566929133861*%
%ADD24C,0.00984251968503937*%
%ADD25C,0.0039370078740157488*%
%ADD26R,0.098818897637795278X0.03937007874015748*%
%ADD27C,0.033464566929133861*%
%ADD28C,0.00984251968503937*%
%ADD29C,0.0039370078740157488*%
%ADD30R,0.12401574803149606X0.03937007874015748*%
%ADD31C,0.033464566929133861*%
%ADD32C,0.00984251968503937*%
%ADD33C,0.0039370078740157488*%
%ADD34R,0.1015748031496063X0.03937007874015748*%
%ADD35C,0.033464566929133861*%
%ADD36C,0.00984251968503937*%
%ADD37C,0.0039370078740157488*%
%ADD38R,0.12401574803149606X0.03937007874015748*%
%ADD39C,0.033464566929133861*%
%ADD40C,0.00984251968503937*%
%ADD41C,0.0039370078740157488*%
%ADD42R,0.12401574803149606X0.03937007874015748*%
%ADD43C,0.033464566929133861*%
%ADD44C,0.00984251968503937*%
%ADD45C,0.0039370078740157488*%
%ADD46R,0.12401574803149606X0.03937007874015748*%
%ADD47C,0.033464566929133861*%
%ADD48C,0.00984251968503937*%
%ADD49C,0.0039370078740157488*%
%ADD50R,0.11811023622047245X0.03937007874015748*%
%ADD51C,0.033464566929133861*%
%ADD52C,0.00984251968503937*%
%ADD53C,0.0039370078740157488*%
%ADD54R,0.11811023622047245X0.03937007874015748*%
%ADD55C,0.033464566929133861*%
%ADD56C,0.00984251968503937*%
%ADD57C,0.0039370078740157488*%
%ADD58R,0.11811023622047245X0.03937007874015748*%
%ADD59C,0.033464566929133861*%
%ADD60C,0.00984251968503937*%
%ADD61C,0.0039370078740157488*%
%ADD62C,0.059842519685039376*%
%ADD63C,0.11811023622047245*%
%ADD64C,0.0039370078740157488*%
%ADD65C,0.1437007874015748*%
%ADD66R,0.059055118110236227X0.059055118110236227*%
%ADD67C,0.059055118110236227*%
%ADD68C,0.0039370078740157488*%
%ADD69C,0.1437007874015748*%
%ADD70R,0.059055118110236227X0.059055118110236227*%
%ADD71C,0.059055118110236227*%
%ADD72C,0.033464566929133861*%
%ADD73C,0.00984251968503937*%
%ADD74C,0.0039370078740157488*%
%ADD75R,0.0393X0.0826*%
%ADD76O,0.05X0.1*%
%ADD77C,0.033464566929133861*%
%ADD78C,0.00984251968503937*%
%ADD79C,0.0039370078740157488*%
%ADD80R,0.0393X0.0826*%
%ADD81O,0.05X0.1*%
%ADD82C,0.033464566929133861*%
%ADD83C,0.00984251968503937*%
G01G01*
D10*
G04 next file*
G04 #@! TF.FileFunction,Copper,L1,Top,Signal*
G04 Gerber Fmt 4.6, Leading zero omitted, Abs format (unit mm)*
G04 Created by KiCad (PCBNEW 4.0.7-e2-6376~58~ubuntu16.04.1) date Sat Jan 13 09:32:06 2018*
G01G01*
G04 APERTURE LIST*
G04 APERTURE END LIST*
D21*
D22*
X-0002440944Y0005807086D02*
X0003306141Y0001823070D03*
X0003504960Y0001823070D03*
X0003306141Y0001723070D03*
X0003504960Y0001723070D03*
X0003306141Y0001623070D03*
X0003504960Y0001623070D03*
X0003306141Y0001523070D03*
X0003504960Y0001523070D03*
D23*
X0003430145Y0001867161D03*
X0003592397Y0001723070D03*
X0003430145Y0001578370D03*
X0003434212Y0001397043D03*
X0003380956Y0001930275D03*
X0003345570Y0001767578D03*
X0003231326Y0001578464D03*
X0003345570Y0001467578D03*
D24*
X0003504960Y0001823070D02*
X0003430145Y0001823070D01*
X0003430145Y0001823070D02*
X0003430145Y0001867161D01*
X0003504960Y0001723070D02*
X0003592397Y0001723070D01*
X0003504960Y0001623070D02*
X0003430145Y0001623070D01*
X0003430145Y0001623070D02*
X0003430145Y0001578370D01*
X0003504960Y0001523070D02*
X0003430145Y0001523070D01*
X0003430145Y0001401110D02*
X0003434212Y0001397043D01*
X0003430145Y0001523070D02*
X0003430145Y0001401110D01*
X0003306141Y0001823070D02*
X0003380956Y0001823070D01*
X0003380956Y0001823070D02*
X0003380956Y0001930275D01*
X0003345570Y0001767574D02*
X0003345570Y0001767578D01*
X0003361834Y0001767574D02*
X0003345570Y0001767574D01*
X0003380956Y0001748452D02*
X0003361834Y0001767574D01*
X0003380956Y0001723070D02*
X0003380956Y0001748452D01*
X0003306141Y0001723070D02*
X0003380956Y0001723070D01*
X0003306141Y0001623070D02*
X0003231326Y0001623070D01*
X0003231326Y0001623070D02*
X0003231326Y0001578464D01*
X0003345570Y0001467582D02*
X0003345570Y0001467578D01*
X0003350850Y0001467582D02*
X0003345570Y0001467582D01*
X0003380956Y0001497688D02*
X0003350850Y0001467582D01*
X0003380956Y0001523070D02*
X0003380956Y0001497688D01*
X0003306141Y0001523070D02*
X0003380956Y0001523070D01*
G04 next file*
G04 #@! TF.FileFunction,Copper,L1,Top,Signal*
G04 Gerber Fmt 4.6, Leading zero omitted, Abs format (unit mm)*
G04 Created by KiCad (PCBNEW 4.0.7-e2-6376~58~ubuntu16.04.1) date Sat Jan 13 09:35:41 2018*
G01G01*
G04 APERTURE LIST*
G04 APERTURE END LIST*
D25*
D26*
X-0004862204Y0006870078D02*
X0000919133Y0003086062D03*
X0000919133Y0002886062D03*
X0000919133Y0002686062D03*
X0000919133Y0002486062D03*
X0000919133Y0002286062D03*
X0001049448Y0003186062D03*
X0001049448Y0002986062D03*
X0001049448Y0002786062D03*
X0001049448Y0002586062D03*
X0001049448Y0002386062D03*
D27*
X0000981350Y0003041527D03*
X0000981350Y0002928279D03*
X0000973724Y0002766771D03*
X0000981350Y0002629610D03*
X0000981350Y0002341929D03*
X0001111665Y0003137425D03*
X0001062039Y0002929464D03*
X0001042696Y0002739858D03*
X0001113677Y0002634066D03*
X0001112196Y0002531181D03*
D28*
X0000919133Y0003086062D02*
X0000981350Y0003086062D01*
X0000981350Y0003086062D02*
X0000981350Y0003041527D01*
X0000919133Y0002886062D02*
X0000981350Y0002886062D01*
X0000981350Y0002886062D02*
X0000981350Y0002928279D01*
X0000981350Y0002759145D02*
X0000981350Y0002686062D01*
X0000973724Y0002766771D02*
X0000981350Y0002759145D01*
X0000919133Y0002686062D02*
X0000981350Y0002686062D01*
X0000919133Y0002486062D02*
X0000981350Y0002486062D01*
X0000981350Y0002486062D02*
X0000981350Y0002629610D01*
X0000919133Y0002286062D02*
X0000981350Y0002286062D01*
X0000981350Y0002341929D02*
X0000981350Y0002286062D01*
X0001049448Y0003186062D02*
X0001111665Y0003186062D01*
X0001111665Y0003137425D02*
X0001111665Y0003186062D01*
X0001049448Y0002986062D02*
X0001111665Y0002986062D01*
X0001062039Y0002929468D02*
X0001062039Y0002929464D01*
X0001082578Y0002929468D02*
X0001062039Y0002929468D01*
X0001111665Y0002958555D02*
X0001082578Y0002929468D01*
X0001111665Y0002986062D02*
X0001111665Y0002958555D01*
X0001049448Y0002746610D02*
X0001042696Y0002739858D01*
X0001049448Y0002786062D02*
X0001049448Y0002746610D01*
X0001049448Y0002586062D02*
X0001111665Y0002586062D01*
X0001111665Y0002632055D02*
X0001113677Y0002634066D01*
X0001111665Y0002586062D02*
X0001111665Y0002632055D01*
X0001111665Y0002530649D02*
X0001111665Y0002386062D01*
X0001112196Y0002531181D02*
X0001111665Y0002530649D01*
X0001049448Y0002386062D02*
X0001111665Y0002386062D01*
G04 next file*
G04 #@! TF.FileFunction,Copper,L1,Top,Signal*
G04 Gerber Fmt 4.6, Leading zero omitted, Abs format (unit mm)*
G04 Created by KiCad (PCBNEW 4.0.7-e2-6376~58~ubuntu16.04.1) date Sat Jan 13 09:37:07 2018*
G01G01*
G04 APERTURE LIST*
G04 APERTURE END LIST*
D29*
D30*
X-0005157480Y0007795275D02*
X0000923700Y0003811259D03*
X0001122519Y0003811259D03*
X0000923700Y0003711259D03*
X0001122519Y0003711259D03*
X0000923700Y0003611259D03*
X0001122519Y0003611259D03*
X0000923700Y0003511259D03*
X0001122519Y0003511259D03*
D31*
X0000979751Y0003756244D03*
X0000979921Y0003465964D03*
X0000869421Y0003766401D03*
X0000869421Y0003566228D03*
X0001099755Y0003859877D03*
X0001175303Y0003756531D03*
X0001107204Y0003565759D03*
X0001175303Y0003556145D03*
D32*
X0000923700Y0003711259D02*
X0000998515Y0003711259D01*
X0000998515Y0003737480D02*
X0000979751Y0003756244D01*
X0000998515Y0003711259D02*
X0000998515Y0003737480D01*
X0000923700Y0003511259D02*
X0000998515Y0003511259D01*
X0000998515Y0003484559D02*
X0000979921Y0003465964D01*
X0000998515Y0003511259D02*
X0000998515Y0003484559D01*
X0000923700Y0003811259D02*
X0000848885Y0003811259D01*
X0000865417Y0003766401D02*
X0000869421Y0003766401D01*
X0000848885Y0003782933D02*
X0000865417Y0003766401D01*
X0000848885Y0003811259D02*
X0000848885Y0003782933D01*
X0000923700Y0003611259D02*
X0000848885Y0003611259D01*
X0000866078Y0003566228D02*
X0000869421Y0003566228D01*
X0000848885Y0003583421D02*
X0000866078Y0003566228D01*
X0000848885Y0003611259D02*
X0000848885Y0003583421D01*
X0001068972Y0003859877D02*
X0001099755Y0003859877D01*
X0001047704Y0003838610D02*
X0001068972Y0003859877D01*
X0001047704Y0003811259D02*
X0001047704Y0003838610D01*
X0001122519Y0003811259D02*
X0001047704Y0003811259D01*
X0001122519Y0003711259D02*
X0001197334Y0003711259D01*
X0001180090Y0003756531D02*
X0001175303Y0003756531D01*
X0001197334Y0003739287D02*
X0001180090Y0003756531D01*
X0001197334Y0003711259D02*
X0001197334Y0003739287D01*
X0001122519Y0003611259D02*
X0001047704Y0003611259D01*
X0001067114Y0003565759D02*
X0001107204Y0003565759D01*
X0001047704Y0003585169D02*
X0001067114Y0003565759D01*
X0001047704Y0003611259D02*
X0001047704Y0003585169D01*
X0001178086Y0003556145D02*
X0001175303Y0003556145D01*
X0001197334Y0003536897D02*
X0001178086Y0003556145D01*
X0001197334Y0003511259D02*
X0001197334Y0003536897D01*
X0001122519Y0003511259D02*
X0001197334Y0003511259D01*
G04 next file*
G04 #@! TF.FileFunction,Copper,L1,Top,Signal*
G04 Gerber Fmt 4.6, Leading zero omitted, Abs format (unit mm)*
G04 Created by KiCad (PCBNEW 4.0.7-e2-6376~58~ubuntu16.04.1) date Sat Jan 13 09:41:55 2018*
G01G01*
G04 APERTURE LIST*
G04 APERTURE END LIST*
D33*
D34*
X-0003602362Y0007775590D02*
X0001648464Y0003795551D03*
X0001812637Y0003795551D03*
X0001648464Y0003716811D03*
X0001812637Y0003716811D03*
X0001648464Y0003638070D03*
X0001812637Y0003638070D03*
X0001648464Y0003559330D03*
X0001812637Y0003559330D03*
X0001648464Y0003480590D03*
X0001812637Y0003480590D03*
D35*
X0001572779Y0003725657D03*
X0001724255Y0003547031D03*
X0001563173Y0003880082D03*
X0001579854Y0003677740D03*
X0001591700Y0003435291D03*
X0001861236Y0003881173D03*
X0002022145Y0003716811D03*
X0001741409Y0003602870D03*
X0002022145Y0003559330D03*
X0001859755Y0003391350D03*
D36*
X0001648464Y0003716811D02*
X0001584870Y0003716811D01*
X0001581625Y0003716811D02*
X0001572779Y0003725657D01*
X0001584870Y0003716811D02*
X0001581625Y0003716811D01*
X0001712059Y0003559228D02*
X0001724255Y0003547031D01*
X0001712059Y0003559330D02*
X0001712059Y0003559228D01*
X0001648464Y0003559330D02*
X0001712059Y0003559330D01*
X0001648464Y0003795551D02*
X0001584870Y0003795551D01*
X0001584870Y0003858385D02*
X0001563173Y0003880082D01*
X0001584870Y0003795551D02*
X0001584870Y0003858385D01*
X0001648464Y0003638070D02*
X0001584870Y0003638070D01*
X0001579854Y0003643086D02*
X0001579854Y0003677740D01*
X0001584870Y0003638070D02*
X0001579854Y0003643086D01*
X0001648464Y0003480590D02*
X0001712059Y0003480590D01*
X0001692244Y0003435291D02*
X0001591700Y0003435291D01*
X0001712059Y0003455106D02*
X0001692244Y0003435291D01*
X0001712059Y0003480590D02*
X0001712059Y0003455106D01*
X0001812637Y0003795551D02*
X0001876232Y0003795551D01*
X0001876232Y0003866177D02*
X0001861236Y0003881173D01*
X0001876232Y0003795551D02*
X0001876232Y0003866177D01*
X0001812637Y0003716811D02*
X0002022145Y0003716811D01*
X0001749043Y0003610503D02*
X0001741409Y0003602870D01*
X0001749043Y0003638070D02*
X0001749043Y0003610503D01*
X0001812637Y0003638070D02*
X0001749043Y0003638070D01*
X0001812637Y0003559330D02*
X0002022145Y0003559330D01*
X0001812637Y0003480590D02*
X0001876232Y0003480590D01*
X0001876232Y0003407826D02*
X0001859755Y0003391350D01*
X0001876232Y0003480590D02*
X0001876232Y0003407826D01*
G04 next file*
G04 #@! TF.FileFunction,Copper,L1,Top,Signal*
G04 Gerber Fmt 4.6, Leading zero omitted, Abs format (unit mm)*
G04 Created by KiCad (PCBNEW 4.0.7-e2-6376~58~ubuntu16.04.1) date Sat Jan 13 09:41:31 2018*
G01G01*
G04 APERTURE LIST*
G04 APERTURE END LIST*
D37*
D38*
X-0002125984Y0007224409D02*
X0002344015Y0003384409D03*
X0002542834Y0003384409D03*
X0002344015Y0003284409D03*
X0002542834Y0003284409D03*
X0002344015Y0003184409D03*
X0002542834Y0003184409D03*
X0002344015Y0003084409D03*
X0002542834Y0003084409D03*
X0002344015Y0002984409D03*
X0002542834Y0002984409D03*
D39*
X0002402208Y0003240078D03*
X0002402728Y0003128814D03*
X0002291232Y0003429535D03*
X0002291232Y0003138992D03*
X0002291232Y0002939283D03*
X0002523129Y0003430732D03*
X0002597114Y0003238992D03*
X0002529015Y0003139562D03*
X0002597114Y0003129826D03*
X0002523129Y0002938086D03*
D40*
X0002344015Y0003284409D02*
X0002418830Y0003284409D01*
X0002418830Y0003256700D02*
X0002402208Y0003240078D01*
X0002418830Y0003284409D02*
X0002418830Y0003256700D01*
X0002344015Y0003084409D02*
X0002418830Y0003084409D01*
X0002418830Y0003112712D02*
X0002402728Y0003128814D01*
X0002418830Y0003084409D02*
X0002418830Y0003112712D01*
X0002344015Y0003384409D02*
X0002269200Y0003384409D01*
X0002289283Y0003429535D02*
X0002291232Y0003429535D01*
X0002269200Y0003409452D02*
X0002289283Y0003429535D01*
X0002269200Y0003384409D02*
X0002269200Y0003409452D01*
X0002344015Y0003184409D02*
X0002269200Y0003184409D01*
X0002287417Y0003138992D02*
X0002291232Y0003138992D01*
X0002269200Y0003157208D02*
X0002287417Y0003138992D01*
X0002269200Y0003184409D02*
X0002269200Y0003157208D01*
X0002344015Y0002984409D02*
X0002269200Y0002984409D01*
X0002289283Y0002939283D02*
X0002291232Y0002939283D01*
X0002269200Y0002959366D02*
X0002289283Y0002939283D01*
X0002269200Y0002984409D02*
X0002269200Y0002959366D01*
X0002488283Y0003430732D02*
X0002523129Y0003430732D01*
X0002468019Y0003410468D02*
X0002488283Y0003430732D01*
X0002468019Y0003384409D02*
X0002468019Y0003410468D01*
X0002542834Y0003384409D02*
X0002468019Y0003384409D01*
X0002542834Y0003284409D02*
X0002617649Y0003284409D01*
X0002600933Y0003238992D02*
X0002597114Y0003238992D01*
X0002617649Y0003255708D02*
X0002600933Y0003238992D01*
X0002617649Y0003284409D02*
X0002617649Y0003255708D01*
X0002542834Y0003184409D02*
X0002468019Y0003184409D01*
X0002487637Y0003139562D02*
X0002529015Y0003139562D01*
X0002468019Y0003159181D02*
X0002487637Y0003139562D01*
X0002468019Y0003184409D02*
X0002468019Y0003159181D01*
X0002542834Y0003084409D02*
X0002617649Y0003084409D01*
X0002600933Y0003129826D02*
X0002597114Y0003129826D01*
X0002617649Y0003113110D02*
X0002600933Y0003129826D01*
X0002617649Y0003084409D02*
X0002617649Y0003113110D01*
X0002488283Y0002938086D02*
X0002523129Y0002938086D01*
X0002468019Y0002958350D02*
X0002488283Y0002938086D01*
X0002468019Y0002984409D02*
X0002468019Y0002958350D01*
X0002542834Y0002984409D02*
X0002468019Y0002984409D01*
G04 next file*
G04 #@! TF.FileFunction,Copper,L1,Top,Signal*
G04 Gerber Fmt 4.6, Leading zero omitted, Abs format (unit mm)*
G04 Created by KiCad (PCBNEW 4.0.7-e2-6376~58~ubuntu16.04.1) date Sat Jan 13 09:42:42 2018*
G01G01*
G04 APERTURE LIST*
G04 APERTURE END LIST*
D41*
D42*
X-0004133858Y0006968503D02*
X0001617322Y0003183503D03*
X0001816141Y0003183503D03*
X0001617322Y0003083503D03*
X0001816141Y0003083503D03*
X0001617322Y0002983503D03*
X0001816141Y0002983503D03*
X0001617322Y0002883503D03*
X0001816141Y0002883503D03*
X0001617322Y0002783503D03*
X0001816141Y0002783503D03*
X0001617322Y0002683503D03*
X0001816141Y0002683503D03*
X0001617322Y0002583503D03*
X0001816141Y0002583503D03*
X0001617322Y0002483503D03*
X0001816141Y0002483503D03*
D43*
X0001692137Y0003041000D03*
X0001692137Y0002926011D03*
X0001592669Y0002638255D03*
X0001692137Y0002441023D03*
X0001549240Y0003235649D03*
X0001542507Y0002938188D03*
X0001542507Y0002738188D03*
X0001549240Y0002635192D03*
X0001732873Y0003142480D03*
X0001890956Y0003038196D03*
X0001830488Y0002938287D03*
X0001890956Y0002928578D03*
X0001741326Y0002739011D03*
X0001890956Y0002728811D03*
X0001741326Y0002628393D03*
X0001786618Y0002437519D03*
D44*
X0001617322Y0003083503D02*
X0001692137Y0003083503D01*
X0001692137Y0003083503D02*
X0001692137Y0003041000D01*
X0001617322Y0002883503D02*
X0001692137Y0002883503D01*
X0001692137Y0002883503D02*
X0001692137Y0002926011D01*
X0001592669Y0002658850D02*
X0001592669Y0002638255D01*
X0001617322Y0002683503D02*
X0001592669Y0002658850D01*
X0001617322Y0002483503D02*
X0001692137Y0002483503D01*
X0001692137Y0002483503D02*
X0001692137Y0002441023D01*
X0001542507Y0003228917D02*
X0001549240Y0003235649D01*
X0001542507Y0003183503D02*
X0001542507Y0003228917D01*
X0001617322Y0003183503D02*
X0001542507Y0003183503D01*
X0001617322Y0002983503D02*
X0001542507Y0002983503D01*
X0001542507Y0002983503D02*
X0001542507Y0002938188D01*
X0001617322Y0002783503D02*
X0001542507Y0002783503D01*
X0001542507Y0002783503D02*
X0001542507Y0002738188D01*
X0001542507Y0002628460D02*
X0001549240Y0002635192D01*
X0001542507Y0002583503D02*
X0001542507Y0002628460D01*
X0001617322Y0002583503D02*
X0001542507Y0002583503D01*
X0001741326Y0003150933D02*
X0001732873Y0003142480D01*
X0001741326Y0003183503D02*
X0001741326Y0003150933D01*
X0001816141Y0003183503D02*
X0001741326Y0003183503D01*
X0001816141Y0003083503D02*
X0001890956Y0003083503D01*
X0001890956Y0003083503D02*
X0001890956Y0003038196D01*
X0001816141Y0002952633D02*
X0001830488Y0002938287D01*
X0001816141Y0002983503D02*
X0001816141Y0002952633D01*
X0001816141Y0002883503D02*
X0001890956Y0002883503D01*
X0001890956Y0002883503D02*
X0001890956Y0002928578D01*
X0001816141Y0002783503D02*
X0001741326Y0002783503D01*
X0001741326Y0002783503D02*
X0001741326Y0002739011D01*
X0001816141Y0002683503D02*
X0001890956Y0002683503D01*
X0001890956Y0002683503D02*
X0001890956Y0002728811D01*
X0001816141Y0002583503D02*
X0001741326Y0002583503D01*
X0001741326Y0002583503D02*
X0001741326Y0002628393D01*
X0001761137Y0002437519D02*
X0001786618Y0002437519D01*
X0001741326Y0002457330D02*
X0001761137Y0002437519D01*
X0001741326Y0002483503D02*
X0001741326Y0002457330D01*
X0001816141Y0002483503D02*
X0001741326Y0002483503D01*
G04 next file*
G04 #@! TF.FileFunction,Copper,L1,Top,Signal*
G04 Gerber Fmt 4.6, Leading zero omitted, Abs format (unit mm)*
G04 Created by KiCad (PCBNEW 4.0.7-e2-6376~58~ubuntu16.04.1) date Sat Jan 13 09:44:16 2018*
G01G01*
G04 APERTURE LIST*
G04 APERTURE END LIST*
D45*
D46*
X-0002814960Y0004685039D02*
X0002925039Y0001000039D03*
X0003123858Y0001000039D03*
X0002925039Y0000900039D03*
X0003123858Y0000900039D03*
X0002925039Y0000800039D03*
X0003123858Y0000800039D03*
X0002925039Y0000700039D03*
X0003123858Y0000700039D03*
X0002925039Y0000600039D03*
X0003123858Y0000600039D03*
X0002925039Y0000500039D03*
X0003123858Y0000500039D03*
X0002925039Y0000400039D03*
X0003123858Y0000400039D03*
X0002925039Y0000300039D03*
X0003123858Y0000300039D03*
X0002925039Y0000200039D03*
X0003123858Y0000200039D03*
X0002925039Y0000100039D03*
X0003123858Y0000100039D03*
D47*
X0003002570Y0000857799D03*
X0002999854Y0000744436D03*
X0003002570Y0000457409D03*
X0003002570Y0000257799D03*
X0002999854Y0000055736D03*
X0002863677Y0001064685D03*
X0002850224Y0000845350D03*
X0002850224Y0000554732D03*
X0002850224Y0000355665D03*
X0002850224Y0000245350D03*
X0003047507Y0001041980D03*
X0003198673Y0000854728D03*
X0003147362Y0000845066D03*
X0003198673Y0000745350D03*
X0003047507Y0000557070D03*
X0003198673Y0000545350D03*
X0003047507Y0000357133D03*
X0003198673Y0000254728D03*
X0003047507Y0000243007D03*
X0003183314Y0000045393D03*
D48*
X0002925039Y0000900039D02*
X0002999854Y0000900039D01*
X0002999854Y0000860515D02*
X0003002570Y0000857799D01*
X0002999854Y0000900039D02*
X0002999854Y0000860515D01*
X0002925039Y0000700039D02*
X0002999854Y0000700039D01*
X0002999854Y0000700039D02*
X0002999854Y0000744436D01*
X0002925039Y0000500039D02*
X0002999854Y0000500039D01*
X0002999854Y0000460125D02*
X0003002570Y0000457409D01*
X0002999854Y0000500039D02*
X0002999854Y0000460125D01*
X0002925039Y0000300039D02*
X0002999854Y0000300039D01*
X0002999854Y0000260515D02*
X0003002570Y0000257799D01*
X0002999854Y0000300039D02*
X0002999854Y0000260515D01*
X0002925039Y0000100039D02*
X0002999854Y0000100039D01*
X0002999854Y0000100039D02*
X0002999854Y0000055736D01*
X0002850224Y0001051232D02*
X0002863677Y0001064685D01*
X0002850224Y0001000039D02*
X0002850224Y0001051232D01*
X0002925039Y0001000039D02*
X0002850224Y0001000039D01*
X0002925039Y0000800039D02*
X0002850224Y0000800039D01*
X0002850224Y0000800039D02*
X0002850224Y0000845350D01*
X0002925039Y0000600039D02*
X0002850224Y0000600039D01*
X0002850224Y0000600039D02*
X0002850224Y0000554732D01*
X0002925039Y0000400039D02*
X0002850224Y0000400039D01*
X0002850224Y0000400039D02*
X0002850224Y0000355665D01*
X0002925039Y0000200039D02*
X0002850224Y0000200039D01*
X0002850224Y0000200039D02*
X0002850224Y0000245350D01*
X0003123858Y0001000039D02*
X0003049043Y0001000039D01*
X0003049043Y0001040444D02*
X0003047507Y0001041980D01*
X0003049043Y0001000039D02*
X0003049043Y0001040444D01*
X0003123858Y0000900039D02*
X0003198673Y0000900039D01*
X0003198673Y0000900039D02*
X0003198673Y0000854728D01*
X0003147362Y0000823543D02*
X0003147362Y0000845066D01*
X0003123858Y0000800039D02*
X0003147362Y0000823543D01*
X0003123858Y0000700039D02*
X0003198673Y0000700039D01*
X0003198673Y0000700039D02*
X0003198673Y0000745350D01*
X0003123858Y0000600039D02*
X0003049043Y0000600039D01*
X0003049043Y0000558606D02*
X0003047507Y0000557070D01*
X0003049043Y0000600039D02*
X0003049043Y0000558606D01*
X0003123858Y0000500039D02*
X0003198673Y0000500039D01*
X0003198673Y0000500039D02*
X0003198673Y0000545350D01*
X0003123858Y0000400039D02*
X0003049043Y0000400039D01*
X0003049043Y0000358669D02*
X0003047507Y0000357133D01*
X0003049043Y0000400039D02*
X0003049043Y0000358669D01*
X0003123858Y0000300039D02*
X0003198673Y0000300039D01*
X0003198673Y0000300039D02*
X0003198673Y0000254728D01*
X0003123858Y0000200039D02*
X0003049043Y0000200039D01*
X0003049043Y0000241472D02*
X0003047507Y0000243007D01*
X0003049043Y0000200039D02*
X0003049043Y0000241472D01*
X0003198673Y0000060751D02*
X0003183314Y0000045393D01*
X0003198673Y0000100039D02*
X0003198673Y0000060751D01*
X0003123858Y0000100039D02*
X0003198673Y0000100039D01*
G04 next file*
G04 #@! TF.FileFunction,Copper,L1,Top,Signal*
G04 Gerber Fmt 4.6, Leading zero omitted, Abs format (unit mm)*
G04 Created by KiCad (PCBNEW 4.0.7-e2-6376~58~ubuntu16.04.1) date Sat Jan 13 09:58:48 2018*
G01G01*
G04 APERTURE LIST*
G04 APERTURE END LIST*
D49*
D50*
X-0006003937Y0007342519D02*
X0000419488Y0003817519D03*
X0000221062Y0003817519D03*
X0000419488Y0003717519D03*
X0000221062Y0003717519D03*
X0000419488Y0003617519D03*
X0000221062Y0003617519D03*
X0000419488Y0003517519D03*
X0000221062Y0003517519D03*
X0000419488Y0003417519D03*
X0000221062Y0003417519D03*
X0000419488Y0003317519D03*
X0000221062Y0003317519D03*
X0000419488Y0003217519D03*
X0000221062Y0003217519D03*
X0000419488Y0003117519D03*
X0000221062Y0003117519D03*
X0000419488Y0003017519D03*
X0000221062Y0003017519D03*
X0000419488Y0002917519D03*
X0000221062Y0002917519D03*
X0000419488Y0002817519D03*
X0000221062Y0002817519D03*
X0000419488Y0002717519D03*
X0000221062Y0002717519D03*
X0000419488Y0002617519D03*
X0000221062Y0002617519D03*
D51*
X0000491350Y0003672208D03*
X0000491350Y0003562830D03*
X0000491350Y0003362830D03*
X0000491350Y0003072208D03*
X0000491350Y0002872208D03*
X0000491350Y0002762830D03*
X0000347625Y0003862271D03*
X0000438346Y0003661917D03*
X0000347625Y0003373129D03*
X0000347625Y0003173023D03*
X0000347625Y0003061909D03*
X0000438346Y0002773122D03*
X0000347625Y0002572767D03*
X0000158279Y0003861980D03*
X0000292925Y0003674484D03*
X0000149200Y0003572204D03*
X0000292925Y0003559350D03*
X0000149200Y0003372204D03*
X0000292925Y0003359350D03*
X0000147834Y0003261885D03*
X0000292925Y0003075692D03*
X0000149200Y0003062834D03*
X0000292925Y0002874653D03*
X0000149200Y0002772204D03*
X0000292925Y0002759350D03*
X0000292925Y0002572551D03*
D52*
X0000419488Y0003717519D02*
X0000491350Y0003717519D01*
X0000491350Y0003717519D02*
X0000491350Y0003672208D01*
X0000419488Y0003517519D02*
X0000491350Y0003517519D01*
X0000491350Y0003517519D02*
X0000491350Y0003562830D01*
X0000419488Y0003317519D02*
X0000491350Y0003317519D01*
X0000491350Y0003317519D02*
X0000491350Y0003362830D01*
X0000419488Y0003117519D02*
X0000491350Y0003117519D01*
X0000491350Y0003117519D02*
X0000491350Y0003072208D01*
X0000419488Y0002917519D02*
X0000491350Y0002917519D01*
X0000491350Y0002917519D02*
X0000491350Y0002872208D01*
X0000419488Y0002717519D02*
X0000491350Y0002717519D01*
X0000491350Y0002717519D02*
X0000491350Y0002762830D01*
X0000419488Y0003817519D02*
X0000347625Y0003817519D01*
X0000347625Y0003817519D02*
X0000347625Y0003862271D01*
X0000438346Y0003636377D02*
X0000438346Y0003661917D01*
X0000419488Y0003617519D02*
X0000438346Y0003636377D01*
X0000419488Y0003417519D02*
X0000347625Y0003417519D01*
X0000347625Y0003417519D02*
X0000347625Y0003373129D01*
X0000419488Y0003217519D02*
X0000347625Y0003217519D01*
X0000347625Y0003217519D02*
X0000347625Y0003173023D01*
X0000419488Y0003017519D02*
X0000347625Y0003017519D01*
X0000347625Y0003017519D02*
X0000347625Y0003061909D01*
X0000438346Y0002798661D02*
X0000438346Y0002773122D01*
X0000419488Y0002817519D02*
X0000438346Y0002798661D01*
X0000419488Y0002617519D02*
X0000347625Y0002617519D01*
X0000347625Y0002617519D02*
X0000347625Y0002572767D01*
X0000221062Y0003817519D02*
X0000149200Y0003817519D01*
X0000149200Y0003852901D02*
X0000158279Y0003861980D01*
X0000149200Y0003817519D02*
X0000149200Y0003852901D01*
X0000221062Y0003717519D02*
X0000292925Y0003717519D01*
X0000292925Y0003717519D02*
X0000292925Y0003674484D01*
X0000221062Y0003617519D02*
X0000149200Y0003617519D01*
X0000149200Y0003617519D02*
X0000149200Y0003572204D01*
X0000221062Y0003517519D02*
X0000292925Y0003517519D01*
X0000292925Y0003517519D02*
X0000292925Y0003559350D01*
X0000221062Y0003417519D02*
X0000149200Y0003417519D01*
X0000149200Y0003417519D02*
X0000149200Y0003372204D01*
X0000221062Y0003317519D02*
X0000292925Y0003317519D01*
X0000292925Y0003317519D02*
X0000292925Y0003359350D01*
X0000221062Y0003217519D02*
X0000149200Y0003217519D01*
X0000149200Y0003260519D02*
X0000147834Y0003261885D01*
X0000149200Y0003217519D02*
X0000149200Y0003260519D01*
X0000221062Y0003117519D02*
X0000292925Y0003117519D01*
X0000292925Y0003117519D02*
X0000292925Y0003075692D01*
X0000221062Y0003017519D02*
X0000149200Y0003017519D01*
X0000149200Y0003017519D02*
X0000149200Y0003062834D01*
X0000221062Y0002917519D02*
X0000292925Y0002917519D01*
X0000292925Y0002917519D02*
X0000292925Y0002874653D01*
X0000221062Y0002817519D02*
X0000149200Y0002817519D01*
X0000149200Y0002817519D02*
X0000149200Y0002772204D01*
X0000221062Y0002717519D02*
X0000292925Y0002717519D01*
X0000292925Y0002717519D02*
X0000292925Y0002759350D01*
X0000221062Y0002617519D02*
X0000292925Y0002617519D01*
X0000292925Y0002617519D02*
X0000292925Y0002572551D01*
G04 next file*
G04 #@! TF.FileFunction,Copper,L1,Top,Signal*
G04 Gerber Fmt 4.6, Leading zero omitted, Abs format (unit mm)*
G04 Created by KiCad (PCBNEW 4.0.7-e2-6376~58~ubuntu16.04.1) date Sat Jan 13 09:46:35 2018*
G01G01*
G04 APERTURE LIST*
G04 APERTURE END LIST*
D53*
D54*
X-0005236220Y0005177165D02*
X0001113779Y0001993149D03*
X0000915354Y0001993149D03*
X0001113779Y0001893149D03*
X0000915354Y0001893149D03*
X0001113779Y0001793149D03*
X0000915354Y0001793149D03*
X0001113779Y0001693149D03*
X0000915354Y0001693149D03*
X0001113779Y0001593149D03*
X0000915354Y0001593149D03*
X0001113779Y0001493149D03*
X0000915354Y0001493149D03*
X0001113779Y0001393149D03*
X0000915354Y0001393149D03*
X0001113779Y0001293149D03*
X0000915354Y0001293149D03*
X0001113779Y0001193149D03*
X0000915354Y0001193149D03*
X0001113779Y0001093149D03*
X0000915354Y0001093149D03*
X0001113779Y0000993149D03*
X0000915354Y0000993149D03*
X0001113779Y0000893149D03*
X0000915354Y0000893149D03*
X0001113779Y0000793149D03*
X0000915354Y0000793149D03*
X0001113779Y0000693149D03*
X0000915354Y0000693149D03*
X0001113779Y0000593149D03*
X0000915354Y0000593149D03*
X0001113779Y0000493149D03*
X0000915354Y0000493149D03*
X0001113779Y0000393149D03*
X0000915354Y0000393149D03*
X0001113779Y0000293149D03*
X0000915354Y0000293149D03*
X0001113779Y0000193149D03*
X0000915354Y0000193149D03*
X0001113779Y0000093149D03*
X0000915354Y0000093149D03*
D55*
X0001185641Y0001847834D03*
X0001185641Y0001647834D03*
X0001105393Y0001543149D03*
X0001189133Y0001247889D03*
X0001185641Y0001047834D03*
X0001185641Y0000847834D03*
X0001110633Y0000737909D03*
X0001177228Y0000448673D03*
X0001180933Y0000338220D03*
X0001105393Y0000038011D03*
X0001058574Y0001948728D03*
X0001041917Y0001834980D03*
X0001041917Y0001634980D03*
X0001041917Y0001351251D03*
X0001041917Y0001151377D03*
X0001041917Y0001034980D03*
X0001041917Y0000834980D03*
X0001041917Y0000551251D03*
X0001041917Y0000351307D03*
X0001041917Y0000234980D03*
X0000843492Y0002038342D03*
X0000900598Y0001937830D03*
X0000843492Y0001838460D03*
X0000987216Y0001647996D03*
X0000843492Y0001547838D03*
X0000987216Y0001537507D03*
X0000843492Y0001348543D03*
X0000987216Y0001248614D03*
X0000862181Y0001146633D03*
X0000987216Y0001137712D03*
X0000843492Y0001038460D03*
X0000987216Y0000847996D03*
X0000843492Y0000747838D03*
X0000987216Y0000737507D03*
X0000843492Y0000548543D03*
X0000987216Y0000448614D03*
X0000843492Y0000348787D03*
X0000901968Y0000337539D03*
X0000843492Y0000238460D03*
X0000987216Y0000048622D03*
D56*
X0001113779Y0001893149D02*
X0001185641Y0001893149D01*
X0001185641Y0001893149D02*
X0001185641Y0001847834D01*
X0001113779Y0001693149D02*
X0001185641Y0001693149D01*
X0001185641Y0001693149D02*
X0001185641Y0001647834D01*
X0001066913Y0001543149D02*
X0001105393Y0001543149D01*
X0001041917Y0001518153D02*
X0001066913Y0001543149D01*
X0001041917Y0001493149D02*
X0001041917Y0001518153D01*
X0001113779Y0001493149D02*
X0001041917Y0001493149D01*
X0001113779Y0001293149D02*
X0001185641Y0001293149D01*
X0001185641Y0001251381D02*
X0001189133Y0001247889D01*
X0001185641Y0001293149D02*
X0001185641Y0001251381D01*
X0001113779Y0001093149D02*
X0001185641Y0001093149D01*
X0001185641Y0001093149D02*
X0001185641Y0001047834D01*
X0001113779Y0000893149D02*
X0001185641Y0000893149D01*
X0001185641Y0000893149D02*
X0001185641Y0000847834D01*
X0001110633Y0000737905D02*
X0001110633Y0000737909D01*
X0001060661Y0000737905D02*
X0001110633Y0000737905D01*
X0001041917Y0000719161D02*
X0001060661Y0000737905D01*
X0001041917Y0000693149D02*
X0001041917Y0000719161D01*
X0001113779Y0000693149D02*
X0001041917Y0000693149D01*
X0001113779Y0000493149D02*
X0001185641Y0000493149D01*
X0001185641Y0000457086D02*
X0001177228Y0000448673D01*
X0001185641Y0000493149D02*
X0001185641Y0000457086D01*
X0001113779Y0000293149D02*
X0001185641Y0000293149D01*
X0001185641Y0000333511D02*
X0001180933Y0000338220D01*
X0001185641Y0000293149D02*
X0001185641Y0000333511D01*
X0001069484Y0000038011D02*
X0001105393Y0000038011D01*
X0001041917Y0000065578D02*
X0001069484Y0000038011D01*
X0001041917Y0000093149D02*
X0001041917Y0000065578D01*
X0001113779Y0000093149D02*
X0001041917Y0000093149D01*
X0001113779Y0001993149D02*
X0001041917Y0001993149D01*
X0001041917Y0001965385D02*
X0001058574Y0001948728D01*
X0001041917Y0001993149D02*
X0001041917Y0001965385D01*
X0001113779Y0001793149D02*
X0001041917Y0001793149D01*
X0001041917Y0001793149D02*
X0001041917Y0001834980D01*
X0001113779Y0001593149D02*
X0001041917Y0001593149D01*
X0001041917Y0001593149D02*
X0001041917Y0001634980D01*
X0001113779Y0001393149D02*
X0001041917Y0001393149D01*
X0001041917Y0001393149D02*
X0001041917Y0001351251D01*
X0001113779Y0001193149D02*
X0001041917Y0001193149D01*
X0001041917Y0001193149D02*
X0001041917Y0001151377D01*
X0001113779Y0000993149D02*
X0001041917Y0000993149D01*
X0001041917Y0000993149D02*
X0001041917Y0001034980D01*
X0001113779Y0000793149D02*
X0001041917Y0000793149D01*
X0001041917Y0000793149D02*
X0001041917Y0000834980D01*
X0001113779Y0000593149D02*
X0001041917Y0000593149D01*
X0001041917Y0000593149D02*
X0001041917Y0000551251D01*
X0001113779Y0000393149D02*
X0001041917Y0000393149D01*
X0001041917Y0000393149D02*
X0001041917Y0000351307D01*
X0001113779Y0000193149D02*
X0001041917Y0000193149D01*
X0001041917Y0000193149D02*
X0001041917Y0000234980D01*
X0000915354Y0001993149D02*
X0000843492Y0001993149D01*
X0000843492Y0001993149D02*
X0000843492Y0002038342D01*
X0000900598Y0001907905D02*
X0000900598Y0001937830D01*
X0000915354Y0001893149D02*
X0000900598Y0001907905D01*
X0000915354Y0001793149D02*
X0000843492Y0001793149D01*
X0000843492Y0001793149D02*
X0000843492Y0001838460D01*
X0000915354Y0001693149D02*
X0000987216Y0001693149D01*
X0000987216Y0001693149D02*
X0000987216Y0001647996D01*
X0000915354Y0001593149D02*
X0000843492Y0001593149D01*
X0000843492Y0001593149D02*
X0000843492Y0001547838D01*
X0000915354Y0001493149D02*
X0000987216Y0001493149D01*
X0000987216Y0001493149D02*
X0000987216Y0001537507D01*
X0000915354Y0001393149D02*
X0000843492Y0001393149D01*
X0000843492Y0001393149D02*
X0000843492Y0001348543D01*
X0000915354Y0001293149D02*
X0000987216Y0001293149D01*
X0000987216Y0001293149D02*
X0000987216Y0001248614D01*
X0000843492Y0001165322D02*
X0000862181Y0001146633D01*
X0000843492Y0001193149D02*
X0000843492Y0001165322D01*
X0000915354Y0001193149D02*
X0000843492Y0001193149D01*
X0000915354Y0001093149D02*
X0000987216Y0001093149D01*
X0000987216Y0001093149D02*
X0000987216Y0001137712D01*
X0000915354Y0000993149D02*
X0000843492Y0000993149D01*
X0000843492Y0000993149D02*
X0000843492Y0001038460D01*
X0000915354Y0000893149D02*
X0000987216Y0000893149D01*
X0000987216Y0000893149D02*
X0000987216Y0000847996D01*
X0000915354Y0000793149D02*
X0000843492Y0000793149D01*
X0000843492Y0000793149D02*
X0000843492Y0000747838D01*
X0000915354Y0000693149D02*
X0000987216Y0000693149D01*
X0000987216Y0000693149D02*
X0000987216Y0000737507D01*
X0000915354Y0000593149D02*
X0000843492Y0000593149D01*
X0000843492Y0000593149D02*
X0000843492Y0000548543D01*
X0000915354Y0000493149D02*
X0000987216Y0000493149D01*
X0000987216Y0000493149D02*
X0000987216Y0000448614D01*
X0000915354Y0000393149D02*
X0000843492Y0000393149D01*
X0000843492Y0000393149D02*
X0000843492Y0000348787D01*
X0000901968Y0000306535D02*
X0000901968Y0000337539D01*
X0000915354Y0000293149D02*
X0000901968Y0000306535D01*
X0000915354Y0000193149D02*
X0000843492Y0000193149D01*
X0000843492Y0000193149D02*
X0000843492Y0000238460D01*
X0000915354Y0000093149D02*
X0000987216Y0000093149D01*
X0000987216Y0000093149D02*
X0000987216Y0000048622D01*
G04 next file*
G04 #@! TF.FileFunction,Copper,L1,Top,Signal*
G04 Gerber Fmt 4.6, Leading zero omitted, Abs format (unit mm)*
G04 Created by KiCad (PCBNEW 4.0.7-e2-6376~58~ubuntu16.04.1) date Sat Jan 13 09:47:37 2018*
G01G01*
G04 APERTURE LIST*
G04 APERTURE END LIST*
D57*
D58*
X-0005125000Y0005400000D02*
X0000423425Y0002325000D03*
X0000224999Y0002325000D03*
X0000423425Y0002225000D03*
X0000224999Y0002225000D03*
X0000423425Y0002125000D03*
X0000224999Y0002125000D03*
X0000423425Y0002025000D03*
X0000224999Y0002025000D03*
X0000423425Y0001925000D03*
X0000224999Y0001925000D03*
X0000423425Y0001825000D03*
X0000224999Y0001825000D03*
X0000423425Y0001725000D03*
X0000224999Y0001725000D03*
X0000423425Y0001625000D03*
X0000224999Y0001625000D03*
X0000423425Y0001525000D03*
X0000224999Y0001525000D03*
X0000423425Y0001425000D03*
X0000224999Y0001425000D03*
X0000423425Y0001325000D03*
X0000224999Y0001325000D03*
X0000423425Y0001225000D03*
X0000224999Y0001225000D03*
X0000423425Y0001125000D03*
X0000224999Y0001125000D03*
X0000423425Y0001025000D03*
X0000224999Y0001025000D03*
X0000423425Y0000925000D03*
X0000224999Y0000925000D03*
X0000423425Y0000825000D03*
X0000224999Y0000825000D03*
X0000423425Y0000725000D03*
X0000224999Y0000725000D03*
X0000423425Y0000625000D03*
X0000224999Y0000625000D03*
X0000423425Y0000525000D03*
X0000224999Y0000525000D03*
X0000423425Y0000425000D03*
X0000224999Y0000425000D03*
X0000423425Y0000325000D03*
X0000224999Y0000325000D03*
X0000423425Y0000225000D03*
X0000224999Y0000225000D03*
X0000423425Y0000125000D03*
X0000224999Y0000125000D03*
D59*
X0000599507Y0002223539D03*
X0000476602Y0002074630D03*
X0000476602Y0001875000D03*
X0000450692Y0001575000D03*
X0000450692Y0001375000D03*
X0000599507Y0001182185D03*
X0000476602Y0001075000D03*
X0000450692Y0000775000D03*
X0000450692Y0000575000D03*
X0000599507Y0000400000D03*
X0000476602Y0000275000D03*
X0000338436Y0002353740D03*
X0000336047Y0002145043D03*
X0000336047Y0001945043D03*
X0000339551Y0001748822D03*
X0000336047Y0001544665D03*
X0000371751Y0001370263D03*
X0000336047Y0001144539D03*
X0000338436Y0000944452D03*
X0000336047Y0000744665D03*
X0000371751Y0000570263D03*
X0000336047Y0000345043D03*
X0000351562Y0000055342D03*
X0000296862Y0002369968D03*
X0000141090Y0002223437D03*
X0000169590Y0002080114D03*
X0000140913Y0002023437D03*
X0000173448Y0001879685D03*
X0000140917Y0001825000D03*
X0000173448Y0001679685D03*
X0000141192Y0001628397D03*
X0000138932Y0001544689D03*
X0000296862Y0001466763D03*
X0000139665Y0001344862D03*
X0000140909Y0001221874D03*
X0000173448Y0001079685D03*
X0000296862Y0001067598D03*
X0000139846Y0000944452D03*
X0000141007Y0000825000D03*
X0000137271Y0000744878D03*
X0000296862Y0000667669D03*
X0000149188Y0000582259D03*
X0000140909Y0000421874D03*
X0000173448Y0000279685D03*
X0000296862Y0000267598D03*
X0000296862Y0000080122D03*
D60*
X0000598047Y0002225000D02*
X0000599507Y0002223539D01*
X0000423425Y0002225000D02*
X0000598047Y0002225000D01*
X0000495287Y0002055945D02*
X0000476602Y0002074630D01*
X0000495287Y0002025000D02*
X0000495287Y0002055945D01*
X0000423425Y0002025000D02*
X0000495287Y0002025000D01*
X0000495287Y0001856315D02*
X0000476602Y0001875000D01*
X0000495287Y0001825000D02*
X0000495287Y0001856315D01*
X0000423425Y0001825000D02*
X0000495287Y0001825000D01*
X0000423425Y0001625000D02*
X0000495287Y0001625000D01*
X0000471692Y0001575000D02*
X0000450692Y0001575000D01*
X0000495287Y0001598594D02*
X0000471692Y0001575000D01*
X0000495287Y0001625000D02*
X0000495287Y0001598594D01*
X0000423425Y0001425000D02*
X0000495287Y0001425000D01*
X0000471692Y0001375000D02*
X0000450692Y0001375000D01*
X0000495287Y0001398594D02*
X0000471692Y0001375000D01*
X0000495287Y0001425000D02*
X0000495287Y0001398594D01*
X0000556692Y0001225000D02*
X0000599507Y0001182185D01*
X0000423425Y0001225000D02*
X0000556692Y0001225000D01*
X0000495287Y0001056315D02*
X0000476602Y0001075000D01*
X0000495287Y0001025000D02*
X0000495287Y0001056315D01*
X0000423425Y0001025000D02*
X0000495287Y0001025000D01*
X0000423425Y0000825000D02*
X0000495287Y0000825000D01*
X0000471692Y0000775000D02*
X0000450692Y0000775000D01*
X0000495287Y0000798594D02*
X0000471692Y0000775000D01*
X0000495287Y0000825000D02*
X0000495287Y0000798594D01*
X0000423425Y0000625000D02*
X0000495287Y0000625000D01*
X0000471692Y0000575000D02*
X0000450692Y0000575000D01*
X0000495287Y0000598594D02*
X0000471692Y0000575000D01*
X0000495287Y0000625000D02*
X0000495287Y0000598594D01*
X0000574507Y0000425000D02*
X0000599507Y0000400000D01*
X0000423425Y0000425000D02*
X0000574507Y0000425000D01*
X0000495287Y0000256315D02*
X0000476602Y0000275000D01*
X0000495287Y0000225000D02*
X0000495287Y0000256315D01*
X0000423425Y0000225000D02*
X0000495287Y0000225000D01*
X0000423425Y0002325000D02*
X0000351562Y0002325000D01*
X0000351562Y0002340614D02*
X0000338436Y0002353740D01*
X0000351562Y0002325000D02*
X0000351562Y0002340614D01*
X0000423425Y0002125000D02*
X0000351562Y0002125000D01*
X0000351562Y0002129527D02*
X0000336047Y0002145043D01*
X0000351562Y0002125000D02*
X0000351562Y0002129527D01*
X0000423425Y0001925000D02*
X0000351562Y0001925000D01*
X0000351562Y0001929527D02*
X0000336047Y0001945043D01*
X0000351562Y0001925000D02*
X0000351562Y0001929527D01*
X0000351562Y0001736811D02*
X0000339551Y0001748822D01*
X0000351562Y0001725000D02*
X0000351562Y0001736811D01*
X0000423425Y0001725000D02*
X0000351562Y0001725000D01*
X0000423425Y0001525000D02*
X0000351562Y0001525000D01*
X0000351562Y0001529149D02*
X0000336047Y0001544665D01*
X0000351562Y0001525000D02*
X0000351562Y0001529149D01*
X0000423425Y0001325000D02*
X0000351562Y0001325000D01*
X0000351562Y0001350074D02*
X0000371751Y0001370263D01*
X0000351562Y0001325000D02*
X0000351562Y0001350074D01*
X0000423425Y0001125000D02*
X0000351562Y0001125000D01*
X0000351562Y0001129023D02*
X0000336047Y0001144539D01*
X0000351562Y0001125000D02*
X0000351562Y0001129023D01*
X0000351562Y0000931326D02*
X0000338436Y0000944452D01*
X0000351562Y0000925000D02*
X0000351562Y0000931326D01*
X0000423425Y0000925000D02*
X0000351562Y0000925000D01*
X0000423425Y0000725000D02*
X0000351562Y0000725000D01*
X0000351562Y0000729149D02*
X0000336047Y0000744665D01*
X0000351562Y0000725000D02*
X0000351562Y0000729149D01*
X0000423425Y0000525000D02*
X0000351562Y0000525000D01*
X0000351562Y0000550074D02*
X0000371751Y0000570263D01*
X0000351562Y0000525000D02*
X0000351562Y0000550074D01*
X0000423425Y0000325000D02*
X0000351562Y0000325000D01*
X0000351562Y0000329527D02*
X0000336047Y0000345043D01*
X0000351562Y0000325000D02*
X0000351562Y0000329527D01*
X0000423425Y0000125000D02*
X0000351562Y0000125000D01*
X0000351562Y0000125000D02*
X0000351562Y0000055342D01*
X0000224999Y0002325000D02*
X0000296862Y0002325000D01*
X0000296862Y0002325000D02*
X0000296862Y0002369968D01*
X0000142653Y0002225000D02*
X0000141090Y0002223437D01*
X0000224999Y0002225000D02*
X0000142653Y0002225000D01*
X0000224999Y0002125000D02*
X0000153137Y0002125000D01*
X0000153137Y0002096567D02*
X0000169590Y0002080114D01*
X0000153137Y0002125000D02*
X0000153137Y0002096567D01*
X0000142476Y0002025000D02*
X0000140913Y0002023437D01*
X0000224999Y0002025000D02*
X0000142476Y0002025000D01*
X0000224999Y0001925000D02*
X0000153137Y0001925000D01*
X0000153137Y0001899996D02*
X0000173448Y0001879685D01*
X0000153137Y0001925000D02*
X0000153137Y0001899996D01*
X0000224999Y0001825000D02*
X0000140917Y0001825000D01*
X0000224999Y0001725000D02*
X0000153137Y0001725000D01*
X0000153137Y0001699996D02*
X0000173448Y0001679685D01*
X0000153137Y0001725000D02*
X0000153137Y0001699996D01*
X0000144590Y0001625000D02*
X0000141192Y0001628397D01*
X0000224999Y0001625000D02*
X0000144590Y0001625000D01*
X0000153137Y0001530484D02*
X0000138932Y0001544689D01*
X0000153137Y0001525000D02*
X0000153137Y0001530484D01*
X0000224999Y0001525000D02*
X0000153137Y0001525000D01*
X0000224999Y0001425000D02*
X0000296862Y0001425000D01*
X0000296862Y0001425000D02*
X0000296862Y0001466763D01*
X0000153137Y0001331389D02*
X0000139665Y0001344862D01*
X0000153137Y0001325000D02*
X0000153137Y0001331389D01*
X0000224999Y0001325000D02*
X0000153137Y0001325000D01*
X0000144035Y0001225000D02*
X0000140909Y0001221874D01*
X0000224999Y0001225000D02*
X0000144035Y0001225000D01*
X0000224999Y0001125000D02*
X0000153137Y0001125000D01*
X0000153137Y0001099996D02*
X0000173448Y0001079685D01*
X0000153137Y0001125000D02*
X0000153137Y0001099996D01*
X0000224999Y0001025000D02*
X0000296862Y0001025000D01*
X0000296862Y0001025000D02*
X0000296862Y0001067598D01*
X0000224999Y0000925000D02*
X0000153137Y0000925000D01*
X0000153137Y0000931161D02*
X0000139846Y0000944452D01*
X0000153137Y0000925000D02*
X0000153137Y0000931161D01*
X0000224999Y0000825000D02*
X0000141007Y0000825000D01*
X0000153137Y0000729011D02*
X0000137271Y0000744878D01*
X0000153137Y0000725000D02*
X0000153137Y0000729011D01*
X0000224999Y0000725000D02*
X0000153137Y0000725000D01*
X0000224999Y0000625000D02*
X0000296862Y0000625000D01*
X0000296862Y0000625000D02*
X0000296862Y0000667669D01*
X0000153137Y0000578311D02*
X0000149188Y0000582259D01*
X0000153137Y0000525000D02*
X0000153137Y0000578311D01*
X0000224999Y0000525000D02*
X0000153137Y0000525000D01*
X0000144035Y0000425000D02*
X0000140909Y0000421874D01*
X0000224999Y0000425000D02*
X0000144035Y0000425000D01*
X0000224999Y0000325000D02*
X0000153137Y0000325000D01*
X0000153137Y0000299996D02*
X0000173448Y0000279685D01*
X0000153137Y0000325000D02*
X0000153137Y0000299996D01*
X0000224999Y0000225000D02*
X0000296862Y0000225000D01*
X0000296862Y0000225000D02*
X0000296862Y0000267598D01*
X0000224999Y0000125000D02*
X0000296862Y0000125000D01*
X0000296862Y0000125000D02*
X0000296862Y0000080122D01*
G04 next file*
G04 #@! TF.FileFunction,Copper,L1,Top,Signal*
G04 Gerber Fmt 4.6, Leading zero omitted, Abs format (unit mm)*
G04 Created by KiCad (PCBNEW 4.0.7-e2-6376~58~ubuntu16.04.1) date Sat Jan 13 09:51:46 2018*
G01G01*
G04 APERTURE LIST*
G04 APERTURE END LIST*
D61*
D62*
X-0002696850Y0006712598D02*
X0003212992Y0003342519D03*
X0003112992Y0003342519D03*
X0003312992Y0003342519D03*
X0003062992Y0003242519D03*
X0003162992Y0003242519D03*
X0003262992Y0003242519D03*
D63*
X0003453149Y0003162598D03*
X0002922834Y0003162598D03*
G04 next file*
G04 #@! TF.FileFunction,Copper,L1,Top,Signal*
G04 Gerber Fmt 4.6, Leading zero omitted, Abs format (unit mm)*
G04 Created by KiCad (PCBNEW 4.0.7-e2-6376~58~ubuntu16.04.1) date Sat Jan 13 09:50:08 2018*
G01G01*
G04 APERTURE LIST*
G04 APERTURE END LIST*
D64*
D65*
X-0003405511Y0006043307D02*
X0002849645Y0001659291D03*
X0002382322Y0001659291D03*
D66*
X0002440984Y0001909291D03*
D67*
X0002490984Y0002009291D03*
X0002540984Y0001909291D03*
X0002590984Y0002009291D03*
X0002640984Y0001909291D03*
X0002690984Y0002009291D03*
X0002740984Y0001909291D03*
X0002790984Y0002009291D03*
G04 next file*
G04 #@! TF.FileFunction,Copper,L1,Top,Signal*
G04 Gerber Fmt 4.6, Leading zero omitted, Abs format (unit mm)*
G04 Created by KiCad (PCBNEW 4.0.7-e2-6376~58~ubuntu16.04.1) date Sat Jan 13 09:53:06 2018*
G01G01*
G04 APERTURE LIST*
G04 APERTURE END LIST*
D68*
D69*
X-0004803149Y0005944881D02*
X0001980511Y0001844881D03*
X0001513188Y0001844881D03*
D70*
X0001571850Y0002094881D03*
D71*
X0001621850Y0002194881D03*
X0001671850Y0002094881D03*
X0001721850Y0002194881D03*
X0001771850Y0002094881D03*
X0001821850Y0002194881D03*
X0001871850Y0002094881D03*
X0001921850Y0002194881D03*
D72*
X0001609944Y0001432976D03*
D73*
X0001621850Y0001444881D02*
X0001609944Y0001432976D01*
X0001621850Y0002194881D02*
X0001621850Y0001444881D01*
G04 next file*
G04 #@! TF.FileFunction,Copper,L1,Top,Signal*
G04 Gerber Fmt 4.6, Leading zero omitted, Abs format (unit mm)*
G04 Created by KiCad (PCBNEW 4.0.7-e2-6376~58~ubuntu16.04.1) date Sat Jan 13 09:54:45 2018*
G01G01*
G04 APERTURE LIST*
G04 APERTURE END LIST*
D74*
D75*
X-0003346456Y0006377952D02*
X0002350039Y0002684837D03*
X0002400039Y0002684837D03*
X0002450039Y0002684837D03*
X0002500039Y0002684837D03*
X0002550039Y0002684837D03*
X0002600039Y0002684837D03*
X0002650039Y0002684837D03*
D76*
X0002248139Y0002608037D03*
X0002751939Y0002608037D03*
D77*
X0002413779Y0002763019D03*
X0002703759Y0002685940D03*
X0002358543Y0002750976D03*
X0002542267Y0002751393D03*
X0002490807Y0002564295D03*
X0002410492Y0002609728D03*
X0002600039Y0002515118D03*
D78*
X0002437854Y0002738944D02*
X0002413779Y0002763019D01*
X0002450039Y0002738944D02*
X0002437854Y0002738944D01*
X0002450039Y0002684838D02*
X0002450039Y0002738944D01*
X0002703755Y0002685940D02*
X0002703759Y0002685940D01*
X0002703755Y0002711539D02*
X0002703755Y0002685940D01*
X0002676350Y0002738944D02*
X0002703755Y0002711539D01*
X0002650039Y0002738944D02*
X0002676350Y0002738944D01*
X0002650039Y0002684838D02*
X0002650039Y0002738944D01*
X0002350039Y0002684838D02*
X0002350039Y0002738944D01*
X0002350039Y0002742472D02*
X0002358543Y0002750976D01*
X0002350039Y0002738944D02*
X0002350039Y0002742472D01*
X0002550039Y0002743622D02*
X0002542267Y0002751393D01*
X0002550039Y0002684838D02*
X0002550039Y0002743622D01*
X0002490807Y0002621500D02*
X0002490807Y0002564295D01*
X0002500039Y0002630732D02*
X0002490807Y0002621500D01*
X0002500039Y0002684838D02*
X0002500039Y0002630732D01*
X0002400039Y0002620181D02*
X0002410492Y0002609728D01*
X0002400039Y0002684838D02*
X0002400039Y0002620181D01*
X0002600039Y0002684838D02*
X0002600039Y0002515118D01*
G04 next file*
G04 #@! TF.FileFunction,Copper,L1,Top,Signal*
G04 Gerber Fmt 4.6, Leading zero omitted, Abs format (unit mm)*
G04 Created by KiCad (PCBNEW 4.0.7-e2-6376~58~ubuntu16.04.1) date Sat Jan 13 09:54:03 2018*
G01G01*
G04 APERTURE LIST*
G04 APERTURE END LIST*
D79*
D80*
X-0002460629Y0006377952D02*
X0003235866Y0002684837D03*
X0003285866Y0002684837D03*
X0003335866Y0002684837D03*
X0003385866Y0002684837D03*
X0003435866Y0002684837D03*
X0003485866Y0002684837D03*
X0003535866Y0002684837D03*
D81*
X0003133966Y0002608037D03*
X0003637766Y0002608037D03*
D82*
X0003282968Y0002618834D03*
X0003386874Y0002617925D03*
X0003498740Y0002617523D03*
X0003230263Y0002617118D03*
X0003335866Y0002618771D03*
X0003435866Y0002618759D03*
X0003547732Y0002618866D03*
D83*
X0003285866Y0002621732D02*
X0003282968Y0002618834D01*
X0003285866Y0002684838D02*
X0003285866Y0002621732D01*
X0003386874Y0002629724D02*
X0003386874Y0002617925D01*
X0003385866Y0002630732D02*
X0003386874Y0002629724D01*
X0003385866Y0002684838D02*
X0003385866Y0002630732D01*
X0003485866Y0002630397D02*
X0003498740Y0002617523D01*
X0003485866Y0002684838D02*
X0003485866Y0002630397D01*
X0003230263Y0002625129D02*
X0003230263Y0002617118D01*
X0003235866Y0002630732D02*
X0003230263Y0002625129D01*
X0003235866Y0002684838D02*
X0003235866Y0002630732D01*
X0003335866Y0002684838D02*
X0003335866Y0002618771D01*
X0003435866Y0002684838D02*
X0003435866Y0002618759D01*
X0003535866Y0002684838D02*
X0003535866Y0002630732D01*
X0003535866Y0002630732D02*
X0003547732Y0002618866D01*
M02*