%MOIN*%
%OFA0B0*%
%FSLAX46Y46*%
%IPPOS*%
%LPD*%
%ADD10C,0.0039370078740157488*%
%ADD21C,0.0039370078740157488*%
%ADD22R,0.11456692913385828X0.055118110236220472*%
%ADD23C,0.0039370078740157488*%
%ADD24R,0.13976377952755906X0.055118110236220472*%
%ADD25C,0.0039370078740157488*%
%ADD26R,0.11456692913385828X0.055118110236220472*%
%ADD27C,0.0039370078740157488*%
%ADD28R,0.11456692913385828X0.055118110236220472*%
%ADD29C,0.0039370078740157488*%
%ADD30R,0.11456692913385828X0.055118110236220472*%
%ADD31C,0.0039370078740157488*%
%ADD32R,0.11456692913385828X0.055118110236220472*%
%ADD33C,0.0039370078740157488*%
%ADD34R,0.11456692913385828X0.055118110236220472*%
%ADD35C,0.0039370078740157488*%
%ADD36R,0.11456692913385828X0.055118110236220472*%
%ADD37C,0.0039370078740157488*%
%ADD38R,0.11456692913385828X0.055118110236220472*%
%ADD39C,0.0039370078740157488*%
%ADD40R,0.11456692913385828X0.055118110236220472*%
%ADD41C,0.0039370078740157488*%
%ADD42C,0.075590551181102361*%
%ADD43C,0.13385826771653545*%
%ADD44R,0.055118110236220472X0.11456692913385828*%
%ADD45C,0.0039370078740157488*%
%ADD46C,0.15944881889763779*%
%ADD47R,0.074803149606299218X0.074803149606299218*%
%ADD48C,0.074803149606299218*%
%ADD49R,0.055118110236220472X0.11456692913385828*%
%ADD50C,0.0039370078740157488*%
%ADD51C,0.15944881889763779*%
%ADD52R,0.074803149606299218X0.074803149606299218*%
%ADD53C,0.074803149606299218*%
%ADD54R,0.055118110236220472X0.11456692913385828*%
%ADD55C,0.0039370078740157488*%
%ADD56R,0.055118110236220472X0.11456692913385828*%
%ADD57C,0.0039370078740157488*%
%ADD58R,0.055118110236220472X0.11456692913385828*%
G01G01*
D10*
G04 next file*
G04 #@! TF.FileFunction,Soldermask,Bot*
G04 Gerber Fmt 4.6, Leading zero omitted, Abs format (unit mm)*
G04 Created by KiCad (PCBNEW 4.0.7-e2-6376~58~ubuntu16.04.1) date Sat Jan 13 09:32:06 2018*
G01G01*
G04 APERTURE LIST*
G04 APERTURE END LIST*
D21*
D22*
X-0002440944Y0005807086D02*
X0003474212Y0001912086D03*
X0003474212Y0001712086D03*
X0003474212Y0001512086D03*
X0003474212Y0001312086D03*
X0003343897Y0002012086D03*
X0003343897Y0001812086D03*
X0003343897Y0001612086D03*
X0003343897Y0001412086D03*
G04 next file*
G04 #@! TF.FileFunction,Soldermask,Bot*
G04 Gerber Fmt 4.6, Leading zero omitted, Abs format (unit mm)*
G04 Created by KiCad (PCBNEW 4.0.7-e2-6376~58~ubuntu16.04.1) date Sat Jan 13 09:35:41 2018*
G01G01*
G04 APERTURE LIST*
G04 APERTURE END LIST*
D23*
D24*
X-0004862204Y0006870078D02*
X0001081614Y0002985078D03*
X0000882795Y0002985078D03*
X0001081614Y0002885078D03*
X0000882795Y0002885078D03*
X0001081614Y0002785078D03*
X0000882795Y0002785078D03*
X0001081614Y0002685078D03*
X0000882795Y0002685078D03*
X0001081614Y0002585078D03*
X0000882795Y0002585078D03*
G04 next file*
G04 #@! TF.FileFunction,Soldermask,Bot*
G04 Gerber Fmt 4.6, Leading zero omitted, Abs format (unit mm)*
G04 Created by KiCad (PCBNEW 4.0.7-e2-6376~58~ubuntu16.04.1) date Sat Jan 13 09:37:07 2018*
G01G01*
G04 APERTURE LIST*
G04 APERTURE END LIST*
D25*
D26*
X-0005157480Y0007795275D02*
X0000937519Y0003711259D03*
X0000937519Y0003511259D03*
X0000807204Y0003811259D03*
X0000807204Y0003611259D03*
X0001237519Y0003710275D03*
X0001237519Y0003510275D03*
X0001107204Y0003810275D03*
X0001107204Y0003610275D03*
G04 next file*
G04 #@! TF.FileFunction,Soldermask,Bot*
G04 Gerber Fmt 4.6, Leading zero omitted, Abs format (unit mm)*
G04 Created by KiCad (PCBNEW 4.0.7-e2-6376~58~ubuntu16.04.1) date Sat Jan 13 09:41:55 2018*
G01G01*
G04 APERTURE LIST*
G04 APERTURE END LIST*
D27*
D28*
X-0003602362Y0007775590D02*
X0001647952Y0003735590D03*
X0001647952Y0003535590D03*
X0001517637Y0003835590D03*
X0001517637Y0003635590D03*
X0001517637Y0003435590D03*
X0001947637Y0003736574D03*
X0001947637Y0003536574D03*
X0001817322Y0003836574D03*
X0001817322Y0003636574D03*
X0001817322Y0003436574D03*
G04 next file*
G04 #@! TF.FileFunction,Soldermask,Bot*
G04 Gerber Fmt 4.6, Leading zero omitted, Abs format (unit mm)*
G04 Created by KiCad (PCBNEW 4.0.7-e2-6376~58~ubuntu16.04.1) date Sat Jan 13 09:41:31 2018*
G01G01*
G04 APERTURE LIST*
G04 APERTURE END LIST*
D29*
D30*
X-0002125984Y0007224409D02*
X0002359330Y0003284409D03*
X0002359330Y0003084409D03*
X0002229015Y0003384409D03*
X0002229015Y0003184409D03*
X0002229015Y0002984409D03*
X0002659330Y0003284409D03*
X0002659330Y0003084409D03*
X0002529015Y0003384409D03*
X0002529015Y0003184409D03*
X0002529015Y0002984409D03*
G04 next file*
G04 #@! TF.FileFunction,Soldermask,Bot*
G04 Gerber Fmt 4.6, Leading zero omitted, Abs format (unit mm)*
G04 Created by KiCad (PCBNEW 4.0.7-e2-6376~58~ubuntu16.04.1) date Sat Jan 13 09:42:42 2018*
G01G01*
G04 APERTURE LIST*
G04 APERTURE END LIST*
D31*
D32*
X-0004133858Y0006968503D02*
X0001626456Y0003083503D03*
X0001626456Y0002883503D03*
X0001626456Y0002683503D03*
X0001626456Y0002483503D03*
X0001496141Y0003183503D03*
X0001496141Y0002983503D03*
X0001496141Y0002783503D03*
X0001496141Y0002583503D03*
X0001926456Y0003083503D03*
X0001926456Y0002883503D03*
X0001926456Y0002683503D03*
X0001926456Y0002483503D03*
X0001796141Y0003183503D03*
X0001796141Y0002983503D03*
X0001796141Y0002783503D03*
X0001796141Y0002583503D03*
G04 next file*
G04 #@! TF.FileFunction,Soldermask,Bot*
G04 Gerber Fmt 4.6, Leading zero omitted, Abs format (unit mm)*
G04 Created by KiCad (PCBNEW 4.0.7-e2-6376~58~ubuntu16.04.1) date Sat Jan 13 09:44:16 2018*
G01G01*
G04 APERTURE LIST*
G04 APERTURE END LIST*
D33*
D34*
X-0002814960Y0004685039D02*
X0002940354Y0000900039D03*
X0002940354Y0000700039D03*
X0002940354Y0000500039D03*
X0002940354Y0000300039D03*
X0002940354Y0000100039D03*
X0002810039Y0001000039D03*
X0002810039Y0000800039D03*
X0002810039Y0000600039D03*
X0002810039Y0000400039D03*
X0002810039Y0000200039D03*
X0003240039Y0000900039D03*
X0003240039Y0000700039D03*
X0003240039Y0000500039D03*
X0003240039Y0000300039D03*
X0003240039Y0000100039D03*
X0003109724Y0001000039D03*
X0003109724Y0000800039D03*
X0003109724Y0000600039D03*
X0003109724Y0000400039D03*
X0003109724Y0000200039D03*
G04 next file*
G04 #@! TF.FileFunction,Soldermask,Bot*
G04 Gerber Fmt 4.6, Leading zero omitted, Abs format (unit mm)*
G04 Created by KiCad (PCBNEW 4.0.7-e2-6376~58~ubuntu16.04.1) date Sat Jan 13 09:58:48 2018*
G01G01*
G04 APERTURE LIST*
G04 APERTURE END LIST*
D35*
D36*
X-0006003937Y0007342519D02*
X0000526377Y0003717519D03*
X0000526377Y0003517519D03*
X0000526377Y0003317519D03*
X0000526377Y0003117519D03*
X0000526377Y0002917519D03*
X0000526377Y0002717519D03*
X0000396062Y0003817519D03*
X0000396062Y0003617519D03*
X0000396062Y0003417519D03*
X0000396062Y0003217519D03*
X0000396062Y0003017519D03*
X0000396062Y0002817519D03*
X0000396062Y0002617519D03*
X0000226377Y0003717519D03*
X0000226377Y0003517519D03*
X0000226377Y0003317519D03*
X0000226377Y0003117519D03*
X0000226377Y0002917519D03*
X0000226377Y0002717519D03*
X0000096062Y0003817519D03*
X0000096062Y0003617519D03*
X0000096062Y0003417519D03*
X0000096062Y0003217519D03*
X0000096062Y0003017519D03*
X0000096062Y0002817519D03*
X0000096062Y0002617519D03*
G04 next file*
G04 #@! TF.FileFunction,Soldermask,Bot*
G04 Gerber Fmt 4.6, Leading zero omitted, Abs format (unit mm)*
G04 Created by KiCad (PCBNEW 4.0.7-e2-6376~58~ubuntu16.04.1) date Sat Jan 13 09:46:35 2018*
G01G01*
G04 APERTURE LIST*
G04 APERTURE END LIST*
D37*
D38*
X-0005236220Y0005177165D02*
X0001238779Y0001893149D03*
X0001238779Y0001693149D03*
X0001238779Y0001493149D03*
X0001238779Y0001293149D03*
X0001238779Y0001093149D03*
X0001238779Y0000893149D03*
X0001238779Y0000693149D03*
X0001238779Y0000493149D03*
X0001238779Y0000293149D03*
X0001238779Y0000093149D03*
X0001108464Y0001993149D03*
X0001108464Y0001793149D03*
X0001108464Y0001593149D03*
X0001108464Y0001393149D03*
X0001108464Y0001193149D03*
X0001108464Y0000993149D03*
X0001108464Y0000793149D03*
X0001108464Y0000593149D03*
X0001108464Y0000393149D03*
X0001108464Y0000193149D03*
X0000944094Y0001893149D03*
X0000944094Y0001693149D03*
X0000944094Y0001493149D03*
X0000944094Y0001293149D03*
X0000944094Y0001093149D03*
X0000944094Y0000893149D03*
X0000944094Y0000693149D03*
X0000944094Y0000493149D03*
X0000944094Y0000293149D03*
X0000944094Y0000093149D03*
X0000813779Y0001993149D03*
X0000813779Y0001793149D03*
X0000813779Y0001593149D03*
X0000813779Y0001393149D03*
X0000813779Y0001193149D03*
X0000813779Y0000993149D03*
X0000813779Y0000793149D03*
X0000813779Y0000593149D03*
X0000813779Y0000393149D03*
X0000813779Y0000193149D03*
G04 next file*
G04 #@! TF.FileFunction,Soldermask,Bot*
G04 Gerber Fmt 4.6, Leading zero omitted, Abs format (unit mm)*
G04 Created by KiCad (PCBNEW 4.0.7-e2-6376~58~ubuntu16.04.1) date Sat Jan 13 09:47:37 2018*
G01G01*
G04 APERTURE LIST*
G04 APERTURE END LIST*
D39*
D40*
X-0005125000Y0005400000D02*
X0000524999Y0002200000D03*
X0000524999Y0002000000D03*
X0000524999Y0001800000D03*
X0000524999Y0001600000D03*
X0000524999Y0001400000D03*
X0000524999Y0001200000D03*
X0000524999Y0001000000D03*
X0000524999Y0000800000D03*
X0000524999Y0000600000D03*
X0000524999Y0000400000D03*
X0000524999Y0000200000D03*
X0000394684Y0002300000D03*
X0000394684Y0002100000D03*
X0000394684Y0001900000D03*
X0000394684Y0001700000D03*
X0000394684Y0001500000D03*
X0000394684Y0001300000D03*
X0000394684Y0001100000D03*
X0000394684Y0000900000D03*
X0000394684Y0000700000D03*
X0000394684Y0000500000D03*
X0000394684Y0000300000D03*
X0000394684Y0000100000D03*
X0000224999Y0002200000D03*
X0000224999Y0002000000D03*
X0000224999Y0001800000D03*
X0000224999Y0001600000D03*
X0000224999Y0001400000D03*
X0000224999Y0001200000D03*
X0000224999Y0001000000D03*
X0000224999Y0000800000D03*
X0000224999Y0000600000D03*
X0000224999Y0000400000D03*
X0000224999Y0000200000D03*
X0000094684Y0002300000D03*
X0000094684Y0002100000D03*
X0000094684Y0001900000D03*
X0000094684Y0001700000D03*
X0000094684Y0001500000D03*
X0000094684Y0001300000D03*
X0000094684Y0001100000D03*
X0000094684Y0000900000D03*
X0000094684Y0000700000D03*
X0000094684Y0000500000D03*
X0000094684Y0000300000D03*
X0000094684Y0000100000D03*
G04 next file*
G04 #@! TF.FileFunction,Soldermask,Bot*
G04 Gerber Fmt 4.6, Leading zero omitted, Abs format (unit mm)*
G04 Created by KiCad (PCBNEW 4.0.7-e2-6376~58~ubuntu16.04.1) date Sat Jan 13 09:51:46 2018*
G01G01*
G04 APERTURE LIST*
G04 APERTURE END LIST*
D41*
D42*
X-0002696850Y0006712598D02*
X0003212992Y0003342519D03*
X0003112992Y0003342519D03*
X0003312992Y0003342519D03*
X0003062992Y0003242519D03*
X0003162992Y0003242519D03*
X0003262992Y0003242519D03*
D43*
X0003453149Y0003162598D03*
X0002922834Y0003162598D03*
D44*
X0003103149Y0003102755D03*
X0003303149Y0003102755D03*
X0003003149Y0002972440D03*
X0003203149Y0002972440D03*
G04 next file*
G04 #@! TF.FileFunction,Soldermask,Bot*
G04 Gerber Fmt 4.6, Leading zero omitted, Abs format (unit mm)*
G04 Created by KiCad (PCBNEW 4.0.7-e2-6376~58~ubuntu16.04.1) date Sat Jan 13 09:50:08 2018*
G01G01*
G04 APERTURE LIST*
G04 APERTURE END LIST*
D45*
D46*
X-0003405511Y0006043307D02*
X0002849645Y0001659291D03*
X0002382322Y0001659291D03*
D47*
X0002440984Y0001909291D03*
D48*
X0002490984Y0002009291D03*
X0002540984Y0001909291D03*
X0002590984Y0002009291D03*
X0002640984Y0001909291D03*
X0002690984Y0002009291D03*
X0002740984Y0001909291D03*
X0002790984Y0002009291D03*
D49*
X0002369488Y0001498622D03*
X0002569488Y0001498622D03*
X0002769488Y0001498622D03*
X0002969488Y0001498622D03*
X0002269488Y0001368307D03*
X0002469488Y0001368307D03*
X0002669488Y0001368307D03*
X0002869488Y0001368307D03*
G04 next file*
G04 #@! TF.FileFunction,Soldermask,Bot*
G04 Gerber Fmt 4.6, Leading zero omitted, Abs format (unit mm)*
G04 Created by KiCad (PCBNEW 4.0.7-e2-6376~58~ubuntu16.04.1) date Sat Jan 13 09:53:06 2018*
G01G01*
G04 APERTURE LIST*
G04 APERTURE END LIST*
D50*
D51*
X-0004803149Y0005944881D02*
X0001980511Y0001844881D03*
X0001513188Y0001844881D03*
D52*
X0001571850Y0002094881D03*
D53*
X0001621850Y0002194881D03*
X0001671850Y0002094881D03*
X0001721850Y0002194881D03*
X0001771850Y0002094881D03*
X0001821850Y0002194881D03*
X0001871850Y0002094881D03*
X0001921850Y0002194881D03*
D54*
X0001646850Y0001500196D03*
X0001846850Y0001500196D03*
X0001546850Y0001369881D03*
X0001746850Y0001369881D03*
X0001646850Y0001794881D03*
X0001846850Y0001794881D03*
X0001546850Y0001664566D03*
X0001746850Y0001664566D03*
G04 next file*
G04 #@! TF.FileFunction,Soldermask,Bot*
G04 Gerber Fmt 4.6, Leading zero omitted, Abs format (unit mm)*
G04 Created by KiCad (PCBNEW 4.0.7-e2-6376~58~ubuntu16.04.1) date Sat Jan 13 09:54:45 2018*
G01G01*
G04 APERTURE LIST*
G04 APERTURE END LIST*
D55*
D56*
X-0003346456Y0006377952D02*
X0002458543Y0002708267D03*
X0002658543Y0002708267D03*
X0002358543Y0002577952D03*
X0002558543Y0002577952D03*
X0002458543Y0002407952D03*
X0002358543Y0002277637D03*
X0002558543Y0002277637D03*
G04 next file*
G04 #@! TF.FileFunction,Soldermask,Bot*
G04 Gerber Fmt 4.6, Leading zero omitted, Abs format (unit mm)*
G04 Created by KiCad (PCBNEW 4.0.7-e2-6376~58~ubuntu16.04.1) date Sat Jan 13 09:54:03 2018*
G01G01*
G04 APERTURE LIST*
G04 APERTURE END LIST*
D57*
D58*
X-0002460629Y0006377952D02*
X0003189370Y0002468110D03*
X0003389370Y0002468110D03*
X0003589370Y0002468110D03*
X0003089370Y0002337795D03*
X0003289370Y0002337795D03*
X0003489370Y0002337795D03*
X0003689370Y0002337795D03*
M02*