%MOIN*%
%OFA0B0*%
%FSLAX46Y46*%
%IPPOS*%
%LPD*%
%ADD10C,0.0039370078740157488*%
%ADD21C,0.0039370078740157488*%
%ADD22C,0.0047244094488188976*%
%ADD23C,0.005905511811023622*%
%ADD24C,0.0039370078740157488*%
%ADD25C,0.0047244094488188976*%
%ADD26C,0.005905511811023622*%
%ADD27C,0.0039370078740157488*%
%ADD28C,0.0047244094488188976*%
%ADD29C,0.005905511811023622*%
%ADD30C,0.0039370078740157488*%
%ADD31C,0.0047244094488188976*%
%ADD32C,0.005905511811023622*%
%ADD33C,0.0039370078740157488*%
%ADD34C,0.0047244094488188976*%
%ADD35C,0.005905511811023622*%
%ADD36C,0.0039370078740157488*%
%ADD37C,0.0047244094488188976*%
%ADD38C,0.005905511811023622*%
%ADD39C,0.0039370078740157488*%
%ADD40C,0.0047244094488188976*%
%ADD41C,0.005905511811023622*%
%ADD42C,0.0039370078740157488*%
%ADD43C,0.0047244094488188976*%
%ADD44C,0.005905511811023622*%
%ADD45C,0.0039370078740157488*%
%ADD46C,0.0047244094488188976*%
%ADD47C,0.005905511811023622*%
%ADD48C,0.0039370078740157488*%
%ADD49C,0.0047244094488188976*%
%ADD50C,0.005905511811023622*%
%ADD51C,0.0039370078740157488*%
%ADD52C,0.0047244094488188976*%
%ADD53C,0.005905511811023622*%
%ADD54C,0.0039370078740157488*%
%ADD55C,0.0047244094488188976*%
%ADD56C,0.005905511811023622*%
%ADD57C,0.0039370078740157488*%
%ADD58C,0.0047244094488188976*%
%ADD59C,0.005905511811023622*%
%ADD60C,0.0039370078740157488*%
%ADD61C,0.0047244094488188976*%
%ADD62C,0.005905511811023622*%
%ADD63C,0.0039370078740157488*%
%ADD64C,0.0047244094488188976*%
%ADD65C,0.005905511811023622*%
G01G01*
D10*
G04 next file*
G04 #@! TF.FileFunction,Legend,Bot*
G04 Gerber Fmt 4.6, Leading zero omitted, Abs format (unit mm)*
G04 Created by KiCad (PCBNEW 4.0.7-e2-6376~58~ubuntu16.04.1) date Sat Jan 13 09:32:06 2018*
G01G01*
G04 APERTURE LIST*
G04 APERTURE END LIST*
D21*
D22*
X0003461417Y0002064448D02*
X0003356692Y0002064448D01*
X0003461417Y0001259724D02*
X0003356692Y0001259724D01*
X0003356692Y0001982165D02*
X0003356692Y0001842007D01*
X0003356692Y0001782165D02*
X0003356692Y0001642007D01*
X0003356692Y0001582165D02*
X0003356692Y0001442007D01*
X0003356692Y0001382165D02*
X0003356692Y0001259724D01*
X0003461417Y0002064448D02*
X0003461417Y0001942007D01*
X0003356692Y0002042007D02*
X0003296850Y0002042007D01*
X0003356692Y0002064448D02*
X0003356692Y0002042007D01*
X0003461417Y0001282165D02*
X0003461417Y0001259724D01*
X0003461417Y0001882165D02*
X0003461417Y0001742007D01*
X0003461417Y0001682165D02*
X0003461417Y0001542007D01*
X0003461417Y0001482165D02*
X0003461417Y0001342007D01*
D23*
X0003422178Y0002125378D02*
X0003422178Y0002097257D01*
X0003424053Y0002091632D01*
X0003427802Y0002087883D01*
X0003433427Y0002086008D01*
X0003437176Y0002086008D01*
X0003382808Y0002086008D02*
X0003405305Y0002086008D01*
X0003394057Y0002086008D02*
X0003394057Y0002125378D01*
X0003397806Y0002119754D01*
X0003401556Y0002116004D01*
X0003405305Y0002114130D01*
G04 next file*
G04 #@! TF.FileFunction,Legend,Bot*
G04 Gerber Fmt 4.6, Leading zero omitted, Abs format (unit mm)*
G04 Created by KiCad (PCBNEW 4.0.7-e2-6376~58~ubuntu16.04.1) date Sat Jan 13 09:35:41 2018*
G01G01*
G04 APERTURE LIST*
G04 APERTURE END LIST*
D24*
D25*
X0001084566Y0003037440D02*
X0000879842Y0003037440D01*
X0001084566Y0002532716D02*
X0000879842Y0002532716D01*
X0001141259Y0003015000D02*
X0001084566Y0003015000D01*
X0001084566Y0003037440D02*
X0001084566Y0003015000D01*
X0000879842Y0003037440D02*
X0000879842Y0003015000D01*
X0001084566Y0002555157D02*
X0001084566Y0002532716D01*
X0000879842Y0002555157D02*
X0000879842Y0002532716D01*
X0001084566Y0002955157D02*
X0001084566Y0002915000D01*
X0000879842Y0002955157D02*
X0000879842Y0002915000D01*
X0001084566Y0002855157D02*
X0001084566Y0002815000D01*
X0000879842Y0002855157D02*
X0000879842Y0002815000D01*
X0001084566Y0002755157D02*
X0001084566Y0002715000D01*
X0000879842Y0002755157D02*
X0000879842Y0002715000D01*
X0001084566Y0002655157D02*
X0001084566Y0002615000D01*
X0000879842Y0002655157D02*
X0000879842Y0002615000D01*
D26*
X0000995328Y0003098370D02*
X0000995328Y0003070249D01*
X0000997202Y0003064625D01*
X0001000952Y0003060875D01*
X0001006576Y0003059000D01*
X0001010326Y0003059000D01*
X0000978455Y0003094621D02*
X0000976580Y0003096496D01*
X0000972830Y0003098370D01*
X0000963457Y0003098370D01*
X0000959707Y0003096496D01*
X0000957832Y0003094621D01*
X0000955957Y0003090871D01*
X0000955957Y0003087122D01*
X0000957832Y0003081497D01*
X0000980329Y0003059000D01*
X0000955957Y0003059000D01*
G04 next file*
G04 #@! TF.FileFunction,Legend,Bot*
G04 Gerber Fmt 4.6, Leading zero omitted, Abs format (unit mm)*
G04 Created by KiCad (PCBNEW 4.0.7-e2-6376~58~ubuntu16.04.1) date Sat Jan 13 09:37:07 2018*
G01G01*
G04 APERTURE LIST*
G04 APERTURE END LIST*
D27*
D28*
X0000924724Y0003863622D02*
X0000820000Y0003863622D01*
X0000924724Y0003458897D02*
X0000820000Y0003458897D01*
X0000820000Y0003781338D02*
X0000820000Y0003641181D01*
X0000820000Y0003581338D02*
X0000820000Y0003458897D01*
X0000924724Y0003863622D02*
X0000924724Y0003741181D01*
X0000820000Y0003841181D02*
X0000760157Y0003841181D01*
X0000820000Y0003863622D02*
X0000820000Y0003841181D01*
X0000924724Y0003481338D02*
X0000924724Y0003458897D01*
X0000924724Y0003681338D02*
X0000924724Y0003541181D01*
X0001224724Y0003862637D02*
X0001120000Y0003862637D01*
X0001224724Y0003457913D02*
X0001120000Y0003457913D01*
X0001120000Y0003780354D02*
X0001120000Y0003640196D01*
X0001120000Y0003580354D02*
X0001120000Y0003457913D01*
X0001224724Y0003862637D02*
X0001224724Y0003740196D01*
X0001120000Y0003840196D02*
X0001060157Y0003840196D01*
X0001120000Y0003862637D02*
X0001120000Y0003840196D01*
X0001224724Y0003480354D02*
X0001224724Y0003457913D01*
X0001224724Y0003680354D02*
X0001224724Y0003540196D01*
D29*
X0000840642Y0003891819D02*
X0000840642Y0003863698D01*
X0000842517Y0003858073D01*
X0000846267Y0003854324D01*
X0000851891Y0003852449D01*
X0000855641Y0003852449D01*
X0000801272Y0003852449D02*
X0000823770Y0003852449D01*
X0000812521Y0003852449D02*
X0000812521Y0003891819D01*
X0000816271Y0003886195D01*
X0000820020Y0003882445D01*
X0000823770Y0003880571D01*
X0001200642Y0003891835D02*
X0001200642Y0003863713D01*
X0001202517Y0003858089D01*
X0001206267Y0003854340D01*
X0001211891Y0003852465D01*
X0001215641Y0003852465D01*
X0001185644Y0003891835D02*
X0001161272Y0003891835D01*
X0001174396Y0003876837D01*
X0001168772Y0003876837D01*
X0001165022Y0003874962D01*
X0001163147Y0003873087D01*
X0001161272Y0003869338D01*
X0001161272Y0003859964D01*
X0001163147Y0003856214D01*
X0001165022Y0003854340D01*
X0001168772Y0003852465D01*
X0001180020Y0003852465D01*
X0001183770Y0003854340D01*
X0001185644Y0003856214D01*
G04 next file*
G04 #@! TF.FileFunction,Legend,Bot*
G04 Gerber Fmt 4.6, Leading zero omitted, Abs format (unit mm)*
G04 Created by KiCad (PCBNEW 4.0.7-e2-6376~58~ubuntu16.04.1) date Sat Jan 13 09:41:55 2018*
G01G01*
G04 APERTURE LIST*
G04 APERTURE END LIST*
D30*
D31*
X0001635157Y0003887952D02*
X0001530433Y0003887952D01*
X0001635157Y0003383228D02*
X0001530433Y0003383228D01*
X0001530433Y0003805669D02*
X0001530433Y0003665511D01*
X0001530433Y0003605669D02*
X0001530433Y0003465511D01*
X0001635157Y0003887952D02*
X0001635157Y0003765511D01*
X0001530433Y0003865511D02*
X0001470590Y0003865511D01*
X0001530433Y0003887952D02*
X0001530433Y0003865511D01*
X0001635157Y0003405669D02*
X0001635157Y0003383228D01*
X0001635157Y0003705669D02*
X0001635157Y0003565511D01*
X0001635157Y0003505669D02*
X0001635157Y0003383228D01*
X0001934842Y0003888937D02*
X0001830118Y0003888937D01*
X0001934842Y0003384212D02*
X0001830118Y0003384212D01*
X0001830118Y0003806653D02*
X0001830118Y0003666496D01*
X0001830118Y0003606653D02*
X0001830118Y0003466496D01*
X0001934842Y0003888937D02*
X0001934842Y0003766496D01*
X0001830118Y0003866496D02*
X0001770275Y0003866496D01*
X0001830118Y0003888937D02*
X0001830118Y0003866496D01*
X0001934842Y0003406653D02*
X0001934842Y0003384212D01*
X0001934842Y0003706653D02*
X0001934842Y0003566496D01*
X0001934842Y0003506653D02*
X0001934842Y0003384212D01*
D32*
X0001620761Y0003907150D02*
X0001620761Y0003879028D01*
X0001622635Y0003873404D01*
X0001626385Y0003869655D01*
X0001632009Y0003867780D01*
X0001635759Y0003867780D01*
X0001581391Y0003867780D02*
X0001603888Y0003867780D01*
X0001592639Y0003867780D02*
X0001592639Y0003907150D01*
X0001596389Y0003901526D01*
X0001600138Y0003897776D01*
X0001603888Y0003895901D01*
X0001920761Y0003897134D02*
X0001920761Y0003869013D01*
X0001922635Y0003863388D01*
X0001926385Y0003859639D01*
X0001932009Y0003857764D01*
X0001935759Y0003857764D01*
X0001905763Y0003897134D02*
X0001881391Y0003897134D01*
X0001894514Y0003882136D01*
X0001888890Y0003882136D01*
X0001885140Y0003880261D01*
X0001883265Y0003878386D01*
X0001881391Y0003874637D01*
X0001881391Y0003865263D01*
X0001883265Y0003861514D01*
X0001885140Y0003859639D01*
X0001888890Y0003857764D01*
X0001900138Y0003857764D01*
X0001903888Y0003859639D01*
X0001905763Y0003861514D01*
G04 next file*
G04 #@! TF.FileFunction,Legend,Bot*
G04 Gerber Fmt 4.6, Leading zero omitted, Abs format (unit mm)*
G04 Created by KiCad (PCBNEW 4.0.7-e2-6376~58~ubuntu16.04.1) date Sat Jan 13 09:41:31 2018*
G01G01*
G04 APERTURE LIST*
G04 APERTURE END LIST*
D33*
D34*
X0002346535Y0003436771D02*
X0002241810Y0003436771D01*
X0002346535Y0002932047D02*
X0002241810Y0002932047D01*
X0002241810Y0003354488D02*
X0002241810Y0003214330D01*
X0002241810Y0003154488D02*
X0002241810Y0003014330D01*
X0002346535Y0003436771D02*
X0002346535Y0003314330D01*
X0002241810Y0003414330D02*
X0002181968Y0003414330D01*
X0002241810Y0003436771D02*
X0002241810Y0003414330D01*
X0002346535Y0002954488D02*
X0002346535Y0002932047D01*
X0002346535Y0003254488D02*
X0002346535Y0003114330D01*
X0002346535Y0003054488D02*
X0002346535Y0002932047D01*
X0002646535Y0003436771D02*
X0002541811Y0003436771D01*
X0002646535Y0002932047D02*
X0002541811Y0002932047D01*
X0002541811Y0003354488D02*
X0002541811Y0003214330D01*
X0002541811Y0003154488D02*
X0002541811Y0003014330D01*
X0002646535Y0003436771D02*
X0002646535Y0003314330D01*
X0002541811Y0003414330D02*
X0002481968Y0003414330D01*
X0002541811Y0003436771D02*
X0002541811Y0003414330D01*
X0002646535Y0002954488D02*
X0002646535Y0002932047D01*
X0002646535Y0003254488D02*
X0002646535Y0003114330D01*
X0002646535Y0003054488D02*
X0002646535Y0002932047D01*
D35*
X0002307296Y0003497701D02*
X0002307296Y0003469580D01*
X0002309171Y0003463955D01*
X0002312920Y0003460206D01*
X0002318545Y0003458331D01*
X0002322294Y0003458331D01*
X0002267926Y0003458331D02*
X0002290423Y0003458331D01*
X0002279175Y0003458331D02*
X0002279175Y0003497701D01*
X0002282924Y0003492077D01*
X0002286674Y0003488327D01*
X0002290423Y0003486452D01*
X0002607296Y0003497701D02*
X0002607296Y0003469580D01*
X0002609171Y0003463955D01*
X0002612920Y0003460206D01*
X0002618545Y0003458331D01*
X0002622294Y0003458331D01*
X0002592298Y0003497701D02*
X0002567926Y0003497701D01*
X0002581049Y0003482703D01*
X0002575425Y0003482703D01*
X0002571676Y0003480828D01*
X0002569801Y0003478953D01*
X0002567926Y0003475204D01*
X0002567926Y0003465830D01*
X0002569801Y0003462080D01*
X0002571676Y0003460206D01*
X0002575425Y0003458331D01*
X0002586674Y0003458331D01*
X0002590423Y0003460206D01*
X0002592298Y0003462080D01*
G04 next file*
G04 #@! TF.FileFunction,Legend,Bot*
G04 Gerber Fmt 4.6, Leading zero omitted, Abs format (unit mm)*
G04 Created by KiCad (PCBNEW 4.0.7-e2-6376~58~ubuntu16.04.1) date Sat Jan 13 09:42:42 2018*
G01G01*
G04 APERTURE LIST*
G04 APERTURE END LIST*
D36*
D37*
X0001613661Y0003235866D02*
X0001508937Y0003235866D01*
X0001613661Y0002431141D02*
X0001508937Y0002431141D01*
X0001508937Y0003153582D02*
X0001508937Y0003013425D01*
X0001508937Y0002953582D02*
X0001508937Y0002813425D01*
X0001508937Y0002753582D02*
X0001508937Y0002613425D01*
X0001508937Y0002553582D02*
X0001508937Y0002431141D01*
X0001613661Y0003235866D02*
X0001613661Y0003113425D01*
X0001508937Y0003213425D02*
X0001449094Y0003213425D01*
X0001508937Y0003235866D02*
X0001508937Y0003213425D01*
X0001613661Y0002453582D02*
X0001613661Y0002431141D01*
X0001613661Y0003053582D02*
X0001613661Y0002913425D01*
X0001613661Y0002853582D02*
X0001613661Y0002713425D01*
X0001613661Y0002653582D02*
X0001613661Y0002513425D01*
X0001913661Y0003235866D02*
X0001808937Y0003235866D01*
X0001913661Y0002431141D02*
X0001808937Y0002431141D01*
X0001808937Y0003153582D02*
X0001808937Y0003013425D01*
X0001808937Y0002953582D02*
X0001808937Y0002813425D01*
X0001808937Y0002753582D02*
X0001808937Y0002613425D01*
X0001808937Y0002553582D02*
X0001808937Y0002431141D01*
X0001913661Y0003235866D02*
X0001913661Y0003113425D01*
X0001808937Y0003213425D02*
X0001749094Y0003213425D01*
X0001808937Y0003235866D02*
X0001808937Y0003213425D01*
X0001913661Y0002453582D02*
X0001913661Y0002431141D01*
X0001913661Y0003053582D02*
X0001913661Y0002913425D01*
X0001913661Y0002853582D02*
X0001913661Y0002713425D01*
X0001913661Y0002653582D02*
X0001913661Y0002513425D01*
D38*
X0001574422Y0003296796D02*
X0001574422Y0003268674D01*
X0001576297Y0003263050D01*
X0001580046Y0003259300D01*
X0001585671Y0003257425D01*
X0001589420Y0003257425D01*
X0001535052Y0003257425D02*
X0001557549Y0003257425D01*
X0001546301Y0003257425D02*
X0001546301Y0003296796D01*
X0001550050Y0003291171D01*
X0001553800Y0003287422D01*
X0001557549Y0003285547D01*
X0001874422Y0003296796D02*
X0001874422Y0003268674D01*
X0001876297Y0003263050D01*
X0001880046Y0003259300D01*
X0001885671Y0003257425D01*
X0001889420Y0003257425D01*
X0001859424Y0003296796D02*
X0001835052Y0003296796D01*
X0001848175Y0003281797D01*
X0001842551Y0003281797D01*
X0001838801Y0003279923D01*
X0001836927Y0003278048D01*
X0001835052Y0003274298D01*
X0001835052Y0003264925D01*
X0001836927Y0003261175D01*
X0001838801Y0003259300D01*
X0001842551Y0003257425D01*
X0001853800Y0003257425D01*
X0001857549Y0003259300D01*
X0001859424Y0003261175D01*
G04 next file*
G04 #@! TF.FileFunction,Legend,Bot*
G04 Gerber Fmt 4.6, Leading zero omitted, Abs format (unit mm)*
G04 Created by KiCad (PCBNEW 4.0.7-e2-6376~58~ubuntu16.04.1) date Sat Jan 13 09:44:16 2018*
G01G01*
G04 APERTURE LIST*
G04 APERTURE END LIST*
D39*
D40*
X0002927559Y0001052401D02*
X0002822834Y0001052401D01*
X0002927559Y0000047677D02*
X0002822834Y0000047677D01*
X0002822834Y0000970118D02*
X0002822834Y0000829960D01*
X0002822834Y0000770118D02*
X0002822834Y0000629960D01*
X0002822834Y0000570118D02*
X0002822834Y0000429960D01*
X0002822834Y0000370118D02*
X0002822834Y0000229960D01*
X0002822834Y0000170118D02*
X0002822834Y0000047677D01*
X0002927559Y0001052401D02*
X0002927559Y0000929960D01*
X0002822834Y0001029960D02*
X0002762992Y0001029960D01*
X0002822834Y0001052401D02*
X0002822834Y0001029960D01*
X0002927559Y0000070118D02*
X0002927559Y0000047677D01*
X0002927559Y0000870118D02*
X0002927559Y0000729960D01*
X0002927559Y0000670118D02*
X0002927559Y0000529960D01*
X0002927559Y0000470118D02*
X0002927559Y0000329960D01*
X0002927559Y0000270118D02*
X0002927559Y0000129960D01*
X0003227244Y0001052401D02*
X0003122519Y0001052401D01*
X0003227244Y0000047677D02*
X0003122519Y0000047677D01*
X0003122519Y0000970118D02*
X0003122519Y0000829960D01*
X0003122519Y0000770118D02*
X0003122519Y0000629960D01*
X0003122519Y0000570118D02*
X0003122519Y0000429960D01*
X0003122519Y0000370118D02*
X0003122519Y0000229960D01*
X0003122519Y0000170118D02*
X0003122519Y0000047677D01*
X0003227244Y0001052401D02*
X0003227244Y0000929960D01*
X0003122519Y0001029960D02*
X0003062677Y0001029960D01*
X0003122519Y0001052401D02*
X0003122519Y0001029960D01*
X0003227244Y0000070118D02*
X0003227244Y0000047677D01*
X0003227244Y0000870118D02*
X0003227244Y0000729960D01*
X0003227244Y0000670118D02*
X0003227244Y0000529960D01*
X0003227244Y0000470118D02*
X0003227244Y0000329960D01*
X0003227244Y0000270118D02*
X0003227244Y0000129960D01*
D41*
X0002888320Y0001113331D02*
X0002888320Y0001085209D01*
X0002890195Y0001079585D01*
X0002893944Y0001075836D01*
X0002899568Y0001073961D01*
X0002903318Y0001073961D01*
X0002848950Y0001073961D02*
X0002871447Y0001073961D01*
X0002860198Y0001073961D02*
X0002860198Y0001113331D01*
X0002863948Y0001107707D01*
X0002867697Y0001103957D01*
X0002871447Y0001102082D01*
X0003188005Y0001113331D02*
X0003188005Y0001085209D01*
X0003189880Y0001079585D01*
X0003193629Y0001075836D01*
X0003199253Y0001073961D01*
X0003203003Y0001073961D01*
X0003173007Y0001113331D02*
X0003148635Y0001113331D01*
X0003161758Y0001098333D01*
X0003156134Y0001098333D01*
X0003152384Y0001096458D01*
X0003150509Y0001094583D01*
X0003148635Y0001090834D01*
X0003148635Y0001081460D01*
X0003150509Y0001077710D01*
X0003152384Y0001075836D01*
X0003156134Y0001073961D01*
X0003167382Y0001073961D01*
X0003171132Y0001075836D01*
X0003173007Y0001077710D01*
G04 next file*
G04 #@! TF.FileFunction,Legend,Bot*
G04 Gerber Fmt 4.6, Leading zero omitted, Abs format (unit mm)*
G04 Created by KiCad (PCBNEW 4.0.7-e2-6376~58~ubuntu16.04.1) date Sat Jan 13 09:58:48 2018*
G01G01*
G04 APERTURE LIST*
G04 APERTURE END LIST*
D42*
D43*
X0000513582Y0003869881D02*
X0000408858Y0003869881D01*
X0000513582Y0002565157D02*
X0000408858Y0002565157D01*
X0000408858Y0003787598D02*
X0000408858Y0003647440D01*
X0000408858Y0003587598D02*
X0000408858Y0003447440D01*
X0000408858Y0003387598D02*
X0000408858Y0003247440D01*
X0000408858Y0003187598D02*
X0000408858Y0003047440D01*
X0000408858Y0002987598D02*
X0000408858Y0002847440D01*
X0000408858Y0002787598D02*
X0000408858Y0002647440D01*
X0000513582Y0003869881D02*
X0000513582Y0003747440D01*
X0000408858Y0003847440D02*
X0000349015Y0003847440D01*
X0000408858Y0003869881D02*
X0000408858Y0003847440D01*
X0000513582Y0002587598D02*
X0000513582Y0002565157D01*
X0000513582Y0003687598D02*
X0000513582Y0003547440D01*
X0000513582Y0003487598D02*
X0000513582Y0003347440D01*
X0000513582Y0003287598D02*
X0000513582Y0003147440D01*
X0000513582Y0003087598D02*
X0000513582Y0002947440D01*
X0000513582Y0002887598D02*
X0000513582Y0002747440D01*
X0000513582Y0002687598D02*
X0000513582Y0002565157D01*
X0000213582Y0003869881D02*
X0000108858Y0003869881D01*
X0000213582Y0002565157D02*
X0000108858Y0002565157D01*
X0000108858Y0003787598D02*
X0000108858Y0003647440D01*
X0000108858Y0003587598D02*
X0000108858Y0003447440D01*
X0000108858Y0003387598D02*
X0000108858Y0003247440D01*
X0000108858Y0003187598D02*
X0000108858Y0003047440D01*
X0000108858Y0002987598D02*
X0000108858Y0002847440D01*
X0000108858Y0002787598D02*
X0000108858Y0002647440D01*
X0000213582Y0003869881D02*
X0000213582Y0003747440D01*
X0000108858Y0003847440D02*
X0000049015Y0003847440D01*
X0000108858Y0003869881D02*
X0000108858Y0003847440D01*
X0000213582Y0002587598D02*
X0000213582Y0002565157D01*
X0000213582Y0003687598D02*
X0000213582Y0003547440D01*
X0000213582Y0003487598D02*
X0000213582Y0003347440D01*
X0000213582Y0003287598D02*
X0000213582Y0003147440D01*
X0000213582Y0003087598D02*
X0000213582Y0002947440D01*
X0000213582Y0002887598D02*
X0000213582Y0002747440D01*
X0000213582Y0002687598D02*
X0000213582Y0002565157D01*
D44*
X0000474343Y0003930811D02*
X0000474343Y0003902690D01*
X0000476218Y0003897065D01*
X0000479968Y0003893316D01*
X0000485592Y0003891441D01*
X0000489341Y0003891441D01*
X0000434973Y0003891441D02*
X0000457470Y0003891441D01*
X0000446222Y0003891441D02*
X0000446222Y0003930811D01*
X0000449971Y0003925187D01*
X0000453721Y0003921437D01*
X0000457470Y0003919563D01*
X0000174343Y0003930811D02*
X0000174343Y0003902690D01*
X0000176218Y0003897065D01*
X0000179968Y0003893316D01*
X0000185592Y0003891441D01*
X0000189341Y0003891441D01*
X0000159345Y0003930811D02*
X0000134973Y0003930811D01*
X0000148097Y0003915813D01*
X0000142472Y0003915813D01*
X0000138723Y0003913938D01*
X0000136848Y0003912064D01*
X0000134973Y0003908314D01*
X0000134973Y0003898940D01*
X0000136848Y0003895191D01*
X0000138723Y0003893316D01*
X0000142472Y0003891441D01*
X0000153721Y0003891441D01*
X0000157470Y0003893316D01*
X0000159345Y0003895191D01*
G04 next file*
G04 #@! TF.FileFunction,Legend,Bot*
G04 Gerber Fmt 4.6, Leading zero omitted, Abs format (unit mm)*
G04 Created by KiCad (PCBNEW 4.0.7-e2-6376~58~ubuntu16.04.1) date Sat Jan 13 09:46:35 2018*
G01G01*
G04 APERTURE LIST*
G04 APERTURE END LIST*
D45*
D46*
X0001225984Y0002045511D02*
X0001121259Y0002045511D01*
X0001225984Y0000040787D02*
X0001121259Y0000040787D01*
X0001121259Y0001963228D02*
X0001121259Y0001823070D01*
X0001121259Y0001763228D02*
X0001121259Y0001623070D01*
X0001121259Y0001563228D02*
X0001121259Y0001423070D01*
X0001121259Y0001363228D02*
X0001121259Y0001223070D01*
X0001121259Y0001163228D02*
X0001121259Y0001023070D01*
X0001121259Y0000963228D02*
X0001121259Y0000823070D01*
X0001121259Y0000763228D02*
X0001121259Y0000623070D01*
X0001121259Y0000563228D02*
X0001121259Y0000423070D01*
X0001121259Y0000363228D02*
X0001121259Y0000223070D01*
X0001121259Y0000163228D02*
X0001121259Y0000040787D01*
X0001225984Y0002045511D02*
X0001225984Y0001923070D01*
X0001121259Y0002023070D02*
X0001061417Y0002023070D01*
X0001121259Y0002045511D02*
X0001121259Y0002023070D01*
X0001225984Y0000063228D02*
X0001225984Y0000040787D01*
X0001225984Y0001863228D02*
X0001225984Y0001723070D01*
X0001225984Y0001663228D02*
X0001225984Y0001523070D01*
X0001225984Y0001463228D02*
X0001225984Y0001323070D01*
X0001225984Y0001263228D02*
X0001225984Y0001123070D01*
X0001225984Y0001063228D02*
X0001225984Y0000923070D01*
X0001225984Y0000863228D02*
X0001225984Y0000723070D01*
X0001225984Y0000663228D02*
X0001225984Y0000523070D01*
X0001225984Y0000463228D02*
X0001225984Y0000323070D01*
X0001225984Y0000263228D02*
X0001225984Y0000123070D01*
X0000931299Y0002045511D02*
X0000826574Y0002045511D01*
X0000931299Y0000040787D02*
X0000826574Y0000040787D01*
X0000826574Y0001963228D02*
X0000826574Y0001823070D01*
X0000826574Y0001763228D02*
X0000826574Y0001623070D01*
X0000826574Y0001563228D02*
X0000826574Y0001423070D01*
X0000826574Y0001363228D02*
X0000826574Y0001223070D01*
X0000826574Y0001163228D02*
X0000826574Y0001023070D01*
X0000826574Y0000963228D02*
X0000826574Y0000823070D01*
X0000826574Y0000763228D02*
X0000826574Y0000623070D01*
X0000826574Y0000563228D02*
X0000826574Y0000423070D01*
X0000826574Y0000363228D02*
X0000826574Y0000223070D01*
X0000826574Y0000163228D02*
X0000826574Y0000040787D01*
X0000931299Y0002045511D02*
X0000931299Y0001923070D01*
X0000826574Y0002023070D02*
X0000766732Y0002023070D01*
X0000826574Y0002045511D02*
X0000826574Y0002023070D01*
X0000931299Y0000063228D02*
X0000931299Y0000040787D01*
X0000931299Y0001863228D02*
X0000931299Y0001723070D01*
X0000931299Y0001663228D02*
X0000931299Y0001523070D01*
X0000931299Y0001463228D02*
X0000931299Y0001323070D01*
X0000931299Y0001263228D02*
X0000931299Y0001123070D01*
X0000931299Y0001063228D02*
X0000931299Y0000923070D01*
X0000931299Y0000863228D02*
X0000931299Y0000723070D01*
X0000931299Y0000663228D02*
X0000931299Y0000523070D01*
X0000931299Y0000463228D02*
X0000931299Y0000323070D01*
X0000931299Y0000263228D02*
X0000931299Y0000123070D01*
D47*
X0001226902Y0002048709D02*
X0001226902Y0002020587D01*
X0001228777Y0002014963D01*
X0001232527Y0002011214D01*
X0001238151Y0002009339D01*
X0001241901Y0002009339D01*
X0001187532Y0002009339D02*
X0001210029Y0002009339D01*
X0001198781Y0002009339D02*
X0001198781Y0002048709D01*
X0001202530Y0002043085D01*
X0001206280Y0002039335D01*
X0001210029Y0002037460D01*
X0000926902Y0002048709D02*
X0000926902Y0002020587D01*
X0000928777Y0002014963D01*
X0000932527Y0002011214D01*
X0000938151Y0002009339D01*
X0000941900Y0002009339D01*
X0000911904Y0002048709D02*
X0000887532Y0002048709D01*
X0000900656Y0002033711D01*
X0000895031Y0002033711D01*
X0000891282Y0002031836D01*
X0000889407Y0002029961D01*
X0000887532Y0002026212D01*
X0000887532Y0002016838D01*
X0000889407Y0002013088D01*
X0000891282Y0002011214D01*
X0000895031Y0002009339D01*
X0000906280Y0002009339D01*
X0000910030Y0002011214D01*
X0000911904Y0002013088D01*
G04 next file*
G04 #@! TF.FileFunction,Legend,Bot*
G04 Gerber Fmt 4.6, Leading zero omitted, Abs format (unit mm)*
G04 Created by KiCad (PCBNEW 4.0.7-e2-6376~58~ubuntu16.04.1) date Sat Jan 13 09:47:37 2018*
G01G01*
G04 APERTURE LIST*
G04 APERTURE END LIST*
D48*
D49*
X0000512204Y0002352362D02*
X0000407480Y0002352362D01*
X0000512204Y0000047637D02*
X0000407480Y0000047637D01*
X0000407480Y0002270078D02*
X0000407480Y0002129921D01*
X0000407480Y0002070078D02*
X0000407480Y0001929921D01*
X0000407480Y0001870078D02*
X0000407480Y0001729921D01*
X0000407480Y0001670078D02*
X0000407480Y0001529921D01*
X0000407480Y0001470078D02*
X0000407480Y0001329921D01*
X0000407480Y0001270078D02*
X0000407480Y0001129921D01*
X0000407480Y0001070078D02*
X0000407480Y0000929921D01*
X0000407480Y0000870078D02*
X0000407480Y0000729921D01*
X0000407480Y0000670078D02*
X0000407480Y0000529921D01*
X0000407480Y0000470078D02*
X0000407480Y0000329921D01*
X0000407480Y0000270078D02*
X0000407480Y0000129921D01*
X0000512204Y0002352362D02*
X0000512204Y0002229921D01*
X0000407480Y0002329921D02*
X0000347637Y0002329921D01*
X0000407480Y0002352362D02*
X0000407480Y0002329921D01*
X0000512204Y0000070078D02*
X0000512204Y0000047637D01*
X0000512204Y0002170078D02*
X0000512204Y0002029921D01*
X0000512204Y0001970078D02*
X0000512204Y0001829921D01*
X0000512204Y0001770078D02*
X0000512204Y0001629921D01*
X0000512204Y0001570078D02*
X0000512204Y0001429921D01*
X0000512204Y0001370078D02*
X0000512204Y0001229921D01*
X0000512204Y0001170078D02*
X0000512204Y0001029921D01*
X0000512204Y0000970078D02*
X0000512204Y0000829921D01*
X0000512204Y0000770078D02*
X0000512204Y0000629921D01*
X0000512204Y0000570078D02*
X0000512204Y0000429921D01*
X0000512204Y0000370078D02*
X0000512204Y0000229921D01*
X0000512204Y0000170078D02*
X0000512204Y0000047637D01*
X0000212204Y0002352362D02*
X0000107480Y0002352362D01*
X0000212204Y0000047637D02*
X0000107480Y0000047637D01*
X0000107480Y0002270078D02*
X0000107480Y0002129921D01*
X0000107480Y0002070078D02*
X0000107480Y0001929921D01*
X0000107480Y0001870078D02*
X0000107480Y0001729921D01*
X0000107480Y0001670078D02*
X0000107480Y0001529921D01*
X0000107480Y0001470078D02*
X0000107480Y0001329921D01*
X0000107480Y0001270078D02*
X0000107480Y0001129921D01*
X0000107480Y0001070078D02*
X0000107480Y0000929921D01*
X0000107480Y0000870078D02*
X0000107480Y0000729921D01*
X0000107480Y0000670078D02*
X0000107480Y0000529921D01*
X0000107480Y0000470078D02*
X0000107480Y0000329921D01*
X0000107480Y0000270078D02*
X0000107480Y0000129921D01*
X0000212204Y0002352362D02*
X0000212204Y0002229921D01*
X0000107480Y0002329921D02*
X0000047637Y0002329921D01*
X0000107480Y0002352362D02*
X0000107480Y0002329921D01*
X0000212204Y0000070078D02*
X0000212204Y0000047637D01*
X0000212204Y0002170078D02*
X0000212204Y0002029921D01*
X0000212204Y0001970078D02*
X0000212204Y0001829921D01*
X0000212204Y0001770078D02*
X0000212204Y0001629921D01*
X0000212204Y0001570078D02*
X0000212204Y0001429921D01*
X0000212204Y0001370078D02*
X0000212204Y0001229921D01*
X0000212204Y0001170078D02*
X0000212204Y0001029921D01*
X0000212204Y0000970078D02*
X0000212204Y0000829921D01*
X0000212204Y0000770078D02*
X0000212204Y0000629921D01*
X0000212204Y0000570078D02*
X0000212204Y0000429921D01*
X0000212204Y0000370078D02*
X0000212204Y0000229921D01*
X0000212204Y0000170078D02*
X0000212204Y0000047637D01*
D50*
X0000472965Y0002413292D02*
X0000472965Y0002385170D01*
X0000474840Y0002379546D01*
X0000478590Y0002375796D01*
X0000484214Y0002373922D01*
X0000487963Y0002373922D01*
X0000433595Y0002373922D02*
X0000456092Y0002373922D01*
X0000444844Y0002373922D02*
X0000444844Y0002413292D01*
X0000448593Y0002407667D01*
X0000452343Y0002403918D01*
X0000456092Y0002402043D01*
X0000172965Y0002413292D02*
X0000172965Y0002385170D01*
X0000174840Y0002379546D01*
X0000178590Y0002375796D01*
X0000184214Y0002373922D01*
X0000187963Y0002373922D01*
X0000157967Y0002413292D02*
X0000133595Y0002413292D01*
X0000146719Y0002398294D01*
X0000141094Y0002398294D01*
X0000137345Y0002396419D01*
X0000135470Y0002394544D01*
X0000133595Y0002390795D01*
X0000133595Y0002381421D01*
X0000135470Y0002377671D01*
X0000137345Y0002375796D01*
X0000141094Y0002373922D01*
X0000152343Y0002373922D01*
X0000156092Y0002375796D01*
X0000157967Y0002377671D01*
G04 next file*
G04 #@! TF.FileFunction,Legend,Bot*
G04 Gerber Fmt 4.6, Leading zero omitted, Abs format (unit mm)*
G04 Created by KiCad (PCBNEW 4.0.7-e2-6376~58~ubuntu16.04.1) date Sat Jan 13 09:51:46 2018*
G01G01*
G04 APERTURE LIST*
G04 APERTURE END LIST*
D51*
D52*
X0002950787Y0003089960D02*
X0002950787Y0002985236D01*
X0003355511Y0003089960D02*
X0003355511Y0002985236D01*
X0003033070Y0002985236D02*
X0003173228Y0002985236D01*
X0003233070Y0002985236D02*
X0003355511Y0002985236D01*
X0002950787Y0003089960D02*
X0003073228Y0003089960D01*
X0002973228Y0002985236D02*
X0002973228Y0002925393D01*
X0002950787Y0002985236D02*
X0002973228Y0002985236D01*
X0003333070Y0003089960D02*
X0003355511Y0003089960D01*
X0003133070Y0003089960D02*
X0003273228Y0003089960D01*
D53*
X0002889857Y0003050721D02*
X0002917979Y0003050721D01*
X0002923603Y0003052596D01*
X0002927352Y0003056346D01*
X0002929227Y0003061970D01*
X0002929227Y0003065719D01*
X0002893607Y0003033848D02*
X0002891732Y0003031974D01*
X0002889857Y0003028224D01*
X0002889857Y0003018850D01*
X0002891732Y0003015101D01*
X0002893607Y0003013226D01*
X0002897356Y0003011351D01*
X0002901106Y0003011351D01*
X0002906730Y0003013226D01*
X0002929227Y0003035723D01*
X0002929227Y0003011351D01*
G04 next file*
G04 #@! TF.FileFunction,Legend,Bot*
G04 Gerber Fmt 4.6, Leading zero omitted, Abs format (unit mm)*
G04 Created by KiCad (PCBNEW 4.0.7-e2-6376~58~ubuntu16.04.1) date Sat Jan 13 09:50:08 2018*
G01G01*
G04 APERTURE LIST*
G04 APERTURE END LIST*
D54*
D55*
X0002217125Y0001485826D02*
X0002217125Y0001381102D01*
X0003021850Y0001485826D02*
X0003021850Y0001381102D01*
X0002299409Y0001381102D02*
X0002439566Y0001381102D01*
X0002499409Y0001381102D02*
X0002639566Y0001381102D01*
X0002699409Y0001381102D02*
X0002839566Y0001381102D01*
X0002899409Y0001381102D02*
X0003021850Y0001381102D01*
X0002217125Y0001485826D02*
X0002339566Y0001485826D01*
X0002239566Y0001381102D02*
X0002239566Y0001321259D01*
X0002217125Y0001381102D02*
X0002239566Y0001381102D01*
X0002999409Y0001485826D02*
X0003021850Y0001485826D01*
X0002399409Y0001485826D02*
X0002539566Y0001485826D01*
X0002599409Y0001485826D02*
X0002739566Y0001485826D01*
X0002799409Y0001485826D02*
X0002939566Y0001485826D01*
D56*
X0002156196Y0001446587D02*
X0002184317Y0001446587D01*
X0002189941Y0001448462D01*
X0002193691Y0001452212D01*
X0002195566Y0001457836D01*
X0002195566Y0001461586D01*
X0002159945Y0001429715D02*
X0002158070Y0001427840D01*
X0002156196Y0001424090D01*
X0002156196Y0001414716D01*
X0002158070Y0001410967D01*
X0002159945Y0001409092D01*
X0002163695Y0001407217D01*
X0002167444Y0001407217D01*
X0002173068Y0001409092D01*
X0002195566Y0001431589D01*
X0002195566Y0001407217D01*
G04 next file*
G04 #@! TF.FileFunction,Legend,Bot*
G04 Gerber Fmt 4.6, Leading zero omitted, Abs format (unit mm)*
G04 Created by KiCad (PCBNEW 4.0.7-e2-6376~58~ubuntu16.04.1) date Sat Jan 13 09:53:06 2018*
G01G01*
G04 APERTURE LIST*
G04 APERTURE END LIST*
D57*
D58*
X0001494488Y0001487401D02*
X0001494488Y0001382677D01*
X0001899212Y0001487401D02*
X0001899212Y0001382677D01*
X0001576771Y0001382677D02*
X0001716929Y0001382677D01*
X0001776771Y0001382677D02*
X0001899212Y0001382677D01*
X0001494488Y0001487401D02*
X0001616929Y0001487401D01*
X0001516929Y0001382677D02*
X0001516929Y0001322834D01*
X0001494488Y0001382677D02*
X0001516929Y0001382677D01*
X0001876771Y0001487401D02*
X0001899212Y0001487401D01*
X0001676771Y0001487401D02*
X0001816929Y0001487401D01*
X0001494488Y0001782086D02*
X0001494488Y0001677362D01*
X0001899212Y0001782086D02*
X0001899212Y0001677362D01*
X0001576771Y0001677362D02*
X0001716929Y0001677362D01*
X0001776771Y0001677362D02*
X0001899212Y0001677362D01*
X0001494488Y0001782086D02*
X0001616929Y0001782086D01*
X0001516929Y0001677362D02*
X0001516929Y0001617519D01*
X0001494488Y0001677362D02*
X0001516929Y0001677362D01*
X0001876771Y0001782086D02*
X0001899212Y0001782086D01*
X0001676771Y0001782086D02*
X0001816929Y0001782086D01*
D59*
X0001433558Y0001448162D02*
X0001461679Y0001448162D01*
X0001467304Y0001450037D01*
X0001471053Y0001453787D01*
X0001472928Y0001459411D01*
X0001472928Y0001463160D01*
X0001437307Y0001431289D02*
X0001435433Y0001429415D01*
X0001433558Y0001425665D01*
X0001433558Y0001416291D01*
X0001435433Y0001412542D01*
X0001437307Y0001410667D01*
X0001441057Y0001408792D01*
X0001444806Y0001408792D01*
X0001450431Y0001410667D01*
X0001472928Y0001433164D01*
X0001472928Y0001408792D01*
X0001433558Y0001742847D02*
X0001461679Y0001742847D01*
X0001467304Y0001744722D01*
X0001471053Y0001748472D01*
X0001472928Y0001754096D01*
X0001472928Y0001757845D01*
X0001433558Y0001727849D02*
X0001433558Y0001703477D01*
X0001448556Y0001716601D01*
X0001448556Y0001710976D01*
X0001450431Y0001707227D01*
X0001452305Y0001705352D01*
X0001456055Y0001703477D01*
X0001465429Y0001703477D01*
X0001469178Y0001705352D01*
X0001471053Y0001707227D01*
X0001472928Y0001710976D01*
X0001472928Y0001722225D01*
X0001471053Y0001725974D01*
X0001469178Y0001727849D01*
G04 next file*
G04 #@! TF.FileFunction,Legend,Bot*
G04 Gerber Fmt 4.6, Leading zero omitted, Abs format (unit mm)*
G04 Created by KiCad (PCBNEW 4.0.7-e2-6376~58~ubuntu16.04.1) date Sat Jan 13 09:54:45 2018*
G01G01*
G04 APERTURE LIST*
G04 APERTURE END LIST*
D60*
D61*
X0002306181Y0002695472D02*
X0002306181Y0002590748D01*
X0002710905Y0002695472D02*
X0002710905Y0002590748D01*
X0002388464Y0002590748D02*
X0002528622Y0002590748D01*
X0002588464Y0002590748D02*
X0002710905Y0002590748D01*
X0002306181Y0002695472D02*
X0002428622Y0002695472D01*
X0002328622Y0002590748D02*
X0002328622Y0002530905D01*
X0002306181Y0002590748D02*
X0002328622Y0002590748D01*
X0002688464Y0002695472D02*
X0002710905Y0002695472D01*
X0002488464Y0002695472D02*
X0002628622Y0002695472D01*
X0002306181Y0002395157D02*
X0002306181Y0002290433D01*
X0002610905Y0002395157D02*
X0002610905Y0002290433D01*
X0002388464Y0002290433D02*
X0002528622Y0002290433D01*
X0002306181Y0002395157D02*
X0002428622Y0002395157D01*
X0002328622Y0002290433D02*
X0002328622Y0002230590D01*
X0002306181Y0002290433D02*
X0002328622Y0002290433D01*
X0002588464Y0002395157D02*
X0002610905Y0002395157D01*
X0002488464Y0002395157D02*
X0002610905Y0002395157D01*
D62*
X0002245251Y0002656233D02*
X0002273372Y0002656233D01*
X0002278997Y0002658108D01*
X0002282746Y0002661857D01*
X0002284621Y0002667482D01*
X0002284621Y0002671231D01*
X0002284621Y0002616863D02*
X0002284621Y0002639360D01*
X0002284621Y0002628112D02*
X0002245251Y0002628112D01*
X0002250875Y0002631861D01*
X0002254625Y0002635611D01*
X0002256499Y0002639360D01*
X0002245251Y0002355918D02*
X0002273372Y0002355918D01*
X0002278997Y0002357793D01*
X0002282746Y0002361542D01*
X0002284621Y0002367167D01*
X0002284621Y0002370916D01*
X0002249000Y0002339045D02*
X0002247125Y0002337170D01*
X0002245251Y0002333421D01*
X0002245251Y0002324047D01*
X0002247125Y0002320298D01*
X0002249000Y0002318423D01*
X0002252750Y0002316548D01*
X0002256499Y0002316548D01*
X0002262124Y0002318423D01*
X0002284621Y0002340920D01*
X0002284621Y0002316548D01*
X0002320043Y0002790496D02*
X0002320043Y0002758625D01*
X0002321917Y0002754876D01*
X0002323792Y0002753001D01*
X0002327542Y0002751126D01*
X0002335041Y0002751126D01*
X0002338790Y0002753001D01*
X0002340665Y0002754876D01*
X0002342540Y0002758625D01*
X0002342540Y0002790496D01*
X0002381910Y0002751126D02*
X0002359413Y0002751126D01*
X0002370661Y0002751126D02*
X0002370661Y0002790496D01*
X0002366912Y0002784872D01*
X0002363162Y0002781122D01*
X0002359413Y0002779248D01*
G04 next file*
G04 #@! TF.FileFunction,Legend,Bot*
G04 Gerber Fmt 4.6, Leading zero omitted, Abs format (unit mm)*
G04 Created by KiCad (PCBNEW 4.0.7-e2-6376~58~ubuntu16.04.1) date Sat Jan 13 09:54:03 2018*
G01G01*
G04 APERTURE LIST*
G04 APERTURE END LIST*
D63*
D64*
X0003037007Y0002455314D02*
X0003037007Y0002350590D01*
X0003741732Y0002455314D02*
X0003741732Y0002350590D01*
X0003119291Y0002350590D02*
X0003259448Y0002350590D01*
X0003319291Y0002350590D02*
X0003459448Y0002350590D01*
X0003519291Y0002350590D02*
X0003659448Y0002350590D01*
X0003037007Y0002455314D02*
X0003159448Y0002455314D01*
X0003059448Y0002350590D02*
X0003059448Y0002290748D01*
X0003037007Y0002350590D02*
X0003059448Y0002350590D01*
X0003719291Y0002455314D02*
X0003741732Y0002455314D01*
X0003219291Y0002455314D02*
X0003359448Y0002455314D01*
X0003419291Y0002455314D02*
X0003559448Y0002455314D01*
X0003619291Y0002455314D02*
X0003741732Y0002455314D01*
D65*
X0003142810Y0002391076D02*
X0003170931Y0002391076D01*
X0003176556Y0002392950D01*
X0003180305Y0002396700D01*
X0003182180Y0002402324D01*
X0003182180Y0002406074D01*
X0003182180Y0002351706D02*
X0003182180Y0002374203D01*
X0003182180Y0002362954D02*
X0003142810Y0002362954D01*
X0003148434Y0002366704D01*
X0003152184Y0002370453D01*
X0003154058Y0002374203D01*
X0003109369Y0002724496D02*
X0003109369Y0002692625D01*
X0003111244Y0002688876D01*
X0003113119Y0002687001D01*
X0003116868Y0002685126D01*
X0003124368Y0002685126D01*
X0003128117Y0002687001D01*
X0003129992Y0002688876D01*
X0003131867Y0002692625D01*
X0003131867Y0002724496D01*
X0003171237Y0002685126D02*
X0003148739Y0002685126D01*
X0003159988Y0002685126D02*
X0003159988Y0002724496D01*
X0003156239Y0002718872D01*
X0003152489Y0002715122D01*
X0003148739Y0002713248D01*
M02*