%
M48
METRIC,000.000
T01C0.50
%
T01
X034254Y046662
X034254Y047662
X034254Y048662
X034254Y049662
X034254Y050662
X034254Y051662
X035865Y051743
X035865Y050743
X035865Y049743
X035865Y048743
X035865Y047743
X035865Y046743
X036520Y024182
X036520Y023182
X036520Y022182
X036520Y021182
X036520Y020182
X034254Y019662
X034254Y020662
X034254Y021662
X034254Y022662
X034254Y023662
X034254Y024662
X038677Y059910
X039677Y059910
X040677Y059910
X041677Y059910
X042677Y059910
X043677Y059910
X043810Y057905
X042810Y057905
X041810Y057905
X040810Y057905
X039810Y057905
X038810Y057905
X031690Y067727
X031690Y068727
X031690Y069727
X031690Y070727
X031690Y071727
X031690Y072727
X035339Y072679
X035339Y071679
X035339Y070679
X035339Y069679
X035339Y068679
X035339Y067679
X027435Y084580
X026435Y084580
X025435Y084580
X024435Y084580
X023435Y084580
X022435Y084580
X023139Y086584
X024138Y086576
X025138Y086568
X026138Y086560
X027138Y086551
X033968Y089353
X033968Y090353
X033968Y091353
X033968Y092353
X033968Y093353
X033968Y094353
X035885Y094368
X035885Y093368
X035885Y092368
X035885Y091368
X035885Y090368
X035885Y089368
X052259Y085712
X052259Y086712
X052259Y087712
X052259Y088712
X052259Y089712
X052259Y090712
X056342Y088500
X055342Y088500
X054346Y088473
X054208Y087527
X054208Y086527
X054208Y085527
X054208Y079527
X054208Y078527
X054208Y077527
X054208Y076527
X054208Y075527
X054208Y074527
X051460Y074767
X051460Y075767
X051460Y076767
X051460Y077767
X051460Y078767
X051460Y079767
X051460Y064767
X051460Y065767
X051460Y066767
X051460Y067767
X051460Y068767
X051460Y069767
X054449Y069663
X054449Y068663
X054449Y067663
X054449Y066663
X054449Y065663
X054449Y064663
X066991Y011695
X066991Y012695
X066991Y013695
X066991Y014695
X066991Y015695
X066991Y016695
X068585Y017188
X068585Y016188
X068585Y015188
X068585Y014188
X068585Y013188
X068585Y012188
X081249Y030409
X082249Y030409
X083249Y030409
X084249Y030409
X085249Y030409
X086249Y030409
X087249Y030409
X084960Y026862
X084960Y027862
X084435Y028444
X083435Y028444
X082435Y028444
X057056Y073268
X058056Y073268
X059056Y073268
X060056Y073268
X061056Y073268
X061775Y071444
X060775Y071444
X059775Y071444
X058775Y071444
X057775Y071444
X056775Y071444
X065499Y030310
X064499Y030310
X063499Y030310
X062499Y030310
X061499Y030310
X060499Y030310
X060764Y031965
X061764Y031965
X062764Y031965
X063764Y031965
X064764Y031965
X065764Y031965
X017879Y043518
X017879Y042518
X017879Y041518
X017879Y040518
X017879Y039518
X017879Y038518
X016124Y038607
X016124Y039607
X016124Y040607
X016124Y041607
X016124Y042607
X016124Y043607
X092585Y053770
X091585Y053770
X090585Y053770
X089585Y053770
X088585Y053770
X087585Y053770
X088099Y055705
X089099Y055705
X090099Y055705
X091099Y055705
X092099Y055705
X054854Y051163
X054854Y050163
X054854Y049163
X054854Y048163
X054854Y047163
X054854Y046163
X052875Y046862
X052875Y047862
X052875Y048862
X052875Y049862
X052875Y050862
X044499Y030310
X043499Y030310
X042499Y030310
X041499Y030310
X040499Y030310
X039499Y030310
X039234Y032004
X040234Y032004
X041234Y032004
X042234Y032004
X043234Y032004
X044234Y032004
X031690Y060727
X031690Y061727
X031690Y062727
X031690Y063727
X031690Y064727
X035339Y064679
X035339Y063679
X035339Y062679
X035339Y061679
X035339Y060679
X018490Y060418
X018490Y059418
X018490Y058418
X018490Y057418
X018490Y056418
X016124Y056607
X016124Y057607
X016124Y058607
X016124Y059607
X016124Y060607
X018490Y069418
X018490Y068418
X018490Y067418
X018490Y066418
X018490Y065418
X016024Y065552
X016024Y066552
X016024Y067552
X016024Y068552
X016024Y069552
X018490Y083418
X018490Y082418
X018490Y081418
X018490Y080418
X018490Y079418
X018490Y078418
X016024Y078552
X016024Y079552
X016024Y080552
X016024Y081552
X016024Y082552
X016024Y083552
X079990Y048258
X079990Y047258
X079990Y046258
X079990Y045258
X079990Y044258
X079990Y043258
X078215Y042822
X078215Y043822
X078215Y044822
X078215Y045822
X078215Y046822
X078215Y047822
X066991Y000695
X066991Y001695
X066991Y002695
X066991Y003695
X066991Y004695
X066991Y005695
X068585Y006188
X068585Y005188
X068585Y004188
X068585Y003188
X068585Y002188
X068585Y001188
X079990Y032258
X079990Y031258
X080249Y030409
X081249Y030409
X080435Y028444
X079435Y028444
X078435Y028444
X077435Y028444
X076435Y028444
X078215Y032822
X076764Y031965
X077764Y031965
X036520Y006182
X036520Y005182
X036520Y004182
X036520Y003182
X036520Y002182
X036520Y001182
X034254Y001662
X034254Y002662
X034254Y003662
X034254Y004662
X034254Y005662
X036520Y016182
X036520Y015182
X036520Y014182
X036520Y013182
X036520Y012182
X036520Y011182
X034254Y011662
X034254Y012662
X034254Y013662
X034254Y014662
X034254Y015662
X034254Y016662
X017879Y005518
X017879Y004518
X017879Y003518
X017879Y002518
X017879Y001518
X017879Y000518
X016124Y000607
X016124Y001607
X016124Y002607
X016124Y003607
X016124Y004607
X016124Y005607
X017879Y018518
X017879Y017518
X017879Y016518
X017879Y015518
X017879Y014518
X017879Y013518
X016124Y013607
X016124Y014607
X016124Y015607
X016124Y016607
X016124Y017607
X016124Y018607
X017879Y032518
X017879Y031518
X017879Y030518
X017879Y029518
X017879Y028518
X017879Y027518
X016124Y027607
X016124Y028607
X016124Y029607
X016124Y030607
X016124Y031607
X016124Y032607
X073365Y063927
X073365Y064927
X073365Y065927
X073365Y066927
X073365Y067927
X073365Y068927
X075680Y068393
X075680Y067393
X075680Y066393
X075680Y065393
X075680Y064393
X081585Y053770
X080585Y053770
X079990Y053258
X079990Y052258
X079990Y051258
X078215Y051822
X078215Y052822
X077705Y053420
X076705Y053420
X077099Y055705
X078099Y055705
X079099Y055705
X080099Y055705
X081099Y055705
X073435Y028444
X072435Y028444
X071435Y028444
X070435Y028444
X069435Y028444
X069764Y031965
X070764Y031965
X071764Y031965
X072764Y031965
X073764Y031965
X054854Y038163
X054854Y037163
X054854Y036163
X054854Y035163
X054854Y034163
X052875Y033862
X052875Y034862
X052875Y035862
X052875Y036862
X052875Y037862
X052875Y038862
X060705Y053420
X059705Y053420
X058705Y053420
X057705Y053420
X056705Y053420
X055705Y053420
X055964Y055069
X056964Y055069
X057964Y055069
X058964Y055069
X059964Y055069
X068705Y053420
X067705Y053420
X066705Y053420
X065705Y053420
X064705Y053420
X063705Y053420
X063964Y055069
X064964Y055069
X065964Y055069
X066964Y055069
X067964Y055069
X068964Y055069
X073365Y056927
X073365Y057927
X073365Y058927
X073365Y059927
X073365Y060927
X075680Y061393
X075680Y060393
X075680Y059393
X075680Y058393
X075680Y057393
X075680Y056393
X076369Y072459
X077369Y072459
X078369Y072459
X079369Y072459
X080369Y072459
X081369Y072459
X081005Y070175
X080005Y070175
X079005Y070175
X078005Y070175
X077005Y070175
X084369Y072459
X085369Y072459
X086369Y072459
X087369Y072459
X088369Y072459
X089369Y072459
X089005Y070175
X088005Y070175
X087005Y070175
X086005Y070175
X085005Y070175
X070075Y074125
X070075Y075125
X070075Y076125
X070075Y077125
X070075Y078125
X070075Y079125
X071585Y078783
X071585Y077783
X071585Y076783
X071585Y075783
X071585Y074783
X071585Y073783
X070075Y082125
X070075Y083125
X070075Y084125
X070075Y085125
X070075Y086125
X070075Y087125
X071585Y086783
X071585Y085783
X071585Y084783
X071585Y083783
X071585Y082783
X071585Y081783
X031690Y077727
X031690Y078727
X031690Y079727
X031690Y080727
X031690Y081727
X035339Y081679
X035339Y080679
X035339Y079679
X035339Y078679
X035339Y077679
X017974Y097568
X017974Y096568
X017974Y095568
X017974Y094568
X017974Y093568
X016024Y093552
X016024Y094552
X016024Y095552
X016024Y096552
X016024Y097552
X017974Y092568
X017974Y091568
X017974Y090568
X017974Y089568
X017974Y088568
X017974Y087568
X016024Y087552
X016024Y088552
X016024Y089552
X016024Y090552
X016024Y091552
X016024Y092552
X037479Y084855
X038479Y084855
X039479Y084855
X040479Y084855
X041479Y084855
X041855Y083270
X040855Y083270
X039855Y083270
X038855Y083270
X037855Y083270
X036855Y083270
X045479Y084855
X046479Y084855
X047479Y084855
X048479Y084855
X049479Y084855
X049855Y083270
X048855Y083270
X047855Y083270
X046855Y083270
X045855Y083270
X044855Y083270
X021049Y054870
X022049Y054870
X023049Y054870
X024049Y054870
X025049Y054870
X025495Y053010
X024495Y053010
X023495Y053010
X022495Y053010
X021495Y053010
X020495Y053010
X018490Y056418
X018490Y055418
X019049Y054870
X019495Y053010
X018495Y053010
X017879Y052518
X017879Y051518
X016124Y051607
X016124Y052607
X016124Y053607
X016124Y054607
X016124Y055607
X016124Y056607
X026049Y054870
X027049Y054870
X028049Y054870
X029049Y054870
X030049Y054870
X031049Y054870
X030495Y053010
X029495Y053010
X028495Y053010
X027495Y053010
X026495Y053010
X031690Y055727
X031690Y056727
X031049Y054870
X034254Y052662
X033495Y053010
X032495Y053010
X031495Y053010
X035865Y056743
X035865Y055743
X035865Y054743
X035865Y053743
X034254Y033662
X034254Y034662
X034254Y035662
X034254Y036662
X034254Y037662
X035865Y037743
X035865Y036743
X035865Y035743
X035865Y034743
X035865Y033743
X034254Y039662
X034254Y040662
X034254Y041662
X034254Y042662
X034254Y043662
X034254Y044662
X035865Y044743
X035865Y043743
X035865Y042743
X035865Y041743
X035865Y040743
X035865Y039743
X031690Y082727
X031690Y083727
X031435Y084580
X033968Y087353
X032138Y086510
X033138Y086502
X035885Y086368
X035885Y085368
X036479Y084855
X035855Y083270
X035339Y082679
X065056Y073268
X066056Y073268
X067056Y073268
X068056Y073268
X069056Y073268
X069775Y071444
X068775Y071444
X067775Y071444
X066775Y071444
X065775Y071444
X064775Y071444
X079990Y040258
X079990Y039258
X079990Y038258
X079990Y037258
X079990Y036258
X079990Y035258
X078215Y034822
X078215Y035822
X078215Y036822
X078215Y037822
X078215Y038822
X078215Y039822
X001334Y063694
X002334Y063694
X003334Y063694
X004334Y063694
X005334Y063694
X006255Y061845
X005255Y061845
X004255Y061845
X003255Y061845
X002255Y061845
X001255Y061845
X010334Y063694
X011334Y063694
X012334Y063694
X013334Y063694
X014334Y063694
X015334Y063694
X015255Y061845
X014255Y061845
X013255Y061845
X012255Y061845
X011255Y061845
X010255Y061845
M30