%
M48
METRIC,000.000
T01C0.46
T10C0.41
T11C0.81
T12C0.89
T13C3.25
T14C0.71
%
T01
X082076Y040093
X084977Y044896
X084977Y037276
X085876Y049029
X087125Y047426
X087125Y040091
X087230Y035486
X091245Y043766
X024731Y070276
X024927Y077253
X024927Y074378
X024927Y066791
X024927Y059486
X026484Y069592
X026974Y074408
X028237Y079689
X028249Y064291
X028287Y066905
X058196Y087109
X058196Y079730
X058196Y074658
X061016Y082298
X061028Y079471
X064087Y087140
X064087Y074627
X064236Y079746
X065966Y082270
X065966Y079497
X039180Y074630
X039180Y069550
X039350Y082184
X039350Y066934
X040453Y067012
X042980Y077241
X042980Y074320
X042980Y062001
X044014Y079819
X044230Y069570
X044230Y066761
X045380Y061912
X046493Y074632
X048029Y077170
X048029Y074386
X048029Y069311
X072396Y021471
X072396Y014090
X072396Y009033
X072396Y006231
X072736Y027041
X076195Y018908
X076195Y001415
X076264Y021789
X076264Y011618
X076264Y006549
X077407Y026465
X077407Y014148
X077407Y009071
X077407Y006173
X079942Y021464
X080856Y001154
X081245Y021710
X081245Y018931
X081245Y013851
X081245Y006470
X021424Y051774
X021424Y046697
X021424Y039315
X021424Y034253
X021424Y026377
X021424Y018995
X021424Y013933
X021424Y008858
X021424Y006057
X021899Y029125
X022874Y049221
X022910Y008574
X025074Y041858
X025074Y039051
X025074Y031713
X025074Y028896
X025074Y021538
X025074Y018731
X025074Y011393
X025074Y001236
X026463Y046608
X026463Y041528
X026463Y034322
X026463Y029244
X026463Y026288
X026463Y021208
X026463Y014002
X026463Y008922
X026463Y005968
X026887Y049498
X028076Y039196
X028076Y000964
X028211Y018741
X029900Y011396
X029996Y008591
X030116Y046935
X030116Y041855
X030116Y026615
X030116Y021535
X030205Y031695
X003487Y018920
X003528Y039235
X003548Y034160
X003550Y023990
X003578Y031036
X003578Y010716
X003578Y051394
X003578Y046355
X003581Y020955
X003583Y056474
X003586Y041361
X003789Y014790
X004307Y052834
X004404Y047744
X004404Y042664
X004404Y027424
X004404Y007104
X007541Y060198
X007541Y037256
X007541Y027117
X007541Y016959
X007541Y006797
X007541Y002033
X008534Y054483
X008534Y049403
X008534Y039235
X008534Y029070
X008534Y018915
X008534Y008763
X008595Y059783
X008595Y023990
X008625Y044419
X008930Y001404
X009443Y034805
X009443Y014485
X011447Y040005
X011447Y034925
X011447Y019685
X011447Y014605
X012105Y052694
X012105Y047625
X012105Y027305
X012105Y006985
X015227Y056476
X015227Y030027
X015227Y010160
X040892Y036397
X059906Y069874
X061225Y066287
X061309Y070181
X063267Y065132
X064572Y069884
X066041Y063884
X068675Y068223
X082048Y066475
X083387Y066518
X084731Y066516
X086026Y066496
X087271Y066516
X088868Y066485
X090113Y066518
T10
X022083Y095665
X022083Y090583
X024884Y095409
X024889Y088035
X027932Y098040
X028123Y090570
X029853Y095417
X029853Y090326
X039703Y098554
X039947Y094632
X040127Y093413
X040430Y087256
X043795Y090093
X044232Y091513
X047237Y086141
X047275Y098582
X051362Y094406
X051362Y090405
X003755Y082852
X003788Y090734
X003788Y085654
X003788Y077795
X003788Y070414
X004019Y098095
X007441Y093332
X007441Y090406
X007441Y085326
X007441Y078123
X007441Y073015
X007441Y070086
X007441Y065342
X008830Y098102
X008830Y085677
X008830Y080594
X008830Y077772
X008830Y065346
X011134Y093012
X011134Y070437
X012480Y093274
X012480Y090495
X012480Y085415
X012480Y078034
X012480Y072954
X012480Y070175
T11
X074240Y080330
X077798Y082359
X079068Y084899
X080338Y082359
X081608Y084899
X082878Y082359
X084148Y084899
X087710Y080330
T12
X062001Y048496
X063271Y051036
X064541Y048496
X065811Y051036
X067081Y048496
X068351Y051036
X069621Y048496
X070891Y051036
X039924Y053210
X041194Y055750
X042464Y053210
X043735Y055750
X045004Y053210
X046274Y055750
X047544Y053210
X048814Y055750
T13
X060510Y042146
X072382Y042146
X038434Y046860
X050305Y046860
T14
X057102Y066244
X069899Y066244
X079602Y066244
X092399Y066244
M30