%MOIN*%
%OFA0B0*%
%FSLAX46Y46*%
%IPPOS*%
%LPD*%
%ADD10C,0.0039370078740157488*%
%ADD21C,0.0039370078740157488*%
%ADD22C,0.0047244094488188976*%
%ADD23C,0.005905511811023622*%
%ADD24C,0.0039370078740157488*%
%ADD25C,0.0047244094488188976*%
%ADD26C,0.005905511811023622*%
%ADD27C,0.0039370078740157488*%
%ADD28C,0.0047244094488188976*%
%ADD29C,0.005905511811023622*%
%ADD30C,0.0039370078740157488*%
%ADD31C,0.0047244094488188976*%
%ADD32C,0.005905511811023622*%
%ADD33C,0.0039370078740157488*%
%ADD34C,0.0047244094488188976*%
%ADD35C,0.005905511811023622*%
%ADD36C,0.0039370078740157488*%
%ADD37C,0.0047244094488188976*%
%ADD38C,0.005905511811023622*%
%ADD39C,0.0039370078740157488*%
%ADD40C,0.0047244094488188976*%
%ADD41C,0.005905511811023622*%
%ADD42C,0.0039370078740157488*%
%ADD43C,0.0047244094488188976*%
%ADD44C,0.005905511811023622*%
%ADD45C,0.0039370078740157488*%
%ADD46C,0.0047244094488188976*%
%ADD47C,0.005905511811023622*%
%ADD48C,0.0039370078740157488*%
%ADD49C,0.0047244094488188976*%
%ADD50C,0.005905511811023622*%
%ADD51C,0.0039370078740157488*%
%ADD52C,0.0047244094488188976*%
%ADD53C,0.005905511811023622*%
%ADD54C,0.0039370078740157488*%
%ADD55C,0.0047244094488188976*%
%ADD56C,0.005905511811023622*%
%ADD57C,0.0039370078740157488*%
%ADD58C,0.0047244094488188976*%
%ADD59C,0.005905511811023622*%
%ADD60C,0.0039370078740157488*%
%ADD61C,0.005905511811023622*%
%ADD62C,0.0047244094488188976*%
%ADD63C,0.0039370078740157488*%
%ADD64C,0.005905511811023622*%
%ADD65C,0.0047244094488188976*%
G01G01*
D10*
G04 next file*
G04 #@! TF.FileFunction,Legend,Top*
G04 Gerber Fmt 4.6, Leading zero omitted, Abs format (unit mm)*
G04 Created by KiCad (PCBNEW 4.0.7-e2-6376~58~ubuntu16.04.1) date Sat Jan 13 09:32:06 2018*
G01G01*
G04 APERTURE LIST*
G04 APERTURE END LIST*
D21*
D22*
X0003303188Y0001875433D02*
X0003507913Y0001875433D01*
X0003303188Y0001470708D02*
X0003507913Y0001470708D01*
X0003246496Y0001852992D02*
X0003303188Y0001852992D01*
X0003303188Y0001875433D02*
X0003303188Y0001852992D01*
X0003507913Y0001875433D02*
X0003507913Y0001852992D01*
X0003303188Y0001493149D02*
X0003303188Y0001470708D01*
X0003507913Y0001493149D02*
X0003507913Y0001470708D01*
X0003303188Y0001793149D02*
X0003303188Y0001752992D01*
X0003507913Y0001793149D02*
X0003507913Y0001752992D01*
X0003303188Y0001693149D02*
X0003303188Y0001652992D01*
X0003507913Y0001693149D02*
X0003507913Y0001652992D01*
X0003303188Y0001593149D02*
X0003303188Y0001552992D01*
X0003507913Y0001593149D02*
X0003507913Y0001552992D01*
D23*
X0003392427Y0001936362D02*
X0003392427Y0001908241D01*
X0003390553Y0001902617D01*
X0003386803Y0001898867D01*
X0003381179Y0001896992D01*
X0003377429Y0001896992D01*
X0003409300Y0001932613D02*
X0003411175Y0001934488D01*
X0003414924Y0001936362D01*
X0003424298Y0001936362D01*
X0003428048Y0001934488D01*
X0003429923Y0001932613D01*
X0003431797Y0001928863D01*
X0003431797Y0001925114D01*
X0003429923Y0001919490D01*
X0003407425Y0001896992D01*
X0003431797Y0001896992D01*
G04 next file*
G04 #@! TF.FileFunction,Legend,Top*
G04 Gerber Fmt 4.6, Leading zero omitted, Abs format (unit mm)*
G04 Created by KiCad (PCBNEW 4.0.7-e2-6376~58~ubuntu16.04.1) date Sat Jan 13 09:35:41 2018*
G01G01*
G04 APERTURE LIST*
G04 APERTURE END LIST*
D24*
D25*
X0000931929Y0003238425D02*
X0001036653Y0003238425D01*
X0000931929Y0002233700D02*
X0001036653Y0002233700D01*
X0001036653Y0003156141D02*
X0001036653Y0003015984D01*
X0001036653Y0002956141D02*
X0001036653Y0002815984D01*
X0001036653Y0002756141D02*
X0001036653Y0002615984D01*
X0001036653Y0002556141D02*
X0001036653Y0002415984D01*
X0001036653Y0002356141D02*
X0001036653Y0002233700D01*
X0000931929Y0003238425D02*
X0000931929Y0003115984D01*
X0001036653Y0003215984D02*
X0001096496Y0003215984D01*
X0001036653Y0003238425D02*
X0001036653Y0003215984D01*
X0000931929Y0002256141D02*
X0000931929Y0002233700D01*
X0000931929Y0003056141D02*
X0000931929Y0002915984D01*
X0000931929Y0002856141D02*
X0000931929Y0002715984D01*
X0000931929Y0002656141D02*
X0000931929Y0002515984D01*
X0000931929Y0002456141D02*
X0000931929Y0002315984D01*
D26*
X0000971167Y0003299355D02*
X0000971167Y0003271233D01*
X0000969293Y0003265609D01*
X0000965543Y0003261859D01*
X0000959919Y0003259985D01*
X0000956169Y0003259985D01*
X0001010538Y0003259985D02*
X0000988040Y0003259985D01*
X0000999289Y0003259985D02*
X0000999289Y0003299355D01*
X0000995539Y0003293730D01*
X0000991790Y0003289981D01*
X0000988040Y0003288106D01*
G04 next file*
G04 #@! TF.FileFunction,Legend,Top*
G04 Gerber Fmt 4.6, Leading zero omitted, Abs format (unit mm)*
G04 Created by KiCad (PCBNEW 4.0.7-e2-6376~58~ubuntu16.04.1) date Sat Jan 13 09:37:07 2018*
G01G01*
G04 APERTURE LIST*
G04 APERTURE END LIST*
D27*
D28*
X0000920748Y0003863622D02*
X0001125472Y0003863622D01*
X0000920748Y0003458897D02*
X0001125472Y0003458897D01*
X0000864055Y0003841181D02*
X0000920748Y0003841181D01*
X0000920748Y0003863622D02*
X0000920748Y0003841181D01*
X0001125472Y0003863622D02*
X0001125472Y0003841181D01*
X0000920748Y0003481338D02*
X0000920748Y0003458897D01*
X0001125472Y0003481338D02*
X0001125472Y0003458897D01*
X0000920748Y0003781338D02*
X0000920748Y0003741181D01*
X0001125472Y0003781338D02*
X0001125472Y0003741181D01*
X0000920748Y0003681338D02*
X0000920748Y0003641181D01*
X0001125472Y0003681338D02*
X0001125472Y0003641181D01*
X0000920748Y0003581338D02*
X0000920748Y0003541181D01*
X0001125472Y0003581338D02*
X0001125472Y0003541181D01*
D29*
X0001009396Y0003891819D02*
X0001009396Y0003863698D01*
X0001007521Y0003858073D01*
X0001003772Y0003854324D01*
X0000998147Y0003852449D01*
X0000994398Y0003852449D01*
X0001026269Y0003888070D02*
X0001028143Y0003889944D01*
X0001031893Y0003891819D01*
X0001041267Y0003891819D01*
X0001045016Y0003889944D01*
X0001046891Y0003888070D01*
X0001048766Y0003884320D01*
X0001048766Y0003880571D01*
X0001046891Y0003874946D01*
X0001024394Y0003852449D01*
X0001048766Y0003852449D01*
G04 next file*
G04 #@! TF.FileFunction,Legend,Top*
G04 Gerber Fmt 4.6, Leading zero omitted, Abs format (unit mm)*
G04 Created by KiCad (PCBNEW 4.0.7-e2-6376~58~ubuntu16.04.1) date Sat Jan 13 09:41:55 2018*
G01G01*
G04 APERTURE LIST*
G04 APERTURE END LIST*
D30*
D31*
X0001649448Y0003837283D02*
X0001811653Y0003837283D01*
X0001649448Y0003438858D02*
X0001811653Y0003438858D01*
X0001600039Y0003825472D02*
X0001649448Y0003825472D01*
X0001649448Y0003837283D02*
X0001649448Y0003825472D01*
X0001811653Y0003837283D02*
X0001811653Y0003825472D01*
X0001649448Y0003450669D02*
X0001649448Y0003438858D01*
X0001811653Y0003450669D02*
X0001811653Y0003438858D01*
X0001649448Y0003765629D02*
X0001649448Y0003746732D01*
X0001811653Y0003765629D02*
X0001811653Y0003746732D01*
X0001649448Y0003686889D02*
X0001649448Y0003667992D01*
X0001811653Y0003686889D02*
X0001811653Y0003667992D01*
X0001649448Y0003608149D02*
X0001649448Y0003589251D01*
X0001811653Y0003608149D02*
X0001811653Y0003589251D01*
X0001649448Y0003529409D02*
X0001649448Y0003510511D01*
X0001811653Y0003529409D02*
X0001811653Y0003510511D01*
D32*
X0001717427Y0003898213D02*
X0001717427Y0003870091D01*
X0001715553Y0003864467D01*
X0001711803Y0003860718D01*
X0001706179Y0003858843D01*
X0001702429Y0003858843D01*
X0001734300Y0003894463D02*
X0001736175Y0003896338D01*
X0001739925Y0003898213D01*
X0001749298Y0003898213D01*
X0001753048Y0003896338D01*
X0001754923Y0003894463D01*
X0001756797Y0003890714D01*
X0001756797Y0003886964D01*
X0001754923Y0003881340D01*
X0001732425Y0003858843D01*
X0001756797Y0003858843D01*
G04 next file*
G04 #@! TF.FileFunction,Legend,Top*
G04 Gerber Fmt 4.6, Leading zero omitted, Abs format (unit mm)*
G04 Created by KiCad (PCBNEW 4.0.7-e2-6376~58~ubuntu16.04.1) date Sat Jan 13 09:41:31 2018*
G01G01*
G04 APERTURE LIST*
G04 APERTURE END LIST*
D33*
D34*
X0002341062Y0003436771D02*
X0002545787Y0003436771D01*
X0002341062Y0002932047D02*
X0002545787Y0002932047D01*
X0002284370Y0003414330D02*
X0002341062Y0003414330D01*
X0002341062Y0003436771D02*
X0002341062Y0003414330D01*
X0002545787Y0003436771D02*
X0002545787Y0003414330D01*
X0002341062Y0002954488D02*
X0002341062Y0002932047D01*
X0002545787Y0002954488D02*
X0002545787Y0002932047D01*
X0002341062Y0003354488D02*
X0002341062Y0003314330D01*
X0002545787Y0003354488D02*
X0002545787Y0003314330D01*
X0002341062Y0003254488D02*
X0002341062Y0003214330D01*
X0002545787Y0003254488D02*
X0002545787Y0003214330D01*
X0002341062Y0003154488D02*
X0002341062Y0003114330D01*
X0002545787Y0003154488D02*
X0002545787Y0003114330D01*
X0002341062Y0003054488D02*
X0002341062Y0003014330D01*
X0002545787Y0003054488D02*
X0002545787Y0003014330D01*
D35*
X0002430301Y0003497701D02*
X0002430301Y0003469580D01*
X0002428427Y0003463955D01*
X0002424677Y0003460206D01*
X0002419053Y0003458331D01*
X0002415303Y0003458331D01*
X0002447174Y0003493952D02*
X0002449049Y0003495826D01*
X0002452799Y0003497701D01*
X0002462172Y0003497701D01*
X0002465922Y0003495826D01*
X0002467797Y0003493952D01*
X0002469671Y0003490202D01*
X0002469671Y0003486452D01*
X0002467797Y0003480828D01*
X0002445299Y0003458331D01*
X0002469671Y0003458331D01*
G04 next file*
G04 #@! TF.FileFunction,Legend,Top*
G04 Gerber Fmt 4.6, Leading zero omitted, Abs format (unit mm)*
G04 Created by KiCad (PCBNEW 4.0.7-e2-6376~58~ubuntu16.04.1) date Sat Jan 13 09:42:42 2018*
G01G01*
G04 APERTURE LIST*
G04 APERTURE END LIST*
D36*
D37*
X0001614370Y0003235866D02*
X0001819094Y0003235866D01*
X0001614370Y0002431141D02*
X0001819094Y0002431141D01*
X0001557677Y0003213425D02*
X0001614370Y0003213425D01*
X0001614370Y0003235866D02*
X0001614370Y0003213425D01*
X0001819094Y0003235866D02*
X0001819094Y0003213425D01*
X0001614370Y0002453582D02*
X0001614370Y0002431141D01*
X0001819094Y0002453582D02*
X0001819094Y0002431141D01*
X0001614370Y0003153582D02*
X0001614370Y0003113425D01*
X0001819094Y0003153582D02*
X0001819094Y0003113425D01*
X0001614370Y0003053582D02*
X0001614370Y0003013425D01*
X0001819094Y0003053582D02*
X0001819094Y0003013425D01*
X0001614370Y0002953582D02*
X0001614370Y0002913425D01*
X0001819094Y0002953582D02*
X0001819094Y0002913425D01*
X0001614370Y0002853582D02*
X0001614370Y0002813425D01*
X0001819094Y0002853582D02*
X0001819094Y0002813425D01*
X0001614370Y0002753582D02*
X0001614370Y0002713425D01*
X0001819094Y0002753582D02*
X0001819094Y0002713425D01*
X0001614370Y0002653582D02*
X0001614370Y0002613425D01*
X0001819094Y0002653582D02*
X0001819094Y0002613425D01*
X0001614370Y0002553582D02*
X0001614370Y0002513425D01*
X0001819094Y0002553582D02*
X0001819094Y0002513425D01*
D38*
X0001703608Y0003296796D02*
X0001703608Y0003268674D01*
X0001701734Y0003263050D01*
X0001697984Y0003259300D01*
X0001692360Y0003257425D01*
X0001688610Y0003257425D01*
X0001720481Y0003293046D02*
X0001722356Y0003294921D01*
X0001726106Y0003296796D01*
X0001735479Y0003296796D01*
X0001739229Y0003294921D01*
X0001741104Y0003293046D01*
X0001742979Y0003289296D01*
X0001742979Y0003285547D01*
X0001741104Y0003279923D01*
X0001718607Y0003257425D01*
X0001742979Y0003257425D01*
G04 next file*
G04 #@! TF.FileFunction,Legend,Top*
G04 Gerber Fmt 4.6, Leading zero omitted, Abs format (unit mm)*
G04 Created by KiCad (PCBNEW 4.0.7-e2-6376~58~ubuntu16.04.1) date Sat Jan 13 09:44:16 2018*
G01G01*
G04 APERTURE LIST*
G04 APERTURE END LIST*
D39*
D40*
X0002922086Y0001052401D02*
X0003126810Y0001052401D01*
X0002922086Y0000047677D02*
X0003126810Y0000047677D01*
X0002865393Y0001029960D02*
X0002922086Y0001029960D01*
X0002922086Y0001052401D02*
X0002922086Y0001029960D01*
X0003126810Y0001052401D02*
X0003126810Y0001029960D01*
X0002922086Y0000070118D02*
X0002922086Y0000047677D01*
X0003126810Y0000070118D02*
X0003126810Y0000047677D01*
X0002922086Y0000970118D02*
X0002922086Y0000929960D01*
X0003126810Y0000970118D02*
X0003126810Y0000929960D01*
X0002922086Y0000870118D02*
X0002922086Y0000829960D01*
X0003126810Y0000870118D02*
X0003126810Y0000829960D01*
X0002922086Y0000770118D02*
X0002922086Y0000729960D01*
X0003126810Y0000770118D02*
X0003126810Y0000729960D01*
X0002922086Y0000670118D02*
X0002922086Y0000629960D01*
X0003126810Y0000670118D02*
X0003126810Y0000629960D01*
X0002922086Y0000570118D02*
X0002922086Y0000529960D01*
X0003126810Y0000570118D02*
X0003126810Y0000529960D01*
X0002922086Y0000470118D02*
X0002922086Y0000429960D01*
X0003126810Y0000470118D02*
X0003126810Y0000429960D01*
X0002922086Y0000370118D02*
X0002922086Y0000329960D01*
X0003126810Y0000370118D02*
X0003126810Y0000329960D01*
X0002922086Y0000270118D02*
X0002922086Y0000229960D01*
X0003126810Y0000270118D02*
X0003126810Y0000229960D01*
X0002922086Y0000170118D02*
X0002922086Y0000129960D01*
X0003126810Y0000170118D02*
X0003126810Y0000129960D01*
D41*
X0003011325Y0001113331D02*
X0003011325Y0001085209D01*
X0003009450Y0001079585D01*
X0003005701Y0001075836D01*
X0003000076Y0001073961D01*
X0002996327Y0001073961D01*
X0003028198Y0001109581D02*
X0003030073Y0001111456D01*
X0003033822Y0001113331D01*
X0003043196Y0001113331D01*
X0003046946Y0001111456D01*
X0003048820Y0001109581D01*
X0003050695Y0001105832D01*
X0003050695Y0001102082D01*
X0003048820Y0001096458D01*
X0003026323Y0001073961D01*
X0003050695Y0001073961D01*
G04 next file*
G04 #@! TF.FileFunction,Legend,Top*
G04 Gerber Fmt 4.6, Leading zero omitted, Abs format (unit mm)*
G04 Created by KiCad (PCBNEW 4.0.7-e2-6376~58~ubuntu16.04.1) date Sat Jan 13 09:58:48 2018*
G01G01*
G04 APERTURE LIST*
G04 APERTURE END LIST*
D42*
D43*
X0000217913Y0003849015D02*
X0000217913Y0003869881D01*
X0000217913Y0003869881D02*
X0000422637Y0003869881D01*
X0000422637Y0003869881D02*
X0000422637Y0003849015D01*
X0000217913Y0002586023D02*
X0000217913Y0002565157D01*
X0000217913Y0002565157D02*
X0000422637Y0002565157D01*
X0000422637Y0002565157D02*
X0000422637Y0002586023D01*
X0000478543Y0003849015D02*
X0000422637Y0003849015D01*
D44*
X0000307152Y0003930811D02*
X0000307152Y0003902690D01*
X0000305277Y0003897065D01*
X0000301527Y0003893316D01*
X0000295903Y0003891441D01*
X0000292154Y0003891441D01*
X0000324025Y0003927062D02*
X0000325899Y0003928937D01*
X0000329649Y0003930811D01*
X0000339023Y0003930811D01*
X0000342772Y0003928937D01*
X0000344647Y0003927062D01*
X0000346522Y0003923312D01*
X0000346522Y0003919563D01*
X0000344647Y0003913938D01*
X0000322150Y0003891441D01*
X0000346522Y0003891441D01*
G04 next file*
G04 #@! TF.FileFunction,Legend,Top*
G04 Gerber Fmt 4.6, Leading zero omitted, Abs format (unit mm)*
G04 Created by KiCad (PCBNEW 4.0.7-e2-6376~58~ubuntu16.04.1) date Sat Jan 13 09:46:35 2018*
G01G01*
G04 APERTURE LIST*
G04 APERTURE END LIST*
D45*
D46*
X0000912204Y0002024645D02*
X0000912204Y0002045511D01*
X0000912204Y0002045511D02*
X0001116929Y0002045511D01*
X0001116929Y0002045511D02*
X0001116929Y0002024645D01*
X0000912204Y0000061653D02*
X0000912204Y0000040787D01*
X0000912204Y0000040787D02*
X0001116929Y0000040787D01*
X0001116929Y0000040787D02*
X0001116929Y0000061653D01*
X0001172834Y0002024645D02*
X0001116929Y0002024645D01*
D47*
X0001001443Y0002048709D02*
X0001001443Y0002020587D01*
X0000999568Y0002014963D01*
X0000995819Y0002011214D01*
X0000990194Y0002009339D01*
X0000986445Y0002009339D01*
X0001018316Y0002044959D02*
X0001020191Y0002046834D01*
X0001023940Y0002048709D01*
X0001033314Y0002048709D01*
X0001037064Y0002046834D01*
X0001038938Y0002044959D01*
X0001040813Y0002041210D01*
X0001040813Y0002037460D01*
X0001038938Y0002031836D01*
X0001016441Y0002009339D01*
X0001040813Y0002009339D01*
G04 next file*
G04 #@! TF.FileFunction,Legend,Top*
G04 Gerber Fmt 4.6, Leading zero omitted, Abs format (unit mm)*
G04 Created by KiCad (PCBNEW 4.0.7-e2-6376~58~ubuntu16.04.1) date Sat Jan 13 09:47:37 2018*
G01G01*
G04 APERTURE LIST*
G04 APERTURE END LIST*
D48*
D49*
X0000221850Y0002356496D02*
X0000221850Y0002377362D01*
X0000221850Y0002377362D02*
X0000426574Y0002377362D01*
X0000426574Y0002377362D02*
X0000426574Y0002356496D01*
X0000221850Y0000093504D02*
X0000221850Y0000072637D01*
X0000221850Y0000072637D02*
X0000426574Y0000072637D01*
X0000426574Y0000072637D02*
X0000426574Y0000093504D01*
X0000482480Y0002356496D02*
X0000426574Y0002356496D01*
D50*
X0000311089Y0002396559D02*
X0000311089Y0002368438D01*
X0000309214Y0002362814D01*
X0000305464Y0002359064D01*
X0000299840Y0002357189D01*
X0000296090Y0002357189D01*
X0000327961Y0002392810D02*
X0000329836Y0002394685D01*
X0000333586Y0002396559D01*
X0000342960Y0002396559D01*
X0000346709Y0002394685D01*
X0000348584Y0002392810D01*
X0000350459Y0002389060D01*
X0000350459Y0002385311D01*
X0000348584Y0002379687D01*
X0000326087Y0002357189D01*
X0000350459Y0002357189D01*
G04 next file*
G04 #@! TF.FileFunction,Legend,Top*
G04 Gerber Fmt 4.6, Leading zero omitted, Abs format (unit mm)*
G04 Created by KiCad (PCBNEW 4.0.7-e2-6376~58~ubuntu16.04.1) date Sat Jan 13 09:51:46 2018*
G01G01*
G04 APERTURE LIST*
G04 APERTURE END LIST*
D51*
D52*
X0002922834Y0003422440D02*
X0002922834Y0003230314D01*
X0003453149Y0003422440D02*
X0003453149Y0003230314D01*
X0002922834Y0002902362D02*
X0003453149Y0002902362D01*
X0003422834Y0003422440D02*
X0003453149Y0003422440D01*
X0002922834Y0003422440D02*
X0003422834Y0003422440D01*
X0002922834Y0003094488D02*
X0002922834Y0002902362D01*
X0003453149Y0003094488D02*
X0003453149Y0002902362D01*
D53*
X0003179790Y0003014079D02*
X0003179790Y0002985957D01*
X0003177915Y0002980333D01*
X0003174165Y0002976584D01*
X0003168541Y0002974709D01*
X0003164791Y0002974709D01*
X0003219160Y0002974709D02*
X0003196662Y0002974709D01*
X0003207911Y0002974709D02*
X0003207911Y0003014079D01*
X0003204161Y0003008455D01*
X0003200412Y0003004705D01*
X0003196662Y0003002830D01*
G04 next file*
G04 #@! TF.FileFunction,Legend,Top*
G04 Gerber Fmt 4.6, Leading zero omitted, Abs format (unit mm)*
G04 Created by KiCad (PCBNEW 4.0.7-e2-6376~58~ubuntu16.04.1) date Sat Jan 13 09:50:08 2018*
G01G01*
G04 APERTURE LIST*
G04 APERTURE END LIST*
D54*
D55*
X0002316181Y0001349448D02*
X0002916181Y0001349448D01*
X0002916181Y0002059291D02*
X0002915787Y0001705354D01*
X0002916181Y0002059291D02*
X0002316181Y0002059291D01*
X0002316181Y0002059291D02*
X0002316181Y0001704960D01*
X0002915787Y0001613228D02*
X0002916181Y0001349448D01*
X0002316181Y0001613622D02*
X0002316181Y0001349448D01*
D56*
X0002612900Y0001490693D02*
X0002612900Y0001462572D01*
X0002611025Y0001456947D01*
X0002607275Y0001453198D01*
X0002601651Y0001451323D01*
X0002597902Y0001451323D01*
X0002652270Y0001451323D02*
X0002629773Y0001451323D01*
X0002641021Y0001451323D02*
X0002641021Y0001490693D01*
X0002637272Y0001485069D01*
X0002633522Y0001481319D01*
X0002629773Y0001479445D01*
G04 next file*
G04 #@! TF.FileFunction,Legend,Top*
G04 Gerber Fmt 4.6, Leading zero omitted, Abs format (unit mm)*
G04 Created by KiCad (PCBNEW 4.0.7-e2-6376~58~ubuntu16.04.1) date Sat Jan 13 09:53:06 2018*
G01G01*
G04 APERTURE LIST*
G04 APERTURE END LIST*
D57*
D58*
X0001447047Y0001535039D02*
X0002047047Y0001535039D01*
X0002047047Y0002244881D02*
X0002046653Y0001890944D01*
X0002047047Y0002244881D02*
X0001447047Y0002244881D01*
X0001447047Y0002244881D02*
X0001447047Y0001890551D01*
X0002046653Y0001798818D02*
X0002047047Y0001535039D01*
X0001447047Y0001799212D02*
X0001447047Y0001535039D01*
D59*
X0001743766Y0001676284D02*
X0001743766Y0001648162D01*
X0001741891Y0001642538D01*
X0001738142Y0001638788D01*
X0001732517Y0001636914D01*
X0001728768Y0001636914D01*
X0001783136Y0001636914D02*
X0001760639Y0001636914D01*
X0001771887Y0001636914D02*
X0001771887Y0001676284D01*
X0001768138Y0001670659D01*
X0001764388Y0001666910D01*
X0001760639Y0001665035D01*
G04 next file*
G04 #@! TF.FileFunction,Legend,Top*
G04 Gerber Fmt 4.6, Leading zero omitted, Abs format (unit mm)*
G04 Created by KiCad (PCBNEW 4.0.7-e2-6376~58~ubuntu16.04.1) date Sat Jan 13 09:54:45 2018*
G01G01*
G04 APERTURE LIST*
G04 APERTURE END LIST*
D60*
D61*
X0002261939Y0002637637D02*
X0002261939Y0002578537D01*
X0002234339Y0002578537D02*
X0002234339Y0002637637D01*
X0002765739Y0002637637D02*
X0002765739Y0002578537D01*
X0002738139Y0002578537D02*
X0002738139Y0002637637D01*
D62*
X0002176139Y0002230137D02*
X0002176139Y0002441236D01*
X0002176139Y0002441236D02*
X0002176139Y0002683637D01*
X0002176139Y0002683637D02*
X0002207339Y0002683637D01*
X0002207339Y0002683637D02*
X0002300739Y0002683637D01*
X0002300739Y0002683637D02*
X0002300739Y0002517436D01*
X0002207339Y0002683637D02*
X0002207339Y0002517436D01*
X0002207339Y0002517436D02*
X0002702239Y0002517436D01*
X0002702239Y0002517436D02*
X0002792339Y0002517436D01*
X0002792339Y0002517436D02*
X0002792339Y0002683637D01*
X0002702239Y0002517436D02*
X0002702239Y0002683637D01*
X0002702239Y0002683637D02*
X0002757639Y0002683637D01*
X0002757639Y0002683637D02*
X0002820039Y0002683637D01*
X0002820039Y0002683637D02*
X0002820039Y0002517436D01*
X0002820039Y0002517436D02*
X0002861539Y0002517436D01*
X0002861539Y0002517436D02*
X0002861539Y0002230137D01*
X0002861539Y0002230137D02*
X0002799239Y0002230137D01*
X0002799239Y0002230137D02*
X0002781939Y0002247336D01*
X0002781939Y0002247336D02*
X0002781939Y0002441236D01*
X0002781939Y0002441236D02*
X0002726539Y0002441236D01*
X0002726539Y0002441236D02*
X0002726539Y0002250837D01*
X0002726539Y0002250837D02*
X0002726539Y0002250837D01*
X0002726539Y0002250837D02*
X0002705739Y0002230137D01*
X0002705739Y0002230137D02*
X0002339639Y0002230237D01*
X0002235039Y0002230137D02*
X0002176139Y0002230137D01*
X0002255739Y0002250837D02*
X0002235039Y0002230137D01*
X0002255739Y0002250837D02*
X0002255739Y0002423937D01*
X0002255739Y0002423937D02*
X0002273039Y0002441236D01*
X0002176139Y0002441236D02*
X0002726539Y0002441236D01*
X0002723039Y0002250837D02*
X0002681539Y0002250837D01*
X0002681539Y0002250837D02*
X0002318039Y0002250837D01*
X0002338739Y0002230637D02*
X0002318039Y0002250837D01*
X0002318039Y0002250837D02*
X0002318039Y0002437737D01*
X0002485039Y0002438937D02*
X0002485039Y0002263937D01*
X0002485039Y0002263937D02*
X0002515039Y0002263937D01*
X0002515039Y0002263937D02*
X0002515039Y0002438937D01*
X0002435039Y0002438937D02*
X0002435039Y0002278937D01*
X0002435039Y0002278937D02*
X0002465039Y0002278937D01*
X0002465039Y0002278937D02*
X0002465039Y0002438937D01*
X0002535039Y0002438937D02*
X0002535039Y0002278937D01*
X0002535039Y0002278937D02*
X0002565039Y0002278937D01*
X0002565039Y0002278937D02*
X0002565039Y0002438937D01*
X0002585039Y0002438937D02*
X0002585039Y0002278937D01*
X0002585039Y0002278937D02*
X0002615039Y0002278937D01*
X0002615039Y0002278937D02*
X0002615039Y0002438937D01*
X0002635039Y0002438937D02*
X0002635039Y0002263937D01*
X0002635039Y0002263937D02*
X0002665039Y0002263937D01*
X0002665039Y0002263937D02*
X0002665039Y0002438937D01*
X0002681539Y0002250837D02*
X0002681539Y0002437737D01*
X0002365039Y0002438937D02*
X0002365039Y0002263937D01*
X0002365039Y0002263937D02*
X0002335039Y0002263937D01*
X0002335039Y0002263937D02*
X0002335039Y0002438937D01*
X0002385039Y0002438937D02*
X0002385039Y0002278937D01*
X0002385039Y0002278937D02*
X0002415039Y0002278937D01*
X0002415039Y0002278937D02*
X0002415039Y0002438937D01*
X0002335039Y0002518936D02*
X0002340039Y0002528837D01*
X0002340039Y0002528837D02*
X0002340039Y0002683937D01*
X0002340039Y0002683937D02*
X0002360039Y0002683937D01*
X0002360039Y0002683937D02*
X0002360039Y0002528837D01*
X0002360039Y0002528837D02*
X0002365039Y0002518936D01*
X0002385039Y0002518936D02*
X0002390039Y0002528837D01*
X0002390039Y0002528837D02*
X0002390039Y0002683937D01*
X0002390039Y0002683937D02*
X0002410039Y0002683937D01*
X0002410039Y0002683937D02*
X0002410039Y0002528837D01*
X0002410039Y0002528837D02*
X0002415039Y0002518936D01*
X0002435039Y0002518936D02*
X0002440039Y0002528837D01*
X0002440039Y0002528837D02*
X0002440039Y0002683937D01*
X0002440039Y0002683937D02*
X0002460039Y0002683937D01*
X0002460039Y0002683937D02*
X0002460039Y0002528837D01*
X0002460039Y0002528837D02*
X0002465039Y0002518936D01*
X0002485039Y0002518936D02*
X0002490039Y0002528837D01*
X0002490039Y0002528837D02*
X0002490039Y0002683937D01*
X0002490039Y0002683937D02*
X0002510039Y0002683937D01*
X0002510039Y0002683937D02*
X0002510039Y0002528837D01*
X0002510039Y0002528837D02*
X0002515039Y0002518936D01*
X0002535039Y0002518936D02*
X0002540039Y0002528837D01*
X0002540039Y0002528837D02*
X0002540039Y0002683937D01*
X0002540039Y0002683937D02*
X0002560039Y0002683937D01*
X0002560039Y0002683937D02*
X0002560039Y0002528837D01*
X0002560039Y0002528837D02*
X0002565039Y0002518936D01*
X0002585039Y0002518936D02*
X0002590039Y0002528837D01*
X0002590039Y0002528837D02*
X0002590039Y0002683937D01*
X0002590039Y0002683937D02*
X0002610039Y0002683937D01*
X0002610039Y0002683937D02*
X0002610039Y0002528837D01*
X0002610039Y0002528837D02*
X0002615039Y0002518936D01*
X0002635039Y0002518936D02*
X0002640039Y0002528837D01*
X0002640039Y0002528837D02*
X0002640039Y0002683937D01*
X0002640039Y0002683937D02*
X0002660039Y0002683937D01*
X0002660039Y0002683937D02*
X0002660039Y0002528837D01*
X0002660039Y0002528837D02*
X0002665039Y0002518936D01*
X0002241939Y0002680137D02*
X0002241939Y0002548536D01*
X0002241939Y0002548536D02*
X0002255739Y0002548536D01*
X0002255739Y0002548536D02*
X0002255739Y0002680137D01*
X0002743839Y0002680137D02*
X0002743839Y0002548536D01*
X0002743839Y0002548536D02*
X0002757639Y0002548536D01*
X0002757639Y0002548536D02*
X0002757639Y0002683637D01*
D61*
X0002248139Y0002651437D02*
G75*
G03G03X0002234339Y0002637637J-0000013800D01X0002234339Y0002637637J-0000013800D01*
G01G01*
X0002261839Y0002637637D02*
G75*
G03G03X0002248139Y0002651337I-0000013700D01X0002248139Y0002651337I-0000013700D01*
G01G01*
X0002248139Y0002564736D02*
G75*
G03G03X0002261939Y0002578537J0000013800D01X0002261939Y0002578537J0000013800D01*
G01G01*
X0002234339Y0002578537D02*
G75*
G03G03X0002248139Y0002564736I0000013800D01X0002248139Y0002564736I0000013800D01*
G01G01*
X0002751939Y0002651437D02*
G75*
G03G03X0002738139Y0002637637J-0000013800D01X0002738139Y0002637637J-0000013800D01*
G01G01*
X0002765639Y0002637637D02*
G75*
G03G03X0002751939Y0002651337I-0000013700D01X0002751939Y0002651337I-0000013700D01*
G01G01*
X0002751939Y0002564736D02*
G75*
G03G03X0002765739Y0002578537J0000013800D01X0002765739Y0002578537J0000013800D01*
G01G01*
X0002738139Y0002578537D02*
G75*
G03G03X0002751939Y0002564736I0000013800D01X0002751939Y0002564736I0000013800D01*
G01G01*
G04 next file*
G04 #@! TF.FileFunction,Legend,Top*
G04 Gerber Fmt 4.6, Leading zero omitted, Abs format (unit mm)*
G04 Created by KiCad (PCBNEW 4.0.7-e2-6376~58~ubuntu16.04.1) date Sat Jan 13 09:54:03 2018*
G01G01*
G04 APERTURE LIST*
G04 APERTURE END LIST*
D63*
D64*
X0003147766Y0002637637D02*
X0003147766Y0002578537D01*
X0003120166Y0002578537D02*
X0003120166Y0002637637D01*
X0003651566Y0002637637D02*
X0003651566Y0002578537D01*
X0003623966Y0002578537D02*
X0003623966Y0002637637D01*
D65*
X0003061966Y0002230137D02*
X0003061966Y0002441236D01*
X0003061966Y0002441236D02*
X0003061966Y0002683637D01*
X0003061966Y0002683637D02*
X0003093166Y0002683637D01*
X0003093166Y0002683637D02*
X0003186566Y0002683637D01*
X0003186566Y0002683637D02*
X0003186566Y0002517436D01*
X0003093166Y0002683637D02*
X0003093166Y0002517436D01*
X0003093166Y0002517436D02*
X0003588066Y0002517436D01*
X0003588066Y0002517436D02*
X0003678166Y0002517436D01*
X0003678166Y0002517436D02*
X0003678166Y0002683637D01*
X0003588066Y0002517436D02*
X0003588066Y0002683637D01*
X0003588066Y0002683637D02*
X0003643466Y0002683637D01*
X0003643466Y0002683637D02*
X0003705866Y0002683637D01*
X0003705866Y0002683637D02*
X0003705866Y0002517436D01*
X0003705866Y0002517436D02*
X0003747366Y0002517436D01*
X0003747366Y0002517436D02*
X0003747366Y0002230137D01*
X0003747366Y0002230137D02*
X0003685066Y0002230137D01*
X0003685066Y0002230137D02*
X0003667766Y0002247336D01*
X0003667766Y0002247336D02*
X0003667766Y0002441236D01*
X0003667766Y0002441236D02*
X0003612366Y0002441236D01*
X0003612366Y0002441236D02*
X0003612366Y0002250837D01*
X0003612366Y0002250837D02*
X0003612366Y0002250837D01*
X0003612366Y0002250837D02*
X0003591566Y0002230137D01*
X0003591566Y0002230137D02*
X0003225466Y0002230237D01*
X0003120866Y0002230137D02*
X0003061966Y0002230137D01*
X0003141566Y0002250837D02*
X0003120866Y0002230137D01*
X0003141566Y0002250837D02*
X0003141566Y0002423937D01*
X0003141566Y0002423937D02*
X0003158866Y0002441236D01*
X0003061966Y0002441236D02*
X0003612366Y0002441236D01*
X0003608866Y0002250837D02*
X0003567366Y0002250837D01*
X0003567366Y0002250837D02*
X0003203866Y0002250837D01*
X0003224566Y0002230637D02*
X0003203866Y0002250837D01*
X0003203866Y0002250837D02*
X0003203866Y0002437737D01*
X0003370866Y0002438937D02*
X0003370866Y0002263937D01*
X0003370866Y0002263937D02*
X0003400866Y0002263937D01*
X0003400866Y0002263937D02*
X0003400866Y0002438937D01*
X0003320866Y0002438937D02*
X0003320866Y0002278937D01*
X0003320866Y0002278937D02*
X0003350866Y0002278937D01*
X0003350866Y0002278937D02*
X0003350866Y0002438937D01*
X0003420866Y0002438937D02*
X0003420866Y0002278937D01*
X0003420866Y0002278937D02*
X0003450866Y0002278937D01*
X0003450866Y0002278937D02*
X0003450866Y0002438937D01*
X0003470866Y0002438937D02*
X0003470866Y0002278937D01*
X0003470866Y0002278937D02*
X0003500866Y0002278937D01*
X0003500866Y0002278937D02*
X0003500866Y0002438937D01*
X0003520866Y0002438937D02*
X0003520866Y0002263937D01*
X0003520866Y0002263937D02*
X0003550866Y0002263937D01*
X0003550866Y0002263937D02*
X0003550866Y0002438937D01*
X0003567366Y0002250837D02*
X0003567366Y0002437737D01*
X0003250866Y0002438937D02*
X0003250866Y0002263937D01*
X0003250866Y0002263937D02*
X0003220866Y0002263937D01*
X0003220866Y0002263937D02*
X0003220866Y0002438937D01*
X0003270866Y0002438937D02*
X0003270866Y0002278937D01*
X0003270866Y0002278937D02*
X0003300866Y0002278937D01*
X0003300866Y0002278937D02*
X0003300866Y0002438937D01*
X0003220866Y0002518936D02*
X0003225866Y0002528837D01*
X0003225866Y0002528837D02*
X0003225866Y0002683937D01*
X0003225866Y0002683937D02*
X0003245866Y0002683937D01*
X0003245866Y0002683937D02*
X0003245866Y0002528837D01*
X0003245866Y0002528837D02*
X0003250866Y0002518936D01*
X0003270866Y0002518936D02*
X0003275866Y0002528837D01*
X0003275866Y0002528837D02*
X0003275866Y0002683937D01*
X0003275866Y0002683937D02*
X0003295866Y0002683937D01*
X0003295866Y0002683937D02*
X0003295866Y0002528837D01*
X0003295866Y0002528837D02*
X0003300866Y0002518936D01*
X0003320866Y0002518936D02*
X0003325866Y0002528837D01*
X0003325866Y0002528837D02*
X0003325866Y0002683937D01*
X0003325866Y0002683937D02*
X0003345866Y0002683937D01*
X0003345866Y0002683937D02*
X0003345866Y0002528837D01*
X0003345866Y0002528837D02*
X0003350866Y0002518936D01*
X0003370866Y0002518936D02*
X0003375866Y0002528837D01*
X0003375866Y0002528837D02*
X0003375866Y0002683937D01*
X0003375866Y0002683937D02*
X0003395866Y0002683937D01*
X0003395866Y0002683937D02*
X0003395866Y0002528837D01*
X0003395866Y0002528837D02*
X0003400866Y0002518936D01*
X0003420866Y0002518936D02*
X0003425866Y0002528837D01*
X0003425866Y0002528837D02*
X0003425866Y0002683937D01*
X0003425866Y0002683937D02*
X0003445866Y0002683937D01*
X0003445866Y0002683937D02*
X0003445866Y0002528837D01*
X0003445866Y0002528837D02*
X0003450866Y0002518936D01*
X0003470866Y0002518936D02*
X0003475866Y0002528837D01*
X0003475866Y0002528837D02*
X0003475866Y0002683937D01*
X0003475866Y0002683937D02*
X0003495866Y0002683937D01*
X0003495866Y0002683937D02*
X0003495866Y0002528837D01*
X0003495866Y0002528837D02*
X0003500866Y0002518936D01*
X0003520866Y0002518936D02*
X0003525866Y0002528837D01*
X0003525866Y0002528837D02*
X0003525866Y0002683937D01*
X0003525866Y0002683937D02*
X0003545866Y0002683937D01*
X0003545866Y0002683937D02*
X0003545866Y0002528837D01*
X0003545866Y0002528837D02*
X0003550866Y0002518936D01*
X0003127766Y0002680137D02*
X0003127766Y0002548536D01*
X0003127766Y0002548536D02*
X0003141566Y0002548536D01*
X0003141566Y0002548536D02*
X0003141566Y0002680137D01*
X0003629666Y0002680137D02*
X0003629666Y0002548536D01*
X0003629666Y0002548536D02*
X0003643466Y0002548536D01*
X0003643466Y0002548536D02*
X0003643466Y0002683637D01*
D64*
X0003133966Y0002651437D02*
G75*
G03G03X0003120166Y0002637637J-0000013800D01X0003120166Y0002637637J-0000013800D01*
G01G01*
X0003147666Y0002637637D02*
G75*
G03G03X0003133966Y0002651337I-0000013700D01X0003133966Y0002651337I-0000013700D01*
G01G01*
X0003133966Y0002564736D02*
G75*
G03G03X0003147766Y0002578537J0000013800D01X0003147766Y0002578537J0000013800D01*
G01G01*
X0003120166Y0002578537D02*
G75*
G03G03X0003133966Y0002564736I0000013800D01X0003133966Y0002564736I0000013800D01*
G01G01*
X0003637766Y0002651437D02*
G75*
G03G03X0003623966Y0002637637J-0000013800D01X0003623966Y0002637637J-0000013800D01*
G01G01*
X0003651466Y0002637637D02*
G75*
G03G03X0003637766Y0002651337I-0000013700D01X0003637766Y0002651337I-0000013700D01*
G01G01*
X0003637766Y0002564736D02*
G75*
G03G03X0003651566Y0002578537J0000013800D01X0003651566Y0002578537J0000013800D01*
G01G01*
X0003623966Y0002578537D02*
G75*
G03G03X0003637766Y0002564736I0000013800D01X0003637766Y0002564736I0000013800D01*
G01G01*
M02*