G04 #@! TF.FileFunction,Copper,L1,Top,Signal*
%FSLAX46Y46*%
G04 Gerber Fmt 4.6, Leading zero omitted, Abs format (unit mm)*
G04 Created by KiCad (PCBNEW 4.0.7-e2-6376~58~ubuntu16.04.1) date Sat Jan 13 09:37:07 2018*
%MOMM*%
%LPD*%
G01*
G04 APERTURE LIST*
%ADD10C,0.100000*%
%ADD11R,3.150000X1.000000*%
%ADD12C,0.850000*%
%ADD13C,0.250000*%
G04 APERTURE END LIST*
D10*
D11*
X154462000Y-101194000D03*
X159512000Y-101194000D03*
X154462000Y-103734000D03*
X159512000Y-103734000D03*
X154462000Y-106274000D03*
X159512000Y-106274000D03*
X154462000Y-108814000D03*
X159512000Y-108814000D03*
D12*
X155885700Y-102591400D03*
X155890000Y-109964500D03*
X153083300Y-102333400D03*
X153083300Y-107417800D03*
X158933800Y-99959100D03*
X160852700Y-102584100D03*
X159123000Y-107429700D03*
X160852700Y-107673900D03*
D13*
X154462000Y-103734000D02*
X156362300Y-103734000D01*
X156362300Y-103068000D02*
X155885700Y-102591400D01*
X156362300Y-103734000D02*
X156362300Y-103068000D01*
X154462000Y-108814000D02*
X156362300Y-108814000D01*
X156362300Y-109492200D02*
X155890000Y-109964500D01*
X156362300Y-108814000D02*
X156362300Y-109492200D01*
X154462000Y-101194000D02*
X152561700Y-101194000D01*
X152981600Y-102333400D02*
X153083300Y-102333400D01*
X152561700Y-101913500D02*
X152981600Y-102333400D01*
X152561700Y-101194000D02*
X152561700Y-101913500D01*
X154462000Y-106274000D02*
X152561700Y-106274000D01*
X152998400Y-107417800D02*
X153083300Y-107417800D01*
X152561700Y-106981100D02*
X152998400Y-107417800D01*
X152561700Y-106274000D02*
X152561700Y-106981100D01*
X158151900Y-99959100D02*
X158933800Y-99959100D01*
X157611700Y-100499300D02*
X158151900Y-99959100D01*
X157611700Y-101194000D02*
X157611700Y-100499300D01*
X159512000Y-101194000D02*
X157611700Y-101194000D01*
X159512000Y-103734000D02*
X161412300Y-103734000D01*
X160974300Y-102584100D02*
X160852700Y-102584100D01*
X161412300Y-103022100D02*
X160974300Y-102584100D01*
X161412300Y-103734000D02*
X161412300Y-103022100D01*
X159512000Y-106274000D02*
X157611700Y-106274000D01*
X158104700Y-107429700D02*
X159123000Y-107429700D01*
X157611700Y-106936700D02*
X158104700Y-107429700D01*
X157611700Y-106274000D02*
X157611700Y-106936700D01*
X160923400Y-107673900D02*
X160852700Y-107673900D01*
X161412300Y-108162800D02*
X160923400Y-107673900D01*
X161412300Y-108814000D02*
X161412300Y-108162800D01*
X159512000Y-108814000D02*
X161412300Y-108814000D01*
M02*
