G04 #@! TF.FileFunction,Legend,Bot*
%FSLAX46Y46*%
G04 Gerber Fmt 4.6, Leading zero omitted, Abs format (unit mm)*
G04 Created by KiCad (PCBNEW 4.0.7-e2-6376~58~ubuntu16.04.1) date Sat Jan 13 09:37:07 2018*
%MOMM*%
%LPD*%
G01*
G04 APERTURE LIST*
%ADD10C,0.100000*%
%ADD11C,0.120000*%
%ADD12C,0.150000*%
G04 APERTURE END LIST*
D10*
D11*
X154488000Y-99864000D02*
X151828000Y-99864000D01*
X154488000Y-110144000D02*
X151828000Y-110144000D01*
X151828000Y-101954000D02*
X151828000Y-105514000D01*
X151828000Y-107034000D02*
X151828000Y-110144000D01*
X154488000Y-99864000D02*
X154488000Y-102974000D01*
X151828000Y-100434000D02*
X150308000Y-100434000D01*
X151828000Y-99864000D02*
X151828000Y-100434000D01*
X154488000Y-109574000D02*
X154488000Y-110144000D01*
X154488000Y-104494000D02*
X154488000Y-108054000D01*
X162108000Y-99889000D02*
X159448000Y-99889000D01*
X162108000Y-110169000D02*
X159448000Y-110169000D01*
X159448000Y-101979000D02*
X159448000Y-105539000D01*
X159448000Y-107059000D02*
X159448000Y-110169000D01*
X162108000Y-99889000D02*
X162108000Y-102999000D01*
X159448000Y-100459000D02*
X157928000Y-100459000D01*
X159448000Y-99889000D02*
X159448000Y-100459000D01*
X162108000Y-109599000D02*
X162108000Y-110169000D01*
X162108000Y-104519000D02*
X162108000Y-108079000D01*
D12*
X152352333Y-99147781D02*
X152352333Y-99862067D01*
X152399953Y-100004924D01*
X152495191Y-100100162D01*
X152638048Y-100147781D01*
X152733286Y-100147781D01*
X151352333Y-100147781D02*
X151923762Y-100147781D01*
X151638048Y-100147781D02*
X151638048Y-99147781D01*
X151733286Y-99290638D01*
X151828524Y-99385876D01*
X151923762Y-99433495D01*
X161496333Y-99147381D02*
X161496333Y-99861667D01*
X161543953Y-100004524D01*
X161639191Y-100099762D01*
X161782048Y-100147381D01*
X161877286Y-100147381D01*
X161115381Y-99147381D02*
X160496333Y-99147381D01*
X160829667Y-99528333D01*
X160686809Y-99528333D01*
X160591571Y-99575952D01*
X160543952Y-99623571D01*
X160496333Y-99718810D01*
X160496333Y-99956905D01*
X160543952Y-100052143D01*
X160591571Y-100099762D01*
X160686809Y-100147381D01*
X160972524Y-100147381D01*
X161067762Y-100099762D01*
X161115381Y-100052143D01*
M02*
