G04 #@! TF.FileFunction,Legend,Bot*
%FSLAX46Y46*%
G04 Gerber Fmt 4.6, Leading zero omitted, Abs format (unit mm)*
G04 Created by KiCad (PCBNEW 4.0.7-e2-6376~58~ubuntu16.04.1) date Sat Jan 13 09:42:42 2018*
%MOMM*%
%LPD*%
G01*
G04 APERTURE LIST*
%ADD10C,0.100000*%
%ADD11C,0.120000*%
%ADD12C,0.150000*%
G04 APERTURE END LIST*
D10*
D11*
X145987000Y-94809000D02*
X143327000Y-94809000D01*
X145987000Y-115249000D02*
X143327000Y-115249000D01*
X143327000Y-96899000D02*
X143327000Y-100459000D01*
X143327000Y-101979000D02*
X143327000Y-105539000D01*
X143327000Y-107059000D02*
X143327000Y-110619000D01*
X143327000Y-112139000D02*
X143327000Y-115249000D01*
X145987000Y-94809000D02*
X145987000Y-97919000D01*
X143327000Y-95379000D02*
X141807000Y-95379000D01*
X143327000Y-94809000D02*
X143327000Y-95379000D01*
X145987000Y-114679000D02*
X145987000Y-115249000D01*
X145987000Y-99439000D02*
X145987000Y-102999000D01*
X145987000Y-104519000D02*
X145987000Y-108079000D01*
X145987000Y-109599000D02*
X145987000Y-113159000D01*
X153607000Y-94809000D02*
X150947000Y-94809000D01*
X153607000Y-115249000D02*
X150947000Y-115249000D01*
X150947000Y-96899000D02*
X150947000Y-100459000D01*
X150947000Y-101979000D02*
X150947000Y-105539000D01*
X150947000Y-107059000D02*
X150947000Y-110619000D01*
X150947000Y-112139000D02*
X150947000Y-115249000D01*
X153607000Y-94809000D02*
X153607000Y-97919000D01*
X150947000Y-95379000D02*
X149427000Y-95379000D01*
X150947000Y-94809000D02*
X150947000Y-95379000D01*
X153607000Y-114679000D02*
X153607000Y-115249000D01*
X153607000Y-99439000D02*
X153607000Y-102999000D01*
X153607000Y-104519000D02*
X153607000Y-108079000D01*
X153607000Y-109599000D02*
X153607000Y-113159000D01*
D12*
X144990333Y-93261381D02*
X144990333Y-93975667D01*
X145037953Y-94118524D01*
X145133191Y-94213762D01*
X145276048Y-94261381D01*
X145371286Y-94261381D01*
X143990333Y-94261381D02*
X144561762Y-94261381D01*
X144276048Y-94261381D02*
X144276048Y-93261381D01*
X144371286Y-93404238D01*
X144466524Y-93499476D01*
X144561762Y-93547095D01*
X152610333Y-93261381D02*
X152610333Y-93975667D01*
X152657953Y-94118524D01*
X152753191Y-94213762D01*
X152896048Y-94261381D01*
X152991286Y-94261381D01*
X152229381Y-93261381D02*
X151610333Y-93261381D01*
X151943667Y-93642333D01*
X151800809Y-93642333D01*
X151705571Y-93689952D01*
X151657952Y-93737571D01*
X151610333Y-93832810D01*
X151610333Y-94070905D01*
X151657952Y-94166143D01*
X151705571Y-94213762D01*
X151800809Y-94261381D01*
X152086524Y-94261381D01*
X152181762Y-94213762D01*
X152229381Y-94166143D01*
M02*
