G04 #@! TF.FileFunction,Legend,Top*
%FSLAX46Y46*%
G04 Gerber Fmt 4.6, Leading zero omitted, Abs format (unit mm)*
G04 Created by KiCad (PCBNEW 4.0.7-e2-6376~58~ubuntu16.04.1) date Sat Jan 13 09:42:42 2018*
%MOMM*%
%LPD*%
G01*
G04 APERTURE LIST*
%ADD10C,0.100000*%
%ADD11C,0.120000*%
%ADD12C,0.150000*%
G04 APERTURE END LIST*
D10*
D11*
X146005000Y-94809000D02*
X151205000Y-94809000D01*
X146005000Y-115249000D02*
X151205000Y-115249000D01*
X144565000Y-95379000D02*
X146005000Y-95379000D01*
X146005000Y-94809000D02*
X146005000Y-95379000D01*
X151205000Y-94809000D02*
X151205000Y-95379000D01*
X146005000Y-114679000D02*
X146005000Y-115249000D01*
X151205000Y-114679000D02*
X151205000Y-115249000D01*
X146005000Y-96899000D02*
X146005000Y-97919000D01*
X151205000Y-96899000D02*
X151205000Y-97919000D01*
X146005000Y-99439000D02*
X146005000Y-100459000D01*
X151205000Y-99439000D02*
X151205000Y-100459000D01*
X146005000Y-101979000D02*
X146005000Y-102999000D01*
X151205000Y-101979000D02*
X151205000Y-102999000D01*
X146005000Y-104519000D02*
X146005000Y-105539000D01*
X151205000Y-104519000D02*
X151205000Y-105539000D01*
X146005000Y-107059000D02*
X146005000Y-108079000D01*
X151205000Y-107059000D02*
X151205000Y-108079000D01*
X146005000Y-109599000D02*
X146005000Y-110619000D01*
X151205000Y-109599000D02*
X151205000Y-110619000D01*
X146005000Y-112139000D02*
X146005000Y-113159000D01*
X151205000Y-112139000D02*
X151205000Y-113159000D01*
D12*
X148271667Y-93261381D02*
X148271667Y-93975667D01*
X148224047Y-94118524D01*
X148128809Y-94213762D01*
X147985952Y-94261381D01*
X147890714Y-94261381D01*
X148700238Y-93356619D02*
X148747857Y-93309000D01*
X148843095Y-93261381D01*
X149081191Y-93261381D01*
X149176429Y-93309000D01*
X149224048Y-93356619D01*
X149271667Y-93451857D01*
X149271667Y-93547095D01*
X149224048Y-93689952D01*
X148652619Y-94261381D01*
X149271667Y-94261381D01*
M02*
