G04 #@! TF.FileFunction,Copper,L1,Top,Signal*
%FSLAX46Y46*%
G04 Gerber Fmt 4.6, Leading zero omitted, Abs format (unit mm)*
G04 Created by KiCad (PCBNEW 4.0.7-e2-6376~58~ubuntu16.04.1) date Sat Jan 13 09:42:42 2018*
%MOMM*%
%LPD*%
G01*
G04 APERTURE LIST*
%ADD10C,0.100000*%
%ADD11R,3.150000X1.000000*%
%ADD12C,0.850000*%
%ADD13C,0.250000*%
G04 APERTURE END LIST*
D10*
D11*
X146080000Y-96139000D03*
X151130000Y-96139000D03*
X146080000Y-98679000D03*
X151130000Y-98679000D03*
X146080000Y-101219000D03*
X151130000Y-101219000D03*
X146080000Y-103759000D03*
X151130000Y-103759000D03*
X146080000Y-106299000D03*
X151130000Y-106299000D03*
X146080000Y-108839000D03*
X151130000Y-108839000D03*
X146080000Y-111379000D03*
X151130000Y-111379000D03*
X146080000Y-113919000D03*
X151130000Y-113919000D03*
D12*
X147980300Y-99758600D03*
X147980300Y-102679300D03*
X145453800Y-109988300D03*
X147980300Y-114998000D03*
X144350700Y-94814500D03*
X144179700Y-102370000D03*
X144179700Y-107450000D03*
X144350700Y-110066100D03*
X149015000Y-97181000D03*
X153030300Y-99829800D03*
X151494400Y-102367500D03*
X153030300Y-102614100D03*
X149229700Y-107429100D03*
X153030300Y-107688200D03*
X149229700Y-110238800D03*
X150380100Y-115087000D03*
D13*
X146080000Y-98679000D02*
X147980300Y-98679000D01*
X147980300Y-98679000D02*
X147980300Y-99758600D01*
X146080000Y-103759000D02*
X147980300Y-103759000D01*
X147980300Y-103759000D02*
X147980300Y-102679300D01*
X145453800Y-109465200D02*
X145453800Y-109988300D01*
X146080000Y-108839000D02*
X145453800Y-109465200D01*
X146080000Y-113919000D02*
X147980300Y-113919000D01*
X147980300Y-113919000D02*
X147980300Y-114998000D01*
X144179700Y-94985500D02*
X144350700Y-94814500D01*
X144179700Y-96139000D02*
X144179700Y-94985500D01*
X146080000Y-96139000D02*
X144179700Y-96139000D01*
X146080000Y-101219000D02*
X144179700Y-101219000D01*
X144179700Y-101219000D02*
X144179700Y-102370000D01*
X146080000Y-106299000D02*
X144179700Y-106299000D01*
X144179700Y-106299000D02*
X144179700Y-107450000D01*
X144179700Y-110237100D02*
X144350700Y-110066100D01*
X144179700Y-111379000D02*
X144179700Y-110237100D01*
X146080000Y-111379000D02*
X144179700Y-111379000D01*
X149229700Y-96966300D02*
X149015000Y-97181000D01*
X149229700Y-96139000D02*
X149229700Y-96966300D01*
X151130000Y-96139000D02*
X149229700Y-96139000D01*
X151130000Y-98679000D02*
X153030300Y-98679000D01*
X153030300Y-98679000D02*
X153030300Y-99829800D01*
X151130000Y-102003100D02*
X151494400Y-102367500D01*
X151130000Y-101219000D02*
X151130000Y-102003100D01*
X151130000Y-103759000D02*
X153030300Y-103759000D01*
X153030300Y-103759000D02*
X153030300Y-102614100D01*
X151130000Y-106299000D02*
X149229700Y-106299000D01*
X149229700Y-106299000D02*
X149229700Y-107429100D01*
X151130000Y-108839000D02*
X153030300Y-108839000D01*
X153030300Y-108839000D02*
X153030300Y-107688200D01*
X151130000Y-111379000D02*
X149229700Y-111379000D01*
X149229700Y-111379000D02*
X149229700Y-110238800D01*
X149732900Y-115087000D02*
X150380100Y-115087000D01*
X149229700Y-114583800D02*
X149732900Y-115087000D01*
X149229700Y-113919000D02*
X149229700Y-114583800D01*
X151130000Y-113919000D02*
X149229700Y-113919000D01*
M02*
