G04 #@! TF.FileFunction,Copper,L1,Top,Signal*
%FSLAX46Y46*%
G04 Gerber Fmt 4.6, Leading zero omitted, Abs format (unit mm)*
G04 Created by KiCad (PCBNEW 4.0.7-e2-6376~58~ubuntu16.04.1) date Sat Jan 13 09:32:06 2018*
%MOMM*%
%LPD*%
G01*
G04 APERTURE LIST*
%ADD10C,0.100000*%
%ADD11R,3.150000X1.000000*%
%ADD12C,0.850000*%
%ADD13C,0.250000*%
G04 APERTURE END LIST*
D10*
D11*
X145976000Y-101194000D03*
X151026000Y-101194000D03*
X145976000Y-103734000D03*
X151026000Y-103734000D03*
X145976000Y-106274000D03*
X151026000Y-106274000D03*
X145976000Y-108814000D03*
X151026000Y-108814000D03*
D12*
X149125700Y-100074100D03*
X153246900Y-103734000D03*
X149125700Y-107409400D03*
X149229000Y-112015100D03*
X147876300Y-98471000D03*
X146977500Y-102603500D03*
X144075700Y-107407000D03*
X146977500Y-110223500D03*
D13*
X151026000Y-101194000D02*
X149125700Y-101194000D01*
X149125700Y-101194000D02*
X149125700Y-100074100D01*
X151026000Y-103734000D02*
X153246900Y-103734000D01*
X151026000Y-106274000D02*
X149125700Y-106274000D01*
X149125700Y-106274000D02*
X149125700Y-107409400D01*
X151026000Y-108814000D02*
X149125700Y-108814000D01*
X149125700Y-111911800D02*
X149229000Y-112015100D01*
X149125700Y-108814000D02*
X149125700Y-111911800D01*
X145976000Y-101194000D02*
X147876300Y-101194000D01*
X147876300Y-101194000D02*
X147876300Y-98471000D01*
X146977500Y-102603600D02*
X146977500Y-102603500D01*
X147390600Y-102603600D02*
X146977500Y-102603600D01*
X147876300Y-103089300D02*
X147390600Y-102603600D01*
X147876300Y-103734000D02*
X147876300Y-103089300D01*
X145976000Y-103734000D02*
X147876300Y-103734000D01*
X145976000Y-106274000D02*
X144075700Y-106274000D01*
X144075700Y-106274000D02*
X144075700Y-107407000D01*
X146977500Y-110223400D02*
X146977500Y-110223500D01*
X147111600Y-110223400D02*
X146977500Y-110223400D01*
X147876300Y-109458700D02*
X147111600Y-110223400D01*
X147876300Y-108814000D02*
X147876300Y-109458700D01*
X145976000Y-108814000D02*
X147876300Y-108814000D01*
M02*
