G04 #@! TF.FileFunction,Legend,Top*
%FSLAX46Y46*%
G04 Gerber Fmt 4.6, Leading zero omitted, Abs format (unit mm)*
G04 Created by KiCad (PCBNEW 4.0.7-e2-6376~58~ubuntu16.04.1) date Sat Jan 13 09:32:06 2018*
%MOMM*%
%LPD*%
G01*
G04 APERTURE LIST*
%ADD10C,0.100000*%
%ADD11C,0.120000*%
%ADD12C,0.150000*%
G04 APERTURE END LIST*
D10*
D11*
X145901000Y-99864000D02*
X151101000Y-99864000D01*
X145901000Y-110144000D02*
X151101000Y-110144000D01*
X144461000Y-100434000D02*
X145901000Y-100434000D01*
X145901000Y-99864000D02*
X145901000Y-100434000D01*
X151101000Y-99864000D02*
X151101000Y-100434000D01*
X145901000Y-109574000D02*
X145901000Y-110144000D01*
X151101000Y-109574000D02*
X151101000Y-110144000D01*
X145901000Y-101954000D02*
X145901000Y-102974000D01*
X151101000Y-101954000D02*
X151101000Y-102974000D01*
X145901000Y-104494000D02*
X145901000Y-105514000D01*
X151101000Y-104494000D02*
X151101000Y-105514000D01*
X145901000Y-107034000D02*
X145901000Y-108054000D01*
X151101000Y-107034000D02*
X151101000Y-108054000D01*
D12*
X148167667Y-98316381D02*
X148167667Y-99030667D01*
X148120047Y-99173524D01*
X148024809Y-99268762D01*
X147881952Y-99316381D01*
X147786714Y-99316381D01*
X148596238Y-98411619D02*
X148643857Y-98364000D01*
X148739095Y-98316381D01*
X148977191Y-98316381D01*
X149072429Y-98364000D01*
X149120048Y-98411619D01*
X149167667Y-98506857D01*
X149167667Y-98602095D01*
X149120048Y-98744952D01*
X148548619Y-99316381D01*
X149167667Y-99316381D01*
M02*
