G04 #@! TF.FileFunction,Legend,Bot*
%FSLAX46Y46*%
G04 Gerber Fmt 4.6, Leading zero omitted, Abs format (unit mm)*
G04 Created by KiCad (PCBNEW 4.0.7-e2-6376~58~ubuntu16.04.1) date Sat Jan 13 09:35:41 2018*
%MOMM*%
%LPD*%
G01*
G04 APERTURE LIST*
%ADD10C,0.100000*%
%ADD11C,0.120000*%
%ADD12C,0.150000*%
G04 APERTURE END LIST*
D10*
D11*
X151048000Y-97349000D02*
X145848000Y-97349000D01*
X151048000Y-110169000D02*
X145848000Y-110169000D01*
X152488000Y-97919000D02*
X151048000Y-97919000D01*
X151048000Y-97349000D02*
X151048000Y-97919000D01*
X145848000Y-97349000D02*
X145848000Y-97919000D01*
X151048000Y-109599000D02*
X151048000Y-110169000D01*
X145848000Y-109599000D02*
X145848000Y-110169000D01*
X151048000Y-99439000D02*
X151048000Y-100459000D01*
X145848000Y-99439000D02*
X145848000Y-100459000D01*
X151048000Y-101979000D02*
X151048000Y-102999000D01*
X145848000Y-101979000D02*
X145848000Y-102999000D01*
X151048000Y-104519000D02*
X151048000Y-105539000D01*
X145848000Y-104519000D02*
X145848000Y-105539000D01*
X151048000Y-107059000D02*
X151048000Y-108079000D01*
X145848000Y-107059000D02*
X145848000Y-108079000D01*
D12*
X148781333Y-95801381D02*
X148781333Y-96515667D01*
X148828953Y-96658524D01*
X148924191Y-96753762D01*
X149067048Y-96801381D01*
X149162286Y-96801381D01*
X148352762Y-95896619D02*
X148305143Y-95849000D01*
X148209905Y-95801381D01*
X147971809Y-95801381D01*
X147876571Y-95849000D01*
X147828952Y-95896619D01*
X147781333Y-95991857D01*
X147781333Y-96087095D01*
X147828952Y-96229952D01*
X148400381Y-96801381D01*
X147781333Y-96801381D01*
M02*
