G04 #@! TF.FileFunction,Copper,L1,Top,Signal*
%FSLAX46Y46*%
G04 Gerber Fmt 4.6, Leading zero omitted, Abs format (unit mm)*
G04 Created by KiCad (PCBNEW 4.0.7-e2-6376~58~ubuntu16.04.1) date Sat Jan 13 09:35:41 2018*
%MOMM*%
%LPD*%
G01*
G04 APERTURE LIST*
%ADD10C,0.100000*%
%ADD11R,2.510000X1.000000*%
%ADD12C,0.850000*%
%ADD13C,0.250000*%
G04 APERTURE END LIST*
D10*
D11*
X146846000Y-96114000D03*
X146846000Y-101194000D03*
X146846000Y-106274000D03*
X146846000Y-111354000D03*
X146846000Y-116434000D03*
X150156000Y-93574000D03*
X150156000Y-98654000D03*
X150156000Y-103734000D03*
X150156000Y-108814000D03*
X150156000Y-113894000D03*
D12*
X148426300Y-97245200D03*
X148426300Y-100121700D03*
X148232600Y-104224000D03*
X148426300Y-107707900D03*
X148426300Y-115015000D03*
X151736300Y-94809400D03*
X150475800Y-100091600D03*
X149984500Y-104907600D03*
X151787400Y-107594700D03*
X151749800Y-110208000D03*
D13*
X146846000Y-96114000D02*
X148426300Y-96114000D01*
X148426300Y-96114000D02*
X148426300Y-97245200D01*
X146846000Y-101194000D02*
X148426300Y-101194000D01*
X148426300Y-101194000D02*
X148426300Y-100121700D01*
X148426300Y-104417700D02*
X148426300Y-106274000D01*
X148232600Y-104224000D02*
X148426300Y-104417700D01*
X146846000Y-106274000D02*
X148426300Y-106274000D01*
X146846000Y-111354000D02*
X148426300Y-111354000D01*
X148426300Y-111354000D02*
X148426300Y-107707900D01*
X146846000Y-116434000D02*
X148426300Y-116434000D01*
X148426300Y-115015000D02*
X148426300Y-116434000D01*
X150156000Y-93574000D02*
X151736300Y-93574000D01*
X151736300Y-94809400D02*
X151736300Y-93574000D01*
X150156000Y-98654000D02*
X151736300Y-98654000D01*
X150475800Y-100091500D02*
X150475800Y-100091600D01*
X150997500Y-100091500D02*
X150475800Y-100091500D01*
X151736300Y-99352700D02*
X150997500Y-100091500D01*
X151736300Y-98654000D02*
X151736300Y-99352700D01*
X150156000Y-104736100D02*
X149984500Y-104907600D01*
X150156000Y-103734000D02*
X150156000Y-104736100D01*
X150156000Y-108814000D02*
X151736300Y-108814000D01*
X151736300Y-107645800D02*
X151787400Y-107594700D01*
X151736300Y-108814000D02*
X151736300Y-107645800D01*
X151736300Y-110221500D02*
X151736300Y-113894000D01*
X151749800Y-110208000D02*
X151736300Y-110221500D01*
X150156000Y-113894000D02*
X151736300Y-113894000D01*
M02*
