G04 #@! TF.FileFunction,Copper,L1,Top,Signal*
%FSLAX46Y46*%
G04 Gerber Fmt 4.6, Leading zero omitted, Abs format (unit mm)*
G04 Created by KiCad (PCBNEW 4.0.7-e2-6376~58~ubuntu16.04.1) date Sat Jan 13 09:54:45 2018*
%MOMM*%
%LPD*%
G01*
G04 APERTURE LIST*
%ADD10C,0.100000*%
%ADD11R,0.998220X2.098040*%
%ADD12O,1.270000X2.540000*%
%ADD13C,0.850000*%
%ADD14C,0.250000*%
G04 APERTURE END LIST*
D10*
D11*
X144691000Y-93805140D03*
X145961000Y-93805140D03*
X147231000Y-93805140D03*
X148501000Y-93805140D03*
X149771000Y-93805140D03*
X151041000Y-93805140D03*
X152311000Y-93805140D03*
D12*
X142102740Y-95755860D03*
X154899260Y-95755860D03*
D13*
X146310000Y-91819300D03*
X153675500Y-93777100D03*
X144907000Y-92125200D03*
X149573600Y-92114600D03*
X148266500Y-96866900D03*
X146226500Y-95712900D03*
X151041000Y-98116000D03*
D14*
X146921500Y-92430800D02*
X146310000Y-91819300D01*
X147231000Y-92430800D02*
X146921500Y-92430800D01*
X147231000Y-93805100D02*
X147231000Y-92430800D01*
X153675400Y-93777100D02*
X153675500Y-93777100D01*
X153675400Y-93126900D02*
X153675400Y-93777100D01*
X152979300Y-92430800D02*
X153675400Y-93126900D01*
X152311000Y-92430800D02*
X152979300Y-92430800D01*
X152311000Y-93805100D02*
X152311000Y-92430800D01*
X144691000Y-93805100D02*
X144691000Y-92430800D01*
X144691000Y-92341200D02*
X144907000Y-92125200D01*
X144691000Y-92430800D02*
X144691000Y-92341200D01*
X149771000Y-92312000D02*
X149573600Y-92114600D01*
X149771000Y-93805100D02*
X149771000Y-92312000D01*
X148266500Y-95413900D02*
X148266500Y-96866900D01*
X148501000Y-95179400D02*
X148266500Y-95413900D01*
X148501000Y-93805100D02*
X148501000Y-95179400D01*
X145961000Y-95447400D02*
X146226500Y-95712900D01*
X145961000Y-93805100D02*
X145961000Y-95447400D01*
X151041000Y-93805100D02*
X151041000Y-98116000D01*
M02*
