G04 #@! TF.FileFunction,Soldermask,Bot*
%FSLAX46Y46*%
G04 Gerber Fmt 4.6, Leading zero omitted, Abs format (unit mm)*
G04 Created by KiCad (PCBNEW 4.0.7-e2-6376~58~ubuntu16.04.1) date Sat Jan 13 09:46:35 2018*
%MOMM*%
%LPD*%
G01*
G04 APERTURE LIST*
%ADD10C,0.100000*%
%ADD11R,2.910000X1.400000*%
G04 APERTURE END LIST*
D10*
D11*
X164465000Y-83414000D03*
X164465000Y-88494000D03*
X164465000Y-93574000D03*
X164465000Y-98654000D03*
X164465000Y-103734000D03*
X164465000Y-108814000D03*
X164465000Y-113894000D03*
X164465000Y-118974000D03*
X164465000Y-124054000D03*
X164465000Y-129134000D03*
X161155000Y-80874000D03*
X161155000Y-85954000D03*
X161155000Y-91034000D03*
X161155000Y-96114000D03*
X161155000Y-101194000D03*
X161155000Y-106274000D03*
X161155000Y-111354000D03*
X161155000Y-116434000D03*
X161155000Y-121514000D03*
X161155000Y-126594000D03*
X156980000Y-83414000D03*
X156980000Y-88494000D03*
X156980000Y-93574000D03*
X156980000Y-98654000D03*
X156980000Y-103734000D03*
X156980000Y-108814000D03*
X156980000Y-113894000D03*
X156980000Y-118974000D03*
X156980000Y-124054000D03*
X156980000Y-129134000D03*
X153670000Y-80874000D03*
X153670000Y-85954000D03*
X153670000Y-91034000D03*
X153670000Y-96114000D03*
X153670000Y-101194000D03*
X153670000Y-106274000D03*
X153670000Y-111354000D03*
X153670000Y-116434000D03*
X153670000Y-121514000D03*
X153670000Y-126594000D03*
M02*
