G04 #@! TF.FileFunction,Copper,L2,Bot,Signal*
%FSLAX46Y46*%
G04 Gerber Fmt 4.6, Leading zero omitted, Abs format (unit mm)*
G04 Created by KiCad (PCBNEW 4.0.7-e2-6376~58~ubuntu16.04.1) date Wed Jan  3 00:52:27 2018*
%MOMM*%
%LPD*%
G01*
G04 APERTURE LIST*
%ADD10C,0.100000*%
%ADD11C,3.649980*%
%ADD12R,1.501140X1.501140*%
%ADD13C,1.501140*%
%ADD14C,1.524000*%
%ADD15C,2.999740*%
%ADD16O,1.270000X2.540000*%
%ADD17C,0.600000*%
%ADD18R,2.510000X1.000000*%
%ADD19R,1.000000X2.510000*%
%ADD20C,0.870000*%
%ADD21C,0.250000*%
G04 APERTURE END LIST*
D10*
D11*
X135031480Y-92710000D03*
X146900900Y-92710000D03*
D12*
X145415000Y-99060000D03*
D13*
X144145000Y-101600000D03*
X142875000Y-99060000D03*
X141605000Y-101600000D03*
X140335000Y-99060000D03*
X139065000Y-101600000D03*
X137795000Y-99060000D03*
X136525000Y-101600000D03*
D11*
X135031480Y-63500000D03*
X146900900Y-63500000D03*
D12*
X145415000Y-69850000D03*
D13*
X144145000Y-72390000D03*
X142875000Y-69850000D03*
X141605000Y-72390000D03*
X140335000Y-69850000D03*
X139065000Y-72390000D03*
X137795000Y-69850000D03*
X136525000Y-72390000D03*
D14*
X174498000Y-52070000D03*
X171958000Y-52070000D03*
X177038000Y-52070000D03*
X170688000Y-54610000D03*
X173228000Y-54610000D03*
X175768000Y-54610000D03*
D15*
X180594000Y-56642000D03*
X167132000Y-56642000D03*
D14*
X160528000Y-102362000D03*
X163068000Y-102362000D03*
X157988000Y-102362000D03*
X164338000Y-99822000D03*
X161798000Y-99822000D03*
X159258000Y-99822000D03*
D15*
X154432000Y-97790000D03*
X167894000Y-97790000D03*
D16*
X140921740Y-35201860D03*
X153718260Y-35201860D03*
X163781740Y-35201860D03*
X176578260Y-35201860D03*
D17*
X198628000Y-57023000D03*
X197612000Y-57023000D03*
X196596000Y-57023000D03*
X183388000Y-54229000D03*
X183388000Y-53213000D03*
X183388000Y-52197000D03*
X183134000Y-81407000D03*
X183134000Y-80391000D03*
X183134000Y-79375000D03*
D18*
X159135000Y-55880000D03*
X159135000Y-60960000D03*
X159135000Y-66040000D03*
X159135000Y-71120000D03*
X159135000Y-76200000D03*
X155825000Y-53340000D03*
X155825000Y-58420000D03*
X155825000Y-63500000D03*
X155825000Y-68580000D03*
X155825000Y-73660000D03*
X162175000Y-118364000D03*
X162175000Y-113284000D03*
X165485000Y-120904000D03*
X165485000Y-115824000D03*
X154555000Y-118364000D03*
X154555000Y-113284000D03*
X157865000Y-120904000D03*
X157865000Y-115824000D03*
X134743000Y-118618000D03*
X134743000Y-113538000D03*
X138053000Y-121158000D03*
X138053000Y-116078000D03*
X138053000Y-110998000D03*
X142363000Y-118618000D03*
X142363000Y-113538000D03*
X145673000Y-121158000D03*
X145673000Y-116078000D03*
X145673000Y-110998000D03*
X175668000Y-84400000D03*
X175668000Y-79320000D03*
X175668000Y-74240000D03*
X175668000Y-69160000D03*
X178978000Y-86940000D03*
X178978000Y-81860000D03*
X178978000Y-76780000D03*
X178978000Y-71700000D03*
X217039000Y-116840000D03*
X217039000Y-111760000D03*
X217039000Y-106680000D03*
X217039000Y-101600000D03*
X217039000Y-96520000D03*
X220349000Y-119380000D03*
X220349000Y-114300000D03*
X220349000Y-109220000D03*
X220349000Y-104140000D03*
X220349000Y-99060000D03*
X209419000Y-116840000D03*
X209419000Y-111760000D03*
X209419000Y-106680000D03*
X209419000Y-101600000D03*
X209419000Y-96520000D03*
X212729000Y-119380000D03*
X212729000Y-114300000D03*
X212729000Y-109220000D03*
X212729000Y-104140000D03*
X212729000Y-99060000D03*
D19*
X142240000Y-38985000D03*
X147320000Y-38985000D03*
X152400000Y-38985000D03*
X139700000Y-42295000D03*
X144780000Y-42295000D03*
X149860000Y-42295000D03*
X154940000Y-42295000D03*
D18*
X172335000Y-40640000D03*
X172335000Y-35560000D03*
X175645000Y-43180000D03*
X175645000Y-38100000D03*
X164715000Y-40640000D03*
X168025000Y-43180000D03*
X168025000Y-38100000D03*
D19*
X172720000Y-58035000D03*
X177800000Y-58035000D03*
X170180000Y-61345000D03*
X175260000Y-61345000D03*
X140970000Y-49145000D03*
X146050000Y-49145000D03*
X138430000Y-52455000D03*
X143510000Y-52455000D03*
X140970000Y-56765000D03*
X146050000Y-56765000D03*
X138430000Y-60075000D03*
X143510000Y-60075000D03*
X164846000Y-93087000D03*
X162306000Y-96397000D03*
X162306000Y-88777000D03*
X164846000Y-85467000D03*
D18*
X139315000Y-93980000D03*
X139315000Y-88900000D03*
X139315000Y-83820000D03*
X139315000Y-78740000D03*
X142625000Y-96520000D03*
X142625000Y-91440000D03*
X142625000Y-86360000D03*
X142625000Y-81280000D03*
X216277000Y-84836000D03*
X216277000Y-79756000D03*
X216277000Y-74676000D03*
X216277000Y-69596000D03*
X216277000Y-64516000D03*
X216277000Y-59436000D03*
X216277000Y-54356000D03*
X216277000Y-49276000D03*
X216277000Y-44196000D03*
X216277000Y-39116000D03*
X216277000Y-34036000D03*
X219587000Y-87376000D03*
X219587000Y-82296000D03*
X219587000Y-77216000D03*
X219587000Y-72136000D03*
X219587000Y-67056000D03*
X219587000Y-61976000D03*
X219587000Y-56896000D03*
X219587000Y-51816000D03*
X219587000Y-46736000D03*
X219587000Y-41656000D03*
X219587000Y-36576000D03*
X219587000Y-31496000D03*
X211967000Y-34036000D03*
X211967000Y-39116000D03*
X211967000Y-44196000D03*
X211967000Y-49276000D03*
X211967000Y-54356000D03*
X211967000Y-59436000D03*
X211967000Y-64516000D03*
X211967000Y-69596000D03*
X211967000Y-74676000D03*
X211967000Y-79756000D03*
X211967000Y-84836000D03*
X208657000Y-31496000D03*
X208657000Y-36576000D03*
X208657000Y-41656000D03*
X208657000Y-46736000D03*
X208657000Y-51816000D03*
X208657000Y-56896000D03*
X208657000Y-61976000D03*
X208657000Y-67056000D03*
X208657000Y-72136000D03*
X208657000Y-77216000D03*
X208657000Y-82296000D03*
X208657000Y-87376000D03*
X191647000Y-62230000D03*
X191647000Y-67310000D03*
X191647000Y-72390000D03*
X191647000Y-77470000D03*
X191647000Y-82550000D03*
X191647000Y-87630000D03*
X191647000Y-92710000D03*
X191647000Y-97790000D03*
X191647000Y-102870000D03*
X191647000Y-107950000D03*
X188337000Y-59690000D03*
X188337000Y-64770000D03*
X188337000Y-69850000D03*
X188337000Y-74930000D03*
X188337000Y-80010000D03*
X188337000Y-85090000D03*
X188337000Y-90170000D03*
X188337000Y-95250000D03*
X188337000Y-100330000D03*
X188337000Y-105410000D03*
X199267000Y-62230000D03*
X199267000Y-67310000D03*
X199267000Y-72390000D03*
X199267000Y-77470000D03*
X199267000Y-82550000D03*
X199267000Y-87630000D03*
X199267000Y-92710000D03*
X199267000Y-97790000D03*
X199267000Y-102870000D03*
X199267000Y-107950000D03*
X195957000Y-59690000D03*
X195957000Y-64770000D03*
X195957000Y-69850000D03*
X195957000Y-74930000D03*
X195957000Y-80010000D03*
X195957000Y-85090000D03*
X195957000Y-90170000D03*
X195957000Y-95250000D03*
X195957000Y-100330000D03*
X195957000Y-105410000D03*
D17*
X222885000Y-99060000D03*
X222885000Y-98044000D03*
X222885000Y-97028000D03*
X222885000Y-106045000D03*
X222885000Y-105029000D03*
X222885000Y-104013000D03*
X222885000Y-113665000D03*
X222885000Y-112649000D03*
X222885000Y-111633000D03*
X222885000Y-118745000D03*
X222885000Y-117729000D03*
X222885000Y-116713000D03*
X219075000Y-121920000D03*
X218059000Y-121920000D03*
X217043000Y-121920000D03*
X212090000Y-121920000D03*
X211074000Y-121920000D03*
X210058000Y-121920000D03*
X206883000Y-118237000D03*
X206883000Y-117221000D03*
X206883000Y-116205000D03*
X206883000Y-111379000D03*
X206883000Y-110363000D03*
X206883000Y-109347000D03*
X206883000Y-103251000D03*
X206883000Y-102235000D03*
X206883000Y-101219000D03*
X212344000Y-93980000D03*
X211328000Y-93980000D03*
X210312000Y-93980000D03*
X219329000Y-93980000D03*
X218313000Y-93980000D03*
X217297000Y-93980000D03*
X201803000Y-108331000D03*
X201803000Y-107315000D03*
X201803000Y-106299000D03*
X201803000Y-101092000D03*
X201803000Y-100076000D03*
X201803000Y-99060000D03*
X201803000Y-93853000D03*
X201803000Y-92837000D03*
X201803000Y-91821000D03*
X201803000Y-82804000D03*
X201803000Y-81788000D03*
X201803000Y-80772000D03*
X201803000Y-70739000D03*
X201803000Y-69723000D03*
X201803000Y-68707000D03*
X191389000Y-57023000D03*
X190373000Y-57023000D03*
X189357000Y-57023000D03*
X185801000Y-61976000D03*
X185801000Y-60960000D03*
X185801000Y-59944000D03*
X185801000Y-68453000D03*
X185801000Y-67437000D03*
X185801000Y-66421000D03*
X185801000Y-76073000D03*
X185801000Y-75057000D03*
X185801000Y-74041000D03*
X185801000Y-83185000D03*
X185801000Y-82169000D03*
X185801000Y-81153000D03*
X185801000Y-90424000D03*
X185801000Y-89408000D03*
X185801000Y-88392000D03*
X185801000Y-99949000D03*
X185801000Y-98933000D03*
X185801000Y-97917000D03*
X185801000Y-107061000D03*
X185801000Y-106045000D03*
X185801000Y-105029000D03*
X191008000Y-110490000D03*
X189992000Y-110490000D03*
X188976000Y-110490000D03*
X198374000Y-110490000D03*
X197358000Y-110490000D03*
X196342000Y-110490000D03*
X168021000Y-115316000D03*
X168021000Y-114300000D03*
X168021000Y-113284000D03*
X168021000Y-120777000D03*
X168021000Y-119761000D03*
X168021000Y-118745000D03*
X165481000Y-123444000D03*
X164465000Y-123444000D03*
X163449000Y-123444000D03*
X158750000Y-123444000D03*
X157734000Y-123444000D03*
X156718000Y-123444000D03*
X152019000Y-120904000D03*
X152019000Y-119888000D03*
X152019000Y-118872000D03*
X152019000Y-115189000D03*
X152019000Y-114173000D03*
X152019000Y-113157000D03*
X156591000Y-110744000D03*
X155575000Y-110744000D03*
X154559000Y-110744000D03*
X163449000Y-110744000D03*
X162433000Y-110744000D03*
X161417000Y-110744000D03*
X183388000Y-60198000D03*
X183388000Y-59182000D03*
X183388000Y-58166000D03*
X178562000Y-64135000D03*
X177546000Y-64135000D03*
X176530000Y-64135000D03*
X171577000Y-64135000D03*
X170561000Y-64135000D03*
X169545000Y-64135000D03*
X164592000Y-56642000D03*
X164592000Y-55626000D03*
X164592000Y-54610000D03*
X164592000Y-60071000D03*
X164592000Y-61087000D03*
X164592000Y-62103000D03*
X170561000Y-49149000D03*
X169545000Y-49149000D03*
X168529000Y-49149000D03*
X157353000Y-49149000D03*
X156337000Y-49149000D03*
X155321000Y-49149000D03*
X162433000Y-49149000D03*
X161417000Y-49149000D03*
X160401000Y-49149000D03*
X151003000Y-53848000D03*
X151003000Y-52832000D03*
X151003000Y-51816000D03*
X151003000Y-60071000D03*
X151003000Y-59055000D03*
X151003000Y-58039000D03*
X151003000Y-66421000D03*
X151003000Y-65405000D03*
X151003000Y-64389000D03*
X151003000Y-71628000D03*
X151003000Y-70612000D03*
X151003000Y-69596000D03*
X151003000Y-76581000D03*
X151003000Y-75565000D03*
X151003000Y-74549000D03*
X155702000Y-78740000D03*
X154686000Y-78740000D03*
X153670000Y-78740000D03*
X161544000Y-78740000D03*
X160528000Y-78740000D03*
X159512000Y-78740000D03*
X164592000Y-68961000D03*
X164592000Y-67945000D03*
X164592000Y-66929000D03*
X164592000Y-75692000D03*
X164592000Y-74676000D03*
X164592000Y-73660000D03*
X178054000Y-49149000D03*
X177038000Y-49149000D03*
X176022000Y-49149000D03*
X177800000Y-45720000D03*
X176784000Y-45720000D03*
X175768000Y-45720000D03*
X171831000Y-45720000D03*
X170815000Y-45720000D03*
X169799000Y-45720000D03*
X165989000Y-45720000D03*
X164973000Y-45720000D03*
X163957000Y-45720000D03*
X180213000Y-43307000D03*
X180213000Y-42291000D03*
X180213000Y-41275000D03*
X180213000Y-37211000D03*
X180213000Y-36195000D03*
X180213000Y-35179000D03*
X161163000Y-43307000D03*
X161163000Y-42291000D03*
X161163000Y-41275000D03*
X161163000Y-36957000D03*
X161163000Y-35941000D03*
X161163000Y-34925000D03*
X165735000Y-29210000D03*
X164719000Y-29210000D03*
X163703000Y-29210000D03*
X172085000Y-29210000D03*
X171069000Y-29210000D03*
X170053000Y-29210000D03*
X177927000Y-29210000D03*
X176911000Y-29210000D03*
X175895000Y-29210000D03*
X137668000Y-123825000D03*
X136652000Y-123825000D03*
X135636000Y-123825000D03*
X145034000Y-123825000D03*
X144018000Y-123825000D03*
X143002000Y-123825000D03*
X148209000Y-119507000D03*
X148209000Y-120523000D03*
X148209000Y-121539000D03*
X132207000Y-121412000D03*
X132207000Y-120396000D03*
X132207000Y-119380000D03*
X132207000Y-114173000D03*
X132207000Y-113157000D03*
X132207000Y-112141000D03*
X136906000Y-108331000D03*
X135890000Y-108331000D03*
X134874000Y-108331000D03*
X144145000Y-108331000D03*
X143129000Y-108331000D03*
X142113000Y-108331000D03*
X148209000Y-112903000D03*
X148209000Y-111887000D03*
X148209000Y-110871000D03*
X131953000Y-93599000D03*
X131953000Y-92583000D03*
X131953000Y-91567000D03*
X131953000Y-88392000D03*
X131953000Y-87376000D03*
X131953000Y-86360000D03*
X131953000Y-101473000D03*
X131953000Y-100457000D03*
X131953000Y-99441000D03*
X136779000Y-103759000D03*
X135763000Y-103759000D03*
X134747000Y-103759000D03*
X142621000Y-103759000D03*
X141605000Y-103759000D03*
X140589000Y-103759000D03*
X147447000Y-103759000D03*
X146431000Y-103759000D03*
X145415000Y-103759000D03*
X149733000Y-101727000D03*
X149733000Y-100711000D03*
X149733000Y-99695000D03*
X149733000Y-95377000D03*
X149733000Y-94361000D03*
X149733000Y-93345000D03*
X149758400Y-89789000D03*
X149758400Y-88773000D03*
X149758400Y-87757000D03*
X149733000Y-80899000D03*
X149733000Y-81915000D03*
X149733000Y-82931000D03*
X141097000Y-76073000D03*
X140081000Y-76073000D03*
X139065000Y-76073000D03*
X131953000Y-80391000D03*
X131953000Y-81407000D03*
X131953000Y-82423000D03*
X136271000Y-76073000D03*
X135255000Y-76073000D03*
X134239000Y-76073000D03*
X146304000Y-76073000D03*
X145288000Y-76073000D03*
X144272000Y-76073000D03*
X131953000Y-64262000D03*
X131953000Y-63246000D03*
X131953000Y-62230000D03*
X131953000Y-71755000D03*
X131953000Y-70739000D03*
X131953000Y-69723000D03*
X136779000Y-74422000D03*
X135763000Y-74422000D03*
X134747000Y-74422000D03*
X142621000Y-74422000D03*
X141605000Y-74422000D03*
X140589000Y-74422000D03*
X147574000Y-74422000D03*
X146558000Y-74422000D03*
X145542000Y-74422000D03*
X149733000Y-65278000D03*
X149733000Y-64262000D03*
X149733000Y-63246000D03*
X149733000Y-70993000D03*
X149733000Y-69977000D03*
X149733000Y-68961000D03*
X149733000Y-59690000D03*
X149733000Y-58674000D03*
X149733000Y-57658000D03*
X149733000Y-53340000D03*
X149733000Y-52324000D03*
X149733000Y-51308000D03*
X147447000Y-45974000D03*
X146431000Y-45974000D03*
X145415000Y-45974000D03*
X140589000Y-45974000D03*
X139573000Y-45974000D03*
X138557000Y-45974000D03*
X131953000Y-56769000D03*
X131953000Y-55753000D03*
X131953000Y-54737000D03*
X131953000Y-50927000D03*
X131953000Y-49911000D03*
X131953000Y-48895000D03*
X137160000Y-42672000D03*
X137160000Y-41656000D03*
X137160000Y-40640000D03*
X137160000Y-36830000D03*
X137160000Y-35814000D03*
X137160000Y-34798000D03*
X141859000Y-30861000D03*
X140843000Y-30861000D03*
X139827000Y-30861000D03*
X147955000Y-30861000D03*
X146939000Y-30861000D03*
X145923000Y-30861000D03*
X154813000Y-30861000D03*
X153797000Y-30861000D03*
X152781000Y-30861000D03*
X157607000Y-35179000D03*
X157607000Y-34163000D03*
X157607000Y-33147000D03*
X157607000Y-42037000D03*
X157607000Y-41021000D03*
X157607000Y-40005000D03*
X153924000Y-45974000D03*
X152908000Y-45974000D03*
X151892000Y-45974000D03*
X170561000Y-98679000D03*
X170561000Y-97663000D03*
X170561000Y-96647000D03*
X170561000Y-93599000D03*
X170561000Y-92583000D03*
X170561000Y-91567000D03*
X166243000Y-82931000D03*
X165227000Y-82931000D03*
X164211000Y-82931000D03*
X168021000Y-105283000D03*
X167005000Y-105283000D03*
X165989000Y-105283000D03*
X160782000Y-105283000D03*
X159766000Y-105283000D03*
X158750000Y-105283000D03*
X151892000Y-97282000D03*
X151892000Y-96266000D03*
X151892000Y-95250000D03*
X151892000Y-102997000D03*
X151892000Y-101981000D03*
X151892000Y-100965000D03*
X151892000Y-88900000D03*
X151892000Y-87884000D03*
X151892000Y-86868000D03*
X156591000Y-82931000D03*
X155575000Y-82931000D03*
X154559000Y-82931000D03*
X170561000Y-86995000D03*
X170561000Y-85979000D03*
X170561000Y-84963000D03*
X177419000Y-89535000D03*
X176403000Y-89535000D03*
X175387000Y-89535000D03*
X222250000Y-50673000D03*
X222250000Y-49657000D03*
X222250000Y-48641000D03*
X205740000Y-69469000D03*
X205740000Y-68453000D03*
X205740000Y-67437000D03*
X170561000Y-80645000D03*
X170561000Y-79629000D03*
X170561000Y-78613000D03*
X170561000Y-75565000D03*
X170561000Y-74549000D03*
X170561000Y-73533000D03*
X170561000Y-70485000D03*
X170561000Y-69469000D03*
X170561000Y-68453000D03*
X174625000Y-66294000D03*
X173609000Y-66294000D03*
X172593000Y-66294000D03*
X179832000Y-66294000D03*
X178816000Y-66294000D03*
X177800000Y-66294000D03*
X183134000Y-86614000D03*
X183134000Y-85598000D03*
X183134000Y-84582000D03*
X183134000Y-75819000D03*
X183134000Y-74803000D03*
X183134000Y-73787000D03*
X183134000Y-70485000D03*
X183134000Y-69469000D03*
X183134000Y-68453000D03*
X201803000Y-62738000D03*
X201803000Y-61722000D03*
X201803000Y-60706000D03*
D20*
X157405300Y-57359600D03*
X159624700Y-57293000D03*
X155777500Y-60974800D03*
X157554700Y-62339000D03*
X153898900Y-63803300D03*
X157554700Y-64879000D03*
X155825000Y-66345400D03*
X159135000Y-72200300D03*
X156823900Y-71021500D03*
X159624700Y-73989900D03*
X164043500Y-119849800D03*
X160354800Y-118364000D03*
X164242600Y-114767300D03*
X160356800Y-113932800D03*
X159675100Y-120807300D03*
X155726500Y-119449700D03*
X159701800Y-115618100D03*
X155923900Y-112225100D03*
X218440000Y-32512000D03*
X210312000Y-32512000D03*
X216916000Y-35052000D03*
X211328000Y-35052000D03*
X218440000Y-37592000D03*
X210312000Y-37592000D03*
X216543000Y-40132000D03*
X211328000Y-40132000D03*
X218440000Y-42672000D03*
X210312000Y-42672000D03*
X216408000Y-45212000D03*
X211328000Y-45212000D03*
X218440000Y-47752000D03*
X210312000Y-47752000D03*
X216408000Y-50292000D03*
X211328000Y-50292000D03*
X218440000Y-52832000D03*
X210312000Y-52832000D03*
X216408000Y-55372000D03*
X211328000Y-55372000D03*
X218440000Y-57912000D03*
X210312000Y-57912000D03*
X216408000Y-60452000D03*
X211328000Y-60452000D03*
X218440000Y-62992000D03*
X210312000Y-62992000D03*
X216408000Y-65532000D03*
X211328000Y-65532000D03*
X218440000Y-68072000D03*
X210312000Y-68072000D03*
X216408000Y-70612000D03*
X211328000Y-70612000D03*
X218440000Y-73152000D03*
X210312000Y-73152000D03*
X216408000Y-75692000D03*
X211328000Y-75692000D03*
X218440000Y-78232000D03*
X210312000Y-78232000D03*
X216408000Y-80772000D03*
X211328000Y-80772000D03*
X218440000Y-83312000D03*
X210312000Y-83312000D03*
X216408000Y-85852000D03*
X211328000Y-85852000D03*
X218440000Y-88392000D03*
X210312000Y-88392000D03*
X135890000Y-116839994D03*
X134618010Y-115188992D03*
X135763000Y-115189000D03*
X133982990Y-116840000D03*
X139865965Y-120274499D03*
X146177000Y-118491000D03*
X140393310Y-119018791D03*
X145415000Y-114299976D03*
X140363333Y-117048312D03*
X144526000Y-119761000D03*
X178543400Y-83998300D03*
X176595900Y-81573200D03*
X178318300Y-79446100D03*
X176771500Y-78007400D03*
X177397700Y-75565000D03*
X173838600Y-74295000D03*
X177397700Y-72824300D03*
X176595900Y-70430000D03*
X219456000Y-120396000D03*
X217424000Y-117856000D03*
X219456000Y-115316000D03*
X217424000Y-112776000D03*
X219456000Y-110236000D03*
X217424000Y-107696000D03*
X219456000Y-105156000D03*
X217305000Y-102616000D03*
X219456000Y-100076000D03*
X217305000Y-97536000D03*
X189980000Y-60761500D03*
X194142300Y-59690000D03*
X193665600Y-62569900D03*
X197686700Y-63303600D03*
X189968400Y-63710100D03*
X194151000Y-64682700D03*
X193698100Y-67262900D03*
X197686700Y-66236400D03*
X189968400Y-70909900D03*
X194146300Y-70178600D03*
X193665600Y-72817000D03*
X197686700Y-73463600D03*
X189968400Y-73870100D03*
X194151600Y-74929700D03*
X193661400Y-77470000D03*
X197686700Y-76396400D03*
X189968400Y-81069900D03*
X194147500Y-80462100D03*
X191336200Y-83613400D03*
X197686700Y-83623600D03*
X189748700Y-84016700D03*
X194125600Y-84534900D03*
X193671600Y-87630000D03*
X197686700Y-86575200D03*
X189968400Y-91229900D03*
X194114000Y-90499100D03*
X191336200Y-93773400D03*
X198140400Y-93775300D03*
X189917300Y-96316900D03*
X194127300Y-94877100D03*
X193674400Y-97820000D03*
X197686700Y-98855600D03*
X189484000Y-101600000D03*
X194143400Y-100716800D03*
X191516000Y-104140000D03*
X198140400Y-101804700D03*
X189484000Y-106680000D03*
X194140500Y-105137400D03*
X191516000Y-109220000D03*
X197686700Y-109020300D03*
X212344000Y-120396000D03*
X210312000Y-117856000D03*
X212463000Y-115316000D03*
X210312000Y-112776000D03*
X212463000Y-110236000D03*
X210312000Y-107696000D03*
X212463000Y-105156000D03*
X210820000Y-102616000D03*
X212344000Y-100076000D03*
X210312000Y-97536000D03*
X139700000Y-39370000D03*
X142840100Y-35918900D03*
X145466000Y-36144100D03*
X147320000Y-35686998D03*
X149416500Y-39260100D03*
X151257000Y-36322008D03*
X152400000Y-34798000D03*
X174064700Y-39370000D03*
X170688000Y-31369000D03*
X174064700Y-36904600D03*
X174176200Y-35001400D03*
X167513000Y-35814000D03*
X165481000Y-42037000D03*
X168529000Y-41275000D03*
X169672000Y-36830000D03*
X171993100Y-31559200D03*
X137160000Y-81280000D03*
D21*
X155825000Y-53340000D02*
X157405300Y-53340000D01*
X157405300Y-53340000D02*
X157405300Y-57359600D01*
X160715300Y-56572500D02*
X160715300Y-55880000D01*
X159994800Y-57293000D02*
X160715300Y-56572500D01*
X159624700Y-57293000D02*
X159994800Y-57293000D01*
X159135000Y-55880000D02*
X160715300Y-55880000D01*
X154244700Y-59442000D02*
X154244700Y-58420000D01*
X155777500Y-60974800D02*
X154244700Y-59442000D01*
X155825000Y-58420000D02*
X154244700Y-58420000D01*
X159135000Y-60960000D02*
X157554700Y-60960000D01*
X157554700Y-60960000D02*
X157554700Y-62339000D01*
X155825000Y-63500000D02*
X154202200Y-63500000D01*
X154202200Y-63500000D02*
X153898900Y-63803300D01*
X159135000Y-66040000D02*
X157554700Y-66040000D01*
X157554700Y-66040000D02*
X157554700Y-64879000D01*
X155825000Y-68580000D02*
X155825000Y-66345400D01*
X159135000Y-72200300D02*
X159135000Y-71120000D01*
X155825000Y-73660000D02*
X157405300Y-73660000D01*
X156823900Y-71901700D02*
X156823900Y-71021500D01*
X157405300Y-72483100D02*
X156823900Y-71901700D01*
X157405300Y-73660000D02*
X157405300Y-72483100D01*
X160715300Y-75080500D02*
X160715300Y-76200000D01*
X159624700Y-73989900D02*
X160715300Y-75080500D01*
X159135000Y-76200000D02*
X160715300Y-76200000D01*
X165485000Y-120904000D02*
X163904700Y-120904000D01*
X163904700Y-119988600D02*
X164043500Y-119849800D01*
X163904700Y-120904000D02*
X163904700Y-119988600D01*
X162175000Y-118364000D02*
X160354800Y-118364000D01*
X165485000Y-115824000D02*
X163904700Y-115824000D01*
X163904700Y-115105200D02*
X163904700Y-115824000D01*
X164242600Y-114767300D02*
X163904700Y-115105200D01*
X160594700Y-113694900D02*
X160356800Y-113932800D01*
X160594700Y-113284000D02*
X160594700Y-113694900D01*
X162175000Y-113284000D02*
X160594700Y-113284000D01*
X157865000Y-120904000D02*
X159445300Y-120904000D01*
X159542000Y-120807300D02*
X159445300Y-120904000D01*
X159675100Y-120807300D02*
X159542000Y-120807300D01*
X154555000Y-118364000D02*
X156135300Y-118364000D01*
X156135300Y-119040900D02*
X155726500Y-119449700D01*
X156135300Y-118364000D02*
X156135300Y-119040900D01*
X159651200Y-115618100D02*
X159701800Y-115618100D01*
X159445300Y-115824000D02*
X159651200Y-115618100D01*
X157865000Y-115824000D02*
X159445300Y-115824000D01*
X156135300Y-112436500D02*
X155923900Y-112225100D01*
X156135300Y-113284000D02*
X156135300Y-112436500D01*
X154555000Y-113284000D02*
X156135300Y-113284000D01*
X219321000Y-32512000D02*
X218440000Y-32512000D01*
X219587000Y-32246000D02*
X219321000Y-32512000D01*
X219587000Y-31496000D02*
X219587000Y-32246000D01*
X208657000Y-32246000D02*
X208657000Y-31496000D01*
X208923000Y-32512000D02*
X208657000Y-32246000D01*
X210312000Y-32512000D02*
X208923000Y-32512000D01*
X216543000Y-35052000D02*
X216916000Y-35052000D01*
X216277000Y-34786000D02*
X216543000Y-35052000D01*
X216277000Y-34036000D02*
X216277000Y-34786000D01*
X211701000Y-35052000D02*
X211328000Y-35052000D01*
X211967000Y-34786000D02*
X211701000Y-35052000D01*
X211967000Y-34036000D02*
X211967000Y-34786000D01*
X219587000Y-37326000D02*
X219587000Y-36576000D01*
X219321000Y-37592000D02*
X219587000Y-37326000D01*
X218440000Y-37592000D02*
X219321000Y-37592000D01*
X208657000Y-37326000D02*
X208657000Y-36576000D01*
X208923000Y-37592000D02*
X208657000Y-37326000D01*
X210312000Y-37592000D02*
X208923000Y-37592000D01*
X216277000Y-39866000D02*
X216543000Y-40132000D01*
X216277000Y-39116000D02*
X216277000Y-39866000D01*
X211701000Y-40132000D02*
X211328000Y-40132000D01*
X211967000Y-39866000D02*
X211701000Y-40132000D01*
X211967000Y-39116000D02*
X211967000Y-39866000D01*
X219587000Y-42406000D02*
X219587000Y-41656000D01*
X219321000Y-42672000D02*
X219587000Y-42406000D01*
X218440000Y-42672000D02*
X219321000Y-42672000D01*
X208657000Y-42406000D02*
X208657000Y-41656000D01*
X208923000Y-42672000D02*
X208657000Y-42406000D01*
X210312000Y-42672000D02*
X208923000Y-42672000D01*
X216277000Y-45081000D02*
X216408000Y-45212000D01*
X216277000Y-44196000D02*
X216277000Y-45081000D01*
X211701000Y-45212000D02*
X211328000Y-45212000D01*
X211967000Y-44946000D02*
X211701000Y-45212000D01*
X211967000Y-44196000D02*
X211967000Y-44946000D01*
X219587000Y-47486000D02*
X219587000Y-46736000D01*
X219321000Y-47752000D02*
X219587000Y-47486000D01*
X218440000Y-47752000D02*
X219321000Y-47752000D01*
X208657000Y-47486000D02*
X208657000Y-46736000D01*
X208923000Y-47752000D02*
X208657000Y-47486000D01*
X210312000Y-47752000D02*
X208923000Y-47752000D01*
X216277000Y-50161000D02*
X216408000Y-50292000D01*
X216277000Y-49276000D02*
X216277000Y-50161000D01*
X211701000Y-50292000D02*
X211328000Y-50292000D01*
X211967000Y-50026000D02*
X211701000Y-50292000D01*
X211967000Y-49276000D02*
X211967000Y-50026000D01*
X219587000Y-52566000D02*
X219587000Y-51816000D01*
X219321000Y-52832000D02*
X219587000Y-52566000D01*
X218440000Y-52832000D02*
X219321000Y-52832000D01*
X208657000Y-52566000D02*
X208657000Y-51816000D01*
X208923000Y-52832000D02*
X208657000Y-52566000D01*
X210312000Y-52832000D02*
X208923000Y-52832000D01*
X216277000Y-55241000D02*
X216408000Y-55372000D01*
X216277000Y-54356000D02*
X216277000Y-55241000D01*
X211701000Y-55372000D02*
X211328000Y-55372000D01*
X211967000Y-55106000D02*
X211701000Y-55372000D01*
X211967000Y-54356000D02*
X211967000Y-55106000D01*
X219587000Y-57646000D02*
X219587000Y-56896000D01*
X219321000Y-57912000D02*
X219587000Y-57646000D01*
X218440000Y-57912000D02*
X219321000Y-57912000D01*
X208657000Y-57646000D02*
X208657000Y-56896000D01*
X208923000Y-57912000D02*
X208657000Y-57646000D01*
X210312000Y-57912000D02*
X208923000Y-57912000D01*
X216277000Y-60321000D02*
X216408000Y-60452000D01*
X216277000Y-59436000D02*
X216277000Y-60321000D01*
X211701000Y-60452000D02*
X211328000Y-60452000D01*
X211967000Y-60186000D02*
X211701000Y-60452000D01*
X211967000Y-59436000D02*
X211967000Y-60186000D01*
X219587000Y-62726000D02*
X219587000Y-61976000D01*
X219321000Y-62992000D02*
X219587000Y-62726000D01*
X218440000Y-62992000D02*
X219321000Y-62992000D01*
X208657000Y-62726000D02*
X208657000Y-61976000D01*
X208923000Y-62992000D02*
X208657000Y-62726000D01*
X210312000Y-62992000D02*
X208923000Y-62992000D01*
X216277000Y-65401000D02*
X216408000Y-65532000D01*
X216277000Y-64516000D02*
X216277000Y-65401000D01*
X211701000Y-65532000D02*
X211328000Y-65532000D01*
X211967000Y-65266000D02*
X211701000Y-65532000D01*
X211967000Y-64516000D02*
X211967000Y-65266000D01*
X219587000Y-67806000D02*
X219587000Y-67056000D01*
X219321000Y-68072000D02*
X219587000Y-67806000D01*
X218440000Y-68072000D02*
X219321000Y-68072000D01*
X208657000Y-67806000D02*
X208657000Y-67056000D01*
X208923000Y-68072000D02*
X208657000Y-67806000D01*
X210312000Y-68072000D02*
X208923000Y-68072000D01*
X216277000Y-70481000D02*
X216408000Y-70612000D01*
X216277000Y-69596000D02*
X216277000Y-70481000D01*
X211701000Y-70612000D02*
X211328000Y-70612000D01*
X211967000Y-70346000D02*
X211701000Y-70612000D01*
X211967000Y-69596000D02*
X211967000Y-70346000D01*
X219321000Y-73152000D02*
X218440000Y-73152000D01*
X219587000Y-72886000D02*
X219321000Y-73152000D01*
X219587000Y-72136000D02*
X219587000Y-72886000D01*
X208657000Y-72886000D02*
X208657000Y-72136000D01*
X208923000Y-73152000D02*
X208657000Y-72886000D01*
X210312000Y-73152000D02*
X208923000Y-73152000D01*
X216277000Y-75561000D02*
X216408000Y-75692000D01*
X216277000Y-74676000D02*
X216277000Y-75561000D01*
X211701000Y-75692000D02*
X211328000Y-75692000D01*
X211967000Y-75426000D02*
X211701000Y-75692000D01*
X211967000Y-74676000D02*
X211967000Y-75426000D01*
X219456000Y-78232000D02*
X218440000Y-78232000D01*
X219587000Y-78101000D02*
X219456000Y-78232000D01*
X219587000Y-77216000D02*
X219587000Y-78101000D01*
X208657000Y-77966000D02*
X208657000Y-77216000D01*
X208923000Y-78232000D02*
X208657000Y-77966000D01*
X210312000Y-78232000D02*
X208923000Y-78232000D01*
X216277000Y-80641000D02*
X216408000Y-80772000D01*
X216277000Y-79756000D02*
X216277000Y-80641000D01*
X211701000Y-80772000D02*
X211328000Y-80772000D01*
X211967000Y-80506000D02*
X211701000Y-80772000D01*
X211967000Y-79756000D02*
X211967000Y-80506000D01*
X219587000Y-83046000D02*
X219587000Y-82296000D01*
X219321000Y-83312000D02*
X219587000Y-83046000D01*
X218440000Y-83312000D02*
X219321000Y-83312000D01*
X208657000Y-83046000D02*
X208657000Y-82296000D01*
X208923000Y-83312000D02*
X208657000Y-83046000D01*
X210312000Y-83312000D02*
X208923000Y-83312000D01*
X216277000Y-85721000D02*
X216408000Y-85852000D01*
X216277000Y-84836000D02*
X216277000Y-85721000D01*
X211701000Y-85852000D02*
X211328000Y-85852000D01*
X211967000Y-85586000D02*
X211701000Y-85852000D01*
X211967000Y-84836000D02*
X211967000Y-85586000D01*
X219587000Y-88126000D02*
X219587000Y-87376000D01*
X219321000Y-88392000D02*
X219587000Y-88126000D01*
X218440000Y-88392000D02*
X219321000Y-88392000D01*
X208657000Y-88126000D02*
X208657000Y-87376000D01*
X208923000Y-88392000D02*
X208657000Y-88126000D01*
X210312000Y-88392000D02*
X208923000Y-88392000D01*
X136239999Y-117189993D02*
X135890000Y-116839994D01*
X138053000Y-119002994D02*
X136239999Y-117189993D01*
X138053000Y-121158000D02*
X138053000Y-119002994D01*
X134743000Y-115313982D02*
X134618010Y-115188992D01*
X134743000Y-118618000D02*
X134743000Y-115313982D01*
X136293330Y-115189000D02*
X135763000Y-115189000D01*
X137298000Y-116078000D02*
X136409000Y-115189000D01*
X138053000Y-116078000D02*
X137298000Y-116078000D01*
X136409000Y-115189000D02*
X136293330Y-115189000D01*
X133238000Y-116095010D02*
X133547991Y-116405001D01*
X133988000Y-113538000D02*
X133238000Y-114288000D01*
X133547991Y-116405001D02*
X133982990Y-116840000D01*
X133238000Y-114288000D02*
X133238000Y-116095010D01*
X134743000Y-113538000D02*
X133988000Y-113538000D01*
X139430966Y-119839500D02*
X139865965Y-120274499D01*
X139633001Y-116838001D02*
X139430966Y-117040036D01*
X138053000Y-110998000D02*
X138053000Y-111748000D01*
X139430966Y-117040036D02*
X139430966Y-119839500D01*
X138053000Y-111748000D02*
X139633001Y-113328001D01*
X139633001Y-113328001D02*
X139633001Y-116838001D01*
X145742001Y-118925999D02*
X146177000Y-118491000D01*
X145673000Y-118995000D02*
X145742001Y-118925999D01*
X145673000Y-121158000D02*
X145673000Y-118995000D01*
X142363000Y-118618000D02*
X140794101Y-118618000D01*
X140794101Y-118618000D02*
X140393310Y-119018791D01*
X145673000Y-114557976D02*
X145415000Y-114299976D01*
X145673000Y-116078000D02*
X145673000Y-114557976D01*
X140798332Y-116613313D02*
X140363333Y-117048312D01*
X142363000Y-113538000D02*
X142363000Y-115048645D01*
X142363000Y-115048645D02*
X140798332Y-116613313D01*
X145673000Y-110998000D02*
X145673000Y-111748000D01*
X144018000Y-113403000D02*
X144018000Y-119253000D01*
X145673000Y-111748000D02*
X144018000Y-113403000D01*
X144018000Y-119253000D02*
X144526000Y-119761000D01*
X177397700Y-85144000D02*
X178543400Y-83998300D01*
X177397700Y-86940000D02*
X177397700Y-85144000D01*
X178978000Y-86940000D02*
X177397700Y-86940000D01*
X176595900Y-81740000D02*
X176595900Y-81573200D01*
X177248300Y-82392400D02*
X176595900Y-81740000D01*
X175668000Y-84400000D02*
X177248300Y-84400000D01*
X177248300Y-84400000D02*
X177248300Y-82392400D01*
X177397700Y-80366700D02*
X178318300Y-79446100D01*
X177397700Y-81860000D02*
X177397700Y-80366700D01*
X178978000Y-81860000D02*
X177397700Y-81860000D01*
X177248300Y-78484200D02*
X176771500Y-78007400D01*
X177248300Y-79320000D02*
X177248300Y-78484200D01*
X175668000Y-79320000D02*
X177248300Y-79320000D01*
X178978000Y-76780000D02*
X177397700Y-76780000D01*
X177397700Y-76780000D02*
X177397700Y-75565000D01*
X173893600Y-74240000D02*
X173838600Y-74295000D01*
X175668000Y-74240000D02*
X173893600Y-74240000D01*
X178978000Y-71700000D02*
X177397700Y-71700000D01*
X177397700Y-71700000D02*
X177397700Y-72824300D01*
X176614900Y-70430000D02*
X176595900Y-70430000D01*
X177248300Y-69796600D02*
X176614900Y-70430000D01*
X177248300Y-69160000D02*
X177248300Y-69796600D01*
X175668000Y-69160000D02*
X177248300Y-69160000D01*
X220349000Y-120130000D02*
X220349000Y-119380000D01*
X220083000Y-120396000D02*
X220349000Y-120130000D01*
X219456000Y-120396000D02*
X220083000Y-120396000D01*
X217039000Y-117471000D02*
X217424000Y-117856000D01*
X217039000Y-116840000D02*
X217039000Y-117471000D01*
X220349000Y-115050000D02*
X220349000Y-114300000D01*
X220083000Y-115316000D02*
X220349000Y-115050000D01*
X219456000Y-115316000D02*
X220083000Y-115316000D01*
X217039000Y-112391000D02*
X217424000Y-112776000D01*
X217039000Y-111760000D02*
X217039000Y-112391000D01*
X220349000Y-109970000D02*
X220349000Y-109220000D01*
X220083000Y-110236000D02*
X220349000Y-109970000D01*
X219456000Y-110236000D02*
X220083000Y-110236000D01*
X217039000Y-107311000D02*
X217424000Y-107696000D01*
X217039000Y-106680000D02*
X217039000Y-107311000D01*
X220349000Y-104890000D02*
X220349000Y-104140000D01*
X220083000Y-105156000D02*
X220349000Y-104890000D01*
X219456000Y-105156000D02*
X220083000Y-105156000D01*
X217039000Y-102350000D02*
X217305000Y-102616000D01*
X217039000Y-101600000D02*
X217039000Y-102350000D01*
X220349000Y-99810000D02*
X220349000Y-99060000D01*
X220083000Y-100076000D02*
X220349000Y-99810000D01*
X219456000Y-100076000D02*
X220083000Y-100076000D01*
X217039000Y-97270000D02*
X217305000Y-97536000D01*
X217039000Y-96520000D02*
X217039000Y-97270000D01*
X189917300Y-60698800D02*
X189980000Y-60761500D01*
X189917300Y-59690000D02*
X189917300Y-60698800D01*
X188337000Y-59690000D02*
X189917300Y-59690000D01*
X195957000Y-59690000D02*
X194142300Y-59690000D01*
X193325700Y-62230000D02*
X193665600Y-62569900D01*
X191647000Y-62230000D02*
X193325700Y-62230000D01*
X199267000Y-62230000D02*
X197686700Y-62230000D01*
X197686700Y-62230000D02*
X197686700Y-63303600D01*
X188337000Y-64770000D02*
X189917300Y-64770000D01*
X189917300Y-63761200D02*
X189968400Y-63710100D01*
X189917300Y-64770000D02*
X189917300Y-63761200D01*
X194238300Y-64770000D02*
X194151000Y-64682700D01*
X195957000Y-64770000D02*
X194238300Y-64770000D01*
X193651000Y-67310000D02*
X193698100Y-67262900D01*
X191647000Y-67310000D02*
X193651000Y-67310000D01*
X199267000Y-67310000D02*
X197686700Y-67310000D01*
X197686700Y-67310000D02*
X197686700Y-66236400D01*
X188337000Y-69850000D02*
X189917300Y-69850000D01*
X189917300Y-70858800D02*
X189968400Y-70909900D01*
X189917300Y-69850000D02*
X189917300Y-70858800D01*
X194376700Y-69948200D02*
X194146300Y-70178600D01*
X194376700Y-69850000D02*
X194376700Y-69948200D01*
X195957000Y-69850000D02*
X194376700Y-69850000D01*
X193238600Y-72390000D02*
X193665600Y-72817000D01*
X191647000Y-72390000D02*
X193238600Y-72390000D01*
X199267000Y-72390000D02*
X197686700Y-72390000D01*
X197686700Y-72390000D02*
X197686700Y-73463600D01*
X188337000Y-74930000D02*
X189917300Y-74930000D01*
X189917300Y-73921200D02*
X189968400Y-73870100D01*
X189917300Y-74930000D02*
X189917300Y-73921200D01*
X194151900Y-74930000D02*
X194151600Y-74929700D01*
X195957000Y-74930000D02*
X194151900Y-74930000D01*
X191647000Y-77470000D02*
X193661400Y-77470000D01*
X199267000Y-77470000D02*
X197686700Y-77470000D01*
X197686700Y-77470000D02*
X197686700Y-76396400D01*
X188337000Y-80010000D02*
X189917300Y-80010000D01*
X189917300Y-81018800D02*
X189968400Y-81069900D01*
X189917300Y-80010000D02*
X189917300Y-81018800D01*
X194376700Y-80232900D02*
X194147500Y-80462100D01*
X194376700Y-80010000D02*
X194376700Y-80232900D01*
X195957000Y-80010000D02*
X194376700Y-80010000D01*
X191336200Y-82860800D02*
X191336200Y-83613400D01*
X191647000Y-82550000D02*
X191336200Y-82860800D01*
X199267000Y-82550000D02*
X197686700Y-82550000D01*
X197686700Y-82550000D02*
X197686700Y-83623600D01*
X189917300Y-84185300D02*
X189748700Y-84016700D01*
X189917300Y-85090000D02*
X189917300Y-84185300D01*
X188337000Y-85090000D02*
X189917300Y-85090000D01*
X194376700Y-84786000D02*
X194125600Y-84534900D01*
X194376700Y-85090000D02*
X194376700Y-84786000D01*
X195957000Y-85090000D02*
X194376700Y-85090000D01*
X191647000Y-87630000D02*
X193671600Y-87630000D01*
X199267000Y-87630000D02*
X197686700Y-87630000D01*
X197686700Y-87630000D02*
X197686700Y-86575200D01*
X188337000Y-90170000D02*
X189917300Y-90170000D01*
X189917300Y-91178800D02*
X189968400Y-91229900D01*
X189917300Y-90170000D02*
X189917300Y-91178800D01*
X195957000Y-90170000D02*
X194376700Y-90170000D01*
X194376700Y-90236400D02*
X194114000Y-90499100D01*
X194376700Y-90170000D02*
X194376700Y-90236400D01*
X191336200Y-93020800D02*
X191336200Y-93773400D01*
X191647000Y-92710000D02*
X191336200Y-93020800D01*
X199267000Y-92710000D02*
X197686700Y-92710000D01*
X198100100Y-93775300D02*
X198140400Y-93775300D01*
X197686700Y-93361900D02*
X198100100Y-93775300D01*
X197686700Y-92710000D02*
X197686700Y-93361900D01*
X188337000Y-95250000D02*
X189917300Y-95250000D01*
X189917300Y-95250000D02*
X189917300Y-96316900D01*
X195957000Y-95250000D02*
X194376700Y-95250000D01*
X194376700Y-95126500D02*
X194127300Y-94877100D01*
X194376700Y-95250000D02*
X194376700Y-95126500D01*
X193644400Y-97790000D02*
X193674400Y-97820000D01*
X191647000Y-97790000D02*
X193644400Y-97790000D01*
X199267000Y-97790000D02*
X197686700Y-97790000D01*
X197686700Y-97790000D02*
X197686700Y-98855600D01*
X188337000Y-101080000D02*
X188337000Y-100330000D01*
X188857000Y-101600000D02*
X188337000Y-101080000D01*
X189484000Y-101600000D02*
X188857000Y-101600000D01*
X195957000Y-100330000D02*
X194376700Y-100330000D01*
X194376700Y-100483500D02*
X194143400Y-100716800D01*
X194376700Y-100330000D02*
X194376700Y-100483500D01*
X191516000Y-103001000D02*
X191647000Y-102870000D01*
X191516000Y-104140000D02*
X191516000Y-103001000D01*
X199267000Y-102870000D02*
X197686700Y-102870000D01*
X198100100Y-101804700D02*
X198140400Y-101804700D01*
X197686700Y-102218100D02*
X198100100Y-101804700D01*
X197686700Y-102870000D02*
X197686700Y-102218100D01*
X188337000Y-106160000D02*
X188337000Y-105410000D01*
X188857000Y-106680000D02*
X188337000Y-106160000D01*
X189484000Y-106680000D02*
X188857000Y-106680000D01*
X195957000Y-105410000D02*
X194376700Y-105410000D01*
X194376700Y-105373600D02*
X194140500Y-105137400D01*
X194376700Y-105410000D02*
X194376700Y-105373600D01*
X191635000Y-109101000D02*
X191516000Y-109220000D01*
X191635000Y-108712000D02*
X191635000Y-109101000D01*
X191647000Y-108700000D02*
X191635000Y-108712000D01*
X191647000Y-107950000D02*
X191647000Y-108700000D01*
X199267000Y-107950000D02*
X197686700Y-107950000D01*
X197686700Y-107950000D02*
X197686700Y-109020300D01*
X212463000Y-120396000D02*
X212344000Y-120396000D01*
X212729000Y-120130000D02*
X212463000Y-120396000D01*
X212729000Y-119380000D02*
X212729000Y-120130000D01*
X209685000Y-117856000D02*
X210312000Y-117856000D01*
X209419000Y-117590000D02*
X209685000Y-117856000D01*
X209419000Y-116840000D02*
X209419000Y-117590000D01*
X212729000Y-115050000D02*
X212463000Y-115316000D01*
X212729000Y-114300000D02*
X212729000Y-115050000D01*
X209419000Y-112510000D02*
X209419000Y-111760000D01*
X209685000Y-112776000D02*
X209419000Y-112510000D01*
X210312000Y-112776000D02*
X209685000Y-112776000D01*
X212729000Y-109970000D02*
X212463000Y-110236000D01*
X212729000Y-109220000D02*
X212729000Y-109970000D01*
X209419000Y-107430000D02*
X209419000Y-106680000D01*
X209685000Y-107696000D02*
X209419000Y-107430000D01*
X210312000Y-107696000D02*
X209685000Y-107696000D01*
X212729000Y-104890000D02*
X212463000Y-105156000D01*
X212729000Y-104140000D02*
X212729000Y-104890000D01*
X209419000Y-102350000D02*
X209419000Y-101600000D01*
X209685000Y-102616000D02*
X209419000Y-102350000D01*
X210820000Y-102616000D02*
X209685000Y-102616000D01*
X212463000Y-100076000D02*
X212344000Y-100076000D01*
X212729000Y-99810000D02*
X212463000Y-100076000D01*
X212729000Y-99060000D02*
X212729000Y-99810000D01*
X209419000Y-97270000D02*
X209419000Y-96520000D01*
X209685000Y-97536000D02*
X209419000Y-97270000D01*
X210312000Y-97536000D02*
X209685000Y-97536000D01*
X139700000Y-42295000D02*
X139700000Y-39370000D01*
X142840100Y-36804600D02*
X142840100Y-35918900D01*
X142240000Y-37404700D02*
X142840100Y-36804600D01*
X142240000Y-38985000D02*
X142240000Y-37404700D01*
X145466000Y-40028700D02*
X145466000Y-36144100D01*
X144780000Y-40714700D02*
X145466000Y-40028700D01*
X144780000Y-42295000D02*
X144780000Y-40714700D01*
X147320000Y-38985000D02*
X147320000Y-35686998D01*
X149416500Y-40271200D02*
X149416500Y-39260100D01*
X149860000Y-40714700D02*
X149416500Y-40271200D01*
X149860000Y-42295000D02*
X149860000Y-40714700D01*
X151631999Y-36697007D02*
X151257000Y-36322008D01*
X152400000Y-37465008D02*
X151631999Y-36697007D01*
X152400000Y-38985000D02*
X152400000Y-37465008D01*
X152400000Y-35413182D02*
X152400000Y-34798000D01*
X152400000Y-36743000D02*
X152400000Y-35413182D01*
X154940000Y-39283000D02*
X152400000Y-36743000D01*
X154940000Y-42295000D02*
X154940000Y-39283000D01*
X175645000Y-43180000D02*
X174064700Y-43180000D01*
X174064700Y-43180000D02*
X174064700Y-39370000D01*
X170754700Y-31650000D02*
X170754700Y-31435700D01*
X170754700Y-40640000D02*
X170754700Y-31650000D01*
X170754700Y-40640000D02*
X172335000Y-40640000D01*
X170754700Y-31435700D02*
X170688000Y-31369000D01*
X175645000Y-38100000D02*
X174064700Y-38100000D01*
X174064700Y-38100000D02*
X174064700Y-36904600D01*
X173915300Y-35262300D02*
X174176200Y-35001400D01*
X173915300Y-35560000D02*
X173915300Y-35262300D01*
X172335000Y-35560000D02*
X173915300Y-35560000D01*
X167513000Y-35814000D02*
X166370000Y-36957000D01*
X166370000Y-36957000D02*
X166370000Y-40699700D01*
X166370000Y-40699700D02*
X168025000Y-42354700D01*
X168025000Y-42354700D02*
X168025000Y-43180000D01*
X164715000Y-41271000D02*
X164715000Y-40640000D01*
X165481000Y-42037000D02*
X164715000Y-41271000D01*
X169164000Y-41275000D02*
X168529000Y-41275000D01*
X169672000Y-40767000D02*
X169164000Y-41275000D01*
X169672000Y-36830000D02*
X169672000Y-40767000D01*
X170765200Y-30331300D02*
X171682300Y-30331300D01*
X168025000Y-37274700D02*
X169195600Y-36104100D01*
X169195600Y-36104100D02*
X169195600Y-30914400D01*
X169195600Y-30914400D02*
X169778700Y-30331300D01*
X169778700Y-30331300D02*
X170765200Y-30331300D01*
X168025000Y-37274700D02*
X168025000Y-38100000D01*
X171993100Y-30642100D02*
X171993100Y-31559200D01*
X171682300Y-30331300D02*
X171993100Y-30642100D01*
X144205300Y-96774400D02*
X145415000Y-97984100D01*
X144205300Y-96520000D02*
X144205300Y-96774400D01*
X142625000Y-96520000D02*
X144205300Y-96520000D01*
X145415000Y-99060000D02*
X145415000Y-97984100D01*
X142693000Y-100148000D02*
X144145000Y-101600000D01*
X139218900Y-99476700D02*
X139890200Y-100148000D01*
X139890200Y-100148000D02*
X142693000Y-100148000D01*
X139315000Y-94730000D02*
X139218900Y-94826100D01*
X139218900Y-94826100D02*
X139218900Y-99476700D01*
X139315000Y-93980000D02*
X139315000Y-94730000D01*
X141044600Y-97229600D02*
X142875000Y-99060000D01*
X141044600Y-95885300D02*
X141044600Y-97229600D01*
X142625000Y-94304900D02*
X141044600Y-95885300D01*
X142625000Y-91440000D02*
X142625000Y-94304900D01*
X142749400Y-102744400D02*
X141605000Y-101600000D01*
X144609300Y-102744400D02*
X142749400Y-102744400D01*
X146496400Y-100857300D02*
X144609300Y-102744400D01*
X146496400Y-97765200D02*
X146496400Y-100857300D01*
X144655700Y-95924500D02*
X146496400Y-97765200D01*
X144655700Y-86170700D02*
X144655700Y-95924500D01*
X144019600Y-85534600D02*
X144655700Y-86170700D01*
X141233200Y-85534600D02*
X144019600Y-85534600D01*
X139315000Y-87452800D02*
X141233200Y-85534600D01*
X139315000Y-88900000D02*
X139315000Y-87452800D01*
X142625000Y-86360000D02*
X141044700Y-86360000D01*
X140335000Y-95957900D02*
X140335000Y-99060000D01*
X141044700Y-95248200D02*
X140335000Y-95957900D01*
X141044700Y-86360000D02*
X141044700Y-95248200D01*
X136719429Y-98543725D02*
X136719429Y-99576275D01*
X137348271Y-100135571D02*
X138812700Y-101600000D01*
X136719429Y-99576275D02*
X137278725Y-100135571D01*
X137160000Y-84394700D02*
X137160000Y-91656532D01*
X137181471Y-91678003D02*
X137181471Y-93741997D01*
X139315000Y-83820000D02*
X137734700Y-83820000D01*
X137181471Y-93741997D02*
X137160000Y-93763468D01*
X137734700Y-83820000D02*
X137160000Y-84394700D01*
X137160000Y-98103154D02*
X136719429Y-98543725D01*
X137160000Y-91656532D02*
X137181471Y-91678003D01*
X137160000Y-93763468D02*
X137160000Y-98103154D01*
X137278725Y-100135571D02*
X137348271Y-100135571D01*
X138812700Y-101600000D02*
X139065000Y-101600000D01*
X137795000Y-97998534D02*
X137795000Y-99060000D01*
X137631482Y-97835016D02*
X137795000Y-97998534D01*
X137631482Y-87798418D02*
X137631482Y-97835016D01*
X142625000Y-82804900D02*
X137631482Y-87798418D01*
X142625000Y-81280000D02*
X142625000Y-82804900D01*
X138430000Y-78740000D02*
X139315000Y-78740000D01*
X137160000Y-80010000D02*
X138430000Y-78740000D01*
X138560000Y-78740000D02*
X139315000Y-78740000D01*
X137160000Y-81280000D02*
X137160000Y-80010000D01*
X146050000Y-56765000D02*
X146050000Y-60767700D01*
X145415000Y-69850000D02*
X145415000Y-68774100D01*
X144750500Y-62067200D02*
X146050000Y-60767700D01*
X144750500Y-68109600D02*
X144750500Y-62067200D01*
X145415000Y-68774100D02*
X144750500Y-68109600D01*
X144145000Y-61810500D02*
X144145000Y-72390000D01*
X145224700Y-60730800D02*
X144145000Y-61810500D01*
X145224700Y-51550600D02*
X145224700Y-60730800D01*
X146050000Y-50725300D02*
X145224700Y-51550600D01*
X146050000Y-49145000D02*
X146050000Y-50725300D01*
X142875000Y-62290300D02*
X142875000Y-69850000D01*
X143510000Y-61655300D02*
X142875000Y-62290300D01*
X143510000Y-60075000D02*
X143510000Y-61655300D01*
X141799000Y-72196000D02*
X141605000Y-72390000D01*
X141799000Y-55746300D02*
X141799000Y-72196000D01*
X143510000Y-54035300D02*
X141799000Y-55746300D01*
X143510000Y-52455000D02*
X143510000Y-54035300D01*
X140335000Y-58980300D02*
X140335000Y-69850000D01*
X140970000Y-58345300D02*
X140335000Y-58980300D01*
X140970000Y-56765000D02*
X140970000Y-58345300D01*
X139259000Y-72196000D02*
X139065000Y-72390000D01*
X139259000Y-52436300D02*
X139259000Y-72196000D01*
X140970000Y-50725300D02*
X139259000Y-52436300D01*
X140970000Y-49145000D02*
X140970000Y-50725300D01*
X138430000Y-69215000D02*
X137795000Y-69850000D01*
X138430000Y-60075000D02*
X138430000Y-69215000D01*
X136525000Y-69442000D02*
X136525000Y-72390000D01*
X137604700Y-68362300D02*
X136525000Y-69442000D01*
X137604700Y-54860600D02*
X137604700Y-68362300D01*
X138430000Y-54035300D02*
X137604700Y-54860600D01*
X138430000Y-52455000D02*
X138430000Y-54035300D01*
X174498000Y-59002700D02*
X174498000Y-52070000D01*
X175260000Y-59764700D02*
X174498000Y-59002700D01*
X175260000Y-61345000D02*
X175260000Y-59764700D01*
X171958000Y-56272000D02*
X171958000Y-52070000D01*
X170180000Y-58050000D02*
X171958000Y-56272000D01*
X170180000Y-61345000D02*
X170180000Y-58050000D01*
X173228000Y-55946700D02*
X173228000Y-54610000D01*
X172720000Y-56454700D02*
X173228000Y-55946700D01*
X172720000Y-58035000D02*
X172720000Y-56454700D01*
X177612700Y-56454700D02*
X175768000Y-54610000D01*
X177800000Y-56454700D02*
X177612700Y-56454700D01*
X177800000Y-58035000D02*
X177800000Y-56454700D01*
X160528000Y-89729700D02*
X160528000Y-102362000D01*
X161480700Y-88777000D02*
X160528000Y-89729700D01*
X162306000Y-88777000D02*
X161480700Y-88777000D01*
X163250600Y-102179400D02*
X163068000Y-102362000D01*
X163250600Y-86237100D02*
X163250600Y-102179400D01*
X164020700Y-85467000D02*
X163250600Y-86237100D01*
X164846000Y-85467000D02*
X164020700Y-85467000D01*
X161798000Y-98485300D02*
X161798000Y-99822000D01*
X162306000Y-97977300D02*
X161798000Y-98485300D01*
X162306000Y-96397000D02*
X162306000Y-97977300D01*
X159258000Y-102633600D02*
X159258000Y-99822000D01*
X160080700Y-103456300D02*
X159258000Y-102633600D01*
X163532300Y-103456300D02*
X160080700Y-103456300D01*
X165464300Y-101524300D02*
X163532300Y-103456300D01*
X165464300Y-95285600D02*
X165464300Y-101524300D01*
X164846000Y-94667300D02*
X165464300Y-95285600D01*
X164846000Y-93087000D02*
X164846000Y-94667300D01*
M02*
