G04 #@! TF.FileFunction,Legend,Bot*
%FSLAX46Y46*%
G04 Gerber Fmt 4.6, Leading zero omitted, Abs format (unit mm)*
G04 Created by KiCad (PCBNEW 4.0.7-e2-6376~58~ubuntu16.04.1) date Wed Jan  3 00:52:27 2018*
%MOMM*%
%LPD*%
G01*
G04 APERTURE LIST*
%ADD10C,0.100000*%
%ADD11C,0.120000*%
%ADD12C,0.150000*%
G04 APERTURE END LIST*
D10*
D11*
X158810000Y-52010000D02*
X156150000Y-52010000D01*
X158810000Y-77530000D02*
X156150000Y-77530000D01*
X156150000Y-54100000D02*
X156150000Y-57660000D01*
X156150000Y-59180000D02*
X156150000Y-62740000D01*
X156150000Y-64260000D02*
X156150000Y-67820000D01*
X156150000Y-69340000D02*
X156150000Y-72900000D01*
X156150000Y-74420000D02*
X156150000Y-77530000D01*
X158810000Y-52010000D02*
X158810000Y-55120000D01*
X156150000Y-52580000D02*
X154630000Y-52580000D01*
X156150000Y-52010000D02*
X156150000Y-52580000D01*
X158810000Y-76960000D02*
X158810000Y-77530000D01*
X158810000Y-56640000D02*
X158810000Y-60200000D01*
X158810000Y-61720000D02*
X158810000Y-65280000D01*
X158810000Y-66800000D02*
X158810000Y-70360000D01*
X158810000Y-71880000D02*
X158810000Y-75440000D01*
X162500000Y-122234000D02*
X165160000Y-122234000D01*
X162500000Y-111954000D02*
X165160000Y-111954000D01*
X165160000Y-120144000D02*
X165160000Y-116584000D01*
X165160000Y-115064000D02*
X165160000Y-111954000D01*
X162500000Y-122234000D02*
X162500000Y-119124000D01*
X165160000Y-121664000D02*
X166680000Y-121664000D01*
X165160000Y-122234000D02*
X165160000Y-121664000D01*
X162500000Y-112524000D02*
X162500000Y-111954000D01*
X162500000Y-117604000D02*
X162500000Y-114044000D01*
X154880000Y-122234000D02*
X157540000Y-122234000D01*
X154880000Y-111954000D02*
X157540000Y-111954000D01*
X157540000Y-120144000D02*
X157540000Y-116584000D01*
X157540000Y-115064000D02*
X157540000Y-111954000D01*
X154880000Y-122234000D02*
X154880000Y-119124000D01*
X157540000Y-121664000D02*
X159060000Y-121664000D01*
X157540000Y-122234000D02*
X157540000Y-121664000D01*
X154880000Y-112524000D02*
X154880000Y-111954000D01*
X154880000Y-117604000D02*
X154880000Y-114044000D01*
X135068000Y-122488000D02*
X137728000Y-122488000D01*
X135068000Y-109668000D02*
X137728000Y-109668000D01*
X137728000Y-120398000D02*
X137728000Y-116838000D01*
X137728000Y-115318000D02*
X137728000Y-111758000D01*
X135068000Y-122488000D02*
X135068000Y-119378000D01*
X137728000Y-121918000D02*
X139248000Y-121918000D01*
X137728000Y-122488000D02*
X137728000Y-121918000D01*
X135068000Y-110238000D02*
X135068000Y-109668000D01*
X135068000Y-117858000D02*
X135068000Y-114298000D01*
X135068000Y-112778000D02*
X135068000Y-109668000D01*
X142688000Y-122488000D02*
X145348000Y-122488000D01*
X142688000Y-109668000D02*
X145348000Y-109668000D01*
X145348000Y-120398000D02*
X145348000Y-116838000D01*
X145348000Y-115318000D02*
X145348000Y-111758000D01*
X142688000Y-122488000D02*
X142688000Y-119378000D01*
X145348000Y-121918000D02*
X146868000Y-121918000D01*
X145348000Y-122488000D02*
X145348000Y-121918000D01*
X142688000Y-110238000D02*
X142688000Y-109668000D01*
X142688000Y-117858000D02*
X142688000Y-114298000D01*
X142688000Y-112778000D02*
X142688000Y-109668000D01*
X175993000Y-88270000D02*
X178653000Y-88270000D01*
X175993000Y-67830000D02*
X178653000Y-67830000D01*
X178653000Y-86180000D02*
X178653000Y-82620000D01*
X178653000Y-81100000D02*
X178653000Y-77540000D01*
X178653000Y-76020000D02*
X178653000Y-72460000D01*
X178653000Y-70940000D02*
X178653000Y-67830000D01*
X175993000Y-88270000D02*
X175993000Y-85160000D01*
X178653000Y-87700000D02*
X180173000Y-87700000D01*
X178653000Y-88270000D02*
X178653000Y-87700000D01*
X175993000Y-68400000D02*
X175993000Y-67830000D01*
X175993000Y-83640000D02*
X175993000Y-80080000D01*
X175993000Y-78560000D02*
X175993000Y-75000000D01*
X175993000Y-73480000D02*
X175993000Y-69920000D01*
X217364000Y-120710000D02*
X220024000Y-120710000D01*
X217364000Y-95190000D02*
X220024000Y-95190000D01*
X220024000Y-118620000D02*
X220024000Y-115060000D01*
X220024000Y-113540000D02*
X220024000Y-109980000D01*
X220024000Y-108460000D02*
X220024000Y-104900000D01*
X220024000Y-103380000D02*
X220024000Y-99820000D01*
X220024000Y-98300000D02*
X220024000Y-95190000D01*
X217364000Y-120710000D02*
X217364000Y-117600000D01*
X220024000Y-120140000D02*
X221544000Y-120140000D01*
X220024000Y-120710000D02*
X220024000Y-120140000D01*
X217364000Y-95760000D02*
X217364000Y-95190000D01*
X217364000Y-116080000D02*
X217364000Y-112520000D01*
X217364000Y-111000000D02*
X217364000Y-107440000D01*
X217364000Y-105920000D02*
X217364000Y-102360000D01*
X217364000Y-100840000D02*
X217364000Y-97280000D01*
X209744000Y-120710000D02*
X212404000Y-120710000D01*
X209744000Y-95190000D02*
X212404000Y-95190000D01*
X212404000Y-118620000D02*
X212404000Y-115060000D01*
X212404000Y-113540000D02*
X212404000Y-109980000D01*
X212404000Y-108460000D02*
X212404000Y-104900000D01*
X212404000Y-103380000D02*
X212404000Y-99820000D01*
X212404000Y-98300000D02*
X212404000Y-95190000D01*
X209744000Y-120710000D02*
X209744000Y-117600000D01*
X212404000Y-120140000D02*
X213924000Y-120140000D01*
X212404000Y-120710000D02*
X212404000Y-120140000D01*
X209744000Y-95760000D02*
X209744000Y-95190000D01*
X209744000Y-116080000D02*
X209744000Y-112520000D01*
X209744000Y-111000000D02*
X209744000Y-107440000D01*
X209744000Y-105920000D02*
X209744000Y-102360000D01*
X209744000Y-100840000D02*
X209744000Y-97280000D01*
X138370000Y-39310000D02*
X138370000Y-41970000D01*
X156270000Y-39310000D02*
X156270000Y-41970000D01*
X140460000Y-41970000D02*
X144020000Y-41970000D01*
X145540000Y-41970000D02*
X149100000Y-41970000D01*
X150620000Y-41970000D02*
X154180000Y-41970000D01*
X138370000Y-39310000D02*
X141480000Y-39310000D01*
X138940000Y-41970000D02*
X138940000Y-43490000D01*
X138370000Y-41970000D02*
X138940000Y-41970000D01*
X155700000Y-39310000D02*
X156270000Y-39310000D01*
X143000000Y-39310000D02*
X146560000Y-39310000D01*
X148080000Y-39310000D02*
X151640000Y-39310000D01*
X153160000Y-39310000D02*
X156270000Y-39310000D01*
X172660000Y-44510000D02*
X175320000Y-44510000D01*
X172660000Y-34230000D02*
X175320000Y-34230000D01*
X175320000Y-42420000D02*
X175320000Y-38860000D01*
X175320000Y-37340000D02*
X175320000Y-34230000D01*
X172660000Y-44510000D02*
X172660000Y-41400000D01*
X175320000Y-43940000D02*
X176840000Y-43940000D01*
X175320000Y-44510000D02*
X175320000Y-43940000D01*
X172660000Y-34800000D02*
X172660000Y-34230000D01*
X172660000Y-39880000D02*
X172660000Y-36320000D01*
X165040000Y-44510000D02*
X167700000Y-44510000D01*
X165040000Y-36770000D02*
X167700000Y-36770000D01*
X167700000Y-42420000D02*
X167700000Y-38860000D01*
X165040000Y-44510000D02*
X165040000Y-41400000D01*
X167700000Y-43940000D02*
X169220000Y-43940000D01*
X167700000Y-44510000D02*
X167700000Y-43940000D01*
X165040000Y-37340000D02*
X165040000Y-36770000D01*
X165040000Y-39880000D02*
X165040000Y-36770000D01*
X168850000Y-58360000D02*
X168850000Y-61020000D01*
X179130000Y-58360000D02*
X179130000Y-61020000D01*
X170940000Y-61020000D02*
X174500000Y-61020000D01*
X176020000Y-61020000D02*
X179130000Y-61020000D01*
X168850000Y-58360000D02*
X171960000Y-58360000D01*
X169420000Y-61020000D02*
X169420000Y-62540000D01*
X168850000Y-61020000D02*
X169420000Y-61020000D01*
X178560000Y-58360000D02*
X179130000Y-58360000D01*
X173480000Y-58360000D02*
X177040000Y-58360000D01*
X137100000Y-49470000D02*
X137100000Y-52130000D01*
X147380000Y-49470000D02*
X147380000Y-52130000D01*
X139190000Y-52130000D02*
X142750000Y-52130000D01*
X144270000Y-52130000D02*
X147380000Y-52130000D01*
X137100000Y-49470000D02*
X140210000Y-49470000D01*
X137670000Y-52130000D02*
X137670000Y-53650000D01*
X137100000Y-52130000D02*
X137670000Y-52130000D01*
X146810000Y-49470000D02*
X147380000Y-49470000D01*
X141730000Y-49470000D02*
X145290000Y-49470000D01*
X137100000Y-57090000D02*
X137100000Y-59750000D01*
X147380000Y-57090000D02*
X147380000Y-59750000D01*
X139190000Y-59750000D02*
X142750000Y-59750000D01*
X144270000Y-59750000D02*
X147380000Y-59750000D01*
X137100000Y-57090000D02*
X140210000Y-57090000D01*
X137670000Y-59750000D02*
X137670000Y-61270000D01*
X137100000Y-59750000D02*
X137670000Y-59750000D01*
X146810000Y-57090000D02*
X147380000Y-57090000D01*
X141730000Y-57090000D02*
X145290000Y-57090000D01*
X160976000Y-93412000D02*
X160976000Y-96072000D01*
X166176000Y-93412000D02*
X166176000Y-96072000D01*
X163066000Y-96072000D02*
X166176000Y-96072000D01*
X160976000Y-93412000D02*
X164086000Y-93412000D01*
X161546000Y-96072000D02*
X161546000Y-97592000D01*
X160976000Y-96072000D02*
X161546000Y-96072000D01*
X165606000Y-93412000D02*
X166176000Y-93412000D01*
X166176000Y-88452000D02*
X166176000Y-85792000D01*
X160976000Y-88452000D02*
X160976000Y-85792000D01*
X164086000Y-85792000D02*
X160976000Y-85792000D01*
X166176000Y-88452000D02*
X163066000Y-88452000D01*
X165606000Y-85792000D02*
X165606000Y-84272000D01*
X166176000Y-85792000D02*
X165606000Y-85792000D01*
X161546000Y-88452000D02*
X160976000Y-88452000D01*
X139640000Y-97850000D02*
X142300000Y-97850000D01*
X139640000Y-77410000D02*
X142300000Y-77410000D01*
X142300000Y-95760000D02*
X142300000Y-92200000D01*
X142300000Y-90680000D02*
X142300000Y-87120000D01*
X142300000Y-85600000D02*
X142300000Y-82040000D01*
X142300000Y-80520000D02*
X142300000Y-77410000D01*
X139640000Y-97850000D02*
X139640000Y-94740000D01*
X142300000Y-97280000D02*
X143820000Y-97280000D01*
X142300000Y-97850000D02*
X142300000Y-97280000D01*
X139640000Y-77980000D02*
X139640000Y-77410000D01*
X139640000Y-93220000D02*
X139640000Y-89660000D01*
X139640000Y-88140000D02*
X139640000Y-84580000D01*
X139640000Y-83060000D02*
X139640000Y-79500000D01*
X216602000Y-88706000D02*
X219262000Y-88706000D01*
X216602000Y-30166000D02*
X219262000Y-30166000D01*
X219262000Y-86616000D02*
X219262000Y-83056000D01*
X219262000Y-81536000D02*
X219262000Y-77976000D01*
X219262000Y-76456000D02*
X219262000Y-72896000D01*
X219262000Y-71376000D02*
X219262000Y-67816000D01*
X219262000Y-66296000D02*
X219262000Y-62736000D01*
X219262000Y-61216000D02*
X219262000Y-57656000D01*
X219262000Y-56136000D02*
X219262000Y-52576000D01*
X219262000Y-51056000D02*
X219262000Y-47496000D01*
X219262000Y-45976000D02*
X219262000Y-42416000D01*
X219262000Y-40896000D02*
X219262000Y-37336000D01*
X219262000Y-35816000D02*
X219262000Y-32256000D01*
X216602000Y-88706000D02*
X216602000Y-85596000D01*
X219262000Y-88136000D02*
X220782000Y-88136000D01*
X219262000Y-88706000D02*
X219262000Y-88136000D01*
X216602000Y-30736000D02*
X216602000Y-30166000D01*
X216602000Y-84076000D02*
X216602000Y-80516000D01*
X216602000Y-78996000D02*
X216602000Y-75436000D01*
X216602000Y-73916000D02*
X216602000Y-70356000D01*
X216602000Y-68836000D02*
X216602000Y-65276000D01*
X216602000Y-63756000D02*
X216602000Y-60196000D01*
X216602000Y-58676000D02*
X216602000Y-55116000D01*
X216602000Y-53596000D02*
X216602000Y-50036000D01*
X216602000Y-48516000D02*
X216602000Y-44956000D01*
X216602000Y-43436000D02*
X216602000Y-39876000D01*
X216602000Y-38356000D02*
X216602000Y-34796000D01*
X216602000Y-33276000D02*
X216602000Y-30166000D01*
X211642000Y-30166000D02*
X208982000Y-30166000D01*
X211642000Y-88706000D02*
X208982000Y-88706000D01*
X208982000Y-32256000D02*
X208982000Y-35816000D01*
X208982000Y-37336000D02*
X208982000Y-40896000D01*
X208982000Y-42416000D02*
X208982000Y-45976000D01*
X208982000Y-47496000D02*
X208982000Y-51056000D01*
X208982000Y-52576000D02*
X208982000Y-56136000D01*
X208982000Y-57656000D02*
X208982000Y-61216000D01*
X208982000Y-62736000D02*
X208982000Y-66296000D01*
X208982000Y-67816000D02*
X208982000Y-71376000D01*
X208982000Y-72896000D02*
X208982000Y-76456000D01*
X208982000Y-77976000D02*
X208982000Y-81536000D01*
X208982000Y-83056000D02*
X208982000Y-86616000D01*
X211642000Y-30166000D02*
X211642000Y-33276000D01*
X208982000Y-30736000D02*
X207462000Y-30736000D01*
X208982000Y-30166000D02*
X208982000Y-30736000D01*
X211642000Y-88136000D02*
X211642000Y-88706000D01*
X211642000Y-34796000D02*
X211642000Y-38356000D01*
X211642000Y-39876000D02*
X211642000Y-43436000D01*
X211642000Y-44956000D02*
X211642000Y-48516000D01*
X211642000Y-50036000D02*
X211642000Y-53596000D01*
X211642000Y-55116000D02*
X211642000Y-58676000D01*
X211642000Y-60196000D02*
X211642000Y-63756000D01*
X211642000Y-65276000D02*
X211642000Y-68836000D01*
X211642000Y-70356000D02*
X211642000Y-73916000D01*
X211642000Y-75436000D02*
X211642000Y-78996000D01*
X211642000Y-80516000D02*
X211642000Y-84076000D01*
X211642000Y-85596000D02*
X211642000Y-88706000D01*
X191322000Y-58360000D02*
X188662000Y-58360000D01*
X191322000Y-109280000D02*
X188662000Y-109280000D01*
X188662000Y-60450000D02*
X188662000Y-64010000D01*
X188662000Y-65530000D02*
X188662000Y-69090000D01*
X188662000Y-70610000D02*
X188662000Y-74170000D01*
X188662000Y-75690000D02*
X188662000Y-79250000D01*
X188662000Y-80770000D02*
X188662000Y-84330000D01*
X188662000Y-85850000D02*
X188662000Y-89410000D01*
X188662000Y-90930000D02*
X188662000Y-94490000D01*
X188662000Y-96010000D02*
X188662000Y-99570000D01*
X188662000Y-101090000D02*
X188662000Y-104650000D01*
X188662000Y-106170000D02*
X188662000Y-109280000D01*
X191322000Y-58360000D02*
X191322000Y-61470000D01*
X188662000Y-58930000D02*
X187142000Y-58930000D01*
X188662000Y-58360000D02*
X188662000Y-58930000D01*
X191322000Y-108710000D02*
X191322000Y-109280000D01*
X191322000Y-62990000D02*
X191322000Y-66550000D01*
X191322000Y-68070000D02*
X191322000Y-71630000D01*
X191322000Y-73150000D02*
X191322000Y-76710000D01*
X191322000Y-78230000D02*
X191322000Y-81790000D01*
X191322000Y-83310000D02*
X191322000Y-86870000D01*
X191322000Y-88390000D02*
X191322000Y-91950000D01*
X191322000Y-93470000D02*
X191322000Y-97030000D01*
X191322000Y-98550000D02*
X191322000Y-102110000D01*
X191322000Y-103630000D02*
X191322000Y-107190000D01*
X198942000Y-58360000D02*
X196282000Y-58360000D01*
X198942000Y-109280000D02*
X196282000Y-109280000D01*
X196282000Y-60450000D02*
X196282000Y-64010000D01*
X196282000Y-65530000D02*
X196282000Y-69090000D01*
X196282000Y-70610000D02*
X196282000Y-74170000D01*
X196282000Y-75690000D02*
X196282000Y-79250000D01*
X196282000Y-80770000D02*
X196282000Y-84330000D01*
X196282000Y-85850000D02*
X196282000Y-89410000D01*
X196282000Y-90930000D02*
X196282000Y-94490000D01*
X196282000Y-96010000D02*
X196282000Y-99570000D01*
X196282000Y-101090000D02*
X196282000Y-104650000D01*
X196282000Y-106170000D02*
X196282000Y-109280000D01*
X198942000Y-58360000D02*
X198942000Y-61470000D01*
X196282000Y-58930000D02*
X194762000Y-58930000D01*
X196282000Y-58360000D02*
X196282000Y-58930000D01*
X198942000Y-108710000D02*
X198942000Y-109280000D01*
X198942000Y-62990000D02*
X198942000Y-66550000D01*
X198942000Y-68070000D02*
X198942000Y-71630000D01*
X198942000Y-73150000D02*
X198942000Y-76710000D01*
X198942000Y-78230000D02*
X198942000Y-81790000D01*
X198942000Y-83310000D02*
X198942000Y-86870000D01*
X198942000Y-88390000D02*
X198942000Y-91950000D01*
X198942000Y-93470000D02*
X198942000Y-97030000D01*
X198942000Y-98550000D02*
X198942000Y-102110000D01*
X198942000Y-103630000D02*
X198942000Y-107190000D01*
D12*
X142748095Y-30567381D02*
X142748095Y-31376905D01*
X142795714Y-31472143D01*
X142843333Y-31519762D01*
X142938571Y-31567381D01*
X143129048Y-31567381D01*
X143224286Y-31519762D01*
X143271905Y-31472143D01*
X143319524Y-31376905D01*
X143319524Y-30567381D01*
X144319524Y-31567381D02*
X143748095Y-31567381D01*
X144033809Y-31567381D02*
X144033809Y-30567381D01*
X143938571Y-30710238D01*
X143843333Y-30805476D01*
X143748095Y-30853095D01*
X165608095Y-30567381D02*
X165608095Y-31376905D01*
X165655714Y-31472143D01*
X165703333Y-31519762D01*
X165798571Y-31567381D01*
X165989048Y-31567381D01*
X166084286Y-31519762D01*
X166131905Y-31472143D01*
X166179524Y-31376905D01*
X166179524Y-30567381D01*
X166560476Y-30567381D02*
X167179524Y-30567381D01*
X166846190Y-30948333D01*
X166989048Y-30948333D01*
X167084286Y-30995952D01*
X167131905Y-31043571D01*
X167179524Y-31138810D01*
X167179524Y-31376905D01*
X167131905Y-31472143D01*
X167084286Y-31519762D01*
X166989048Y-31567381D01*
X166703333Y-31567381D01*
X166608095Y-31519762D01*
X166560476Y-31472143D01*
X157813333Y-50462381D02*
X157813333Y-51176667D01*
X157860953Y-51319524D01*
X157956191Y-51414762D01*
X158099048Y-51462381D01*
X158194286Y-51462381D01*
X156813333Y-51462381D02*
X157384762Y-51462381D01*
X157099048Y-51462381D02*
X157099048Y-50462381D01*
X157194286Y-50605238D01*
X157289524Y-50700476D01*
X157384762Y-50748095D01*
X164163333Y-122686381D02*
X164163333Y-123400667D01*
X164210953Y-123543524D01*
X164306191Y-123638762D01*
X164449048Y-123686381D01*
X164544286Y-123686381D01*
X163734762Y-122781619D02*
X163687143Y-122734000D01*
X163591905Y-122686381D01*
X163353809Y-122686381D01*
X163258571Y-122734000D01*
X163210952Y-122781619D01*
X163163333Y-122876857D01*
X163163333Y-122972095D01*
X163210952Y-123114952D01*
X163782381Y-123686381D01*
X163163333Y-123686381D01*
X156543333Y-122686381D02*
X156543333Y-123400667D01*
X156590953Y-123543524D01*
X156686191Y-123638762D01*
X156829048Y-123686381D01*
X156924286Y-123686381D01*
X155590952Y-122686381D02*
X156067143Y-122686381D01*
X156114762Y-123162571D01*
X156067143Y-123114952D01*
X155971905Y-123067333D01*
X155733809Y-123067333D01*
X155638571Y-123114952D01*
X155590952Y-123162571D01*
X155543333Y-123257810D01*
X155543333Y-123495905D01*
X155590952Y-123591143D01*
X155638571Y-123638762D01*
X155733809Y-123686381D01*
X155971905Y-123686381D01*
X156067143Y-123638762D01*
X156114762Y-123591143D01*
X136731333Y-122940381D02*
X136731333Y-123654667D01*
X136778953Y-123797524D01*
X136874191Y-123892762D01*
X137017048Y-123940381D01*
X137112286Y-123940381D01*
X136350381Y-122940381D02*
X135683714Y-122940381D01*
X136112286Y-123940381D01*
X144351333Y-122940381D02*
X144351333Y-123654667D01*
X144398953Y-123797524D01*
X144494191Y-123892762D01*
X144637048Y-123940381D01*
X144732286Y-123940381D01*
X143827524Y-123940381D02*
X143637048Y-123940381D01*
X143541809Y-123892762D01*
X143494190Y-123845143D01*
X143398952Y-123702286D01*
X143351333Y-123511810D01*
X143351333Y-123130857D01*
X143398952Y-123035619D01*
X143446571Y-122988000D01*
X143541809Y-122940381D01*
X143732286Y-122940381D01*
X143827524Y-122988000D01*
X143875143Y-123035619D01*
X143922762Y-123130857D01*
X143922762Y-123368952D01*
X143875143Y-123464190D01*
X143827524Y-123511810D01*
X143732286Y-123559429D01*
X143541809Y-123559429D01*
X143446571Y-123511810D01*
X143398952Y-123464190D01*
X143351333Y-123368952D01*
X178132523Y-88722381D02*
X178132523Y-89436667D01*
X178180143Y-89579524D01*
X178275381Y-89674762D01*
X178418238Y-89722381D01*
X178513476Y-89722381D01*
X177132523Y-89722381D02*
X177703952Y-89722381D01*
X177418238Y-89722381D02*
X177418238Y-88722381D01*
X177513476Y-88865238D01*
X177608714Y-88960476D01*
X177703952Y-89008095D01*
X176513476Y-88722381D02*
X176418237Y-88722381D01*
X176322999Y-88770000D01*
X176275380Y-88817619D01*
X176227761Y-88912857D01*
X176180142Y-89103333D01*
X176180142Y-89341429D01*
X176227761Y-89531905D01*
X176275380Y-89627143D01*
X176322999Y-89674762D01*
X176418237Y-89722381D01*
X176513476Y-89722381D01*
X176608714Y-89674762D01*
X176656333Y-89627143D01*
X176703952Y-89531905D01*
X176751571Y-89341429D01*
X176751571Y-89103333D01*
X176703952Y-88912857D01*
X176656333Y-88817619D01*
X176608714Y-88770000D01*
X176513476Y-88722381D01*
X219503523Y-121162381D02*
X219503523Y-121876667D01*
X219551143Y-122019524D01*
X219646381Y-122114762D01*
X219789238Y-122162381D01*
X219884476Y-122162381D01*
X218503523Y-122162381D02*
X219074952Y-122162381D01*
X218789238Y-122162381D02*
X218789238Y-121162381D01*
X218884476Y-121305238D01*
X218979714Y-121400476D01*
X219074952Y-121448095D01*
X217551142Y-122162381D02*
X218122571Y-122162381D01*
X217836857Y-122162381D02*
X217836857Y-121162381D01*
X217932095Y-121305238D01*
X218027333Y-121400476D01*
X218122571Y-121448095D01*
X211883523Y-121162381D02*
X211883523Y-121876667D01*
X211931143Y-122019524D01*
X212026381Y-122114762D01*
X212169238Y-122162381D01*
X212264476Y-122162381D01*
X210883523Y-122162381D02*
X211454952Y-122162381D01*
X211169238Y-122162381D02*
X211169238Y-121162381D01*
X211264476Y-121305238D01*
X211359714Y-121400476D01*
X211454952Y-121448095D01*
X209978761Y-121162381D02*
X210454952Y-121162381D01*
X210502571Y-121638571D01*
X210454952Y-121590952D01*
X210359714Y-121543333D01*
X210121618Y-121543333D01*
X210026380Y-121590952D01*
X209978761Y-121638571D01*
X209931142Y-121733810D01*
X209931142Y-121971905D01*
X209978761Y-122067143D01*
X210026380Y-122114762D01*
X210121618Y-122162381D01*
X210359714Y-122162381D01*
X210454952Y-122114762D01*
X210502571Y-122067143D01*
X136822381Y-39830477D02*
X137536667Y-39830477D01*
X137679524Y-39782857D01*
X137774762Y-39687619D01*
X137822381Y-39544762D01*
X137822381Y-39449524D01*
X137822381Y-40830477D02*
X137822381Y-40259048D01*
X137822381Y-40544762D02*
X136822381Y-40544762D01*
X136965238Y-40449524D01*
X137060476Y-40354286D01*
X137108095Y-40259048D01*
X136822381Y-41687620D02*
X136822381Y-41497143D01*
X136870000Y-41401905D01*
X136917619Y-41354286D01*
X137060476Y-41259048D01*
X137250952Y-41211429D01*
X137631905Y-41211429D01*
X137727143Y-41259048D01*
X137774762Y-41306667D01*
X137822381Y-41401905D01*
X137822381Y-41592382D01*
X137774762Y-41687620D01*
X137727143Y-41735239D01*
X137631905Y-41782858D01*
X137393810Y-41782858D01*
X137298571Y-41735239D01*
X137250952Y-41687620D01*
X137203333Y-41592382D01*
X137203333Y-41401905D01*
X137250952Y-41306667D01*
X137298571Y-41259048D01*
X137393810Y-41211429D01*
X174799523Y-44962381D02*
X174799523Y-45676667D01*
X174847143Y-45819524D01*
X174942381Y-45914762D01*
X175085238Y-45962381D01*
X175180476Y-45962381D01*
X173799523Y-45962381D02*
X174370952Y-45962381D01*
X174085238Y-45962381D02*
X174085238Y-44962381D01*
X174180476Y-45105238D01*
X174275714Y-45200476D01*
X174370952Y-45248095D01*
X173323333Y-45962381D02*
X173132857Y-45962381D01*
X173037618Y-45914762D01*
X172989999Y-45867143D01*
X172894761Y-45724286D01*
X172847142Y-45533810D01*
X172847142Y-45152857D01*
X172894761Y-45057619D01*
X172942380Y-45010000D01*
X173037618Y-44962381D01*
X173228095Y-44962381D01*
X173323333Y-45010000D01*
X173370952Y-45057619D01*
X173418571Y-45152857D01*
X173418571Y-45390952D01*
X173370952Y-45486190D01*
X173323333Y-45533810D01*
X173228095Y-45581429D01*
X173037618Y-45581429D01*
X172942380Y-45533810D01*
X172894761Y-45486190D01*
X172847142Y-45390952D01*
X167179523Y-44962381D02*
X167179523Y-45676667D01*
X167227143Y-45819524D01*
X167322381Y-45914762D01*
X167465238Y-45962381D01*
X167560476Y-45962381D01*
X166750952Y-45057619D02*
X166703333Y-45010000D01*
X166608095Y-44962381D01*
X166369999Y-44962381D01*
X166274761Y-45010000D01*
X166227142Y-45057619D01*
X166179523Y-45152857D01*
X166179523Y-45248095D01*
X166227142Y-45390952D01*
X166798571Y-45962381D01*
X166179523Y-45962381D01*
X165560476Y-44962381D02*
X165465237Y-44962381D01*
X165369999Y-45010000D01*
X165322380Y-45057619D01*
X165274761Y-45152857D01*
X165227142Y-45343333D01*
X165227142Y-45581429D01*
X165274761Y-45771905D01*
X165322380Y-45867143D01*
X165369999Y-45914762D01*
X165465237Y-45962381D01*
X165560476Y-45962381D01*
X165655714Y-45914762D01*
X165703333Y-45867143D01*
X165750952Y-45771905D01*
X165798571Y-45581429D01*
X165798571Y-45343333D01*
X165750952Y-45152857D01*
X165703333Y-45057619D01*
X165655714Y-45010000D01*
X165560476Y-44962381D01*
X167302381Y-58880477D02*
X168016667Y-58880477D01*
X168159524Y-58832857D01*
X168254762Y-58737619D01*
X168302381Y-58594762D01*
X168302381Y-58499524D01*
X167397619Y-59309048D02*
X167350000Y-59356667D01*
X167302381Y-59451905D01*
X167302381Y-59690001D01*
X167350000Y-59785239D01*
X167397619Y-59832858D01*
X167492857Y-59880477D01*
X167588095Y-59880477D01*
X167730952Y-59832858D01*
X168302381Y-59261429D01*
X168302381Y-59880477D01*
X167302381Y-60213810D02*
X167302381Y-60832858D01*
X167683333Y-60499524D01*
X167683333Y-60642382D01*
X167730952Y-60737620D01*
X167778571Y-60785239D01*
X167873810Y-60832858D01*
X168111905Y-60832858D01*
X168207143Y-60785239D01*
X168254762Y-60737620D01*
X168302381Y-60642382D01*
X168302381Y-60356667D01*
X168254762Y-60261429D01*
X168207143Y-60213810D01*
X135552381Y-49990477D02*
X136266667Y-49990477D01*
X136409524Y-49942857D01*
X136504762Y-49847619D01*
X136552381Y-49704762D01*
X136552381Y-49609524D01*
X135647619Y-50419048D02*
X135600000Y-50466667D01*
X135552381Y-50561905D01*
X135552381Y-50800001D01*
X135600000Y-50895239D01*
X135647619Y-50942858D01*
X135742857Y-50990477D01*
X135838095Y-50990477D01*
X135980952Y-50942858D01*
X136552381Y-50371429D01*
X136552381Y-50990477D01*
X135552381Y-51895239D02*
X135552381Y-51419048D01*
X136028571Y-51371429D01*
X135980952Y-51419048D01*
X135933333Y-51514286D01*
X135933333Y-51752382D01*
X135980952Y-51847620D01*
X136028571Y-51895239D01*
X136123810Y-51942858D01*
X136361905Y-51942858D01*
X136457143Y-51895239D01*
X136504762Y-51847620D01*
X136552381Y-51752382D01*
X136552381Y-51514286D01*
X136504762Y-51419048D01*
X136457143Y-51371429D01*
X135552381Y-57610477D02*
X136266667Y-57610477D01*
X136409524Y-57562857D01*
X136504762Y-57467619D01*
X136552381Y-57324762D01*
X136552381Y-57229524D01*
X135647619Y-58039048D02*
X135600000Y-58086667D01*
X135552381Y-58181905D01*
X135552381Y-58420001D01*
X135600000Y-58515239D01*
X135647619Y-58562858D01*
X135742857Y-58610477D01*
X135838095Y-58610477D01*
X135980952Y-58562858D01*
X136552381Y-57991429D01*
X136552381Y-58610477D01*
X135552381Y-59467620D02*
X135552381Y-59277143D01*
X135600000Y-59181905D01*
X135647619Y-59134286D01*
X135790476Y-59039048D01*
X135980952Y-58991429D01*
X136361905Y-58991429D01*
X136457143Y-59039048D01*
X136504762Y-59086667D01*
X136552381Y-59181905D01*
X136552381Y-59372382D01*
X136504762Y-59467620D01*
X136457143Y-59515239D01*
X136361905Y-59562858D01*
X136123810Y-59562858D01*
X136028571Y-59515239D01*
X135980952Y-59467620D01*
X135933333Y-59372382D01*
X135933333Y-59181905D01*
X135980952Y-59086667D01*
X136028571Y-59039048D01*
X136123810Y-58991429D01*
X159428381Y-93932477D02*
X160142667Y-93932477D01*
X160285524Y-93884857D01*
X160380762Y-93789619D01*
X160428381Y-93646762D01*
X160428381Y-93551524D01*
X159523619Y-94361048D02*
X159476000Y-94408667D01*
X159428381Y-94503905D01*
X159428381Y-94742001D01*
X159476000Y-94837239D01*
X159523619Y-94884858D01*
X159618857Y-94932477D01*
X159714095Y-94932477D01*
X159856952Y-94884858D01*
X160428381Y-94313429D01*
X160428381Y-94932477D01*
X159428381Y-95265810D02*
X159428381Y-95932477D01*
X160428381Y-95503905D01*
X166628381Y-86312477D02*
X167342667Y-86312477D01*
X167485524Y-86264857D01*
X167580762Y-86169619D01*
X167628381Y-86026762D01*
X167628381Y-85931524D01*
X166723619Y-86741048D02*
X166676000Y-86788667D01*
X166628381Y-86883905D01*
X166628381Y-87122001D01*
X166676000Y-87217239D01*
X166723619Y-87264858D01*
X166818857Y-87312477D01*
X166914095Y-87312477D01*
X167056952Y-87264858D01*
X167628381Y-86693429D01*
X167628381Y-87312477D01*
X167056952Y-87883905D02*
X167009333Y-87788667D01*
X166961714Y-87741048D01*
X166866476Y-87693429D01*
X166818857Y-87693429D01*
X166723619Y-87741048D01*
X166676000Y-87788667D01*
X166628381Y-87883905D01*
X166628381Y-88074382D01*
X166676000Y-88169620D01*
X166723619Y-88217239D01*
X166818857Y-88264858D01*
X166866476Y-88264858D01*
X166961714Y-88217239D01*
X167009333Y-88169620D01*
X167056952Y-88074382D01*
X167056952Y-87883905D01*
X167104571Y-87788667D01*
X167152190Y-87741048D01*
X167247429Y-87693429D01*
X167437905Y-87693429D01*
X167533143Y-87741048D01*
X167580762Y-87788667D01*
X167628381Y-87883905D01*
X167628381Y-88074382D01*
X167580762Y-88169620D01*
X167533143Y-88217239D01*
X167437905Y-88264858D01*
X167247429Y-88264858D01*
X167152190Y-88217239D01*
X167104571Y-88169620D01*
X167056952Y-88074382D01*
X141708095Y-99302381D02*
X141708095Y-98302381D01*
X141327142Y-98302381D01*
X141231904Y-98350000D01*
X141184285Y-98397619D01*
X141136666Y-98492857D01*
X141136666Y-98635714D01*
X141184285Y-98730952D01*
X141231904Y-98778571D01*
X141327142Y-98826190D01*
X141708095Y-98826190D01*
X140231904Y-98302381D02*
X140708095Y-98302381D01*
X140755714Y-98778571D01*
X140708095Y-98730952D01*
X140612857Y-98683333D01*
X140374761Y-98683333D01*
X140279523Y-98730952D01*
X140231904Y-98778571D01*
X140184285Y-98873810D01*
X140184285Y-99111905D01*
X140231904Y-99207143D01*
X140279523Y-99254762D01*
X140374761Y-99302381D01*
X140612857Y-99302381D01*
X140708095Y-99254762D01*
X140755714Y-99207143D01*
X218670095Y-90158381D02*
X218670095Y-89158381D01*
X218289142Y-89158381D01*
X218193904Y-89206000D01*
X218146285Y-89253619D01*
X218098666Y-89348857D01*
X218098666Y-89491714D01*
X218146285Y-89586952D01*
X218193904Y-89634571D01*
X218289142Y-89682190D01*
X218670095Y-89682190D01*
X217146285Y-90158381D02*
X217717714Y-90158381D01*
X217432000Y-90158381D02*
X217432000Y-89158381D01*
X217527238Y-89301238D01*
X217622476Y-89396476D01*
X217717714Y-89444095D01*
X211050095Y-29618381D02*
X211050095Y-28618381D01*
X210669142Y-28618381D01*
X210573904Y-28666000D01*
X210526285Y-28713619D01*
X210478666Y-28808857D01*
X210478666Y-28951714D01*
X210526285Y-29046952D01*
X210573904Y-29094571D01*
X210669142Y-29142190D01*
X211050095Y-29142190D01*
X210097714Y-28713619D02*
X210050095Y-28666000D01*
X209954857Y-28618381D01*
X209716761Y-28618381D01*
X209621523Y-28666000D01*
X209573904Y-28713619D01*
X209526285Y-28808857D01*
X209526285Y-28904095D01*
X209573904Y-29046952D01*
X210145333Y-29618381D01*
X209526285Y-29618381D01*
X190730095Y-57812381D02*
X190730095Y-56812381D01*
X190349142Y-56812381D01*
X190253904Y-56860000D01*
X190206285Y-56907619D01*
X190158666Y-57002857D01*
X190158666Y-57145714D01*
X190206285Y-57240952D01*
X190253904Y-57288571D01*
X190349142Y-57336190D01*
X190730095Y-57336190D01*
X189825333Y-56812381D02*
X189206285Y-56812381D01*
X189539619Y-57193333D01*
X189396761Y-57193333D01*
X189301523Y-57240952D01*
X189253904Y-57288571D01*
X189206285Y-57383810D01*
X189206285Y-57621905D01*
X189253904Y-57717143D01*
X189301523Y-57764762D01*
X189396761Y-57812381D01*
X189682476Y-57812381D01*
X189777714Y-57764762D01*
X189825333Y-57717143D01*
X198350095Y-57812381D02*
X198350095Y-56812381D01*
X197969142Y-56812381D01*
X197873904Y-56860000D01*
X197826285Y-56907619D01*
X197778666Y-57002857D01*
X197778666Y-57145714D01*
X197826285Y-57240952D01*
X197873904Y-57288571D01*
X197969142Y-57336190D01*
X198350095Y-57336190D01*
X196921523Y-57145714D02*
X196921523Y-57812381D01*
X197159619Y-56764762D02*
X197397714Y-57479048D01*
X196778666Y-57479048D01*
M02*
