G04 #@! TF.FileFunction,Soldermask,Bot*
%FSLAX46Y46*%
G04 Gerber Fmt 4.6, Leading zero omitted, Abs format (unit mm)*
G04 Created by KiCad (PCBNEW 4.0.7-e2-6376~58~ubuntu16.04.1) date Tue Jan  2 19:13:55 2018*
%MOMM*%
%LPD*%
G01*
G04 APERTURE LIST*
%ADD10C,0.100000*%
%ADD11C,4.049980*%
%ADD12R,1.901140X1.901140*%
%ADD13C,1.901140*%
%ADD14C,1.924000*%
%ADD15C,3.399740*%
%ADD16C,1.000000*%
%ADD17R,2.910000X1.400000*%
%ADD18R,1.400000X2.910000*%
G04 APERTURE END LIST*
D10*
D11*
X135031480Y-92710000D03*
X146900900Y-92710000D03*
D12*
X145415000Y-99060000D03*
D13*
X144145000Y-101600000D03*
X142875000Y-99060000D03*
X141605000Y-101600000D03*
X140335000Y-99060000D03*
X139065000Y-101600000D03*
X137795000Y-99060000D03*
X136525000Y-101600000D03*
D11*
X135031480Y-63500000D03*
X146900900Y-63500000D03*
D12*
X145415000Y-69850000D03*
D13*
X144145000Y-72390000D03*
X142875000Y-69850000D03*
X141605000Y-72390000D03*
X140335000Y-69850000D03*
X139065000Y-72390000D03*
X137795000Y-69850000D03*
X136525000Y-72390000D03*
D14*
X174498000Y-52070000D03*
X171958000Y-52070000D03*
X177038000Y-52070000D03*
X170688000Y-54610000D03*
X173228000Y-54610000D03*
X175768000Y-54610000D03*
D15*
X180594000Y-56642000D03*
X167132000Y-56642000D03*
D14*
X160528000Y-102362000D03*
X163068000Y-102362000D03*
X157988000Y-102362000D03*
X164338000Y-99822000D03*
X161798000Y-99822000D03*
X159258000Y-99822000D03*
D15*
X154432000Y-97790000D03*
X167894000Y-97790000D03*
D16*
X198628000Y-57023000D03*
X197612000Y-57023000D03*
X196596000Y-57023000D03*
X183388000Y-54229000D03*
X183388000Y-53213000D03*
X183388000Y-52197000D03*
X183134000Y-81407000D03*
X183134000Y-80391000D03*
X183134000Y-79375000D03*
D17*
X159135000Y-55880000D03*
X159135000Y-60960000D03*
X159135000Y-66040000D03*
X159135000Y-71120000D03*
X159135000Y-76200000D03*
X155825000Y-53340000D03*
X155825000Y-58420000D03*
X155825000Y-63500000D03*
X155825000Y-68580000D03*
X155825000Y-73660000D03*
X162175000Y-118364000D03*
X162175000Y-113284000D03*
X165485000Y-120904000D03*
X165485000Y-115824000D03*
X154555000Y-118364000D03*
X154555000Y-113284000D03*
X157865000Y-120904000D03*
X157865000Y-115824000D03*
X134743000Y-118618000D03*
X134743000Y-113538000D03*
X138053000Y-121158000D03*
X138053000Y-116078000D03*
X138053000Y-110998000D03*
X142363000Y-118618000D03*
X142363000Y-113538000D03*
X145673000Y-121158000D03*
X145673000Y-116078000D03*
X145673000Y-110998000D03*
X175668000Y-84400000D03*
X175668000Y-79320000D03*
X175668000Y-74240000D03*
X175668000Y-69160000D03*
X178978000Y-86940000D03*
X178978000Y-81860000D03*
X178978000Y-76780000D03*
X178978000Y-71700000D03*
X217039000Y-116840000D03*
X217039000Y-111760000D03*
X217039000Y-106680000D03*
X217039000Y-101600000D03*
X217039000Y-96520000D03*
X220349000Y-119380000D03*
X220349000Y-114300000D03*
X220349000Y-109220000D03*
X220349000Y-104140000D03*
X220349000Y-99060000D03*
X209419000Y-116840000D03*
X209419000Y-111760000D03*
X209419000Y-106680000D03*
X209419000Y-101600000D03*
X209419000Y-96520000D03*
X212729000Y-119380000D03*
X212729000Y-114300000D03*
X212729000Y-109220000D03*
X212729000Y-104140000D03*
X212729000Y-99060000D03*
D18*
X142240000Y-38985000D03*
X147320000Y-38985000D03*
X152400000Y-38985000D03*
X139700000Y-42295000D03*
X144780000Y-42295000D03*
X149860000Y-42295000D03*
X154940000Y-42295000D03*
D17*
X172335000Y-40640000D03*
X172335000Y-35560000D03*
X175645000Y-43180000D03*
X175645000Y-38100000D03*
X164715000Y-40640000D03*
X168025000Y-43180000D03*
X168025000Y-38100000D03*
D18*
X172720000Y-58035000D03*
X177800000Y-58035000D03*
X170180000Y-61345000D03*
X175260000Y-61345000D03*
X140970000Y-49145000D03*
X146050000Y-49145000D03*
X138430000Y-52455000D03*
X143510000Y-52455000D03*
X140970000Y-56765000D03*
X146050000Y-56765000D03*
X138430000Y-60075000D03*
X143510000Y-60075000D03*
X164846000Y-93087000D03*
X162306000Y-96397000D03*
X162306000Y-88777000D03*
X164846000Y-85467000D03*
D17*
X139315000Y-93980000D03*
X139315000Y-88900000D03*
X139315000Y-83820000D03*
X139315000Y-78740000D03*
X142625000Y-96520000D03*
X142625000Y-91440000D03*
X142625000Y-86360000D03*
X142625000Y-81280000D03*
X216277000Y-84836000D03*
X216277000Y-79756000D03*
X216277000Y-74676000D03*
X216277000Y-69596000D03*
X216277000Y-64516000D03*
X216277000Y-59436000D03*
X216277000Y-54356000D03*
X216277000Y-49276000D03*
X216277000Y-44196000D03*
X216277000Y-39116000D03*
X216277000Y-34036000D03*
X219587000Y-87376000D03*
X219587000Y-82296000D03*
X219587000Y-77216000D03*
X219587000Y-72136000D03*
X219587000Y-67056000D03*
X219587000Y-61976000D03*
X219587000Y-56896000D03*
X219587000Y-51816000D03*
X219587000Y-46736000D03*
X219587000Y-41656000D03*
X219587000Y-36576000D03*
X219587000Y-31496000D03*
X211967000Y-34036000D03*
X211967000Y-39116000D03*
X211967000Y-44196000D03*
X211967000Y-49276000D03*
X211967000Y-54356000D03*
X211967000Y-59436000D03*
X211967000Y-64516000D03*
X211967000Y-69596000D03*
X211967000Y-74676000D03*
X211967000Y-79756000D03*
X211967000Y-84836000D03*
X208657000Y-31496000D03*
X208657000Y-36576000D03*
X208657000Y-41656000D03*
X208657000Y-46736000D03*
X208657000Y-51816000D03*
X208657000Y-56896000D03*
X208657000Y-61976000D03*
X208657000Y-67056000D03*
X208657000Y-72136000D03*
X208657000Y-77216000D03*
X208657000Y-82296000D03*
X208657000Y-87376000D03*
X191647000Y-62230000D03*
X191647000Y-67310000D03*
X191647000Y-72390000D03*
X191647000Y-77470000D03*
X191647000Y-82550000D03*
X191647000Y-87630000D03*
X191647000Y-92710000D03*
X191647000Y-97790000D03*
X191647000Y-102870000D03*
X191647000Y-107950000D03*
X188337000Y-59690000D03*
X188337000Y-64770000D03*
X188337000Y-69850000D03*
X188337000Y-74930000D03*
X188337000Y-80010000D03*
X188337000Y-85090000D03*
X188337000Y-90170000D03*
X188337000Y-95250000D03*
X188337000Y-100330000D03*
X188337000Y-105410000D03*
X199267000Y-62230000D03*
X199267000Y-67310000D03*
X199267000Y-72390000D03*
X199267000Y-77470000D03*
X199267000Y-82550000D03*
X199267000Y-87630000D03*
X199267000Y-92710000D03*
X199267000Y-97790000D03*
X199267000Y-102870000D03*
X199267000Y-107950000D03*
X195957000Y-59690000D03*
X195957000Y-64770000D03*
X195957000Y-69850000D03*
X195957000Y-74930000D03*
X195957000Y-80010000D03*
X195957000Y-85090000D03*
X195957000Y-90170000D03*
X195957000Y-95250000D03*
X195957000Y-100330000D03*
X195957000Y-105410000D03*
D16*
X222885000Y-99060000D03*
X222885000Y-98044000D03*
X222885000Y-97028000D03*
X222885000Y-106045000D03*
X222885000Y-105029000D03*
X222885000Y-104013000D03*
X222885000Y-113665000D03*
X222885000Y-112649000D03*
X222885000Y-111633000D03*
X222885000Y-118745000D03*
X222885000Y-117729000D03*
X222885000Y-116713000D03*
X219075000Y-121920000D03*
X218059000Y-121920000D03*
X217043000Y-121920000D03*
X212090000Y-121920000D03*
X211074000Y-121920000D03*
X210058000Y-121920000D03*
X206883000Y-118237000D03*
X206883000Y-117221000D03*
X206883000Y-116205000D03*
X206883000Y-111379000D03*
X206883000Y-110363000D03*
X206883000Y-109347000D03*
X206883000Y-103251000D03*
X206883000Y-102235000D03*
X206883000Y-101219000D03*
X212344000Y-93980000D03*
X211328000Y-93980000D03*
X210312000Y-93980000D03*
X219329000Y-93980000D03*
X218313000Y-93980000D03*
X217297000Y-93980000D03*
X201803000Y-108331000D03*
X201803000Y-107315000D03*
X201803000Y-106299000D03*
X201803000Y-101092000D03*
X201803000Y-100076000D03*
X201803000Y-99060000D03*
X201803000Y-93853000D03*
X201803000Y-92837000D03*
X201803000Y-91821000D03*
X201803000Y-82804000D03*
X201803000Y-81788000D03*
X201803000Y-80772000D03*
X201803000Y-70739000D03*
X201803000Y-69723000D03*
X201803000Y-68707000D03*
X191389000Y-57023000D03*
X190373000Y-57023000D03*
X189357000Y-57023000D03*
X185801000Y-61976000D03*
X185801000Y-60960000D03*
X185801000Y-59944000D03*
X185801000Y-68453000D03*
X185801000Y-67437000D03*
X185801000Y-66421000D03*
X185801000Y-76073000D03*
X185801000Y-75057000D03*
X185801000Y-74041000D03*
X185801000Y-83185000D03*
X185801000Y-82169000D03*
X185801000Y-81153000D03*
X185801000Y-90424000D03*
X185801000Y-89408000D03*
X185801000Y-88392000D03*
X185801000Y-99949000D03*
X185801000Y-98933000D03*
X185801000Y-97917000D03*
X185801000Y-107061000D03*
X185801000Y-106045000D03*
X185801000Y-105029000D03*
X191008000Y-110490000D03*
X189992000Y-110490000D03*
X188976000Y-110490000D03*
X198374000Y-110490000D03*
X197358000Y-110490000D03*
X196342000Y-110490000D03*
X168021000Y-115316000D03*
X168021000Y-114300000D03*
X168021000Y-113284000D03*
X168021000Y-120777000D03*
X168021000Y-119761000D03*
X168021000Y-118745000D03*
X165481000Y-123444000D03*
X164465000Y-123444000D03*
X163449000Y-123444000D03*
X158750000Y-123444000D03*
X157734000Y-123444000D03*
X156718000Y-123444000D03*
X152019000Y-120904000D03*
X152019000Y-119888000D03*
X152019000Y-118872000D03*
X152019000Y-115189000D03*
X152019000Y-114173000D03*
X152019000Y-113157000D03*
X156591000Y-110744000D03*
X155575000Y-110744000D03*
X154559000Y-110744000D03*
X163449000Y-110744000D03*
X162433000Y-110744000D03*
X161417000Y-110744000D03*
X183388000Y-60198000D03*
X183388000Y-59182000D03*
X183388000Y-58166000D03*
X178562000Y-64135000D03*
X177546000Y-64135000D03*
X176530000Y-64135000D03*
X171577000Y-64135000D03*
X170561000Y-64135000D03*
X169545000Y-64135000D03*
X164592000Y-56642000D03*
X164592000Y-55626000D03*
X164592000Y-54610000D03*
X164592000Y-60071000D03*
X164592000Y-61087000D03*
X164592000Y-62103000D03*
X170561000Y-49149000D03*
X169545000Y-49149000D03*
X168529000Y-49149000D03*
X157353000Y-49149000D03*
X156337000Y-49149000D03*
X155321000Y-49149000D03*
X162433000Y-49149000D03*
X161417000Y-49149000D03*
X160401000Y-49149000D03*
X151003000Y-53848000D03*
X151003000Y-52832000D03*
X151003000Y-51816000D03*
X151003000Y-60071000D03*
X151003000Y-59055000D03*
X151003000Y-58039000D03*
X151003000Y-66421000D03*
X151003000Y-65405000D03*
X151003000Y-64389000D03*
X151003000Y-71628000D03*
X151003000Y-70612000D03*
X151003000Y-69596000D03*
X151003000Y-76581000D03*
X151003000Y-75565000D03*
X151003000Y-74549000D03*
X155702000Y-78740000D03*
X154686000Y-78740000D03*
X153670000Y-78740000D03*
X161544000Y-78740000D03*
X160528000Y-78740000D03*
X159512000Y-78740000D03*
X164592000Y-68961000D03*
X164592000Y-67945000D03*
X164592000Y-66929000D03*
X164592000Y-75692000D03*
X164592000Y-74676000D03*
X164592000Y-73660000D03*
X178054000Y-49149000D03*
X177038000Y-49149000D03*
X176022000Y-49149000D03*
X177800000Y-45720000D03*
X176784000Y-45720000D03*
X175768000Y-45720000D03*
X171831000Y-45720000D03*
X170815000Y-45720000D03*
X169799000Y-45720000D03*
X165989000Y-45720000D03*
X164973000Y-45720000D03*
X163957000Y-45720000D03*
X180213000Y-43307000D03*
X180213000Y-42291000D03*
X180213000Y-41275000D03*
X180213000Y-37211000D03*
X180213000Y-36195000D03*
X180213000Y-35179000D03*
X161163000Y-43307000D03*
X161163000Y-42291000D03*
X161163000Y-41275000D03*
X161163000Y-36957000D03*
X161163000Y-35941000D03*
X161163000Y-34925000D03*
X165735000Y-29210000D03*
X164719000Y-29210000D03*
X163703000Y-29210000D03*
X172085000Y-29210000D03*
X171069000Y-29210000D03*
X170053000Y-29210000D03*
X177927000Y-29210000D03*
X176911000Y-29210000D03*
X175895000Y-29210000D03*
X137668000Y-123825000D03*
X136652000Y-123825000D03*
X135636000Y-123825000D03*
X145034000Y-123825000D03*
X144018000Y-123825000D03*
X143002000Y-123825000D03*
X148209000Y-119507000D03*
X148209000Y-120523000D03*
X148209000Y-121539000D03*
X132207000Y-121412000D03*
X132207000Y-120396000D03*
X132207000Y-119380000D03*
X132207000Y-114173000D03*
X132207000Y-113157000D03*
X132207000Y-112141000D03*
X136906000Y-108331000D03*
X135890000Y-108331000D03*
X134874000Y-108331000D03*
X144145000Y-108331000D03*
X143129000Y-108331000D03*
X142113000Y-108331000D03*
X148209000Y-112903000D03*
X148209000Y-111887000D03*
X148209000Y-110871000D03*
X131953000Y-93599000D03*
X131953000Y-92583000D03*
X131953000Y-91567000D03*
X131953000Y-88392000D03*
X131953000Y-87376000D03*
X131953000Y-86360000D03*
X131953000Y-101473000D03*
X131953000Y-100457000D03*
X131953000Y-99441000D03*
X136779000Y-103759000D03*
X135763000Y-103759000D03*
X134747000Y-103759000D03*
X142621000Y-103759000D03*
X141605000Y-103759000D03*
X140589000Y-103759000D03*
X147447000Y-103759000D03*
X146431000Y-103759000D03*
X145415000Y-103759000D03*
X149733000Y-101727000D03*
X149733000Y-100711000D03*
X149733000Y-99695000D03*
X149733000Y-95377000D03*
X149733000Y-94361000D03*
X149733000Y-93345000D03*
X149758400Y-89789000D03*
X149758400Y-88773000D03*
X149758400Y-87757000D03*
X149733000Y-80899000D03*
X149733000Y-81915000D03*
X149733000Y-82931000D03*
X141097000Y-76073000D03*
X140081000Y-76073000D03*
X139065000Y-76073000D03*
X131953000Y-80391000D03*
X131953000Y-81407000D03*
X131953000Y-82423000D03*
X136271000Y-76073000D03*
X135255000Y-76073000D03*
X134239000Y-76073000D03*
X146304000Y-76073000D03*
X145288000Y-76073000D03*
X144272000Y-76073000D03*
X131953000Y-64262000D03*
X131953000Y-63246000D03*
X131953000Y-62230000D03*
X131953000Y-71755000D03*
X131953000Y-70739000D03*
X131953000Y-69723000D03*
X136779000Y-74422000D03*
X135763000Y-74422000D03*
X134747000Y-74422000D03*
X142621000Y-74422000D03*
X141605000Y-74422000D03*
X140589000Y-74422000D03*
X147574000Y-74422000D03*
X146558000Y-74422000D03*
X145542000Y-74422000D03*
X149733000Y-65278000D03*
X149733000Y-64262000D03*
X149733000Y-63246000D03*
X149733000Y-70993000D03*
X149733000Y-69977000D03*
X149733000Y-68961000D03*
X149733000Y-59690000D03*
X149733000Y-58674000D03*
X149733000Y-57658000D03*
X149733000Y-53340000D03*
X149733000Y-52324000D03*
X149733000Y-51308000D03*
X147447000Y-45974000D03*
X146431000Y-45974000D03*
X145415000Y-45974000D03*
X140589000Y-45974000D03*
X139573000Y-45974000D03*
X138557000Y-45974000D03*
X131953000Y-56769000D03*
X131953000Y-55753000D03*
X131953000Y-54737000D03*
X131953000Y-50927000D03*
X131953000Y-49911000D03*
X131953000Y-48895000D03*
X137160000Y-42672000D03*
X137160000Y-41656000D03*
X137160000Y-40640000D03*
X137160000Y-36830000D03*
X137160000Y-35814000D03*
X137160000Y-34798000D03*
X141859000Y-30861000D03*
X140843000Y-30861000D03*
X139827000Y-30861000D03*
X147955000Y-30861000D03*
X146939000Y-30861000D03*
X145923000Y-30861000D03*
X154813000Y-30861000D03*
X153797000Y-30861000D03*
X152781000Y-30861000D03*
X157607000Y-35179000D03*
X157607000Y-34163000D03*
X157607000Y-33147000D03*
X157607000Y-42037000D03*
X157607000Y-41021000D03*
X157607000Y-40005000D03*
X153924000Y-45974000D03*
X152908000Y-45974000D03*
X151892000Y-45974000D03*
X170561000Y-98679000D03*
X170561000Y-97663000D03*
X170561000Y-96647000D03*
X170561000Y-93599000D03*
X170561000Y-92583000D03*
X170561000Y-91567000D03*
X166243000Y-82931000D03*
X165227000Y-82931000D03*
X164211000Y-82931000D03*
X168021000Y-105283000D03*
X167005000Y-105283000D03*
X165989000Y-105283000D03*
X160782000Y-105283000D03*
X159766000Y-105283000D03*
X158750000Y-105283000D03*
X151892000Y-97282000D03*
X151892000Y-96266000D03*
X151892000Y-95250000D03*
X151892000Y-102997000D03*
X151892000Y-101981000D03*
X151892000Y-100965000D03*
X151892000Y-88900000D03*
X151892000Y-87884000D03*
X151892000Y-86868000D03*
X156591000Y-82931000D03*
X155575000Y-82931000D03*
X154559000Y-82931000D03*
X170561000Y-86995000D03*
X170561000Y-85979000D03*
X170561000Y-84963000D03*
X177419000Y-89535000D03*
X176403000Y-89535000D03*
X175387000Y-89535000D03*
X222250000Y-50673000D03*
X222250000Y-49657000D03*
X222250000Y-48641000D03*
X205740000Y-69469000D03*
X205740000Y-68453000D03*
X205740000Y-67437000D03*
X170561000Y-80645000D03*
X170561000Y-79629000D03*
X170561000Y-78613000D03*
X170561000Y-75565000D03*
X170561000Y-74549000D03*
X170561000Y-73533000D03*
X170561000Y-70485000D03*
X170561000Y-69469000D03*
X170561000Y-68453000D03*
X174625000Y-66294000D03*
X173609000Y-66294000D03*
X172593000Y-66294000D03*
X179832000Y-66294000D03*
X178816000Y-66294000D03*
X177800000Y-66294000D03*
X183134000Y-86614000D03*
X183134000Y-85598000D03*
X183134000Y-84582000D03*
X183134000Y-75819000D03*
X183134000Y-74803000D03*
X183134000Y-73787000D03*
X183134000Y-70485000D03*
X183134000Y-69469000D03*
X183134000Y-68453000D03*
X201803000Y-62738000D03*
X201803000Y-61722000D03*
X201803000Y-60706000D03*
M02*
