M48
INCH,TZ
T1C0.016
T2C0.128
%
G90
G05
T1
X5.195Y-1.925
X5.195Y-1.965
X5.195Y-2.005
X5.195Y-2.155
X5.195Y-2.195
X5.195Y-2.235
X5.195Y-2.45
X5.195Y-2.49
X5.195Y-2.53
X5.195Y-2.745
X5.195Y-2.785
X5.195Y-2.825
X5.195Y-3.165
X5.195Y-3.205
X5.195Y-3.245
X5.195Y-3.4
X5.195Y-3.44
X5.195Y-3.48
X5.195Y-3.605
X5.195Y-3.645
X5.195Y-3.685
X5.195Y-3.915
X5.195Y-3.955
X5.195Y-3.995
X5.205Y-4.415
X5.205Y-4.455
X5.205Y-4.495
X5.205Y-4.7
X5.205Y-4.74
X5.205Y-4.78
X5.285Y-2.995
X5.305Y-2.93
X5.305Y-4.085
X5.31Y-4.265
X5.325Y-2.995
X5.34Y-4.875
X5.345Y-2.93
X5.345Y-4.085
X5.35Y-4.265
X5.365Y-2.995
X5.38Y-4.875
X5.385Y-2.93
X5.385Y-4.085
X5.39Y-4.265
X5.4Y-1.37
X5.4Y-1.41
X5.4Y-1.45
X5.4Y-1.6
X5.4Y-1.64
X5.4Y-1.68
X5.42Y-4.875
X5.455Y-1.81
X5.475Y-2.995
X5.495Y-1.81
X5.505Y-1.215
X5.515Y-2.995
X5.535Y-1.81
X5.535Y-2.93
X5.535Y-4.085
X5.545Y-1.215
X5.555Y-2.995
X5.575Y-2.93
X5.575Y-4.085
X5.585Y-1.215
X5.595Y-4.265
X5.615Y-2.93
X5.615Y-4.085
X5.63Y-4.875
X5.635Y-4.265
X5.67Y-4.875
X5.675Y-4.265
X5.68Y-2.995
X5.71Y-4.875
X5.72Y-2.995
X5.725Y-1.81
X5.725Y-4.085
X5.73Y-2.93
X5.745Y-1.215
X5.76Y-2.995
X5.765Y-1.81
X5.765Y-4.085
X5.77Y-2.93
X5.785Y-1.215
X5.805Y-1.81
X5.805Y-4.085
X5.81Y-2.93
X5.825Y-1.215
X5.835Y-4.365
X5.835Y-4.405
X5.835Y-4.445
X5.835Y-4.705
X5.835Y-4.745
X5.835Y-4.785
X5.895Y-2.02
X5.895Y-2.06
X5.895Y-2.1
X5.895Y-2.27
X5.895Y-2.31
X5.895Y-2.35
X5.895Y-2.49
X5.895Y-2.53
X5.895Y-2.57
X5.895Y-2.715
X5.895Y-2.755
X5.895Y-2.795
X5.895Y-3.185
X5.895Y-3.225
X5.895Y-3.265
X5.895Y-3.675
X5.895Y-3.715
X5.895Y-3.755
X5.895Y-3.925
X5.895Y-3.965
X5.895Y-4.005
X5.896Y-3.455
X5.896Y-3.495
X5.896Y-3.535
X5.945Y-2.04
X5.945Y-2.08
X5.945Y-2.12
X5.945Y-2.285
X5.945Y-2.325
X5.945Y-2.365
X5.945Y-2.535
X5.945Y-2.575
X5.945Y-2.615
X5.945Y-2.74
X5.945Y-2.78
X5.945Y-2.82
X5.945Y-2.935
X5.945Y-2.975
X5.945Y-3.015
X5.98Y-1.81
X5.98Y-3.42
X5.98Y-3.46
X5.98Y-3.5
X5.98Y-3.75
X5.98Y-3.79
X5.98Y-3.83
X5.98Y-3.975
X5.98Y-4.015
X5.98Y-4.055
X5.985Y-4.455
X5.985Y-4.495
X5.985Y-4.535
X5.985Y-4.68
X5.985Y-4.72
X5.985Y-4.76
X6.015Y-1.215
X6.02Y-1.81
X6.05Y-3.1
X6.055Y-1.215
X6.06Y-1.81
X6.085Y-3.265
X6.085Y-4.36
X6.09Y-3.1
X6.095Y-1.215
X6.115Y-1.935
X6.125Y-3.265
X6.125Y-4.36
X6.13Y-3.1
X6.155Y-1.935
X6.165Y-3.265
X6.165Y-4.36
X6.17Y-4.86
X6.195Y-1.935
X6.205Y-1.305
X6.205Y-1.345
X6.205Y-1.385
X6.205Y-1.575
X6.205Y-1.615
X6.205Y-1.655
X6.21Y-4.86
X6.25Y-4.145
X6.25Y-4.86
X6.28Y-3.1
X6.29Y-4.145
X6.315Y-1.935
X6.32Y-3.1
X6.33Y-4.145
X6.345Y-1.375
X6.345Y-1.415
X6.345Y-1.455
X6.345Y-1.625
X6.345Y-1.665
X6.345Y-1.705
X6.355Y-1.935
X6.355Y-4.36
X6.36Y-3.1
X6.395Y-1.935
X6.395Y-4.36
X6.435Y-4.36
X6.435Y-4.86
X6.445Y-1.15
X6.455Y-1.8
X6.465Y-3.265
X6.475Y-4.86
X6.48Y-2.15
X6.48Y-2.19
X6.48Y-2.23
X6.48Y-2.365
X6.48Y-2.405
X6.48Y-2.445
X6.48Y-2.635
X6.48Y-2.675
X6.48Y-2.715
X6.48Y-2.9
X6.48Y-2.94
X6.48Y-2.98
X6.485Y-1.15
X6.495Y-1.8
X6.505Y-3.265
X6.515Y-4.86
X6.525Y-1.15
X6.535Y-1.8
X6.535Y-4.145
X6.545Y-3.265
X6.575Y-4.145
X6.615Y-4.145
X6.615Y-4.46
X6.615Y-4.5
X6.615Y-4.54
X6.615Y-4.675
X6.615Y-4.715
X6.615Y-4.755
X6.635Y-1.935
X6.675Y-1.935
X6.675Y-2.525
X6.685Y-1.8
X6.695Y-1.15
X6.715Y-1.935
X6.715Y-2.525
X6.715Y-2.695
X6.715Y-2.735
X6.715Y-2.775
X6.715Y-2.895
X6.715Y-2.935
X6.715Y-2.975
X6.715Y-3.095
X6.715Y-3.135
X6.715Y-3.175
X6.715Y-3.345
X6.715Y-3.385
X6.715Y-3.425
X6.715Y-3.605
X6.715Y-3.645
X6.715Y-3.685
X6.715Y-3.805
X6.715Y-3.845
X6.715Y-3.885
X6.725Y-1.8
X6.735Y-1.15
X6.755Y-2.525
X6.765Y-1.8
X6.775Y-1.15
X6.795Y-2.61
X6.835Y-2.61
X6.875Y-2.61
X6.905Y-3.525
X6.92Y-1.8
X6.925Y-1.15
X6.93Y-1.935
X6.945Y-3.525
X6.95Y-2.525
X6.96Y-1.8
X6.965Y-1.15
X6.97Y-1.935
X6.985Y-3.525
X6.99Y-2.525
X7.Y-1.8
X7.Y-2.61
X7.005Y-1.15
X7.01Y-1.935
X7.03Y-2.525
X7.04Y-2.61
X7.08Y-2.61
X7.095Y-1.385
X7.095Y-1.425
X7.095Y-1.465
X7.095Y-1.625
X7.095Y-1.665
X7.095Y-1.705
X7.21Y-2.695
X7.21Y-2.735
X7.21Y-2.775
X7.21Y-2.905
X7.21Y-2.945
X7.21Y-2.985
X7.21Y-3.125
X7.21Y-3.165
X7.21Y-3.205
X7.21Y-3.33
X7.21Y-3.37
X7.21Y-3.41
X7.22Y-2.055
X7.22Y-2.095
X7.22Y-2.135
X7.22Y-2.29
X7.22Y-2.33
X7.22Y-2.37
X7.315Y-2.36
X7.315Y-2.4
X7.315Y-2.44
X7.315Y-2.615
X7.315Y-2.655
X7.315Y-2.695
X7.315Y-2.915
X7.315Y-2.955
X7.315Y-2.995
X7.315Y-3.195
X7.315Y-3.235
X7.315Y-3.275
X7.315Y-3.48
X7.315Y-3.52
X7.315Y-3.56
X7.315Y-3.855
X7.315Y-3.895
X7.315Y-3.935
X7.315Y-4.135
X7.315Y-4.175
X7.315Y-4.215
X7.44Y-4.35
X7.455Y-2.245
X7.48Y-4.35
X7.495Y-2.245
X7.52Y-4.35
X7.535Y-2.245
X7.73Y-4.35
X7.74Y-2.245
X7.77Y-4.35
X7.78Y-2.245
X7.81Y-4.35
X7.82Y-2.245
X7.945Y-2.39
X7.945Y-2.43
X7.945Y-2.47
X7.945Y-2.705
X7.945Y-2.745
X7.945Y-2.785
X7.945Y-3.18
X7.945Y-3.22
X7.945Y-3.26
X7.945Y-3.615
X7.945Y-3.655
X7.945Y-3.695
X7.945Y-3.9
X7.945Y-3.94
X7.945Y-3.98
X7.945Y-4.185
X7.945Y-4.225
X7.945Y-4.265
X8.1Y-2.655
X8.1Y-2.695
X8.1Y-2.735
X8.145Y-3.985
X8.145Y-4.025
X8.145Y-4.065
X8.145Y-4.305
X8.145Y-4.345
X8.145Y-4.385
X8.145Y-4.575
X8.145Y-4.615
X8.145Y-4.655
X8.27Y-4.8
X8.28Y-3.7
X8.31Y-4.8
X8.32Y-3.7
X8.35Y-4.8
X8.36Y-3.7
X8.545Y-4.8
X8.555Y-3.7
X8.585Y-4.8
X8.595Y-3.7
X8.625Y-4.8
X8.635Y-3.7
X8.75Y-1.915
X8.75Y-1.955
X8.75Y-1.995
X8.775Y-3.82
X8.775Y-3.86
X8.775Y-3.9
X8.775Y-4.095
X8.775Y-4.135
X8.775Y-4.175
X8.775Y-4.395
X8.775Y-4.435
X8.775Y-4.475
X8.775Y-4.595
X8.775Y-4.635
X8.775Y-4.675
T2
X5.3162Y-2.5
X5.3162Y-3.65
X5.7835Y-2.5
X5.7835Y-3.65
T0
M30
