G04 #@! TF.FileFunction,Profile,NP*
%FSLAX46Y46*%
G04 Gerber Fmt 4.6, Leading zero omitted, Abs format (unit mm)*
G04 Created by KiCad (PCBNEW 4.0.7-e2-6376~58~ubuntu16.04.1) date Wed Jan  3 00:52:27 2018*
%MOMM*%
%LPD*%
G01*
G04 APERTURE LIST*
%ADD10C,0.100000*%
%ADD11C,1.270000*%
%ADD12C,0.150000*%
G04 APERTURE END LIST*
D10*
D11*
X164592000Y-65532000D02*
X164592000Y-63500000D01*
X183134000Y-77216000D02*
X183134000Y-77978000D01*
X180213000Y-29210000D02*
X180213000Y-30353000D01*
X179324000Y-29210000D02*
X180213000Y-29210000D01*
X173482000Y-29210000D02*
X174498000Y-29210000D01*
X167132000Y-29210000D02*
X168656000Y-29210000D01*
X161163000Y-29210000D02*
X162306000Y-29210000D01*
X161163000Y-29337000D02*
X161163000Y-29210000D01*
X161163000Y-33528000D02*
X161163000Y-29337000D01*
X170561000Y-82042000D02*
X170561000Y-83566000D01*
X170561000Y-76962000D02*
X170561000Y-77216000D01*
X170561000Y-71882000D02*
X170561000Y-72136000D01*
X170561000Y-66294000D02*
X170561000Y-67056000D01*
X171196000Y-66294000D02*
X170561000Y-66294000D01*
X176022000Y-66294000D02*
X176403000Y-66294000D01*
X183134000Y-89535000D02*
X183134000Y-88011000D01*
X178816000Y-89535000D02*
X183134000Y-89535000D01*
X183134000Y-82804000D02*
X183134000Y-83185000D01*
X183134000Y-71882000D02*
X183134000Y-72390000D01*
X183134000Y-66294000D02*
X183134000Y-67056000D01*
X183007000Y-66294000D02*
X183134000Y-66294000D01*
X181229000Y-66294000D02*
X183007000Y-66294000D01*
X205740000Y-64389000D02*
X205740000Y-65786000D01*
X205740000Y-65913000D02*
X205740000Y-64389000D01*
X205740000Y-70866000D02*
X205740000Y-72644000D01*
X222250000Y-47117000D02*
X222250000Y-45339000D01*
X222250000Y-53467000D02*
X222377000Y-53467000D01*
X222250000Y-52070000D02*
X222250000Y-53467000D01*
X173990000Y-89535000D02*
X170561000Y-89535000D01*
X151892000Y-82931000D02*
X151892000Y-85471000D01*
X153162000Y-82931000D02*
X151892000Y-82931000D01*
X151892000Y-93853000D02*
X151892000Y-90297000D01*
X151892000Y-99568000D02*
X151892000Y-98679000D01*
X151892000Y-105283000D02*
X151892000Y-104394000D01*
X157353000Y-105283000D02*
X151892000Y-105283000D01*
X164592000Y-105283000D02*
X162179000Y-105283000D01*
X169418000Y-105283000D02*
X170561000Y-105283000D01*
X170561000Y-100076000D02*
X170561000Y-105283000D01*
X170561000Y-94996000D02*
X170561000Y-95250000D01*
X170561000Y-88392000D02*
X170561000Y-90170000D01*
X170561000Y-82931000D02*
X170561000Y-83566000D01*
X167640000Y-82931000D02*
X170561000Y-82931000D01*
X162814000Y-82931000D02*
X157988000Y-82931000D01*
X171958000Y-49149000D02*
X174625000Y-49149000D01*
X183388000Y-49149000D02*
X179451000Y-49149000D01*
X183388000Y-50800000D02*
X183388000Y-49149000D01*
X183388000Y-56769000D02*
X183388000Y-55626000D01*
X183388000Y-64135000D02*
X183388000Y-61595000D01*
X179959000Y-64135000D02*
X183388000Y-64135000D01*
X172974000Y-64135000D02*
X175133000Y-64135000D01*
X180213000Y-33782000D02*
X180213000Y-30353000D01*
X180213000Y-39878000D02*
X180213000Y-38608000D01*
X180213000Y-45720000D02*
X179197000Y-45720000D01*
X180213000Y-44704000D02*
X180213000Y-45720000D01*
X174371000Y-45720000D02*
X173228000Y-45720000D01*
X168402000Y-45720000D02*
X167386000Y-45720000D01*
X161163000Y-45720000D02*
X162560000Y-45720000D01*
X161163000Y-44704000D02*
X161163000Y-45720000D01*
X161163000Y-38354000D02*
X161163000Y-39878000D01*
X137160000Y-45974000D02*
X136906000Y-45974000D01*
X137160000Y-44069000D02*
X137160000Y-45974000D01*
X137160000Y-38227000D02*
X137160000Y-39243000D01*
X137160000Y-30861000D02*
X137160000Y-33401000D01*
X138430000Y-30861000D02*
X137160000Y-30861000D01*
X144526000Y-30861000D02*
X143256000Y-30861000D01*
X149352000Y-30861000D02*
X151384000Y-30861000D01*
X157607000Y-30861000D02*
X156210000Y-30861000D01*
X157607000Y-31750000D02*
X157607000Y-30861000D01*
X157607000Y-36703000D02*
X157607000Y-36576000D01*
X157607000Y-38608000D02*
X157607000Y-36703000D01*
X157607000Y-45974000D02*
X157607000Y-43434000D01*
X155321000Y-45974000D02*
X157607000Y-45974000D01*
X149733000Y-56261000D02*
X149733000Y-54737000D01*
X149733000Y-61849000D02*
X149733000Y-61087000D01*
X149733000Y-67564000D02*
X149733000Y-66675000D01*
X149733000Y-74422000D02*
X149733000Y-72390000D01*
X148971000Y-74422000D02*
X149733000Y-74422000D01*
X144145000Y-74422000D02*
X144018000Y-74422000D01*
X138176000Y-74422000D02*
X139192000Y-74422000D01*
X131953000Y-74422000D02*
X131953000Y-73152000D01*
X133350000Y-74422000D02*
X131953000Y-74422000D01*
X131953000Y-68326000D02*
X131953000Y-65659000D01*
X131953000Y-60833000D02*
X131953000Y-58166000D01*
X131953000Y-52324000D02*
X131953000Y-53340000D01*
X131953000Y-45974000D02*
X131953000Y-47498000D01*
X132080000Y-45974000D02*
X131953000Y-45974000D01*
X137160000Y-45974000D02*
X132080000Y-45974000D01*
X144018000Y-45974000D02*
X141986000Y-45974000D01*
X149733000Y-45974000D02*
X149860000Y-45974000D01*
X149733000Y-49911000D02*
X149733000Y-45974000D01*
X150495000Y-45974000D02*
X148844000Y-45974000D01*
X137541000Y-76073000D02*
X137668000Y-76073000D01*
X142875000Y-76073000D02*
X142494000Y-76073000D01*
X149733000Y-76073000D02*
X147701000Y-76073000D01*
X149733000Y-79502000D02*
X149733000Y-76073000D01*
X149733000Y-103759000D02*
X148844000Y-103759000D01*
X149733000Y-103124000D02*
X149733000Y-103759000D01*
X149733000Y-98298000D02*
X149733000Y-96774000D01*
X149733000Y-91186000D02*
X149733000Y-91948000D01*
X149733000Y-86360000D02*
X149733000Y-84328000D01*
X144018000Y-103759000D02*
X144145000Y-103759000D01*
X132207000Y-117983000D02*
X132207000Y-115570000D01*
X132207000Y-123825000D02*
X132207000Y-122809000D01*
X134239000Y-123825000D02*
X132207000Y-123825000D01*
X141605000Y-123825000D02*
X139065000Y-123825000D01*
X148209000Y-123825000D02*
X146431000Y-123825000D01*
X148209000Y-122936000D02*
X148209000Y-123825000D01*
X148209000Y-114300000D02*
X148209000Y-118110000D01*
X148209000Y-109347000D02*
X148209000Y-109474000D01*
X148209000Y-108331000D02*
X148209000Y-109347000D01*
X145542000Y-108331000D02*
X148209000Y-108331000D01*
X138303000Y-108331000D02*
X140716000Y-108331000D01*
X132207000Y-108331000D02*
X132207000Y-110744000D01*
X133477000Y-108331000D02*
X132207000Y-108331000D01*
X138176000Y-103759000D02*
X139192000Y-103759000D01*
X131953000Y-103759000D02*
X133350000Y-103759000D01*
X131953000Y-102870000D02*
X131953000Y-103759000D01*
X131953000Y-94996000D02*
X131953000Y-98044000D01*
X131953000Y-89789000D02*
X131953000Y-90170000D01*
X131953000Y-83820000D02*
X131953000Y-84963000D01*
X131953000Y-76073000D02*
X131953000Y-78994000D01*
X132842000Y-76073000D02*
X131953000Y-76073000D01*
X151130000Y-49149000D02*
X153924000Y-49149000D01*
X151003000Y-49276000D02*
X151003000Y-49149000D01*
X151003000Y-50419000D02*
X151003000Y-49276000D01*
X151003000Y-56642000D02*
X151003000Y-55245000D01*
X151003000Y-62992000D02*
X151003000Y-61468000D01*
X151003000Y-68199000D02*
X151003000Y-67818000D01*
X151003000Y-73152000D02*
X151003000Y-73025000D01*
X151003000Y-77978000D02*
X151003000Y-78613000D01*
X152273000Y-78613000D02*
X151003000Y-78613000D01*
X157099000Y-78740000D02*
X158115000Y-78740000D01*
X164592000Y-78740000D02*
X162941000Y-78740000D01*
X164592000Y-77089000D02*
X164592000Y-78740000D01*
X164592000Y-72263000D02*
X164592000Y-70358000D01*
X159004000Y-49149000D02*
X158750000Y-49149000D01*
X167132000Y-49149000D02*
X163830000Y-49149000D01*
X164592000Y-49149000D02*
X163830000Y-49149000D01*
X164592000Y-53213000D02*
X164592000Y-49149000D01*
X164592000Y-58674000D02*
X164592000Y-58039000D01*
X164592000Y-64135000D02*
X168148000Y-64135000D01*
X164592000Y-63500000D02*
X164592000Y-64135000D01*
X168021000Y-116713000D02*
X168021000Y-117348000D01*
X168021000Y-110744000D02*
X168021000Y-111887000D01*
X164846000Y-110744000D02*
X168021000Y-110744000D01*
X157988000Y-110744000D02*
X160020000Y-110744000D01*
X152019000Y-110744000D02*
X153162000Y-110744000D01*
X152019000Y-111760000D02*
X152019000Y-110744000D01*
X152019000Y-117475000D02*
X152019000Y-116586000D01*
X152019000Y-123444000D02*
X152019000Y-122301000D01*
X155321000Y-123444000D02*
X152019000Y-123444000D01*
X162052000Y-123444000D02*
X160147000Y-123444000D01*
X168021000Y-123444000D02*
X166878000Y-123444000D01*
X168021000Y-122174000D02*
X168021000Y-123444000D01*
X192405000Y-110490000D02*
X194945000Y-110490000D01*
X185801000Y-110490000D02*
X187579000Y-110490000D01*
X185801000Y-108458000D02*
X185801000Y-110490000D01*
X185801000Y-101346000D02*
X185801000Y-103632000D01*
X185801000Y-91821000D02*
X185801000Y-96520000D01*
X185801000Y-84582000D02*
X185801000Y-86995000D01*
X185801000Y-77470000D02*
X185801000Y-79756000D01*
X185801000Y-69850000D02*
X185801000Y-72644000D01*
X185801000Y-63373000D02*
X185801000Y-65024000D01*
X185801000Y-57023000D02*
X185801000Y-58547000D01*
X187960000Y-57023000D02*
X185801000Y-57023000D01*
X195199000Y-57023000D02*
X192786000Y-57023000D01*
X201803000Y-57023000D02*
X200025000Y-57023000D01*
X201803000Y-59309000D02*
X201803000Y-57023000D01*
X201803000Y-67310000D02*
X201803000Y-64135000D01*
X201803000Y-79375000D02*
X201803000Y-72136000D01*
X201803000Y-90424000D02*
X201803000Y-84201000D01*
X201803000Y-97663000D02*
X201803000Y-95250000D01*
X201803000Y-104902000D02*
X201803000Y-102489000D01*
X201803000Y-110490000D02*
X201803000Y-109728000D01*
X199771000Y-110490000D02*
X201803000Y-110490000D01*
X213741000Y-93980000D02*
X215900000Y-93980000D01*
X206883000Y-93980000D02*
X208915000Y-93980000D01*
X206883000Y-99822000D02*
X206883000Y-93980000D01*
X206883000Y-107950000D02*
X206883000Y-104648000D01*
X206883000Y-114808000D02*
X206883000Y-112776000D01*
X206883000Y-121920000D02*
X206883000Y-119634000D01*
X208661000Y-121920000D02*
X206883000Y-121920000D01*
X215646000Y-121920000D02*
X213487000Y-121920000D01*
X222885000Y-121920000D02*
X220472000Y-121920000D01*
X222885000Y-120142000D02*
X222885000Y-121920000D01*
X222885000Y-115062000D02*
X222885000Y-115316000D01*
X222885000Y-93980000D02*
X220726000Y-93980000D01*
X222885000Y-95631000D02*
X222885000Y-93980000D01*
X222885000Y-100330000D02*
X222885000Y-102616000D01*
X222885000Y-110236000D02*
X222885000Y-107315000D01*
X222885000Y-107315000D02*
X222885000Y-110236000D01*
X222250000Y-28575000D02*
X222250000Y-29210000D01*
X220345000Y-28575000D02*
X222250000Y-28575000D01*
X215265000Y-28575000D02*
X218440000Y-28575000D01*
X210185000Y-28575000D02*
X213360000Y-28575000D01*
X205740000Y-28575000D02*
X208280000Y-28575000D01*
X205740000Y-29210000D02*
X205740000Y-28575000D01*
X205740000Y-30480000D02*
X205740000Y-29210000D01*
X205740000Y-34925000D02*
X205740000Y-32385000D01*
X205740000Y-41275000D02*
X205740000Y-36830000D01*
X205740000Y-46990000D02*
X205740000Y-43180000D01*
X205740000Y-53340000D02*
X205740000Y-48895000D01*
X205740000Y-58420000D02*
X205740000Y-55245000D01*
X205740000Y-64770000D02*
X205740000Y-60325000D01*
X205740000Y-76200000D02*
X205740000Y-72390000D01*
X205740000Y-81280000D02*
X205740000Y-78105000D01*
X205740000Y-84455000D02*
X205740000Y-83185000D01*
X205740000Y-84455000D02*
X205740000Y-85090000D01*
X205740000Y-85090000D02*
X205740000Y-85725000D01*
X205740000Y-90170000D02*
X205740000Y-87630000D01*
X206375000Y-90170000D02*
X205740000Y-90170000D01*
X208915000Y-90170000D02*
X206375000Y-90170000D01*
X213360000Y-90170000D02*
X210820000Y-90170000D01*
X218440000Y-90170000D02*
X215265000Y-90170000D01*
X222250000Y-90170000D02*
X220345000Y-90170000D01*
X222250000Y-89535000D02*
X222250000Y-90170000D01*
X222250000Y-85090000D02*
X222250000Y-89535000D01*
X222250000Y-79375000D02*
X222250000Y-83185000D01*
X222250000Y-73660000D02*
X222250000Y-77470000D01*
X222250000Y-68580000D02*
X222250000Y-71755000D01*
X222250000Y-63500000D02*
X222250000Y-66675000D01*
X222250000Y-58420000D02*
X222250000Y-61595000D01*
X222250000Y-53340000D02*
X222250000Y-56515000D01*
X222250000Y-34290000D02*
X222250000Y-33655000D01*
X222250000Y-40640000D02*
X222250000Y-40005000D01*
X222250000Y-40640000D02*
X222250000Y-45720000D01*
X222250000Y-34290000D02*
X222250000Y-38100000D01*
X222250000Y-29210000D02*
X222250000Y-31750000D01*
D12*
X127000000Y-127000000D02*
X127000000Y-27305000D01*
X226695000Y-127000000D02*
X127000000Y-127000000D01*
X226695000Y-27305000D02*
X226695000Y-127000000D01*
X127000000Y-27305000D02*
X226695000Y-27305000D01*
M02*
