M48
INCH,TZ
T1C0.020
T2C0.028
T3C0.032
T4C0.035
%
G90
G05
T1
X5.2958Y-4.5801
X5.3495Y-4.5174
X5.3633Y-4.5589
X5.3656Y-4.6104
X5.4Y-3.2
X5.5Y-1.55
X5.5106Y-4.7275
X5.5291Y-4.6487
X5.5337Y-4.6913
X5.6236Y-1.4141
X5.6749Y-4.7275
X5.7054Y-4.52
X5.727Y-1.423
X5.7352Y-4.613
X5.8Y-1.3742
X5.8825Y-1.5457
X5.9726Y-1.4075
X5.9834Y-1.371
X6.059Y-2.5119
X6.131Y-4.7027
X6.133Y-2.4006
X6.1348Y-2.612
X6.1387Y-4.4183
X6.1742Y-2.7961
X6.1971Y-2.2583
X6.2029Y-2.4543
X6.2029Y-2.5543
X6.2652Y-2.8425
X6.2844Y-2.2556
X6.2844Y-2.913
X6.2864Y-4.7562
X6.2875Y-4.5519
X6.3132Y-4.66
X6.3133Y-4.4855
X6.4584Y-4.7185
X6.4662Y-4.5184
X6.5843Y-1.4019
X6.6274Y-1.373
X6.7226Y-1.2461
X6.7714Y-1.2425
X6.844Y-2.925
X6.8529Y-1.4529
X6.8529Y-1.55
X6.8573Y-1.378
X6.9526Y-2.7728
X6.9526Y-3.2115
X6.9595Y-3.0712
X6.9842Y-2.8671
X6.9842Y-2.975
X7.0204Y-3.1278
X7.0293Y-3.307
X7.46Y-4.
X7.46Y-4.2
X7.4704Y-3.3077
X7.4771Y-3.792
X7.4791Y-2.5083
X7.4791Y-2.7917
X7.4791Y-2.9083
X7.4791Y-3.1917
X7.4791Y-3.5917
X7.4795Y-2.3922
X7.5329Y-3.2919
X7.5329Y-3.6919
X7.54Y-4.1
X7.54Y-4.3
X7.6245Y-3.05
X7.6246Y-2.4634
X7.6246Y-2.8668
X7.6249Y-3.45
X7.625Y-3.8512
X7.6259Y-2.6481
X7.6423Y-3.563
X7.6427Y-3.3281
X7.6428Y-3.7353
X7.6433Y-4.1393
X7.6434Y-2.35
X7.6434Y-3.9652
X7.6436Y-2.7629
X7.6436Y-3.1678
X7.6437Y-2.5466
X7.6438Y-2.95
X7.7829Y-2.4923
X7.7829Y-2.6077
X7.7829Y-2.8923
X7.7829Y-3.0077
X7.7829Y-3.2923
X7.7829Y-3.4085
X7.7829Y-3.892
X7.7829Y-4.2921
X7.8008Y-3.6919
X7.8008Y-4.0081
X8.28Y-1.28
X8.28Y-1.48
X8.28Y-1.68
X8.28Y-1.88
X8.28Y-2.08
X8.28Y-2.28
X8.28Y-2.48
X8.28Y-2.68
X8.28Y-2.88
X8.28Y-3.08
X8.28Y-3.28
X8.28Y-3.48
X8.28Y-3.84
X8.28Y-4.24
X8.28Y-4.44
X8.28Y-4.64
X8.3Y-4.04
X8.32Y-1.38
X8.32Y-1.58
X8.32Y-1.78
X8.32Y-1.98
X8.32Y-2.18
X8.32Y-2.38
X8.32Y-2.58
X8.32Y-2.78
X8.32Y-2.98
X8.32Y-3.18
X8.32Y-3.38
X8.36Y-3.94
X8.36Y-4.74
X8.3647Y-4.14
X8.3647Y-4.34
X8.3647Y-4.54
X8.52Y-1.78
X8.52Y-1.98
X8.52Y-2.18
X8.52Y-2.38
X8.52Y-2.58
X8.52Y-2.78
X8.52Y-2.98
X8.52Y-3.18
X8.52Y-3.38
X8.5253Y-1.58
X8.54Y-1.38
X8.5553Y-3.84
X8.5553Y-4.04
X8.56Y-4.24
X8.56Y-4.44
X8.56Y-4.64
X8.6Y-1.28
X8.6Y-1.48
X8.6Y-1.68
X8.6Y-1.88
X8.6Y-2.08
X8.6Y-2.28
X8.6Y-2.48
X8.6Y-2.68
X8.6Y-2.88
X8.6Y-3.08
X8.6Y-3.28
X8.6Y-3.48
X8.64Y-3.94
X8.64Y-4.14
X8.64Y-4.34
X8.64Y-4.54
X8.64Y-4.74
T2
X5.5481Y-1.3859
X6.0519Y-1.3859
X6.4481Y-1.3859
X6.9519Y-1.3859
T3
X6.08Y-3.85
X6.22Y-4.03
X6.27Y-3.93
X6.32Y-4.03
X6.37Y-3.93
X6.42Y-4.03
X6.47Y-3.93
X6.58Y-2.23
X6.61Y-3.85
X6.72Y-2.15
X6.77Y-2.05
X6.82Y-2.15
X6.87Y-2.05
X6.92Y-2.15
X6.97Y-2.05
X7.11Y-2.23
T4
X5.375Y-2.85
X5.375Y-4.
X5.425Y-2.75
X5.425Y-3.9
X5.475Y-2.85
X5.475Y-4.
X5.525Y-2.75
X5.525Y-3.9
X5.575Y-2.85
X5.575Y-4.
X5.625Y-2.75
X5.625Y-3.9
X5.675Y-2.85
X5.675Y-4.
X5.725Y-2.75
X5.725Y-3.9
T0
M30
