G04 #@! TF.FileFunction,Copper,L2,Bot,Signal*
%FSLAX46Y46*%
G04 Gerber Fmt 4.6, Leading zero omitted, Abs format (unit mm)*
G04 Created by KiCad (PCBNEW 4.0.7-e2-6376~58~ubuntu16.04.1) date Sat Jan 13 09:58:48 2018*
%MOMM*%
%LPD*%
G01*
G04 APERTURE LIST*
%ADD10C,0.100000*%
%ADD11R,2.510000X1.000000*%
%ADD12C,0.850000*%
%ADD13C,0.250000*%
G04 APERTURE END LIST*
D10*
D11*
X165870000Y-92075000D03*
X165870000Y-97155000D03*
X165870000Y-102235000D03*
X165870000Y-107315000D03*
X165870000Y-112395000D03*
X165870000Y-117475000D03*
X162560000Y-89535000D03*
X162560000Y-94615000D03*
X162560000Y-99695000D03*
X162560000Y-104775000D03*
X162560000Y-109855000D03*
X162560000Y-114935000D03*
X162560000Y-120015000D03*
X158250000Y-92075000D03*
X158250000Y-97155000D03*
X158250000Y-102235000D03*
X158250000Y-107315000D03*
X158250000Y-112395000D03*
X158250000Y-117475000D03*
X154940000Y-89535000D03*
X154940000Y-94615000D03*
X154940000Y-99695000D03*
X154940000Y-104775000D03*
X154940000Y-109855000D03*
X154940000Y-114935000D03*
X154940000Y-120015000D03*
D12*
X164980300Y-93225900D03*
X164980300Y-96004100D03*
X164980300Y-101084100D03*
X164980300Y-108465900D03*
X164980300Y-113545900D03*
X164980300Y-116324100D03*
X161329700Y-88398300D03*
X163634000Y-93487300D03*
X161329700Y-100822500D03*
X161329700Y-105905200D03*
X161329700Y-108727500D03*
X163634000Y-116062700D03*
X161329700Y-121151700D03*
X156520300Y-88405700D03*
X159940300Y-93168100D03*
X156289700Y-95766000D03*
X159940300Y-96092500D03*
X156289700Y-100846000D03*
X159940300Y-101172500D03*
X156255000Y-103648100D03*
X159940300Y-108377400D03*
X156289700Y-108704000D03*
X159940300Y-113483800D03*
X156289700Y-116086000D03*
X159940300Y-116412500D03*
X159940300Y-121157200D03*
D13*
X165870000Y-92075000D02*
X164289700Y-92075000D01*
X164724600Y-93225900D02*
X164980300Y-93225900D01*
X164289700Y-92791000D02*
X164724600Y-93225900D01*
X164289700Y-92075000D02*
X164289700Y-92791000D01*
X165870000Y-97155000D02*
X164289700Y-97155000D01*
X164724600Y-96004100D02*
X164980300Y-96004100D01*
X164289700Y-96439000D02*
X164724600Y-96004100D01*
X164289700Y-97155000D02*
X164289700Y-96439000D01*
X165870000Y-102235000D02*
X164289700Y-102235000D01*
X164724600Y-101084100D02*
X164980300Y-101084100D01*
X164289700Y-101519000D02*
X164724600Y-101084100D01*
X164289700Y-102235000D02*
X164289700Y-101519000D01*
X165870000Y-107315000D02*
X164289700Y-107315000D01*
X164724600Y-108465900D02*
X164980300Y-108465900D01*
X164289700Y-108031000D02*
X164724600Y-108465900D01*
X164289700Y-107315000D02*
X164289700Y-108031000D01*
X165870000Y-112395000D02*
X164289700Y-112395000D01*
X164724600Y-113545900D02*
X164980300Y-113545900D01*
X164289700Y-113111000D02*
X164724600Y-113545900D01*
X164289700Y-112395000D02*
X164289700Y-113111000D01*
X165870000Y-117475000D02*
X164289700Y-117475000D01*
X164724600Y-116324100D02*
X164980300Y-116324100D01*
X164289700Y-116759000D02*
X164724600Y-116324100D01*
X164289700Y-117475000D02*
X164289700Y-116759000D01*
X160979700Y-88748300D02*
X161329700Y-88398300D01*
X160979700Y-89535000D02*
X160979700Y-88748300D01*
X162560000Y-89535000D02*
X160979700Y-89535000D01*
X162560000Y-94615000D02*
X164140300Y-94615000D01*
X163736800Y-93487300D02*
X163634000Y-93487300D01*
X164140300Y-93890800D02*
X163736800Y-93487300D01*
X164140300Y-94615000D02*
X164140300Y-93890800D01*
X160979700Y-100472500D02*
X161329700Y-100822500D01*
X160979700Y-99695000D02*
X160979700Y-100472500D01*
X162560000Y-99695000D02*
X160979700Y-99695000D01*
X160979700Y-105555200D02*
X161329700Y-105905200D01*
X160979700Y-104775000D02*
X160979700Y-105555200D01*
X162560000Y-104775000D02*
X160979700Y-104775000D01*
X160979700Y-109077500D02*
X161329700Y-108727500D01*
X160979700Y-109855000D02*
X160979700Y-109077500D01*
X162560000Y-109855000D02*
X160979700Y-109855000D01*
X162560000Y-114935000D02*
X164140300Y-114935000D01*
X163736800Y-116062700D02*
X163634000Y-116062700D01*
X164140300Y-115659200D02*
X163736800Y-116062700D01*
X164140300Y-114935000D02*
X164140300Y-115659200D01*
X160979700Y-120801700D02*
X161329700Y-121151700D01*
X160979700Y-120015000D02*
X160979700Y-120801700D01*
X162560000Y-120015000D02*
X160979700Y-120015000D01*
X154940000Y-89535000D02*
X156520300Y-89535000D01*
X156520300Y-88405700D02*
X156520300Y-89535000D01*
X158250000Y-92075000D02*
X159830300Y-92075000D01*
X159830300Y-93058100D02*
X159940300Y-93168100D01*
X159830300Y-92075000D02*
X159830300Y-93058100D01*
X154940000Y-94615000D02*
X156520300Y-94615000D01*
X156520300Y-95535400D02*
X156289700Y-95766000D01*
X156520300Y-94615000D02*
X156520300Y-95535400D01*
X158250000Y-97155000D02*
X159830300Y-97155000D01*
X159830300Y-96202500D02*
X159940300Y-96092500D01*
X159830300Y-97155000D02*
X159830300Y-96202500D01*
X154940000Y-99695000D02*
X156520300Y-99695000D01*
X156520300Y-100615400D02*
X156289700Y-100846000D01*
X156520300Y-99695000D02*
X156520300Y-100615400D01*
X158250000Y-102235000D02*
X159830300Y-102235000D01*
X159830300Y-101282500D02*
X159940300Y-101172500D01*
X159830300Y-102235000D02*
X159830300Y-101282500D01*
X156520300Y-103913400D02*
X156255000Y-103648100D01*
X156520300Y-104775000D02*
X156520300Y-103913400D01*
X154940000Y-104775000D02*
X156520300Y-104775000D01*
X158250000Y-107315000D02*
X159830300Y-107315000D01*
X159830300Y-108267400D02*
X159940300Y-108377400D01*
X159830300Y-107315000D02*
X159830300Y-108267400D01*
X154940000Y-109855000D02*
X156520300Y-109855000D01*
X156520300Y-108934600D02*
X156289700Y-108704000D01*
X156520300Y-109855000D02*
X156520300Y-108934600D01*
X158250000Y-112395000D02*
X159830300Y-112395000D01*
X159830300Y-113373800D02*
X159940300Y-113483800D01*
X159830300Y-112395000D02*
X159830300Y-113373800D01*
X154940000Y-114935000D02*
X156520300Y-114935000D01*
X156520300Y-115855400D02*
X156289700Y-116086000D01*
X156520300Y-114935000D02*
X156520300Y-115855400D01*
X158250000Y-117475000D02*
X159830300Y-117475000D01*
X159830300Y-116522500D02*
X159940300Y-116412500D01*
X159830300Y-117475000D02*
X159830300Y-116522500D01*
X154940000Y-120015000D02*
X156520300Y-120015000D01*
X157662500Y-121157200D02*
X159940300Y-121157200D01*
X156520300Y-120015000D02*
X157662500Y-121157200D01*
M02*
