G04 #@! TF.FileFunction,Copper,L2,Bot,Signal*
%FSLAX46Y46*%
G04 Gerber Fmt 4.6, Leading zero omitted, Abs format (unit mm)*
G04 Created by KiCad (PCBNEW 4.0.7-e2-6376~58~ubuntu16.04.1) date Sat Jan 13 09:54:03 2018*
%MOMM*%
%LPD*%
G01*
G04 APERTURE LIST*
%ADD10C,0.100000*%
%ADD11R,1.000000X2.510000*%
%ADD12O,1.270000X2.540000*%
%ADD13C,0.850000*%
%ADD14C,0.250000*%
G04 APERTURE END LIST*
D10*
D11*
X143510000Y-99310000D03*
X148590000Y-99310000D03*
X153670000Y-99310000D03*
X140970000Y-102620000D03*
X146050000Y-102620000D03*
X151130000Y-102620000D03*
X156210000Y-102620000D03*
D12*
X142102740Y-95755860D03*
X154899260Y-95755860D03*
D13*
X145887400Y-95481600D03*
X148526600Y-95504700D03*
X151368000Y-95514900D03*
X144548700Y-95525200D03*
X147231000Y-95483200D03*
X149771000Y-95483500D03*
X152612400Y-95480800D03*
D14*
X143639300Y-97729700D02*
X145887400Y-95481600D01*
X143510000Y-97729700D02*
X143639300Y-97729700D01*
X143510000Y-99310000D02*
X143510000Y-97729700D01*
X148590000Y-95568100D02*
X148526600Y-95504700D01*
X148590000Y-99310000D02*
X148590000Y-95568100D01*
X153582800Y-97729700D02*
X151368000Y-95514900D01*
X153670000Y-97729700D02*
X153582800Y-97729700D01*
X153670000Y-99310000D02*
X153670000Y-97729700D01*
X140970000Y-99103900D02*
X140970000Y-102620000D01*
X144548700Y-95525200D02*
X140970000Y-99103900D01*
X147231000Y-99858700D02*
X147231000Y-95483200D01*
X146050000Y-101039700D02*
X147231000Y-99858700D01*
X146050000Y-102620000D02*
X146050000Y-101039700D01*
X149771000Y-99680700D02*
X149771000Y-95483500D01*
X151130000Y-101039700D02*
X149771000Y-99680700D01*
X151130000Y-102620000D02*
X151130000Y-101039700D01*
X156210000Y-99078400D02*
X152612400Y-95480800D01*
X156210000Y-102620000D02*
X156210000Y-99078400D01*
M02*
