G04 #@! TF.FileFunction,Legend,Top*
%FSLAX46Y46*%
G04 Gerber Fmt 4.6, Leading zero omitted, Abs format (unit mm)*
G04 Created by KiCad (PCBNEW 4.0.7-e2-6376~58~ubuntu16.04.1) date Sat Jan 13 09:41:55 2018*
%MOMM*%
%LPD*%
G01*
G04 APERTURE LIST*
%ADD10C,0.100000*%
%ADD11C,0.120000*%
%ADD12C,0.150000*%
G04 APERTURE END LIST*
D10*
D11*
X133396000Y-100033000D02*
X137516000Y-100033000D01*
X133396000Y-110153000D02*
X137516000Y-110153000D01*
X132141000Y-100333000D02*
X133396000Y-100333000D01*
X133396000Y-100033000D02*
X133396000Y-100333000D01*
X137516000Y-100033000D02*
X137516000Y-100333000D01*
X133396000Y-109853000D02*
X133396000Y-110153000D01*
X137516000Y-109853000D02*
X137516000Y-110153000D01*
X133396000Y-101853000D02*
X133396000Y-102333000D01*
X137516000Y-101853000D02*
X137516000Y-102333000D01*
X133396000Y-103853000D02*
X133396000Y-104333000D01*
X137516000Y-103853000D02*
X137516000Y-104333000D01*
X133396000Y-105853000D02*
X133396000Y-106333000D01*
X137516000Y-105853000D02*
X137516000Y-106333000D01*
X133396000Y-107853000D02*
X133396000Y-108333000D01*
X137516000Y-107853000D02*
X137516000Y-108333000D01*
D12*
X135122667Y-98485381D02*
X135122667Y-99199667D01*
X135075047Y-99342524D01*
X134979809Y-99437762D01*
X134836952Y-99485381D01*
X134741714Y-99485381D01*
X135551238Y-98580619D02*
X135598857Y-98533000D01*
X135694095Y-98485381D01*
X135932191Y-98485381D01*
X136027429Y-98533000D01*
X136075048Y-98580619D01*
X136122667Y-98675857D01*
X136122667Y-98771095D01*
X136075048Y-98913952D01*
X135503619Y-99485381D01*
X136122667Y-99485381D01*
M02*
