M48
INCH,TZ
T1C0.016
%
G90
G05
T1
X61518Y-40806
X61531Y-37703
X61531Y-39703
X61531Y-42797
X61531Y-45703
X61622Y-34805
X62969Y-36680
X62969Y-37832
X62969Y-39832
X62969Y-42668
X62969Y-44679
X62969Y-45832
X62969Y-47700
X63516Y-34802
X63516Y-39694
X63516Y-41695
X63516Y-42806
X63516Y-47698
X64423Y-36806
X64423Y-45694
X64953Y-36703
X64953Y-37797
X64953Y-39797
X64953Y-42703
X64953Y-44703
X64953Y-45797
T0
M30
