G04 #@! TF.FileFunction,Legend,Bot*
%FSLAX46Y46*%
G04 Gerber Fmt 4.6, Leading zero omitted, Abs format (unit mm)*
G04 Created by KiCad (PCBNEW 4.0.7-e2-6376~58~ubuntu16.04.1) date Sat Jan 13 09:58:48 2018*
%MOMM*%
%LPD*%
G01*
G04 APERTURE LIST*
%ADD10C,0.100000*%
%ADD11C,0.120000*%
%ADD12C,0.150000*%
G04 APERTURE END LIST*
D10*
D11*
X165545000Y-88205000D02*
X162885000Y-88205000D01*
X165545000Y-121345000D02*
X162885000Y-121345000D01*
X162885000Y-90295000D02*
X162885000Y-93855000D01*
X162885000Y-95375000D02*
X162885000Y-98935000D01*
X162885000Y-100455000D02*
X162885000Y-104015000D01*
X162885000Y-105535000D02*
X162885000Y-109095000D01*
X162885000Y-110615000D02*
X162885000Y-114175000D01*
X162885000Y-115695000D02*
X162885000Y-119255000D01*
X165545000Y-88205000D02*
X165545000Y-91315000D01*
X162885000Y-88775000D02*
X161365000Y-88775000D01*
X162885000Y-88205000D02*
X162885000Y-88775000D01*
X165545000Y-120775000D02*
X165545000Y-121345000D01*
X165545000Y-92835000D02*
X165545000Y-96395000D01*
X165545000Y-97915000D02*
X165545000Y-101475000D01*
X165545000Y-102995000D02*
X165545000Y-106555000D01*
X165545000Y-108075000D02*
X165545000Y-111635000D01*
X165545000Y-113155000D02*
X165545000Y-116715000D01*
X165545000Y-118235000D02*
X165545000Y-121345000D01*
X157925000Y-88205000D02*
X155265000Y-88205000D01*
X157925000Y-121345000D02*
X155265000Y-121345000D01*
X155265000Y-90295000D02*
X155265000Y-93855000D01*
X155265000Y-95375000D02*
X155265000Y-98935000D01*
X155265000Y-100455000D02*
X155265000Y-104015000D01*
X155265000Y-105535000D02*
X155265000Y-109095000D01*
X155265000Y-110615000D02*
X155265000Y-114175000D01*
X155265000Y-115695000D02*
X155265000Y-119255000D01*
X157925000Y-88205000D02*
X157925000Y-91315000D01*
X155265000Y-88775000D02*
X153745000Y-88775000D01*
X155265000Y-88205000D02*
X155265000Y-88775000D01*
X157925000Y-120775000D02*
X157925000Y-121345000D01*
X157925000Y-92835000D02*
X157925000Y-96395000D01*
X157925000Y-97915000D02*
X157925000Y-101475000D01*
X157925000Y-102995000D02*
X157925000Y-106555000D01*
X157925000Y-108075000D02*
X157925000Y-111635000D01*
X157925000Y-113155000D02*
X157925000Y-116715000D01*
X157925000Y-118235000D02*
X157925000Y-121345000D01*
D12*
X164548333Y-86657381D02*
X164548333Y-87371667D01*
X164595953Y-87514524D01*
X164691191Y-87609762D01*
X164834048Y-87657381D01*
X164929286Y-87657381D01*
X163548333Y-87657381D02*
X164119762Y-87657381D01*
X163834048Y-87657381D02*
X163834048Y-86657381D01*
X163929286Y-86800238D01*
X164024524Y-86895476D01*
X164119762Y-86943095D01*
X156928333Y-86657381D02*
X156928333Y-87371667D01*
X156975953Y-87514524D01*
X157071191Y-87609762D01*
X157214048Y-87657381D01*
X157309286Y-87657381D01*
X156547381Y-86657381D02*
X155928333Y-86657381D01*
X156261667Y-87038333D01*
X156118809Y-87038333D01*
X156023571Y-87085952D01*
X155975952Y-87133571D01*
X155928333Y-87228810D01*
X155928333Y-87466905D01*
X155975952Y-87562143D01*
X156023571Y-87609762D01*
X156118809Y-87657381D01*
X156404524Y-87657381D01*
X156499762Y-87609762D01*
X156547381Y-87562143D01*
M02*
