G04 #@! TF.GenerationSoftware,KiCad,Pcbnew,5.1.4-e60b266~84~ubuntu18.04.1*
G04 #@! TF.CreationDate,2019-11-10T17:45:18-05:00*
G04 #@! TF.ProjectId,Ultrasonic_4pin_to_3pin_2.54,556c7472-6173-46f6-9e69-635f3470696e,rev?*
G04 #@! TF.SameCoordinates,Original*
G04 #@! TF.FileFunction,Legend,Bot*
G04 #@! TF.FilePolarity,Positive*
%FSLAX46Y46*%
G04 Gerber Fmt 4.6, Leading zero omitted, Abs format (unit mm)*
G04 Created by KiCad (PCBNEW 5.1.4-e60b266~84~ubuntu18.04.1) date 2019-11-10 17:45:18*
%MOMM*%
%LPD*%
G04 APERTURE LIST*
%ADD10C,0.120000*%
%ADD11C,0.150000*%
G04 APERTURE END LIST*
D10*
X65405000Y-36830000D02*
X64135000Y-36830000D01*
X65405000Y-38100000D02*
X65405000Y-36830000D01*
X63092071Y-43560000D02*
X62695000Y-43560000D01*
X63092071Y-42800000D02*
X62695000Y-42800000D01*
X54035000Y-43560000D02*
X60035000Y-43560000D01*
X54035000Y-42800000D02*
X54035000Y-43560000D01*
X60035000Y-42800000D02*
X54035000Y-42800000D01*
X62695000Y-41910000D02*
X60035000Y-41910000D01*
X63092071Y-41020000D02*
X62695000Y-41020000D01*
X63092071Y-40260000D02*
X62695000Y-40260000D01*
X54035000Y-41020000D02*
X60035000Y-41020000D01*
X54035000Y-40260000D02*
X54035000Y-41020000D01*
X60035000Y-40260000D02*
X54035000Y-40260000D01*
X62695000Y-39370000D02*
X60035000Y-39370000D01*
X63025000Y-38480000D02*
X62695000Y-38480000D01*
X63025000Y-37720000D02*
X62695000Y-37720000D01*
X60035000Y-38380000D02*
X54035000Y-38380000D01*
X60035000Y-38260000D02*
X54035000Y-38260000D01*
X60035000Y-38140000D02*
X54035000Y-38140000D01*
X60035000Y-38020000D02*
X54035000Y-38020000D01*
X60035000Y-37900000D02*
X54035000Y-37900000D01*
X60035000Y-37780000D02*
X54035000Y-37780000D01*
X54035000Y-38480000D02*
X60035000Y-38480000D01*
X54035000Y-37720000D02*
X54035000Y-38480000D01*
X60035000Y-37720000D02*
X54035000Y-37720000D01*
X60035000Y-36770000D02*
X62695000Y-36770000D01*
X60035000Y-44510000D02*
X60035000Y-36770000D01*
X62695000Y-44510000D02*
X60035000Y-44510000D01*
X62695000Y-36770000D02*
X62695000Y-44510000D01*
D11*
X60083333Y-35282380D02*
X60083333Y-35996666D01*
X60130952Y-36139523D01*
X60226190Y-36234761D01*
X60369047Y-36282380D01*
X60464285Y-36282380D01*
X59654761Y-35377619D02*
X59607142Y-35330000D01*
X59511904Y-35282380D01*
X59273809Y-35282380D01*
X59178571Y-35330000D01*
X59130952Y-35377619D01*
X59083333Y-35472857D01*
X59083333Y-35568095D01*
X59130952Y-35710952D01*
X59702380Y-36282380D01*
X59083333Y-36282380D01*
X69132380Y-40473333D02*
X68656190Y-40140000D01*
X69132380Y-39901904D02*
X68132380Y-39901904D01*
X68132380Y-40282857D01*
X68180000Y-40378095D01*
X68227619Y-40425714D01*
X68322857Y-40473333D01*
X68465714Y-40473333D01*
X68560952Y-40425714D01*
X68608571Y-40378095D01*
X68656190Y-40282857D01*
X68656190Y-39901904D01*
X69132380Y-41425714D02*
X69132380Y-40854285D01*
X69132380Y-41140000D02*
X68132380Y-41140000D01*
X68275238Y-41044761D01*
X68370476Y-40949523D01*
X68418095Y-40854285D01*
M02*
