G04 #@! TF.GenerationSoftware,KiCad,Pcbnew,5.1.4-e60b266~84~ubuntu18.04.1*
G04 #@! TF.CreationDate,2019-11-10T19:20:38-05:00*
G04 #@! TF.ProjectId,Ultrasonic_4pin_to_3pin_2.54,556c7472-6173-46f6-9e69-635f3470696e,rev?*
G04 #@! TF.SameCoordinates,Original*
G04 #@! TF.FileFunction,Soldermask,Top*
G04 #@! TF.FilePolarity,Negative*
%FSLAX46Y46*%
G04 Gerber Fmt 4.6, Leading zero omitted, Abs format (unit mm)*
G04 Created by KiCad (PCBNEW 5.1.4-e60b266~84~ubuntu18.04.1) date 2019-11-10 19:20:38*
%MOMM*%
%LPD*%
G04 APERTURE LIST*
%ADD10C,0.100000*%
G04 APERTURE END LIST*
D10*
G36*
X96630442Y-60065518D02*
G01*
X96696627Y-60072037D01*
X96866466Y-60123557D01*
X97022991Y-60207222D01*
X97058729Y-60236552D01*
X97160186Y-60319814D01*
X97243448Y-60421271D01*
X97272778Y-60457009D01*
X97356443Y-60613534D01*
X97407963Y-60783373D01*
X97425359Y-60960000D01*
X97407963Y-61136627D01*
X97356443Y-61306466D01*
X97272778Y-61462991D01*
X97243448Y-61498729D01*
X97160186Y-61600186D01*
X97058729Y-61683448D01*
X97022991Y-61712778D01*
X96866466Y-61796443D01*
X96696627Y-61847963D01*
X96630443Y-61854481D01*
X96564260Y-61861000D01*
X96475740Y-61861000D01*
X96409557Y-61854481D01*
X96343373Y-61847963D01*
X96173534Y-61796443D01*
X96017009Y-61712778D01*
X95981271Y-61683448D01*
X95879814Y-61600186D01*
X95796552Y-61498729D01*
X95767222Y-61462991D01*
X95683557Y-61306466D01*
X95632037Y-61136627D01*
X95614641Y-60960000D01*
X95632037Y-60783373D01*
X95683557Y-60613534D01*
X95767222Y-60457009D01*
X95796552Y-60421271D01*
X95879814Y-60319814D01*
X95981271Y-60236552D01*
X96017009Y-60207222D01*
X96173534Y-60123557D01*
X96343373Y-60072037D01*
X96409558Y-60065518D01*
X96475740Y-60059000D01*
X96564260Y-60059000D01*
X96630442Y-60065518D01*
X96630442Y-60065518D01*
G37*
G36*
X105690527Y-57583557D02*
G01*
X105776627Y-57592037D01*
X105946466Y-57643557D01*
X106102991Y-57727222D01*
X106138729Y-57756552D01*
X106240186Y-57839814D01*
X106303537Y-57917009D01*
X106352778Y-57977009D01*
X106436443Y-58133534D01*
X106487963Y-58303373D01*
X106505359Y-58480000D01*
X106487963Y-58656627D01*
X106436443Y-58826466D01*
X106352778Y-58982991D01*
X106323448Y-59018729D01*
X106240186Y-59120186D01*
X106138729Y-59203448D01*
X106102991Y-59232778D01*
X105946466Y-59316443D01*
X105776627Y-59367963D01*
X105710442Y-59374482D01*
X105644260Y-59381000D01*
X105555740Y-59381000D01*
X105489558Y-59374482D01*
X105423373Y-59367963D01*
X105253534Y-59316443D01*
X105097009Y-59232778D01*
X105061271Y-59203448D01*
X104959814Y-59120186D01*
X104876552Y-59018729D01*
X104847222Y-58982991D01*
X104763557Y-58826466D01*
X104712037Y-58656627D01*
X104694641Y-58480000D01*
X104712037Y-58303373D01*
X104763557Y-58133534D01*
X104847222Y-57977009D01*
X104896463Y-57917009D01*
X104959814Y-57839814D01*
X105061271Y-57756552D01*
X105097009Y-57727222D01*
X105253534Y-57643557D01*
X105423373Y-57592037D01*
X105509473Y-57583557D01*
X105555740Y-57579000D01*
X105644260Y-57579000D01*
X105690527Y-57583557D01*
X105690527Y-57583557D01*
G37*
G36*
X96617096Y-57524204D02*
G01*
X96696627Y-57532037D01*
X96866466Y-57583557D01*
X96866468Y-57583558D01*
X96944729Y-57625390D01*
X97022991Y-57667222D01*
X97058729Y-57696552D01*
X97160186Y-57779814D01*
X97243448Y-57881271D01*
X97272778Y-57917009D01*
X97356443Y-58073534D01*
X97407963Y-58243373D01*
X97425359Y-58420000D01*
X97407963Y-58596627D01*
X97356443Y-58766466D01*
X97272778Y-58922991D01*
X97243448Y-58958729D01*
X97160186Y-59060186D01*
X97058729Y-59143448D01*
X97022991Y-59172778D01*
X96866466Y-59256443D01*
X96696627Y-59307963D01*
X96630442Y-59314482D01*
X96564260Y-59321000D01*
X96475740Y-59321000D01*
X96409558Y-59314482D01*
X96343373Y-59307963D01*
X96173534Y-59256443D01*
X96017009Y-59172778D01*
X95981271Y-59143448D01*
X95879814Y-59060186D01*
X95796552Y-58958729D01*
X95767222Y-58922991D01*
X95683557Y-58766466D01*
X95632037Y-58596627D01*
X95614641Y-58420000D01*
X95632037Y-58243373D01*
X95683557Y-58073534D01*
X95767222Y-57917009D01*
X95796552Y-57881271D01*
X95879814Y-57779814D01*
X95981271Y-57696552D01*
X96017009Y-57667222D01*
X96095271Y-57625390D01*
X96173532Y-57583558D01*
X96173534Y-57583557D01*
X96343373Y-57532037D01*
X96422904Y-57524204D01*
X96475740Y-57519000D01*
X96564260Y-57519000D01*
X96617096Y-57524204D01*
X96617096Y-57524204D01*
G37*
G36*
X99081938Y-56941716D02*
G01*
X99102557Y-56947971D01*
X99121553Y-56958124D01*
X99138208Y-56971792D01*
X99151876Y-56988447D01*
X99162029Y-57007443D01*
X99168284Y-57028062D01*
X99171000Y-57055640D01*
X99171000Y-57514360D01*
X99168284Y-57541938D01*
X99162029Y-57562557D01*
X99151876Y-57581553D01*
X99138208Y-57598208D01*
X99121553Y-57611876D01*
X99102557Y-57622029D01*
X99081938Y-57628284D01*
X99054360Y-57631000D01*
X98545640Y-57631000D01*
X98518062Y-57628284D01*
X98497443Y-57622029D01*
X98478447Y-57611876D01*
X98461792Y-57598208D01*
X98448124Y-57581553D01*
X98437971Y-57562557D01*
X98431716Y-57541938D01*
X98429000Y-57514360D01*
X98429000Y-57055640D01*
X98431716Y-57028062D01*
X98437971Y-57007443D01*
X98448124Y-56988447D01*
X98461792Y-56971792D01*
X98478447Y-56958124D01*
X98497443Y-56947971D01*
X98518062Y-56941716D01*
X98545640Y-56939000D01*
X99054360Y-56939000D01*
X99081938Y-56941716D01*
X99081938Y-56941716D01*
G37*
G36*
X105690527Y-55043557D02*
G01*
X105776627Y-55052037D01*
X105946466Y-55103557D01*
X106102991Y-55187222D01*
X106138729Y-55216552D01*
X106240186Y-55299814D01*
X106303537Y-55377009D01*
X106352778Y-55437009D01*
X106436443Y-55593534D01*
X106487963Y-55763373D01*
X106505359Y-55940000D01*
X106487963Y-56116627D01*
X106436443Y-56286466D01*
X106352778Y-56442991D01*
X106323448Y-56478729D01*
X106240186Y-56580186D01*
X106145763Y-56657676D01*
X106102991Y-56692778D01*
X105946466Y-56776443D01*
X105776627Y-56827963D01*
X105710443Y-56834481D01*
X105644260Y-56841000D01*
X105555740Y-56841000D01*
X105489557Y-56834481D01*
X105423373Y-56827963D01*
X105253534Y-56776443D01*
X105097009Y-56692778D01*
X105054237Y-56657676D01*
X104959814Y-56580186D01*
X104876552Y-56478729D01*
X104847222Y-56442991D01*
X104763557Y-56286466D01*
X104712037Y-56116627D01*
X104694641Y-55940000D01*
X104712037Y-55763373D01*
X104763557Y-55593534D01*
X104847222Y-55437009D01*
X104896463Y-55377009D01*
X104959814Y-55299814D01*
X105061271Y-55216552D01*
X105097009Y-55187222D01*
X105253534Y-55103557D01*
X105423373Y-55052037D01*
X105509473Y-55043557D01*
X105555740Y-55039000D01*
X105644260Y-55039000D01*
X105690527Y-55043557D01*
X105690527Y-55043557D01*
G37*
G36*
X96630443Y-54985519D02*
G01*
X96696627Y-54992037D01*
X96866466Y-55043557D01*
X97022991Y-55127222D01*
X97058729Y-55156552D01*
X97160186Y-55239814D01*
X97243448Y-55341271D01*
X97272778Y-55377009D01*
X97356443Y-55533534D01*
X97407963Y-55703373D01*
X97425359Y-55880000D01*
X97407963Y-56056627D01*
X97356443Y-56226466D01*
X97272778Y-56382991D01*
X97243448Y-56418729D01*
X97160186Y-56520186D01*
X97082288Y-56584114D01*
X97022991Y-56632778D01*
X96866466Y-56716443D01*
X96696627Y-56767963D01*
X96630443Y-56774481D01*
X96564260Y-56781000D01*
X96475740Y-56781000D01*
X96409557Y-56774481D01*
X96343373Y-56767963D01*
X96173534Y-56716443D01*
X96017009Y-56632778D01*
X95957712Y-56584114D01*
X95879814Y-56520186D01*
X95796552Y-56418729D01*
X95767222Y-56382991D01*
X95683557Y-56226466D01*
X95632037Y-56056627D01*
X95614641Y-55880000D01*
X95632037Y-55703373D01*
X95683557Y-55533534D01*
X95767222Y-55377009D01*
X95796552Y-55341271D01*
X95879814Y-55239814D01*
X95981271Y-55156552D01*
X96017009Y-55127222D01*
X96173534Y-55043557D01*
X96343373Y-54992037D01*
X96409557Y-54985519D01*
X96475740Y-54979000D01*
X96564260Y-54979000D01*
X96630443Y-54985519D01*
X96630443Y-54985519D01*
G37*
G36*
X99081938Y-55971716D02*
G01*
X99102557Y-55977971D01*
X99121553Y-55988124D01*
X99138208Y-56001792D01*
X99151876Y-56018447D01*
X99162029Y-56037443D01*
X99168284Y-56058062D01*
X99171000Y-56085640D01*
X99171000Y-56544360D01*
X99168284Y-56571938D01*
X99162029Y-56592557D01*
X99151876Y-56611553D01*
X99138208Y-56628208D01*
X99121553Y-56641876D01*
X99102557Y-56652029D01*
X99081938Y-56658284D01*
X99054360Y-56661000D01*
X98545640Y-56661000D01*
X98518062Y-56658284D01*
X98497443Y-56652029D01*
X98478447Y-56641876D01*
X98461792Y-56628208D01*
X98448124Y-56611553D01*
X98437971Y-56592557D01*
X98431716Y-56571938D01*
X98429000Y-56544360D01*
X98429000Y-56085640D01*
X98431716Y-56058062D01*
X98437971Y-56037443D01*
X98448124Y-56018447D01*
X98461792Y-56001792D01*
X98478447Y-55988124D01*
X98497443Y-55977971D01*
X98518062Y-55971716D01*
X98545640Y-55969000D01*
X99054360Y-55969000D01*
X99081938Y-55971716D01*
X99081938Y-55971716D01*
G37*
G36*
X106501000Y-54301000D02*
G01*
X104699000Y-54301000D01*
X104699000Y-52499000D01*
X106501000Y-52499000D01*
X106501000Y-54301000D01*
X106501000Y-54301000D01*
G37*
G36*
X97421000Y-54241000D02*
G01*
X95619000Y-54241000D01*
X95619000Y-52439000D01*
X97421000Y-52439000D01*
X97421000Y-54241000D01*
X97421000Y-54241000D01*
G37*
M02*
