G04 #@! TF.GenerationSoftware,KiCad,Pcbnew,5.1.4-e60b266~84~ubuntu18.04.1*
G04 #@! TF.CreationDate,2019-11-10T19:20:38-05:00*
G04 #@! TF.ProjectId,Ultrasonic_4pin_to_3pin_2.54,556c7472-6173-46f6-9e69-635f3470696e,rev?*
G04 #@! TF.SameCoordinates,Original*
G04 #@! TF.FileFunction,Legend,Bot*
G04 #@! TF.FilePolarity,Positive*
%FSLAX46Y46*%
G04 Gerber Fmt 4.6, Leading zero omitted, Abs format (unit mm)*
G04 Created by KiCad (PCBNEW 5.1.4-e60b266~84~ubuntu18.04.1) date 2019-11-10 19:20:38*
%MOMM*%
%LPD*%
G04 APERTURE LIST*
%ADD10C,0.100000*%
G04 APERTURE END LIST*
D10*
X99742857Y-52471428D02*
X99542857Y-53071428D01*
X99342857Y-52471428D01*
X98885714Y-53071428D02*
X98885714Y-52471428D01*
X98885714Y-53042857D02*
X98942857Y-53071428D01*
X99057142Y-53071428D01*
X99114285Y-53042857D01*
X99142857Y-53014285D01*
X99171428Y-52957142D01*
X99171428Y-52785714D01*
X99142857Y-52728571D01*
X99114285Y-52700000D01*
X99057142Y-52671428D01*
X98942857Y-52671428D01*
X98885714Y-52700000D01*
X98342857Y-53071428D02*
X98342857Y-52471428D01*
X98342857Y-53042857D02*
X98400000Y-53071428D01*
X98514285Y-53071428D01*
X98571428Y-53042857D01*
X98600000Y-53014285D01*
X98628571Y-52957142D01*
X98628571Y-52785714D01*
X98600000Y-52728571D01*
X98571428Y-52700000D01*
X98514285Y-52671428D01*
X98400000Y-52671428D01*
X98342857Y-52700000D01*
X100785714Y-57442857D02*
X100700000Y-57471428D01*
X100557142Y-57471428D01*
X100500000Y-57442857D01*
X100471428Y-57414285D01*
X100442857Y-57357142D01*
X100442857Y-57300000D01*
X100471428Y-57242857D01*
X100500000Y-57214285D01*
X100557142Y-57185714D01*
X100671428Y-57157142D01*
X100728571Y-57128571D01*
X100757142Y-57100000D01*
X100785714Y-57042857D01*
X100785714Y-56985714D01*
X100757142Y-56928571D01*
X100728571Y-56900000D01*
X100671428Y-56871428D01*
X100528571Y-56871428D01*
X100442857Y-56900000D01*
X100185714Y-57471428D02*
X100185714Y-57071428D01*
X100185714Y-56871428D02*
X100214285Y-56900000D01*
X100185714Y-56928571D01*
X100157142Y-56900000D01*
X100185714Y-56871428D01*
X100185714Y-56928571D01*
X99642857Y-57071428D02*
X99642857Y-57557142D01*
X99671428Y-57614285D01*
X99700000Y-57642857D01*
X99757142Y-57671428D01*
X99842857Y-57671428D01*
X99900000Y-57642857D01*
X99642857Y-57442857D02*
X99700000Y-57471428D01*
X99814285Y-57471428D01*
X99871428Y-57442857D01*
X99900000Y-57414285D01*
X99928571Y-57357142D01*
X99928571Y-57185714D01*
X99900000Y-57128571D01*
X99871428Y-57100000D01*
X99814285Y-57071428D01*
X99700000Y-57071428D01*
X99642857Y-57100000D01*
X97671428Y-54428571D02*
X97671428Y-54771428D01*
X98271428Y-54600000D02*
X97671428Y-54600000D01*
X98271428Y-54971428D02*
X97871428Y-54971428D01*
X97985714Y-54971428D02*
X97928571Y-55000000D01*
X97900000Y-55028571D01*
X97871428Y-55085714D01*
X97871428Y-55142857D01*
X98271428Y-55342857D02*
X97871428Y-55342857D01*
X97671428Y-55342857D02*
X97700000Y-55314285D01*
X97728571Y-55342857D01*
X97700000Y-55371428D01*
X97671428Y-55342857D01*
X97728571Y-55342857D01*
X97871428Y-55885714D02*
X98357142Y-55885714D01*
X98414285Y-55857142D01*
X98442857Y-55828571D01*
X98471428Y-55771428D01*
X98471428Y-55685714D01*
X98442857Y-55628571D01*
X98242857Y-55885714D02*
X98271428Y-55828571D01*
X98271428Y-55714285D01*
X98242857Y-55657142D01*
X98214285Y-55628571D01*
X98157142Y-55600000D01*
X97985714Y-55600000D01*
X97928571Y-55628571D01*
X97900000Y-55657142D01*
X97871428Y-55714285D01*
X97871428Y-55828571D01*
X97900000Y-55885714D01*
X97957142Y-57671428D02*
X97957142Y-57871428D01*
X98271428Y-57957142D02*
X98271428Y-57671428D01*
X97671428Y-57671428D01*
X97671428Y-57957142D01*
X98242857Y-58471428D02*
X98271428Y-58414285D01*
X98271428Y-58300000D01*
X98242857Y-58242857D01*
X98214285Y-58214285D01*
X98157142Y-58185714D01*
X97985714Y-58185714D01*
X97928571Y-58214285D01*
X97900000Y-58242857D01*
X97871428Y-58300000D01*
X97871428Y-58414285D01*
X97900000Y-58471428D01*
X98271428Y-58728571D02*
X97671428Y-58728571D01*
X98271428Y-58985714D02*
X97957142Y-58985714D01*
X97900000Y-58957142D01*
X97871428Y-58900000D01*
X97871428Y-58814285D01*
X97900000Y-58757142D01*
X97928571Y-58728571D01*
X98271428Y-59357142D02*
X98242857Y-59300000D01*
X98214285Y-59271428D01*
X98157142Y-59242857D01*
X97985714Y-59242857D01*
X97928571Y-59271428D01*
X97900000Y-59300000D01*
X97871428Y-59357142D01*
X97871428Y-59442857D01*
X97900000Y-59500000D01*
X97928571Y-59528571D01*
X97985714Y-59557142D01*
X98157142Y-59557142D01*
X98214285Y-59528571D01*
X98242857Y-59500000D01*
X98271428Y-59442857D01*
X98271428Y-59357142D01*
X99517142Y-61422000D02*
X99574285Y-61393428D01*
X99660000Y-61393428D01*
X99745714Y-61422000D01*
X99802857Y-61479142D01*
X99831428Y-61536285D01*
X99860000Y-61650571D01*
X99860000Y-61736285D01*
X99831428Y-61850571D01*
X99802857Y-61907714D01*
X99745714Y-61964857D01*
X99660000Y-61993428D01*
X99602857Y-61993428D01*
X99517142Y-61964857D01*
X99488571Y-61936285D01*
X99488571Y-61736285D01*
X99602857Y-61736285D01*
X99231428Y-61993428D02*
X99231428Y-61393428D01*
X98888571Y-61993428D01*
X98888571Y-61393428D01*
X98602857Y-61993428D02*
X98602857Y-61393428D01*
X98460000Y-61393428D01*
X98374285Y-61422000D01*
X98317142Y-61479142D01*
X98288571Y-61536285D01*
X98260000Y-61650571D01*
X98260000Y-61736285D01*
X98288571Y-61850571D01*
X98317142Y-61907714D01*
X98374285Y-61964857D01*
X98460000Y-61993428D01*
X98602857Y-61993428D01*
M02*
