G04 #@! TF.GenerationSoftware,KiCad,Pcbnew,5.1.4-e60b266~84~ubuntu18.04.1*
G04 #@! TF.CreationDate,2019-11-10T19:20:38-05:00*
G04 #@! TF.ProjectId,Ultrasonic_4pin_to_3pin_2.54,556c7472-6173-46f6-9e69-635f3470696e,rev?*
G04 #@! TF.SameCoordinates,Original*
G04 #@! TF.FileFunction,Paste,Top*
G04 #@! TF.FilePolarity,Positive*
%FSLAX46Y46*%
G04 Gerber Fmt 4.6, Leading zero omitted, Abs format (unit mm)*
G04 Created by KiCad (PCBNEW 5.1.4-e60b266~84~ubuntu18.04.1) date 2019-11-10 19:20:38*
%MOMM*%
%LPD*%
G04 APERTURE LIST*
%ADD10C,0.100000*%
%ADD11C,0.590000*%
G04 APERTURE END LIST*
D10*
G36*
X98986958Y-56020710D02*
G01*
X99001276Y-56022834D01*
X99015317Y-56026351D01*
X99028946Y-56031228D01*
X99042031Y-56037417D01*
X99054447Y-56044858D01*
X99066073Y-56053481D01*
X99076798Y-56063202D01*
X99086519Y-56073927D01*
X99095142Y-56085553D01*
X99102583Y-56097969D01*
X99108772Y-56111054D01*
X99113649Y-56124683D01*
X99117166Y-56138724D01*
X99119290Y-56153042D01*
X99120000Y-56167500D01*
X99120000Y-56462500D01*
X99119290Y-56476958D01*
X99117166Y-56491276D01*
X99113649Y-56505317D01*
X99108772Y-56518946D01*
X99102583Y-56532031D01*
X99095142Y-56544447D01*
X99086519Y-56556073D01*
X99076798Y-56566798D01*
X99066073Y-56576519D01*
X99054447Y-56585142D01*
X99042031Y-56592583D01*
X99028946Y-56598772D01*
X99015317Y-56603649D01*
X99001276Y-56607166D01*
X98986958Y-56609290D01*
X98972500Y-56610000D01*
X98627500Y-56610000D01*
X98613042Y-56609290D01*
X98598724Y-56607166D01*
X98584683Y-56603649D01*
X98571054Y-56598772D01*
X98557969Y-56592583D01*
X98545553Y-56585142D01*
X98533927Y-56576519D01*
X98523202Y-56566798D01*
X98513481Y-56556073D01*
X98504858Y-56544447D01*
X98497417Y-56532031D01*
X98491228Y-56518946D01*
X98486351Y-56505317D01*
X98482834Y-56491276D01*
X98480710Y-56476958D01*
X98480000Y-56462500D01*
X98480000Y-56167500D01*
X98480710Y-56153042D01*
X98482834Y-56138724D01*
X98486351Y-56124683D01*
X98491228Y-56111054D01*
X98497417Y-56097969D01*
X98504858Y-56085553D01*
X98513481Y-56073927D01*
X98523202Y-56063202D01*
X98533927Y-56053481D01*
X98545553Y-56044858D01*
X98557969Y-56037417D01*
X98571054Y-56031228D01*
X98584683Y-56026351D01*
X98598724Y-56022834D01*
X98613042Y-56020710D01*
X98627500Y-56020000D01*
X98972500Y-56020000D01*
X98986958Y-56020710D01*
X98986958Y-56020710D01*
G37*
D11*
X98800000Y-56315000D03*
D10*
G36*
X98986958Y-56990710D02*
G01*
X99001276Y-56992834D01*
X99015317Y-56996351D01*
X99028946Y-57001228D01*
X99042031Y-57007417D01*
X99054447Y-57014858D01*
X99066073Y-57023481D01*
X99076798Y-57033202D01*
X99086519Y-57043927D01*
X99095142Y-57055553D01*
X99102583Y-57067969D01*
X99108772Y-57081054D01*
X99113649Y-57094683D01*
X99117166Y-57108724D01*
X99119290Y-57123042D01*
X99120000Y-57137500D01*
X99120000Y-57432500D01*
X99119290Y-57446958D01*
X99117166Y-57461276D01*
X99113649Y-57475317D01*
X99108772Y-57488946D01*
X99102583Y-57502031D01*
X99095142Y-57514447D01*
X99086519Y-57526073D01*
X99076798Y-57536798D01*
X99066073Y-57546519D01*
X99054447Y-57555142D01*
X99042031Y-57562583D01*
X99028946Y-57568772D01*
X99015317Y-57573649D01*
X99001276Y-57577166D01*
X98986958Y-57579290D01*
X98972500Y-57580000D01*
X98627500Y-57580000D01*
X98613042Y-57579290D01*
X98598724Y-57577166D01*
X98584683Y-57573649D01*
X98571054Y-57568772D01*
X98557969Y-57562583D01*
X98545553Y-57555142D01*
X98533927Y-57546519D01*
X98523202Y-57536798D01*
X98513481Y-57526073D01*
X98504858Y-57514447D01*
X98497417Y-57502031D01*
X98491228Y-57488946D01*
X98486351Y-57475317D01*
X98482834Y-57461276D01*
X98480710Y-57446958D01*
X98480000Y-57432500D01*
X98480000Y-57137500D01*
X98480710Y-57123042D01*
X98482834Y-57108724D01*
X98486351Y-57094683D01*
X98491228Y-57081054D01*
X98497417Y-57067969D01*
X98504858Y-57055553D01*
X98513481Y-57043927D01*
X98523202Y-57033202D01*
X98533927Y-57023481D01*
X98545553Y-57014858D01*
X98557969Y-57007417D01*
X98571054Y-57001228D01*
X98584683Y-56996351D01*
X98598724Y-56992834D01*
X98613042Y-56990710D01*
X98627500Y-56990000D01*
X98972500Y-56990000D01*
X98986958Y-56990710D01*
X98986958Y-56990710D01*
G37*
D11*
X98800000Y-57285000D03*
M02*
