G04 #@! TF.GenerationSoftware,KiCad,Pcbnew,5.1.4-e60b266~84~ubuntu18.04.1*
G04 #@! TF.CreationDate,2019-11-10T17:45:18-05:00*
G04 #@! TF.ProjectId,Ultrasonic_4pin_to_3pin_2.54,556c7472-6173-46f6-9e69-635f3470696e,rev?*
G04 #@! TF.SameCoordinates,Original*
G04 #@! TF.FileFunction,Copper,L2,Bot*
G04 #@! TF.FilePolarity,Positive*
%FSLAX46Y46*%
G04 Gerber Fmt 4.6, Leading zero omitted, Abs format (unit mm)*
G04 Created by KiCad (PCBNEW 5.1.4-e60b266~84~ubuntu18.04.1) date 2019-11-10 17:45:18*
%MOMM*%
%LPD*%
G04 APERTURE LIST*
%ADD10O,1.700000X1.700000*%
%ADD11R,1.700000X1.700000*%
%ADD12C,0.100000*%
%ADD13C,0.590000*%
%ADD14C,0.500000*%
G04 APERTURE END LIST*
D10*
X64135000Y-43180000D03*
X64135000Y-40640000D03*
D11*
X64135000Y-38100000D03*
X73025000Y-37465000D03*
D10*
X73025000Y-40005000D03*
X73025000Y-42545000D03*
X73025000Y-45085000D03*
D12*
G36*
X70036958Y-39860710D02*
G01*
X70051276Y-39862834D01*
X70065317Y-39866351D01*
X70078946Y-39871228D01*
X70092031Y-39877417D01*
X70104447Y-39884858D01*
X70116073Y-39893481D01*
X70126798Y-39903202D01*
X70136519Y-39913927D01*
X70145142Y-39925553D01*
X70152583Y-39937969D01*
X70158772Y-39951054D01*
X70163649Y-39964683D01*
X70167166Y-39978724D01*
X70169290Y-39993042D01*
X70170000Y-40007500D01*
X70170000Y-40302500D01*
X70169290Y-40316958D01*
X70167166Y-40331276D01*
X70163649Y-40345317D01*
X70158772Y-40358946D01*
X70152583Y-40372031D01*
X70145142Y-40384447D01*
X70136519Y-40396073D01*
X70126798Y-40406798D01*
X70116073Y-40416519D01*
X70104447Y-40425142D01*
X70092031Y-40432583D01*
X70078946Y-40438772D01*
X70065317Y-40443649D01*
X70051276Y-40447166D01*
X70036958Y-40449290D01*
X70022500Y-40450000D01*
X69677500Y-40450000D01*
X69663042Y-40449290D01*
X69648724Y-40447166D01*
X69634683Y-40443649D01*
X69621054Y-40438772D01*
X69607969Y-40432583D01*
X69595553Y-40425142D01*
X69583927Y-40416519D01*
X69573202Y-40406798D01*
X69563481Y-40396073D01*
X69554858Y-40384447D01*
X69547417Y-40372031D01*
X69541228Y-40358946D01*
X69536351Y-40345317D01*
X69532834Y-40331276D01*
X69530710Y-40316958D01*
X69530000Y-40302500D01*
X69530000Y-40007500D01*
X69530710Y-39993042D01*
X69532834Y-39978724D01*
X69536351Y-39964683D01*
X69541228Y-39951054D01*
X69547417Y-39937969D01*
X69554858Y-39925553D01*
X69563481Y-39913927D01*
X69573202Y-39903202D01*
X69583927Y-39893481D01*
X69595553Y-39884858D01*
X69607969Y-39877417D01*
X69621054Y-39871228D01*
X69634683Y-39866351D01*
X69648724Y-39862834D01*
X69663042Y-39860710D01*
X69677500Y-39860000D01*
X70022500Y-39860000D01*
X70036958Y-39860710D01*
X70036958Y-39860710D01*
G37*
D13*
X69850000Y-40155000D03*
D12*
G36*
X70036958Y-40830710D02*
G01*
X70051276Y-40832834D01*
X70065317Y-40836351D01*
X70078946Y-40841228D01*
X70092031Y-40847417D01*
X70104447Y-40854858D01*
X70116073Y-40863481D01*
X70126798Y-40873202D01*
X70136519Y-40883927D01*
X70145142Y-40895553D01*
X70152583Y-40907969D01*
X70158772Y-40921054D01*
X70163649Y-40934683D01*
X70167166Y-40948724D01*
X70169290Y-40963042D01*
X70170000Y-40977500D01*
X70170000Y-41272500D01*
X70169290Y-41286958D01*
X70167166Y-41301276D01*
X70163649Y-41315317D01*
X70158772Y-41328946D01*
X70152583Y-41342031D01*
X70145142Y-41354447D01*
X70136519Y-41366073D01*
X70126798Y-41376798D01*
X70116073Y-41386519D01*
X70104447Y-41395142D01*
X70092031Y-41402583D01*
X70078946Y-41408772D01*
X70065317Y-41413649D01*
X70051276Y-41417166D01*
X70036958Y-41419290D01*
X70022500Y-41420000D01*
X69677500Y-41420000D01*
X69663042Y-41419290D01*
X69648724Y-41417166D01*
X69634683Y-41413649D01*
X69621054Y-41408772D01*
X69607969Y-41402583D01*
X69595553Y-41395142D01*
X69583927Y-41386519D01*
X69573202Y-41376798D01*
X69563481Y-41366073D01*
X69554858Y-41354447D01*
X69547417Y-41342031D01*
X69541228Y-41328946D01*
X69536351Y-41315317D01*
X69532834Y-41301276D01*
X69530710Y-41286958D01*
X69530000Y-41272500D01*
X69530000Y-40977500D01*
X69530710Y-40963042D01*
X69532834Y-40948724D01*
X69536351Y-40934683D01*
X69541228Y-40921054D01*
X69547417Y-40907969D01*
X69554858Y-40895553D01*
X69563481Y-40883927D01*
X69573202Y-40873202D01*
X69583927Y-40863481D01*
X69595553Y-40854858D01*
X69607969Y-40847417D01*
X69621054Y-40841228D01*
X69634683Y-40836351D01*
X69648724Y-40832834D01*
X69663042Y-40830710D01*
X69677500Y-40830000D01*
X70022500Y-40830000D01*
X70036958Y-40830710D01*
X70036958Y-40830710D01*
G37*
D13*
X69850000Y-41125000D03*
D14*
X64770000Y-37465000D02*
X64135000Y-38100000D01*
X73025000Y-37465000D02*
X64770000Y-37465000D01*
X70000000Y-40005000D02*
X69850000Y-40155000D01*
X73025000Y-40005000D02*
X70000000Y-40005000D01*
X64620000Y-40155000D02*
X64135000Y-40640000D01*
X69850000Y-40155000D02*
X64620000Y-40155000D01*
X71270000Y-42545000D02*
X69850000Y-41125000D01*
X73025000Y-42545000D02*
X71270000Y-42545000D01*
X66040000Y-45085000D02*
X64135000Y-43180000D01*
X73025000Y-45085000D02*
X66040000Y-45085000D01*
M02*
