G04 #@! TF.FileFunction,Legend,Bot*
%FSLAX46Y46*%
G04 Gerber Fmt 4.6, Leading zero omitted, Abs format (unit mm)*
G04 Created by KiCad (PCBNEW 4.0.7-e2-6376~58~ubuntu16.04.1) date Sat Jan 13 09:50:08 2018*
%MOMM*%
%LPD*%
G01*
G04 APERTURE LIST*
%ADD10C,0.100000*%
%ADD11C,0.120000*%
%ADD12C,0.150000*%
G04 APERTURE END LIST*
D10*
D11*
X142815000Y-115760000D02*
X142815000Y-118420000D01*
X163255000Y-115760000D02*
X163255000Y-118420000D01*
X144905000Y-118420000D02*
X148465000Y-118420000D01*
X149985000Y-118420000D02*
X153545000Y-118420000D01*
X155065000Y-118420000D02*
X158625000Y-118420000D01*
X160145000Y-118420000D02*
X163255000Y-118420000D01*
X142815000Y-115760000D02*
X145925000Y-115760000D01*
X143385000Y-118420000D02*
X143385000Y-119940000D01*
X142815000Y-118420000D02*
X143385000Y-118420000D01*
X162685000Y-115760000D02*
X163255000Y-115760000D01*
X147445000Y-115760000D02*
X151005000Y-115760000D01*
X152525000Y-115760000D02*
X156085000Y-115760000D01*
X157605000Y-115760000D02*
X161165000Y-115760000D01*
D12*
X141267381Y-116756667D02*
X141981667Y-116756667D01*
X142124524Y-116709047D01*
X142219762Y-116613809D01*
X142267381Y-116470952D01*
X142267381Y-116375714D01*
X141362619Y-117185238D02*
X141315000Y-117232857D01*
X141267381Y-117328095D01*
X141267381Y-117566191D01*
X141315000Y-117661429D01*
X141362619Y-117709048D01*
X141457857Y-117756667D01*
X141553095Y-117756667D01*
X141695952Y-117709048D01*
X142267381Y-117137619D01*
X142267381Y-117756667D01*
M02*
