M48
INCH,TZ
T1C0.018
%
G90
G05
T1
X52623Y-46551
X52639Y-38553
X52647Y-40551
X52648Y-44555
X52659Y-41781
X52659Y-49781
X52659Y-33766
X52659Y-35750
X52660Y-45750
X52661Y-31766
X52662Y-37716
X52742Y-48177
X52946Y-33199
X52984Y-35203
X52984Y-37203
X52984Y-43203
X52984Y-51203
X54219Y-30300
X54219Y-39332
X54219Y-43324
X54219Y-47323
X54219Y-51324
X54219Y-53199
X54610Y-32550
X54610Y-34550
X54610Y-38553
X54610Y-42555
X54610Y-46553
X54610Y-50550
X54634Y-30463
X54634Y-44555
X54646Y-36512
X54766Y-53447
X54968Y-40297
X54968Y-48297
X55757Y-38250
X55757Y-40250
X55757Y-46250
X55757Y-48250
X56016Y-33254
X56016Y-35250
X56016Y-43250
X56016Y-51250
X57245Y-31765
X57245Y-42178
X57245Y-50000
T0
M30
