G04 #@! TF.FileFunction,Copper,L1,Top,Signal*
%FSLAX46Y46*%
G04 Gerber Fmt 4.6, Leading zero omitted, Abs format (unit mm)*
G04 Created by KiCad (PCBNEW 4.0.7-e2-6376~58~ubuntu16.04.1) date Sat Jan 13 09:47:37 2018*
%MOMM*%
%LPD*%
G01*
G04 APERTURE LIST*
%ADD10C,0.100000*%
%ADD11R,3.000000X1.000000*%
%ADD12C,0.850000*%
%ADD13C,0.250000*%
G04 APERTURE END LIST*
D10*
D11*
X140930000Y-78105000D03*
X135890000Y-78105000D03*
X140930000Y-80645000D03*
X135890000Y-80645000D03*
X140930000Y-83185000D03*
X135890000Y-83185000D03*
X140930000Y-85725000D03*
X135890000Y-85725000D03*
X140930000Y-88265000D03*
X135890000Y-88265000D03*
X140930000Y-90805000D03*
X135890000Y-90805000D03*
X140930000Y-93345000D03*
X135890000Y-93345000D03*
X140930000Y-95885000D03*
X135890000Y-95885000D03*
X140930000Y-98425000D03*
X135890000Y-98425000D03*
X140930000Y-100965000D03*
X135890000Y-100965000D03*
X140930000Y-103505000D03*
X135890000Y-103505000D03*
X140930000Y-106045000D03*
X135890000Y-106045000D03*
X140930000Y-108585000D03*
X135890000Y-108585000D03*
X140930000Y-111125000D03*
X135890000Y-111125000D03*
X140930000Y-113665000D03*
X135890000Y-113665000D03*
X140930000Y-116205000D03*
X135890000Y-116205000D03*
X140930000Y-118745000D03*
X135890000Y-118745000D03*
X140930000Y-121285000D03*
X135890000Y-121285000D03*
X140930000Y-123825000D03*
X135890000Y-123825000D03*
X140930000Y-126365000D03*
X135890000Y-126365000D03*
X140930000Y-128905000D03*
X135890000Y-128905000D03*
X140930000Y-131445000D03*
X135890000Y-131445000D03*
X140930000Y-133985000D03*
X135890000Y-133985000D03*
D12*
X145402500Y-80682100D03*
X142280700Y-84464400D03*
X142280700Y-89535000D03*
X141622600Y-97155000D03*
X141622600Y-102235000D03*
X145402500Y-107132500D03*
X142280700Y-109855000D03*
X141622600Y-117475000D03*
X141622600Y-122555000D03*
X145402500Y-127000000D03*
X142280700Y-130175000D03*
X138771300Y-77375000D03*
X138710600Y-82675900D03*
X138710600Y-87755900D03*
X138799600Y-92739900D03*
X138710600Y-97925500D03*
X139617500Y-102355300D03*
X138710600Y-108088700D03*
X138771300Y-113170900D03*
X138710600Y-118245500D03*
X139617500Y-122675300D03*
X138710600Y-128395900D03*
X139104700Y-135754300D03*
X137715300Y-76962800D03*
X133758700Y-80684700D03*
X134482600Y-84325100D03*
X133754200Y-85764700D03*
X134580600Y-89416000D03*
X133754300Y-90805000D03*
X134580600Y-94496000D03*
X133761300Y-95798700D03*
X133703900Y-97924900D03*
X137715300Y-99904200D03*
X133722500Y-103000500D03*
X133754100Y-106124400D03*
X134580600Y-109736000D03*
X137715300Y-110043000D03*
X133727100Y-113170900D03*
X133756600Y-116205000D03*
X133661700Y-118240100D03*
X137715300Y-120201200D03*
X133964400Y-122370600D03*
X133754100Y-126444400D03*
X134580600Y-130056000D03*
X137715300Y-130363000D03*
X137715300Y-135124900D03*
D13*
X145365400Y-80645000D02*
X145402500Y-80682100D01*
X140930000Y-80645000D02*
X145365400Y-80645000D01*
X142755300Y-84939000D02*
X142280700Y-84464400D01*
X142755300Y-85725000D02*
X142755300Y-84939000D01*
X140930000Y-85725000D02*
X142755300Y-85725000D01*
X142755300Y-90009600D02*
X142280700Y-89535000D01*
X142755300Y-90805000D02*
X142755300Y-90009600D01*
X140930000Y-90805000D02*
X142755300Y-90805000D01*
X140930000Y-95885000D02*
X142755300Y-95885000D01*
X142156000Y-97155000D02*
X141622600Y-97155000D01*
X142755300Y-96555700D02*
X142156000Y-97155000D01*
X142755300Y-95885000D02*
X142755300Y-96555700D01*
X140930000Y-100965000D02*
X142755300Y-100965000D01*
X142156000Y-102235000D02*
X141622600Y-102235000D01*
X142755300Y-101635700D02*
X142156000Y-102235000D01*
X142755300Y-100965000D02*
X142755300Y-101635700D01*
X144315000Y-106045000D02*
X145402500Y-107132500D01*
X140930000Y-106045000D02*
X144315000Y-106045000D01*
X142755300Y-110329600D02*
X142280700Y-109855000D01*
X142755300Y-111125000D02*
X142755300Y-110329600D01*
X140930000Y-111125000D02*
X142755300Y-111125000D01*
X140930000Y-116205000D02*
X142755300Y-116205000D01*
X142156000Y-117475000D02*
X141622600Y-117475000D01*
X142755300Y-116875700D02*
X142156000Y-117475000D01*
X142755300Y-116205000D02*
X142755300Y-116875700D01*
X140930000Y-121285000D02*
X142755300Y-121285000D01*
X142156000Y-122555000D02*
X141622600Y-122555000D01*
X142755300Y-121955700D02*
X142156000Y-122555000D01*
X142755300Y-121285000D02*
X142755300Y-121955700D01*
X144767500Y-126365000D02*
X145402500Y-127000000D01*
X140930000Y-126365000D02*
X144767500Y-126365000D01*
X142755300Y-130649600D02*
X142280700Y-130175000D01*
X142755300Y-131445000D02*
X142755300Y-130649600D01*
X140930000Y-131445000D02*
X142755300Y-131445000D01*
X140930000Y-78105000D02*
X139104700Y-78105000D01*
X139104700Y-77708400D02*
X138771300Y-77375000D01*
X139104700Y-78105000D02*
X139104700Y-77708400D01*
X140930000Y-83185000D02*
X139104700Y-83185000D01*
X139104700Y-83070000D02*
X138710600Y-82675900D01*
X139104700Y-83185000D02*
X139104700Y-83070000D01*
X140930000Y-88265000D02*
X139104700Y-88265000D01*
X139104700Y-88150000D02*
X138710600Y-87755900D01*
X139104700Y-88265000D02*
X139104700Y-88150000D01*
X139104700Y-93045000D02*
X138799600Y-92739900D01*
X139104700Y-93345000D02*
X139104700Y-93045000D01*
X140930000Y-93345000D02*
X139104700Y-93345000D01*
X140930000Y-98425000D02*
X139104700Y-98425000D01*
X139104700Y-98319600D02*
X138710600Y-97925500D01*
X139104700Y-98425000D02*
X139104700Y-98319600D01*
X140930000Y-103505000D02*
X139104700Y-103505000D01*
X139104700Y-102868100D02*
X139617500Y-102355300D01*
X139104700Y-103505000D02*
X139104700Y-102868100D01*
X140930000Y-108585000D02*
X139104700Y-108585000D01*
X139104700Y-108482800D02*
X138710600Y-108088700D01*
X139104700Y-108585000D02*
X139104700Y-108482800D01*
X139104700Y-113504300D02*
X138771300Y-113170900D01*
X139104700Y-113665000D02*
X139104700Y-113504300D01*
X140930000Y-113665000D02*
X139104700Y-113665000D01*
X140930000Y-118745000D02*
X139104700Y-118745000D01*
X139104700Y-118639600D02*
X138710600Y-118245500D01*
X139104700Y-118745000D02*
X139104700Y-118639600D01*
X140930000Y-123825000D02*
X139104700Y-123825000D01*
X139104700Y-123188100D02*
X139617500Y-122675300D01*
X139104700Y-123825000D02*
X139104700Y-123188100D01*
X140930000Y-128905000D02*
X139104700Y-128905000D01*
X139104700Y-128790000D02*
X138710600Y-128395900D01*
X139104700Y-128905000D02*
X139104700Y-128790000D01*
X140930000Y-133985000D02*
X139104700Y-133985000D01*
X139104700Y-133985000D02*
X139104700Y-135754300D01*
X135890000Y-78105000D02*
X137715300Y-78105000D01*
X137715300Y-78105000D02*
X137715300Y-76962800D01*
X133798400Y-80645000D02*
X133758700Y-80684700D01*
X135890000Y-80645000D02*
X133798400Y-80645000D01*
X135890000Y-83185000D02*
X134064700Y-83185000D01*
X134064700Y-83907200D02*
X134482600Y-84325100D01*
X134064700Y-83185000D02*
X134064700Y-83907200D01*
X133793900Y-85725000D02*
X133754200Y-85764700D01*
X135890000Y-85725000D02*
X133793900Y-85725000D01*
X135890000Y-88265000D02*
X134064700Y-88265000D01*
X134064700Y-88900100D02*
X134580600Y-89416000D01*
X134064700Y-88265000D02*
X134064700Y-88900100D01*
X135890000Y-90805000D02*
X133754300Y-90805000D01*
X135890000Y-93345000D02*
X134064700Y-93345000D01*
X134064700Y-93980100D02*
X134580600Y-94496000D01*
X134064700Y-93345000D02*
X134064700Y-93980100D01*
X133847600Y-95885000D02*
X133761300Y-95798700D01*
X135890000Y-95885000D02*
X133847600Y-95885000D01*
X134064700Y-98285700D02*
X133703900Y-97924900D01*
X134064700Y-98425000D02*
X134064700Y-98285700D01*
X135890000Y-98425000D02*
X134064700Y-98425000D01*
X135890000Y-100965000D02*
X137715300Y-100965000D01*
X137715300Y-100965000D02*
X137715300Y-99904200D01*
X134064700Y-103342700D02*
X133722500Y-103000500D01*
X134064700Y-103505000D02*
X134064700Y-103342700D01*
X135890000Y-103505000D02*
X134064700Y-103505000D01*
X133833500Y-106045000D02*
X133754100Y-106124400D01*
X135890000Y-106045000D02*
X133833500Y-106045000D01*
X135890000Y-108585000D02*
X134064700Y-108585000D01*
X134064700Y-109220100D02*
X134580600Y-109736000D01*
X134064700Y-108585000D02*
X134064700Y-109220100D01*
X135890000Y-111125000D02*
X137715300Y-111125000D01*
X137715300Y-111125000D02*
X137715300Y-110043000D01*
X135890000Y-113665000D02*
X134064700Y-113665000D01*
X134064700Y-113508500D02*
X133727100Y-113170900D01*
X134064700Y-113665000D02*
X134064700Y-113508500D01*
X135890000Y-116205000D02*
X133756600Y-116205000D01*
X134064700Y-118643100D02*
X133661700Y-118240100D01*
X134064700Y-118745000D02*
X134064700Y-118643100D01*
X135890000Y-118745000D02*
X134064700Y-118745000D01*
X135890000Y-121285000D02*
X137715300Y-121285000D01*
X137715300Y-121285000D02*
X137715300Y-120201200D01*
X134064700Y-122470900D02*
X133964400Y-122370600D01*
X134064700Y-123825000D02*
X134064700Y-122470900D01*
X135890000Y-123825000D02*
X134064700Y-123825000D01*
X133833500Y-126365000D02*
X133754100Y-126444400D01*
X135890000Y-126365000D02*
X133833500Y-126365000D01*
X135890000Y-128905000D02*
X134064700Y-128905000D01*
X134064700Y-129540100D02*
X134580600Y-130056000D01*
X134064700Y-128905000D02*
X134064700Y-129540100D01*
X135890000Y-131445000D02*
X137715300Y-131445000D01*
X137715300Y-131445000D02*
X137715300Y-130363000D01*
X135890000Y-133985000D02*
X137715300Y-133985000D01*
X137715300Y-133985000D02*
X137715300Y-135124900D01*
M02*
