G04 #@! TF.GenerationSoftware,KiCad,Pcbnew,5.1.1-8be2ce7~80~ubuntu18.04.1*
G04 #@! TF.CreationDate,2019-05-22T19:54:17-04:00*
G04 #@! TF.ProjectId,picoblade_01x04_2.54,7069636f-626c-4616-9465-5f3031783034,rev?*
G04 #@! TF.SameCoordinates,Original*
G04 #@! TF.FileFunction,Soldermask,Top*
G04 #@! TF.FilePolarity,Negative*
%FSLAX46Y46*%
G04 Gerber Fmt 4.6, Leading zero omitted, Abs format (unit mm)*
G04 Created by KiCad (PCBNEW 5.1.1-8be2ce7~80~ubuntu18.04.1) date 2019-05-22 19:54:17*
%MOMM*%
%LPD*%
G04 APERTURE LIST*
%ADD10C,0.100000*%
G04 APERTURE END LIST*
D10*
G36*
X90835444Y-60620520D02*
G01*
X90901628Y-60627038D01*
X91071467Y-60678558D01*
X91227992Y-60762223D01*
X91263730Y-60791553D01*
X91365187Y-60874815D01*
X91448449Y-60976272D01*
X91477779Y-61012010D01*
X91561444Y-61168535D01*
X91612964Y-61338374D01*
X91630360Y-61515001D01*
X91612964Y-61691628D01*
X91561444Y-61861467D01*
X91477779Y-62017992D01*
X91448449Y-62053730D01*
X91365187Y-62155187D01*
X91263730Y-62238449D01*
X91227992Y-62267779D01*
X91071467Y-62351444D01*
X90901628Y-62402964D01*
X90835444Y-62409482D01*
X90769261Y-62416001D01*
X90680741Y-62416001D01*
X90614558Y-62409482D01*
X90548374Y-62402964D01*
X90378535Y-62351444D01*
X90222010Y-62267779D01*
X90186272Y-62238449D01*
X90084815Y-62155187D01*
X90001553Y-62053730D01*
X89972223Y-62017992D01*
X89888558Y-61861467D01*
X89837038Y-61691628D01*
X89819642Y-61515001D01*
X89837038Y-61338374D01*
X89888558Y-61168535D01*
X89972223Y-61012010D01*
X90001553Y-60976272D01*
X90084815Y-60874815D01*
X90186272Y-60791553D01*
X90222010Y-60762223D01*
X90378535Y-60678558D01*
X90548374Y-60627038D01*
X90614558Y-60620520D01*
X90680741Y-60614001D01*
X90769261Y-60614001D01*
X90835444Y-60620520D01*
X90835444Y-60620520D01*
G37*
G36*
X99398410Y-59185525D02*
G01*
X99483426Y-59211314D01*
X99561775Y-59253193D01*
X99630449Y-59309551D01*
X99686807Y-59378225D01*
X99728686Y-59456574D01*
X99754475Y-59541590D01*
X99763182Y-59630000D01*
X99754475Y-59718410D01*
X99728686Y-59803426D01*
X99686807Y-59881775D01*
X99630449Y-59950449D01*
X99561775Y-60006807D01*
X99483426Y-60048686D01*
X99398410Y-60074475D01*
X99332158Y-60081000D01*
X98787842Y-60081000D01*
X98721590Y-60074475D01*
X98636574Y-60048686D01*
X98558225Y-60006807D01*
X98489551Y-59950449D01*
X98433193Y-59881775D01*
X98391314Y-59803426D01*
X98365525Y-59718410D01*
X98356818Y-59630000D01*
X98365525Y-59541590D01*
X98391314Y-59456574D01*
X98433193Y-59378225D01*
X98489551Y-59309551D01*
X98558225Y-59253193D01*
X98636574Y-59211314D01*
X98721590Y-59185525D01*
X98787842Y-59179000D01*
X99332158Y-59179000D01*
X99398410Y-59185525D01*
X99398410Y-59185525D01*
G37*
G36*
X90835444Y-58080520D02*
G01*
X90901628Y-58087038D01*
X91071467Y-58138558D01*
X91227992Y-58222223D01*
X91263730Y-58251553D01*
X91365187Y-58334815D01*
X91448449Y-58436272D01*
X91477779Y-58472010D01*
X91561444Y-58628535D01*
X91612964Y-58798374D01*
X91630360Y-58975001D01*
X91612964Y-59151628D01*
X91561444Y-59321467D01*
X91477779Y-59477992D01*
X91448449Y-59513730D01*
X91365187Y-59615187D01*
X91263730Y-59698449D01*
X91227992Y-59727779D01*
X91071467Y-59811444D01*
X90901628Y-59862964D01*
X90835443Y-59869483D01*
X90769261Y-59876001D01*
X90680741Y-59876001D01*
X90614559Y-59869483D01*
X90548374Y-59862964D01*
X90378535Y-59811444D01*
X90222010Y-59727779D01*
X90186272Y-59698449D01*
X90084815Y-59615187D01*
X90001553Y-59513730D01*
X89972223Y-59477992D01*
X89888558Y-59321467D01*
X89837038Y-59151628D01*
X89819642Y-58975001D01*
X89837038Y-58798374D01*
X89888558Y-58628535D01*
X89972223Y-58472010D01*
X90001553Y-58436272D01*
X90084815Y-58334815D01*
X90186272Y-58251553D01*
X90222010Y-58222223D01*
X90378535Y-58138558D01*
X90548374Y-58087038D01*
X90614558Y-58080520D01*
X90680741Y-58074001D01*
X90769261Y-58074001D01*
X90835444Y-58080520D01*
X90835444Y-58080520D01*
G37*
G36*
X99398410Y-57935525D02*
G01*
X99483426Y-57961314D01*
X99561775Y-58003193D01*
X99630449Y-58059551D01*
X99686807Y-58128225D01*
X99728686Y-58206574D01*
X99754475Y-58291590D01*
X99763182Y-58380000D01*
X99754475Y-58468410D01*
X99728686Y-58553426D01*
X99686807Y-58631775D01*
X99630449Y-58700449D01*
X99561775Y-58756807D01*
X99483426Y-58798686D01*
X99398410Y-58824475D01*
X99332158Y-58831000D01*
X98787842Y-58831000D01*
X98721590Y-58824475D01*
X98636574Y-58798686D01*
X98558225Y-58756807D01*
X98489551Y-58700449D01*
X98433193Y-58631775D01*
X98391314Y-58553426D01*
X98365525Y-58468410D01*
X98356818Y-58380000D01*
X98365525Y-58291590D01*
X98391314Y-58206574D01*
X98433193Y-58128225D01*
X98489551Y-58059551D01*
X98558225Y-58003193D01*
X98636574Y-57961314D01*
X98721590Y-57935525D01*
X98787842Y-57929000D01*
X99332158Y-57929000D01*
X99398410Y-57935525D01*
X99398410Y-57935525D01*
G37*
G36*
X99398410Y-56685525D02*
G01*
X99483426Y-56711314D01*
X99561775Y-56753193D01*
X99630449Y-56809551D01*
X99686807Y-56878225D01*
X99728686Y-56956574D01*
X99754475Y-57041590D01*
X99763182Y-57130000D01*
X99754475Y-57218410D01*
X99728686Y-57303426D01*
X99686807Y-57381775D01*
X99630449Y-57450449D01*
X99561775Y-57506807D01*
X99483426Y-57548686D01*
X99398410Y-57574475D01*
X99332158Y-57581000D01*
X98787842Y-57581000D01*
X98721590Y-57574475D01*
X98636574Y-57548686D01*
X98558225Y-57506807D01*
X98489551Y-57450449D01*
X98433193Y-57381775D01*
X98391314Y-57303426D01*
X98365525Y-57218410D01*
X98356818Y-57130000D01*
X98365525Y-57041590D01*
X98391314Y-56956574D01*
X98433193Y-56878225D01*
X98489551Y-56809551D01*
X98558225Y-56753193D01*
X98636574Y-56711314D01*
X98721590Y-56685525D01*
X98787842Y-56679000D01*
X99332158Y-56679000D01*
X99398410Y-56685525D01*
X99398410Y-56685525D01*
G37*
G36*
X90835444Y-55540520D02*
G01*
X90901628Y-55547038D01*
X91071467Y-55598558D01*
X91227992Y-55682223D01*
X91263730Y-55711553D01*
X91365187Y-55794815D01*
X91448449Y-55896272D01*
X91477779Y-55932010D01*
X91561444Y-56088535D01*
X91612964Y-56258374D01*
X91630360Y-56435001D01*
X91612964Y-56611628D01*
X91561444Y-56781467D01*
X91477779Y-56937992D01*
X91462529Y-56956574D01*
X91365187Y-57075187D01*
X91263730Y-57158449D01*
X91227992Y-57187779D01*
X91071467Y-57271444D01*
X90901628Y-57322964D01*
X90835444Y-57329482D01*
X90769261Y-57336001D01*
X90680741Y-57336001D01*
X90614558Y-57329482D01*
X90548374Y-57322964D01*
X90378535Y-57271444D01*
X90222010Y-57187779D01*
X90186272Y-57158449D01*
X90084815Y-57075187D01*
X89987473Y-56956574D01*
X89972223Y-56937992D01*
X89888558Y-56781467D01*
X89837038Y-56611628D01*
X89819642Y-56435001D01*
X89837038Y-56258374D01*
X89888558Y-56088535D01*
X89972223Y-55932010D01*
X90001553Y-55896272D01*
X90084815Y-55794815D01*
X90186272Y-55711553D01*
X90222010Y-55682223D01*
X90378535Y-55598558D01*
X90548374Y-55547038D01*
X90614558Y-55540520D01*
X90680741Y-55534001D01*
X90769261Y-55534001D01*
X90835444Y-55540520D01*
X90835444Y-55540520D01*
G37*
G36*
X99629683Y-55432725D02*
G01*
X99660143Y-55441966D01*
X99688223Y-55456974D01*
X99712831Y-55477169D01*
X99733026Y-55501777D01*
X99748034Y-55529857D01*
X99757275Y-55560317D01*
X99761000Y-55598140D01*
X99761000Y-56161860D01*
X99757275Y-56199683D01*
X99748034Y-56230143D01*
X99733026Y-56258223D01*
X99712831Y-56282831D01*
X99688223Y-56303026D01*
X99660143Y-56318034D01*
X99629683Y-56327275D01*
X99591860Y-56331000D01*
X98528140Y-56331000D01*
X98490317Y-56327275D01*
X98459857Y-56318034D01*
X98431777Y-56303026D01*
X98407169Y-56282831D01*
X98386974Y-56258223D01*
X98371966Y-56230143D01*
X98362725Y-56199683D01*
X98359000Y-56161860D01*
X98359000Y-55598140D01*
X98362725Y-55560317D01*
X98371966Y-55529857D01*
X98386974Y-55501777D01*
X98407169Y-55477169D01*
X98431777Y-55456974D01*
X98459857Y-55441966D01*
X98490317Y-55432725D01*
X98528140Y-55429000D01*
X99591860Y-55429000D01*
X99629683Y-55432725D01*
X99629683Y-55432725D01*
G37*
G36*
X91626001Y-54796001D02*
G01*
X89824001Y-54796001D01*
X89824001Y-52994001D01*
X91626001Y-52994001D01*
X91626001Y-54796001D01*
X91626001Y-54796001D01*
G37*
M02*
