G04 #@! TF.GenerationSoftware,KiCad,Pcbnew,5.1.2-f72e74a~84~ubuntu18.04.1*
G04 #@! TF.CreationDate,2019-06-12T19:57:42-04:00*
G04 #@! TF.ProjectId,picoblade_01x04_2.54,7069636f-626c-4616-9465-5f3031783034,rev?*
G04 #@! TF.SameCoordinates,Original*
G04 #@! TF.FileFunction,Soldermask,Top*
G04 #@! TF.FilePolarity,Negative*
%FSLAX46Y46*%
G04 Gerber Fmt 4.6, Leading zero omitted, Abs format (unit mm)*
G04 Created by KiCad (PCBNEW 5.1.2-f72e74a~84~ubuntu18.04.1) date 2019-06-12 19:57:42*
%MOMM*%
%LPD*%
G04 APERTURE LIST*
%ADD10C,0.100000*%
G04 APERTURE END LIST*
D10*
G36*
X90835444Y-60620520D02*
G01*
X90901628Y-60627038D01*
X91071467Y-60678558D01*
X91227992Y-60762223D01*
X91263730Y-60791553D01*
X91365187Y-60874815D01*
X91448449Y-60976272D01*
X91477779Y-61012010D01*
X91561444Y-61168535D01*
X91612964Y-61338374D01*
X91630360Y-61515001D01*
X91612964Y-61691628D01*
X91561444Y-61861467D01*
X91477779Y-62017992D01*
X91448449Y-62053730D01*
X91365187Y-62155187D01*
X91263730Y-62238449D01*
X91227992Y-62267779D01*
X91071467Y-62351444D01*
X90901628Y-62402964D01*
X90835444Y-62409482D01*
X90769261Y-62416001D01*
X90680741Y-62416001D01*
X90614558Y-62409482D01*
X90548374Y-62402964D01*
X90378535Y-62351444D01*
X90222010Y-62267779D01*
X90186272Y-62238449D01*
X90084815Y-62155187D01*
X90001553Y-62053730D01*
X89972223Y-62017992D01*
X89888558Y-61861467D01*
X89837038Y-61691628D01*
X89819642Y-61515001D01*
X89837038Y-61338374D01*
X89888558Y-61168535D01*
X89972223Y-61012010D01*
X90001553Y-60976272D01*
X90084815Y-60874815D01*
X90186272Y-60791553D01*
X90222010Y-60762223D01*
X90378535Y-60678558D01*
X90548374Y-60627038D01*
X90614558Y-60620520D01*
X90680741Y-60614001D01*
X90769261Y-60614001D01*
X90835444Y-60620520D01*
X90835444Y-60620520D01*
G37*
G36*
X95588410Y-59205525D02*
G01*
X95673426Y-59231314D01*
X95751775Y-59273193D01*
X95820449Y-59329551D01*
X95876807Y-59398225D01*
X95918686Y-59476574D01*
X95944475Y-59561590D01*
X95953182Y-59650000D01*
X95944475Y-59738410D01*
X95918686Y-59823426D01*
X95876807Y-59901775D01*
X95820449Y-59970449D01*
X95751775Y-60026807D01*
X95673426Y-60068686D01*
X95588410Y-60094475D01*
X95522158Y-60101000D01*
X94977842Y-60101000D01*
X94911590Y-60094475D01*
X94826574Y-60068686D01*
X94748225Y-60026807D01*
X94679551Y-59970449D01*
X94623193Y-59901775D01*
X94581314Y-59823426D01*
X94555525Y-59738410D01*
X94546818Y-59650000D01*
X94555525Y-59561590D01*
X94581314Y-59476574D01*
X94623193Y-59398225D01*
X94679551Y-59329551D01*
X94748225Y-59273193D01*
X94826574Y-59231314D01*
X94911590Y-59205525D01*
X94977842Y-59199000D01*
X95522158Y-59199000D01*
X95588410Y-59205525D01*
X95588410Y-59205525D01*
G37*
G36*
X90825610Y-58079551D02*
G01*
X90901628Y-58087038D01*
X91071467Y-58138558D01*
X91071469Y-58138559D01*
X91149729Y-58180390D01*
X91227992Y-58222223D01*
X91263730Y-58251553D01*
X91365187Y-58334815D01*
X91418682Y-58400000D01*
X91477779Y-58472010D01*
X91561444Y-58628535D01*
X91612964Y-58798374D01*
X91630360Y-58975001D01*
X91612964Y-59151628D01*
X91561444Y-59321467D01*
X91561443Y-59321469D01*
X91520416Y-59398225D01*
X91477779Y-59477992D01*
X91448449Y-59513730D01*
X91365187Y-59615187D01*
X91263730Y-59698449D01*
X91227992Y-59727779D01*
X91071467Y-59811444D01*
X90901628Y-59862964D01*
X90835443Y-59869483D01*
X90769261Y-59876001D01*
X90680741Y-59876001D01*
X90614559Y-59869483D01*
X90548374Y-59862964D01*
X90378535Y-59811444D01*
X90222010Y-59727779D01*
X90186272Y-59698449D01*
X90084815Y-59615187D01*
X90001553Y-59513730D01*
X89972223Y-59477992D01*
X89929586Y-59398225D01*
X89888559Y-59321469D01*
X89888558Y-59321467D01*
X89837038Y-59151628D01*
X89819642Y-58975001D01*
X89837038Y-58798374D01*
X89888558Y-58628535D01*
X89972223Y-58472010D01*
X90031320Y-58400000D01*
X90084815Y-58334815D01*
X90186272Y-58251553D01*
X90222010Y-58222223D01*
X90300273Y-58180390D01*
X90378533Y-58138559D01*
X90378535Y-58138558D01*
X90548374Y-58087038D01*
X90624392Y-58079551D01*
X90680741Y-58074001D01*
X90769261Y-58074001D01*
X90825610Y-58079551D01*
X90825610Y-58079551D01*
G37*
G36*
X95588410Y-57955525D02*
G01*
X95673426Y-57981314D01*
X95751775Y-58023193D01*
X95820449Y-58079551D01*
X95876807Y-58148225D01*
X95918686Y-58226574D01*
X95944475Y-58311590D01*
X95953182Y-58400000D01*
X95944475Y-58488410D01*
X95918686Y-58573426D01*
X95876807Y-58651775D01*
X95820449Y-58720449D01*
X95751775Y-58776807D01*
X95673426Y-58818686D01*
X95588410Y-58844475D01*
X95522158Y-58851000D01*
X94977842Y-58851000D01*
X94911590Y-58844475D01*
X94826574Y-58818686D01*
X94748225Y-58776807D01*
X94679551Y-58720449D01*
X94623193Y-58651775D01*
X94581314Y-58573426D01*
X94555525Y-58488410D01*
X94546818Y-58400000D01*
X94555525Y-58311590D01*
X94581314Y-58226574D01*
X94623193Y-58148225D01*
X94679551Y-58079551D01*
X94748225Y-58023193D01*
X94826574Y-57981314D01*
X94911590Y-57955525D01*
X94977842Y-57949000D01*
X95522158Y-57949000D01*
X95588410Y-57955525D01*
X95588410Y-57955525D01*
G37*
G36*
X95588410Y-56705525D02*
G01*
X95673426Y-56731314D01*
X95751775Y-56773193D01*
X95820449Y-56829551D01*
X95876807Y-56898225D01*
X95918686Y-56976574D01*
X95944475Y-57061590D01*
X95953182Y-57150000D01*
X95944475Y-57238410D01*
X95918686Y-57323426D01*
X95876807Y-57401775D01*
X95820449Y-57470449D01*
X95751775Y-57526807D01*
X95673426Y-57568686D01*
X95588410Y-57594475D01*
X95522158Y-57601000D01*
X94977842Y-57601000D01*
X94911590Y-57594475D01*
X94826574Y-57568686D01*
X94748225Y-57526807D01*
X94679551Y-57470449D01*
X94623193Y-57401775D01*
X94581314Y-57323426D01*
X94555525Y-57238410D01*
X94546818Y-57150000D01*
X94555525Y-57061590D01*
X94581314Y-56976574D01*
X94623193Y-56898225D01*
X94679551Y-56829551D01*
X94748225Y-56773193D01*
X94826574Y-56731314D01*
X94911590Y-56705525D01*
X94977842Y-56699000D01*
X95522158Y-56699000D01*
X95588410Y-56705525D01*
X95588410Y-56705525D01*
G37*
G36*
X90835444Y-55540520D02*
G01*
X90901628Y-55547038D01*
X91071467Y-55598558D01*
X91227992Y-55682223D01*
X91263730Y-55711553D01*
X91365187Y-55794815D01*
X91448449Y-55896272D01*
X91477779Y-55932010D01*
X91561444Y-56088535D01*
X91612964Y-56258374D01*
X91630360Y-56435001D01*
X91612964Y-56611628D01*
X91561444Y-56781467D01*
X91477779Y-56937992D01*
X91448449Y-56973730D01*
X91365187Y-57075187D01*
X91274026Y-57150000D01*
X91227992Y-57187779D01*
X91071467Y-57271444D01*
X90901628Y-57322964D01*
X90835444Y-57329482D01*
X90769261Y-57336001D01*
X90680741Y-57336001D01*
X90614558Y-57329482D01*
X90548374Y-57322964D01*
X90378535Y-57271444D01*
X90222010Y-57187779D01*
X90175976Y-57150000D01*
X90084815Y-57075187D01*
X90001553Y-56973730D01*
X89972223Y-56937992D01*
X89888558Y-56781467D01*
X89837038Y-56611628D01*
X89819642Y-56435001D01*
X89837038Y-56258374D01*
X89888558Y-56088535D01*
X89972223Y-55932010D01*
X90001553Y-55896272D01*
X90084815Y-55794815D01*
X90186272Y-55711553D01*
X90222010Y-55682223D01*
X90378535Y-55598558D01*
X90548374Y-55547038D01*
X90614558Y-55540520D01*
X90680741Y-55534001D01*
X90769261Y-55534001D01*
X90835444Y-55540520D01*
X90835444Y-55540520D01*
G37*
G36*
X95819683Y-55452725D02*
G01*
X95850143Y-55461966D01*
X95878223Y-55476974D01*
X95902831Y-55497169D01*
X95923026Y-55521777D01*
X95938034Y-55549857D01*
X95947275Y-55580317D01*
X95951000Y-55618140D01*
X95951000Y-56181860D01*
X95947275Y-56219683D01*
X95938034Y-56250143D01*
X95923026Y-56278223D01*
X95902831Y-56302831D01*
X95878223Y-56323026D01*
X95850143Y-56338034D01*
X95819683Y-56347275D01*
X95781860Y-56351000D01*
X94718140Y-56351000D01*
X94680317Y-56347275D01*
X94649857Y-56338034D01*
X94621777Y-56323026D01*
X94597169Y-56302831D01*
X94576974Y-56278223D01*
X94561966Y-56250143D01*
X94552725Y-56219683D01*
X94549000Y-56181860D01*
X94549000Y-55618140D01*
X94552725Y-55580317D01*
X94561966Y-55549857D01*
X94576974Y-55521777D01*
X94597169Y-55497169D01*
X94621777Y-55476974D01*
X94649857Y-55461966D01*
X94680317Y-55452725D01*
X94718140Y-55449000D01*
X95781860Y-55449000D01*
X95819683Y-55452725D01*
X95819683Y-55452725D01*
G37*
G36*
X91626001Y-54796001D02*
G01*
X89824001Y-54796001D01*
X89824001Y-52994001D01*
X91626001Y-52994001D01*
X91626001Y-54796001D01*
X91626001Y-54796001D01*
G37*
M02*
