G04 #@! TF.GenerationSoftware,KiCad,Pcbnew,5.1.2-f72e74a~84~ubuntu18.04.1*
G04 #@! TF.CreationDate,2019-06-12T19:57:42-04:00*
G04 #@! TF.ProjectId,picoblade_01x04_2.54,7069636f-626c-4616-9465-5f3031783034,rev?*
G04 #@! TF.SameCoordinates,Original*
G04 #@! TF.FileFunction,Copper,L1,Top*
G04 #@! TF.FilePolarity,Positive*
%FSLAX46Y46*%
G04 Gerber Fmt 4.6, Leading zero omitted, Abs format (unit mm)*
G04 Created by KiCad (PCBNEW 5.1.2-f72e74a~84~ubuntu18.04.1) date 2019-06-12 19:57:42*
%MOMM*%
%LPD*%
G04 APERTURE LIST*
%ADD10C,0.100000*%
%ADD11C,0.800000*%
%ADD12O,1.300000X0.800000*%
%ADD13R,1.700000X1.700000*%
%ADD14O,1.700000X1.700000*%
%ADD15C,0.250000*%
G04 APERTURE END LIST*
D10*
G36*
X95719603Y-55500963D02*
G01*
X95739018Y-55503843D01*
X95758057Y-55508612D01*
X95776537Y-55515224D01*
X95794279Y-55523616D01*
X95811114Y-55533706D01*
X95826879Y-55545398D01*
X95841421Y-55558579D01*
X95854602Y-55573121D01*
X95866294Y-55588886D01*
X95876384Y-55605721D01*
X95884776Y-55623463D01*
X95891388Y-55641943D01*
X95896157Y-55660982D01*
X95899037Y-55680397D01*
X95900000Y-55700000D01*
X95900000Y-56100000D01*
X95899037Y-56119603D01*
X95896157Y-56139018D01*
X95891388Y-56158057D01*
X95884776Y-56176537D01*
X95876384Y-56194279D01*
X95866294Y-56211114D01*
X95854602Y-56226879D01*
X95841421Y-56241421D01*
X95826879Y-56254602D01*
X95811114Y-56266294D01*
X95794279Y-56276384D01*
X95776537Y-56284776D01*
X95758057Y-56291388D01*
X95739018Y-56296157D01*
X95719603Y-56299037D01*
X95700000Y-56300000D01*
X94800000Y-56300000D01*
X94780397Y-56299037D01*
X94760982Y-56296157D01*
X94741943Y-56291388D01*
X94723463Y-56284776D01*
X94705721Y-56276384D01*
X94688886Y-56266294D01*
X94673121Y-56254602D01*
X94658579Y-56241421D01*
X94645398Y-56226879D01*
X94633706Y-56211114D01*
X94623616Y-56194279D01*
X94615224Y-56176537D01*
X94608612Y-56158057D01*
X94603843Y-56139018D01*
X94600963Y-56119603D01*
X94600000Y-56100000D01*
X94600000Y-55700000D01*
X94600963Y-55680397D01*
X94603843Y-55660982D01*
X94608612Y-55641943D01*
X94615224Y-55623463D01*
X94623616Y-55605721D01*
X94633706Y-55588886D01*
X94645398Y-55573121D01*
X94658579Y-55558579D01*
X94673121Y-55545398D01*
X94688886Y-55533706D01*
X94705721Y-55523616D01*
X94723463Y-55515224D01*
X94741943Y-55508612D01*
X94760982Y-55503843D01*
X94780397Y-55500963D01*
X94800000Y-55500000D01*
X95700000Y-55500000D01*
X95719603Y-55500963D01*
X95719603Y-55500963D01*
G37*
D11*
X95250000Y-55900000D03*
D12*
X95250000Y-57150000D03*
X95250000Y-58400000D03*
X95250000Y-59650000D03*
D13*
X90725001Y-53895001D03*
D14*
X90725001Y-56435001D03*
X90725001Y-58975001D03*
X90725001Y-61515001D03*
D15*
X92730000Y-55900000D02*
X90725001Y-53895001D01*
X95250000Y-55900000D02*
X92730000Y-55900000D01*
X91440000Y-57150000D02*
X90725001Y-56435001D01*
X95250000Y-57150000D02*
X91440000Y-57150000D01*
X91300002Y-58400000D02*
X90725001Y-58975001D01*
X95250000Y-58400000D02*
X91300002Y-58400000D01*
X92590002Y-59650000D02*
X90725001Y-61515001D01*
X95250000Y-59650000D02*
X92590002Y-59650000D01*
M02*
