G04 #@! TF.GenerationSoftware,KiCad,Pcbnew,5.1.4-e60b266~84~ubuntu18.04.1*
G04 #@! TF.CreationDate,2019-08-15T20:26:29-04:00*
G04 #@! TF.ProjectId,picoblade_01x04_2.54,7069636f-626c-4616-9465-5f3031783034,rev?*
G04 #@! TF.SameCoordinates,Original*
G04 #@! TF.FileFunction,Soldermask,Top*
G04 #@! TF.FilePolarity,Negative*
%FSLAX46Y46*%
G04 Gerber Fmt 4.6, Leading zero omitted, Abs format (unit mm)*
G04 Created by KiCad (PCBNEW 5.1.4-e60b266~84~ubuntu18.04.1) date 2019-08-15 20:26:29*
%MOMM*%
%LPD*%
G04 APERTURE LIST*
%ADD10C,0.100000*%
G04 APERTURE END LIST*
D10*
G36*
X99071536Y-57302800D02*
G01*
X99102738Y-57312265D01*
X99131486Y-57327631D01*
X99156687Y-57348313D01*
X99177369Y-57373514D01*
X99192735Y-57402262D01*
X99202200Y-57433464D01*
X99206000Y-57472046D01*
X99206000Y-59327954D01*
X99202200Y-59366536D01*
X99192735Y-59397738D01*
X99177369Y-59426486D01*
X99156687Y-59451687D01*
X99131486Y-59472369D01*
X99102738Y-59487735D01*
X99071536Y-59497200D01*
X99032954Y-59501000D01*
X96277046Y-59501000D01*
X96238464Y-59497200D01*
X96207262Y-59487735D01*
X96178514Y-59472369D01*
X96153313Y-59451687D01*
X96132631Y-59426486D01*
X96117265Y-59397738D01*
X96107800Y-59366536D01*
X96104000Y-59327954D01*
X96104000Y-57472046D01*
X96107800Y-57433464D01*
X96117265Y-57402262D01*
X96132631Y-57373514D01*
X96153313Y-57348313D01*
X96178514Y-57327631D01*
X96207262Y-57312265D01*
X96238464Y-57302800D01*
X96277046Y-57299000D01*
X99032954Y-57299000D01*
X99071536Y-57302800D01*
X99071536Y-57302800D01*
G37*
G36*
X91626001Y-58765999D02*
G01*
X89824001Y-58765999D01*
X89824001Y-56963999D01*
X91626001Y-56963999D01*
X91626001Y-58765999D01*
X91626001Y-58765999D01*
G37*
G36*
X95474683Y-55402725D02*
G01*
X95505143Y-55411966D01*
X95533223Y-55426974D01*
X95557831Y-55447169D01*
X95578026Y-55471777D01*
X95593034Y-55499857D01*
X95602275Y-55530317D01*
X95606000Y-55568140D01*
X95606000Y-56131860D01*
X95602275Y-56169683D01*
X95593034Y-56200143D01*
X95578026Y-56228223D01*
X95557831Y-56252831D01*
X95533223Y-56273026D01*
X95505143Y-56288034D01*
X95474683Y-56297275D01*
X95436860Y-56301000D01*
X94073140Y-56301000D01*
X94035317Y-56297275D01*
X94004857Y-56288034D01*
X93976777Y-56273026D01*
X93952169Y-56252831D01*
X93931974Y-56228223D01*
X93916966Y-56200143D01*
X93907725Y-56169683D01*
X93904000Y-56131860D01*
X93904000Y-55568140D01*
X93907725Y-55530317D01*
X93916966Y-55499857D01*
X93931974Y-55471777D01*
X93952169Y-55447169D01*
X93976777Y-55426974D01*
X94004857Y-55411966D01*
X94035317Y-55402725D01*
X94073140Y-55399000D01*
X95436860Y-55399000D01*
X95474683Y-55402725D01*
X95474683Y-55402725D01*
G37*
G36*
X90835444Y-54430518D02*
G01*
X90901628Y-54437036D01*
X91071467Y-54488556D01*
X91227992Y-54572221D01*
X91263730Y-54601551D01*
X91365187Y-54684813D01*
X91448449Y-54786270D01*
X91477779Y-54822008D01*
X91561444Y-54978533D01*
X91612964Y-55148372D01*
X91630360Y-55324999D01*
X91612964Y-55501626D01*
X91561444Y-55671465D01*
X91477779Y-55827990D01*
X91448449Y-55863728D01*
X91365187Y-55965185D01*
X91263730Y-56048447D01*
X91227992Y-56077777D01*
X91071467Y-56161442D01*
X90901628Y-56212962D01*
X90835443Y-56219481D01*
X90769261Y-56225999D01*
X90680741Y-56225999D01*
X90614559Y-56219481D01*
X90548374Y-56212962D01*
X90378535Y-56161442D01*
X90222010Y-56077777D01*
X90186272Y-56048447D01*
X90084815Y-55965185D01*
X90001553Y-55863728D01*
X89972223Y-55827990D01*
X89888558Y-55671465D01*
X89837038Y-55501626D01*
X89819642Y-55324999D01*
X89837038Y-55148372D01*
X89888558Y-54978533D01*
X89972223Y-54822008D01*
X90001553Y-54786270D01*
X90084815Y-54684813D01*
X90186272Y-54601551D01*
X90222010Y-54572221D01*
X90378535Y-54488556D01*
X90548374Y-54437036D01*
X90614558Y-54430518D01*
X90680741Y-54423999D01*
X90769261Y-54423999D01*
X90835444Y-54430518D01*
X90835444Y-54430518D01*
G37*
G36*
X95474683Y-54152725D02*
G01*
X95505143Y-54161966D01*
X95533223Y-54176974D01*
X95557831Y-54197169D01*
X95578026Y-54221777D01*
X95593034Y-54249857D01*
X95602275Y-54280317D01*
X95606000Y-54318140D01*
X95606000Y-54881860D01*
X95602275Y-54919683D01*
X95593034Y-54950143D01*
X95578026Y-54978223D01*
X95557831Y-55002831D01*
X95533223Y-55023026D01*
X95505143Y-55038034D01*
X95474683Y-55047275D01*
X95436860Y-55051000D01*
X94073140Y-55051000D01*
X94035317Y-55047275D01*
X94004857Y-55038034D01*
X93976777Y-55023026D01*
X93952169Y-55002831D01*
X93931974Y-54978223D01*
X93916966Y-54950143D01*
X93907725Y-54919683D01*
X93904000Y-54881860D01*
X93904000Y-54318140D01*
X93907725Y-54280317D01*
X93916966Y-54249857D01*
X93931974Y-54221777D01*
X93952169Y-54197169D01*
X93976777Y-54176974D01*
X94004857Y-54161966D01*
X94035317Y-54152725D01*
X94073140Y-54149000D01*
X95436860Y-54149000D01*
X95474683Y-54152725D01*
X95474683Y-54152725D01*
G37*
G36*
X95474683Y-52902725D02*
G01*
X95505143Y-52911966D01*
X95533223Y-52926974D01*
X95557831Y-52947169D01*
X95578026Y-52971777D01*
X95593034Y-52999857D01*
X95602275Y-53030317D01*
X95606000Y-53068140D01*
X95606000Y-53631860D01*
X95602275Y-53669683D01*
X95593034Y-53700143D01*
X95578026Y-53728223D01*
X95557831Y-53752831D01*
X95533223Y-53773026D01*
X95505143Y-53788034D01*
X95474683Y-53797275D01*
X95436860Y-53801000D01*
X94073140Y-53801000D01*
X94035317Y-53797275D01*
X94004857Y-53788034D01*
X93976777Y-53773026D01*
X93952169Y-53752831D01*
X93931974Y-53728223D01*
X93916966Y-53700143D01*
X93907725Y-53669683D01*
X93904000Y-53631860D01*
X93904000Y-53068140D01*
X93907725Y-53030317D01*
X93916966Y-52999857D01*
X93931974Y-52971777D01*
X93952169Y-52947169D01*
X93976777Y-52926974D01*
X94004857Y-52911966D01*
X94035317Y-52902725D01*
X94073140Y-52899000D01*
X95436860Y-52899000D01*
X95474683Y-52902725D01*
X95474683Y-52902725D01*
G37*
G36*
X90835443Y-51890517D02*
G01*
X90901628Y-51897036D01*
X91071467Y-51948556D01*
X91227992Y-52032221D01*
X91263730Y-52061551D01*
X91365187Y-52144813D01*
X91448449Y-52246270D01*
X91477779Y-52282008D01*
X91561444Y-52438533D01*
X91612964Y-52608372D01*
X91630360Y-52784999D01*
X91612964Y-52961626D01*
X91561444Y-53131465D01*
X91477779Y-53287990D01*
X91448449Y-53323728D01*
X91365187Y-53425185D01*
X91263730Y-53508447D01*
X91227992Y-53537777D01*
X91071467Y-53621442D01*
X90901628Y-53672962D01*
X90835444Y-53679480D01*
X90769261Y-53685999D01*
X90680741Y-53685999D01*
X90614558Y-53679480D01*
X90548374Y-53672962D01*
X90378535Y-53621442D01*
X90222010Y-53537777D01*
X90186272Y-53508447D01*
X90084815Y-53425185D01*
X90001553Y-53323728D01*
X89972223Y-53287990D01*
X89888558Y-53131465D01*
X89837038Y-52961626D01*
X89819642Y-52784999D01*
X89837038Y-52608372D01*
X89888558Y-52438533D01*
X89972223Y-52282008D01*
X90001553Y-52246270D01*
X90084815Y-52144813D01*
X90186272Y-52061551D01*
X90222010Y-52032221D01*
X90378535Y-51948556D01*
X90548374Y-51897036D01*
X90614559Y-51890517D01*
X90680741Y-51883999D01*
X90769261Y-51883999D01*
X90835443Y-51890517D01*
X90835443Y-51890517D01*
G37*
G36*
X95474683Y-51652725D02*
G01*
X95505143Y-51661966D01*
X95533223Y-51676974D01*
X95557831Y-51697169D01*
X95578026Y-51721777D01*
X95593034Y-51749857D01*
X95602275Y-51780317D01*
X95606000Y-51818140D01*
X95606000Y-52381860D01*
X95602275Y-52419683D01*
X95593034Y-52450143D01*
X95578026Y-52478223D01*
X95557831Y-52502831D01*
X95533223Y-52523026D01*
X95505143Y-52538034D01*
X95474683Y-52547275D01*
X95436860Y-52551000D01*
X94073140Y-52551000D01*
X94035317Y-52547275D01*
X94004857Y-52538034D01*
X93976777Y-52523026D01*
X93952169Y-52502831D01*
X93931974Y-52478223D01*
X93916966Y-52450143D01*
X93907725Y-52419683D01*
X93904000Y-52381860D01*
X93904000Y-51818140D01*
X93907725Y-51780317D01*
X93916966Y-51749857D01*
X93931974Y-51721777D01*
X93952169Y-51697169D01*
X93976777Y-51676974D01*
X94004857Y-51661966D01*
X94035317Y-51652725D01*
X94073140Y-51649000D01*
X95436860Y-51649000D01*
X95474683Y-51652725D01*
X95474683Y-51652725D01*
G37*
G36*
X90835444Y-49350518D02*
G01*
X90901628Y-49357036D01*
X91071467Y-49408556D01*
X91227992Y-49492221D01*
X91263730Y-49521551D01*
X91365187Y-49604813D01*
X91448449Y-49706270D01*
X91477779Y-49742008D01*
X91561444Y-49898533D01*
X91612964Y-50068372D01*
X91630360Y-50244999D01*
X91612964Y-50421626D01*
X91561444Y-50591465D01*
X91477779Y-50747990D01*
X91448449Y-50783728D01*
X91365187Y-50885185D01*
X91263730Y-50968447D01*
X91227992Y-50997777D01*
X91071467Y-51081442D01*
X90901628Y-51132962D01*
X90835443Y-51139481D01*
X90769261Y-51145999D01*
X90680741Y-51145999D01*
X90614559Y-51139481D01*
X90548374Y-51132962D01*
X90378535Y-51081442D01*
X90222010Y-50997777D01*
X90186272Y-50968447D01*
X90084815Y-50885185D01*
X90001553Y-50783728D01*
X89972223Y-50747990D01*
X89888558Y-50591465D01*
X89837038Y-50421626D01*
X89819642Y-50244999D01*
X89837038Y-50068372D01*
X89888558Y-49898533D01*
X89972223Y-49742008D01*
X90001553Y-49706270D01*
X90084815Y-49604813D01*
X90186272Y-49521551D01*
X90222010Y-49492221D01*
X90378535Y-49408556D01*
X90548374Y-49357036D01*
X90614558Y-49350518D01*
X90680741Y-49343999D01*
X90769261Y-49343999D01*
X90835444Y-49350518D01*
X90835444Y-49350518D01*
G37*
G36*
X99071536Y-48452800D02*
G01*
X99102738Y-48462265D01*
X99131486Y-48477631D01*
X99156687Y-48498313D01*
X99177369Y-48523514D01*
X99192735Y-48552262D01*
X99202200Y-48583464D01*
X99206000Y-48622046D01*
X99206000Y-50477954D01*
X99202200Y-50516536D01*
X99192735Y-50547738D01*
X99177369Y-50576486D01*
X99156687Y-50601687D01*
X99131486Y-50622369D01*
X99102738Y-50637735D01*
X99071536Y-50647200D01*
X99032954Y-50651000D01*
X96277046Y-50651000D01*
X96238464Y-50647200D01*
X96207262Y-50637735D01*
X96178514Y-50622369D01*
X96153313Y-50601687D01*
X96132631Y-50576486D01*
X96117265Y-50547738D01*
X96107800Y-50516536D01*
X96104000Y-50477954D01*
X96104000Y-48622046D01*
X96107800Y-48583464D01*
X96117265Y-48552262D01*
X96132631Y-48523514D01*
X96153313Y-48498313D01*
X96178514Y-48477631D01*
X96207262Y-48462265D01*
X96238464Y-48452800D01*
X96277046Y-48449000D01*
X99032954Y-48449000D01*
X99071536Y-48452800D01*
X99071536Y-48452800D01*
G37*
M02*
