G04 #@! TF.GenerationSoftware,KiCad,Pcbnew,5.1.1-8be2ce7~80~ubuntu18.04.1*
G04 #@! TF.CreationDate,2019-05-22T19:54:17-04:00*
G04 #@! TF.ProjectId,picoblade_01x04_2.54,7069636f-626c-4616-9465-5f3031783034,rev?*
G04 #@! TF.SameCoordinates,Original*
G04 #@! TF.FileFunction,Copper,L2,Bot*
G04 #@! TF.FilePolarity,Positive*
%FSLAX46Y46*%
G04 Gerber Fmt 4.6, Leading zero omitted, Abs format (unit mm)*
G04 Created by KiCad (PCBNEW 5.1.1-8be2ce7~80~ubuntu18.04.1) date 2019-05-22 19:54:17*
%MOMM*%
%LPD*%
G04 APERTURE LIST*
%ADD10C,0.100000*%
%ADD11C,0.800000*%
%ADD12O,1.300000X0.800000*%
%ADD13R,1.700000X1.700000*%
%ADD14O,1.700000X1.700000*%
G04 APERTURE END LIST*
D10*
G36*
X99529603Y-55480963D02*
G01*
X99549018Y-55483843D01*
X99568057Y-55488612D01*
X99586537Y-55495224D01*
X99604279Y-55503616D01*
X99621114Y-55513706D01*
X99636879Y-55525398D01*
X99651421Y-55538579D01*
X99664602Y-55553121D01*
X99676294Y-55568886D01*
X99686384Y-55585721D01*
X99694776Y-55603463D01*
X99701388Y-55621943D01*
X99706157Y-55640982D01*
X99709037Y-55660397D01*
X99710000Y-55680000D01*
X99710000Y-56080000D01*
X99709037Y-56099603D01*
X99706157Y-56119018D01*
X99701388Y-56138057D01*
X99694776Y-56156537D01*
X99686384Y-56174279D01*
X99676294Y-56191114D01*
X99664602Y-56206879D01*
X99651421Y-56221421D01*
X99636879Y-56234602D01*
X99621114Y-56246294D01*
X99604279Y-56256384D01*
X99586537Y-56264776D01*
X99568057Y-56271388D01*
X99549018Y-56276157D01*
X99529603Y-56279037D01*
X99510000Y-56280000D01*
X98610000Y-56280000D01*
X98590397Y-56279037D01*
X98570982Y-56276157D01*
X98551943Y-56271388D01*
X98533463Y-56264776D01*
X98515721Y-56256384D01*
X98498886Y-56246294D01*
X98483121Y-56234602D01*
X98468579Y-56221421D01*
X98455398Y-56206879D01*
X98443706Y-56191114D01*
X98433616Y-56174279D01*
X98425224Y-56156537D01*
X98418612Y-56138057D01*
X98413843Y-56119018D01*
X98410963Y-56099603D01*
X98410000Y-56080000D01*
X98410000Y-55680000D01*
X98410963Y-55660397D01*
X98413843Y-55640982D01*
X98418612Y-55621943D01*
X98425224Y-55603463D01*
X98433616Y-55585721D01*
X98443706Y-55568886D01*
X98455398Y-55553121D01*
X98468579Y-55538579D01*
X98483121Y-55525398D01*
X98498886Y-55513706D01*
X98515721Y-55503616D01*
X98533463Y-55495224D01*
X98551943Y-55488612D01*
X98570982Y-55483843D01*
X98590397Y-55480963D01*
X98610000Y-55480000D01*
X99510000Y-55480000D01*
X99529603Y-55480963D01*
X99529603Y-55480963D01*
G37*
D11*
X99060000Y-55880000D03*
D12*
X99060000Y-57130000D03*
X99060000Y-58380000D03*
X99060000Y-59630000D03*
D13*
X90725001Y-53895001D03*
D14*
X90725001Y-56435001D03*
X90725001Y-58975001D03*
X90725001Y-61515001D03*
M02*
