G04 #@! TF.GenerationSoftware,KiCad,Pcbnew,5.1.4-e60b266~84~ubuntu18.04.1*
G04 #@! TF.CreationDate,2019-08-15T20:36:33-04:00*
G04 #@! TF.ProjectId,picoblade_01x04_2.54,7069636f-626c-4616-9465-5f3031783034,rev?*
G04 #@! TF.SameCoordinates,Original*
G04 #@! TF.FileFunction,Legend,Top*
G04 #@! TF.FilePolarity,Positive*
%FSLAX46Y46*%
G04 Gerber Fmt 4.6, Leading zero omitted, Abs format (unit mm)*
G04 Created by KiCad (PCBNEW 5.1.4-e60b266~84~ubuntu18.04.1) date 2019-08-15 20:36:33*
%MOMM*%
%LPD*%
G04 APERTURE LIST*
%ADD10C,0.120000*%
%ADD11C,0.150000*%
G04 APERTURE END LIST*
D10*
X92055001Y-48914999D02*
X89395001Y-48914999D01*
X92055001Y-56594999D02*
X92055001Y-48914999D01*
X89395001Y-56594999D02*
X89395001Y-48914999D01*
X92055001Y-56594999D02*
X89395001Y-56594999D01*
X92055001Y-57864999D02*
X92055001Y-59194999D01*
X92055001Y-59194999D02*
X90725001Y-59194999D01*
X95895000Y-57460000D02*
X95445000Y-57460000D01*
X95445000Y-57460000D02*
X95445000Y-56510000D01*
X95445000Y-56510000D02*
X93955000Y-56510000D01*
X95895000Y-50490000D02*
X95445000Y-50490000D01*
X95445000Y-50490000D02*
X95445000Y-51440000D01*
X99415000Y-57460000D02*
X99865000Y-57460000D01*
X99865000Y-57460000D02*
X99865000Y-50490000D01*
X99865000Y-50490000D02*
X99415000Y-50490000D01*
D11*
X90391667Y-59647379D02*
X90391667Y-60361665D01*
X90344048Y-60504522D01*
X90248810Y-60599760D01*
X90105953Y-60647379D01*
X90010715Y-60647379D01*
X90820239Y-59742618D02*
X90867858Y-59694999D01*
X90963096Y-59647379D01*
X91201191Y-59647379D01*
X91296429Y-59694999D01*
X91344048Y-59742618D01*
X91391667Y-59837856D01*
X91391667Y-59933094D01*
X91344048Y-60075951D01*
X90772620Y-60647379D01*
X91391667Y-60647379D01*
X92207380Y-54308333D02*
X92921666Y-54308333D01*
X93064523Y-54355952D01*
X93159761Y-54451190D01*
X93207380Y-54594047D01*
X93207380Y-54689285D01*
X93207380Y-53308333D02*
X93207380Y-53879761D01*
X93207380Y-53594047D02*
X92207380Y-53594047D01*
X92350238Y-53689285D01*
X92445476Y-53784523D01*
X92493095Y-53879761D01*
M02*
