G04 #@! TF.GenerationSoftware,KiCad,Pcbnew,5.1.4-e60b266~84~ubuntu18.04.1*
G04 #@! TF.CreationDate,2019-08-15T20:36:33-04:00*
G04 #@! TF.ProjectId,picoblade_01x04_2.54,7069636f-626c-4616-9465-5f3031783034,rev?*
G04 #@! TF.SameCoordinates,Original*
G04 #@! TF.FileFunction,Soldermask,Bot*
G04 #@! TF.FilePolarity,Negative*
%FSLAX46Y46*%
G04 Gerber Fmt 4.6, Leading zero omitted, Abs format (unit mm)*
G04 Created by KiCad (PCBNEW 5.1.4-e60b266~84~ubuntu18.04.1) date 2019-08-15 20:36:33*
%MOMM*%
%LPD*%
G04 APERTURE LIST*
%ADD10C,0.100000*%
G04 APERTURE END LIST*
D10*
G36*
X91626001Y-58765999D02*
G01*
X89824001Y-58765999D01*
X89824001Y-56963999D01*
X91626001Y-56963999D01*
X91626001Y-58765999D01*
X91626001Y-58765999D01*
G37*
G36*
X90835444Y-54430518D02*
G01*
X90901628Y-54437036D01*
X91071467Y-54488556D01*
X91227992Y-54572221D01*
X91263730Y-54601551D01*
X91365187Y-54684813D01*
X91448449Y-54786270D01*
X91477779Y-54822008D01*
X91561444Y-54978533D01*
X91612964Y-55148372D01*
X91630360Y-55324999D01*
X91612964Y-55501626D01*
X91561444Y-55671465D01*
X91477779Y-55827990D01*
X91448449Y-55863728D01*
X91365187Y-55965185D01*
X91263730Y-56048447D01*
X91227992Y-56077777D01*
X91071467Y-56161442D01*
X90901628Y-56212962D01*
X90835443Y-56219481D01*
X90769261Y-56225999D01*
X90680741Y-56225999D01*
X90614559Y-56219481D01*
X90548374Y-56212962D01*
X90378535Y-56161442D01*
X90222010Y-56077777D01*
X90186272Y-56048447D01*
X90084815Y-55965185D01*
X90001553Y-55863728D01*
X89972223Y-55827990D01*
X89888558Y-55671465D01*
X89837038Y-55501626D01*
X89819642Y-55324999D01*
X89837038Y-55148372D01*
X89888558Y-54978533D01*
X89972223Y-54822008D01*
X90001553Y-54786270D01*
X90084815Y-54684813D01*
X90186272Y-54601551D01*
X90222010Y-54572221D01*
X90378535Y-54488556D01*
X90548374Y-54437036D01*
X90614558Y-54430518D01*
X90680741Y-54423999D01*
X90769261Y-54423999D01*
X90835444Y-54430518D01*
X90835444Y-54430518D01*
G37*
G36*
X90835443Y-51890517D02*
G01*
X90901628Y-51897036D01*
X91071467Y-51948556D01*
X91227992Y-52032221D01*
X91263730Y-52061551D01*
X91365187Y-52144813D01*
X91448449Y-52246270D01*
X91477779Y-52282008D01*
X91561444Y-52438533D01*
X91612964Y-52608372D01*
X91630360Y-52784999D01*
X91612964Y-52961626D01*
X91561444Y-53131465D01*
X91477779Y-53287990D01*
X91448449Y-53323728D01*
X91365187Y-53425185D01*
X91263730Y-53508447D01*
X91227992Y-53537777D01*
X91071467Y-53621442D01*
X90901628Y-53672962D01*
X90835444Y-53679480D01*
X90769261Y-53685999D01*
X90680741Y-53685999D01*
X90614558Y-53679480D01*
X90548374Y-53672962D01*
X90378535Y-53621442D01*
X90222010Y-53537777D01*
X90186272Y-53508447D01*
X90084815Y-53425185D01*
X90001553Y-53323728D01*
X89972223Y-53287990D01*
X89888558Y-53131465D01*
X89837038Y-52961626D01*
X89819642Y-52784999D01*
X89837038Y-52608372D01*
X89888558Y-52438533D01*
X89972223Y-52282008D01*
X90001553Y-52246270D01*
X90084815Y-52144813D01*
X90186272Y-52061551D01*
X90222010Y-52032221D01*
X90378535Y-51948556D01*
X90548374Y-51897036D01*
X90614559Y-51890517D01*
X90680741Y-51883999D01*
X90769261Y-51883999D01*
X90835443Y-51890517D01*
X90835443Y-51890517D01*
G37*
G36*
X90835444Y-49350518D02*
G01*
X90901628Y-49357036D01*
X91071467Y-49408556D01*
X91227992Y-49492221D01*
X91263730Y-49521551D01*
X91365187Y-49604813D01*
X91448449Y-49706270D01*
X91477779Y-49742008D01*
X91561444Y-49898533D01*
X91612964Y-50068372D01*
X91630360Y-50244999D01*
X91612964Y-50421626D01*
X91561444Y-50591465D01*
X91477779Y-50747990D01*
X91448449Y-50783728D01*
X91365187Y-50885185D01*
X91263730Y-50968447D01*
X91227992Y-50997777D01*
X91071467Y-51081442D01*
X90901628Y-51132962D01*
X90835443Y-51139481D01*
X90769261Y-51145999D01*
X90680741Y-51145999D01*
X90614559Y-51139481D01*
X90548374Y-51132962D01*
X90378535Y-51081442D01*
X90222010Y-50997777D01*
X90186272Y-50968447D01*
X90084815Y-50885185D01*
X90001553Y-50783728D01*
X89972223Y-50747990D01*
X89888558Y-50591465D01*
X89837038Y-50421626D01*
X89819642Y-50244999D01*
X89837038Y-50068372D01*
X89888558Y-49898533D01*
X89972223Y-49742008D01*
X90001553Y-49706270D01*
X90084815Y-49604813D01*
X90186272Y-49521551D01*
X90222010Y-49492221D01*
X90378535Y-49408556D01*
X90548374Y-49357036D01*
X90614558Y-49350518D01*
X90680741Y-49343999D01*
X90769261Y-49343999D01*
X90835444Y-49350518D01*
X90835444Y-49350518D01*
G37*
M02*
