G04 #@! TF.GenerationSoftware,KiCad,Pcbnew,5.1.2-f72e74a~84~ubuntu18.04.1*
G04 #@! TF.CreationDate,2019-06-12T20:10:48-04:00*
G04 #@! TF.ProjectId,picoblade_01x04_2.54,7069636f-626c-4616-9465-5f3031783034,rev?*
G04 #@! TF.SameCoordinates,Original*
G04 #@! TF.FileFunction,Copper,L1,Top*
G04 #@! TF.FilePolarity,Positive*
%FSLAX46Y46*%
G04 Gerber Fmt 4.6, Leading zero omitted, Abs format (unit mm)*
G04 Created by KiCad (PCBNEW 5.1.2-f72e74a~84~ubuntu18.04.1) date 2019-06-12 20:10:48*
%MOMM*%
%LPD*%
G04 APERTURE LIST*
%ADD10C,0.100000*%
%ADD11C,0.800000*%
%ADD12O,1.300000X0.800000*%
%ADD13R,1.700000X1.700000*%
%ADD14O,1.700000X1.700000*%
%ADD15C,0.250000*%
G04 APERTURE END LIST*
D10*
G36*
X95719603Y-55460963D02*
G01*
X95739018Y-55463843D01*
X95758057Y-55468612D01*
X95776537Y-55475224D01*
X95794279Y-55483616D01*
X95811114Y-55493706D01*
X95826879Y-55505398D01*
X95841421Y-55518579D01*
X95854602Y-55533121D01*
X95866294Y-55548886D01*
X95876384Y-55565721D01*
X95884776Y-55583463D01*
X95891388Y-55601943D01*
X95896157Y-55620982D01*
X95899037Y-55640397D01*
X95900000Y-55660000D01*
X95900000Y-56060000D01*
X95899037Y-56079603D01*
X95896157Y-56099018D01*
X95891388Y-56118057D01*
X95884776Y-56136537D01*
X95876384Y-56154279D01*
X95866294Y-56171114D01*
X95854602Y-56186879D01*
X95841421Y-56201421D01*
X95826879Y-56214602D01*
X95811114Y-56226294D01*
X95794279Y-56236384D01*
X95776537Y-56244776D01*
X95758057Y-56251388D01*
X95739018Y-56256157D01*
X95719603Y-56259037D01*
X95700000Y-56260000D01*
X94800000Y-56260000D01*
X94780397Y-56259037D01*
X94760982Y-56256157D01*
X94741943Y-56251388D01*
X94723463Y-56244776D01*
X94705721Y-56236384D01*
X94688886Y-56226294D01*
X94673121Y-56214602D01*
X94658579Y-56201421D01*
X94645398Y-56186879D01*
X94633706Y-56171114D01*
X94623616Y-56154279D01*
X94615224Y-56136537D01*
X94608612Y-56118057D01*
X94603843Y-56099018D01*
X94600963Y-56079603D01*
X94600000Y-56060000D01*
X94600000Y-55660000D01*
X94600963Y-55640397D01*
X94603843Y-55620982D01*
X94608612Y-55601943D01*
X94615224Y-55583463D01*
X94623616Y-55565721D01*
X94633706Y-55548886D01*
X94645398Y-55533121D01*
X94658579Y-55518579D01*
X94673121Y-55505398D01*
X94688886Y-55493706D01*
X94705721Y-55483616D01*
X94723463Y-55475224D01*
X94741943Y-55468612D01*
X94760982Y-55463843D01*
X94780397Y-55460963D01*
X94800000Y-55460000D01*
X95700000Y-55460000D01*
X95719603Y-55460963D01*
X95719603Y-55460963D01*
G37*
D11*
X95250000Y-55860000D03*
D12*
X95250000Y-54610000D03*
X95250000Y-53360000D03*
X95250000Y-52110000D03*
D13*
X90725001Y-57864999D03*
D14*
X90725001Y-55324999D03*
X90725001Y-52784999D03*
X90725001Y-50244999D03*
D15*
X92730000Y-55860000D02*
X90725001Y-57864999D01*
X95250000Y-55860000D02*
X92730000Y-55860000D01*
X91440000Y-54610000D02*
X90725001Y-55324999D01*
X95250000Y-54610000D02*
X91440000Y-54610000D01*
X91300002Y-53360000D02*
X90725001Y-52784999D01*
X95250000Y-53360000D02*
X91300002Y-53360000D01*
X92590002Y-52110000D02*
X90725001Y-50244999D01*
X95250000Y-52110000D02*
X92590002Y-52110000D01*
M02*
