G04 #@! TF.GenerationSoftware,KiCad,Pcbnew,5.1.2-f72e74a~84~ubuntu18.04.1*
G04 #@! TF.CreationDate,2019-06-12T19:57:42-04:00*
G04 #@! TF.ProjectId,picoblade_01x04_2.54,7069636f-626c-4616-9465-5f3031783034,rev?*
G04 #@! TF.SameCoordinates,Original*
G04 #@! TF.FileFunction,Legend,Bot*
G04 #@! TF.FilePolarity,Positive*
%FSLAX46Y46*%
G04 Gerber Fmt 4.6, Leading zero omitted, Abs format (unit mm)*
G04 Created by KiCad (PCBNEW 5.1.2-f72e74a~84~ubuntu18.04.1) date 2019-06-12 19:57:42*
%MOMM*%
%LPD*%
G04 APERTURE LIST*
%ADD10C,0.120000*%
%ADD11C,0.150000*%
G04 APERTURE END LIST*
D10*
X94100000Y-55650000D02*
X93800000Y-55650000D01*
X93800000Y-55650000D02*
X93800000Y-55150000D01*
X94390000Y-57775000D02*
X94390000Y-55360000D01*
X94390000Y-55360000D02*
X94090000Y-55360000D01*
X94090000Y-55360000D02*
X94090000Y-54290000D01*
X94090000Y-54290000D02*
X99810000Y-54290000D01*
X99810000Y-54290000D02*
X99810000Y-57775000D01*
X94390000Y-57775000D02*
X94390000Y-60190000D01*
X94390000Y-60190000D02*
X94090000Y-60190000D01*
X94090000Y-60190000D02*
X94090000Y-61260000D01*
X94090000Y-61260000D02*
X99810000Y-61260000D01*
X99810000Y-61260000D02*
X99810000Y-57775000D01*
X92055001Y-62845001D02*
X89395001Y-62845001D01*
X92055001Y-55165001D02*
X92055001Y-62845001D01*
X89395001Y-55165001D02*
X89395001Y-62845001D01*
X92055001Y-55165001D02*
X89395001Y-55165001D01*
X92055001Y-53895001D02*
X92055001Y-52565001D01*
X92055001Y-52565001D02*
X90725001Y-52565001D01*
D11*
X95583333Y-52812380D02*
X95583333Y-53526666D01*
X95630952Y-53669523D01*
X95726190Y-53764761D01*
X95869047Y-53812380D01*
X95964285Y-53812380D01*
X94583333Y-53812380D02*
X95154761Y-53812380D01*
X94869047Y-53812380D02*
X94869047Y-52812380D01*
X94964285Y-52955238D01*
X95059523Y-53050476D01*
X95154761Y-53098095D01*
X91058334Y-51017381D02*
X91058334Y-51731667D01*
X91105953Y-51874524D01*
X91201191Y-51969762D01*
X91344048Y-52017381D01*
X91439286Y-52017381D01*
X90629762Y-51112620D02*
X90582143Y-51065001D01*
X90486905Y-51017381D01*
X90248810Y-51017381D01*
X90153572Y-51065001D01*
X90105953Y-51112620D01*
X90058334Y-51207858D01*
X90058334Y-51303096D01*
X90105953Y-51445953D01*
X90677381Y-52017381D01*
X90058334Y-52017381D01*
M02*
