G04 #@! TF.GenerationSoftware,KiCad,Pcbnew,5.1.2-f72e74a~84~ubuntu18.04.1*
G04 #@! TF.CreationDate,2019-06-12T20:10:48-04:00*
G04 #@! TF.ProjectId,picoblade_01x04_2.54,7069636f-626c-4616-9465-5f3031783034,rev?*
G04 #@! TF.SameCoordinates,Original*
G04 #@! TF.FileFunction,Soldermask,Bot*
G04 #@! TF.FilePolarity,Negative*
%FSLAX46Y46*%
G04 Gerber Fmt 4.6, Leading zero omitted, Abs format (unit mm)*
G04 Created by KiCad (PCBNEW 5.1.2-f72e74a~84~ubuntu18.04.1) date 2019-06-12 20:10:48*
%MOMM*%
%LPD*%
G04 APERTURE LIST*
%ADD10C,0.100000*%
G04 APERTURE END LIST*
D10*
G36*
X91626001Y-58765999D02*
G01*
X89824001Y-58765999D01*
X89824001Y-56963999D01*
X91626001Y-56963999D01*
X91626001Y-58765999D01*
X91626001Y-58765999D01*
G37*
G36*
X95819683Y-55412725D02*
G01*
X95850143Y-55421966D01*
X95878223Y-55436974D01*
X95902831Y-55457169D01*
X95923026Y-55481777D01*
X95938034Y-55509857D01*
X95947275Y-55540317D01*
X95951000Y-55578140D01*
X95951000Y-56141860D01*
X95947275Y-56179683D01*
X95938034Y-56210143D01*
X95923026Y-56238223D01*
X95902831Y-56262831D01*
X95878223Y-56283026D01*
X95850143Y-56298034D01*
X95819683Y-56307275D01*
X95781860Y-56311000D01*
X94718140Y-56311000D01*
X94680317Y-56307275D01*
X94649857Y-56298034D01*
X94621777Y-56283026D01*
X94597169Y-56262831D01*
X94576974Y-56238223D01*
X94561966Y-56210143D01*
X94552725Y-56179683D01*
X94549000Y-56141860D01*
X94549000Y-55578140D01*
X94552725Y-55540317D01*
X94561966Y-55509857D01*
X94576974Y-55481777D01*
X94597169Y-55457169D01*
X94621777Y-55436974D01*
X94649857Y-55421966D01*
X94680317Y-55412725D01*
X94718140Y-55409000D01*
X95781860Y-55409000D01*
X95819683Y-55412725D01*
X95819683Y-55412725D01*
G37*
G36*
X90835444Y-54430518D02*
G01*
X90901628Y-54437036D01*
X91071467Y-54488556D01*
X91227992Y-54572221D01*
X91263730Y-54601551D01*
X91365187Y-54684813D01*
X91446115Y-54783425D01*
X91477779Y-54822008D01*
X91561444Y-54978533D01*
X91612964Y-55148372D01*
X91630360Y-55324999D01*
X91612964Y-55501626D01*
X91561444Y-55671465D01*
X91477779Y-55827990D01*
X91448449Y-55863728D01*
X91365187Y-55965185D01*
X91263730Y-56048447D01*
X91227992Y-56077777D01*
X91071467Y-56161442D01*
X90901628Y-56212962D01*
X90835443Y-56219481D01*
X90769261Y-56225999D01*
X90680741Y-56225999D01*
X90614559Y-56219481D01*
X90548374Y-56212962D01*
X90378535Y-56161442D01*
X90222010Y-56077777D01*
X90186272Y-56048447D01*
X90084815Y-55965185D01*
X90001553Y-55863728D01*
X89972223Y-55827990D01*
X89888558Y-55671465D01*
X89837038Y-55501626D01*
X89819642Y-55324999D01*
X89837038Y-55148372D01*
X89888558Y-54978533D01*
X89972223Y-54822008D01*
X90003887Y-54783425D01*
X90084815Y-54684813D01*
X90186272Y-54601551D01*
X90222010Y-54572221D01*
X90378535Y-54488556D01*
X90548374Y-54437036D01*
X90614558Y-54430518D01*
X90680741Y-54423999D01*
X90769261Y-54423999D01*
X90835444Y-54430518D01*
X90835444Y-54430518D01*
G37*
G36*
X95588410Y-54165525D02*
G01*
X95673426Y-54191314D01*
X95751775Y-54233193D01*
X95820449Y-54289551D01*
X95876807Y-54358225D01*
X95918686Y-54436574D01*
X95944475Y-54521590D01*
X95953182Y-54610000D01*
X95944475Y-54698410D01*
X95918686Y-54783426D01*
X95876807Y-54861775D01*
X95820449Y-54930449D01*
X95751775Y-54986807D01*
X95673426Y-55028686D01*
X95588410Y-55054475D01*
X95522158Y-55061000D01*
X94977842Y-55061000D01*
X94911590Y-55054475D01*
X94826574Y-55028686D01*
X94748225Y-54986807D01*
X94679551Y-54930449D01*
X94623193Y-54861775D01*
X94581314Y-54783426D01*
X94555525Y-54698410D01*
X94546818Y-54610000D01*
X94555525Y-54521590D01*
X94581314Y-54436574D01*
X94623193Y-54358225D01*
X94679551Y-54289551D01*
X94748225Y-54233193D01*
X94826574Y-54191314D01*
X94911590Y-54165525D01*
X94977842Y-54159000D01*
X95522158Y-54159000D01*
X95588410Y-54165525D01*
X95588410Y-54165525D01*
G37*
G36*
X95588410Y-52915525D02*
G01*
X95673426Y-52941314D01*
X95751775Y-52983193D01*
X95820449Y-53039551D01*
X95876807Y-53108225D01*
X95918686Y-53186574D01*
X95944475Y-53271590D01*
X95953182Y-53360000D01*
X95944475Y-53448410D01*
X95918686Y-53533426D01*
X95876807Y-53611775D01*
X95820449Y-53680449D01*
X95751775Y-53736807D01*
X95673426Y-53778686D01*
X95588410Y-53804475D01*
X95522158Y-53811000D01*
X94977842Y-53811000D01*
X94911590Y-53804475D01*
X94826574Y-53778686D01*
X94748225Y-53736807D01*
X94679551Y-53680449D01*
X94623193Y-53611775D01*
X94581314Y-53533426D01*
X94555525Y-53448410D01*
X94546818Y-53360000D01*
X94555525Y-53271590D01*
X94581314Y-53186574D01*
X94623193Y-53108225D01*
X94679551Y-53039551D01*
X94748225Y-52983193D01*
X94826574Y-52941314D01*
X94911590Y-52915525D01*
X94977842Y-52909000D01*
X95522158Y-52909000D01*
X95588410Y-52915525D01*
X95588410Y-52915525D01*
G37*
G36*
X90835443Y-51890517D02*
G01*
X90901628Y-51897036D01*
X91071467Y-51948556D01*
X91227992Y-52032221D01*
X91263730Y-52061551D01*
X91365187Y-52144813D01*
X91448449Y-52246270D01*
X91477779Y-52282008D01*
X91477780Y-52282010D01*
X91557123Y-52430448D01*
X91561444Y-52438533D01*
X91612964Y-52608372D01*
X91630360Y-52784999D01*
X91612964Y-52961626D01*
X91561444Y-53131465D01*
X91477779Y-53287990D01*
X91448449Y-53323728D01*
X91365187Y-53425185D01*
X91263730Y-53508447D01*
X91227992Y-53537777D01*
X91227990Y-53537778D01*
X91089555Y-53611774D01*
X91071467Y-53621442D01*
X90901628Y-53672962D01*
X90835444Y-53679480D01*
X90769261Y-53685999D01*
X90680741Y-53685999D01*
X90614558Y-53679480D01*
X90548374Y-53672962D01*
X90378535Y-53621442D01*
X90360448Y-53611774D01*
X90222012Y-53537778D01*
X90222010Y-53537777D01*
X90186272Y-53508447D01*
X90084815Y-53425185D01*
X90001553Y-53323728D01*
X89972223Y-53287990D01*
X89888558Y-53131465D01*
X89837038Y-52961626D01*
X89819642Y-52784999D01*
X89837038Y-52608372D01*
X89888558Y-52438533D01*
X89892880Y-52430448D01*
X89972222Y-52282010D01*
X89972223Y-52282008D01*
X90001553Y-52246270D01*
X90084815Y-52144813D01*
X90186272Y-52061551D01*
X90222010Y-52032221D01*
X90378535Y-51948556D01*
X90548374Y-51897036D01*
X90614559Y-51890517D01*
X90680741Y-51883999D01*
X90769261Y-51883999D01*
X90835443Y-51890517D01*
X90835443Y-51890517D01*
G37*
G36*
X95588410Y-51665525D02*
G01*
X95673426Y-51691314D01*
X95751775Y-51733193D01*
X95820449Y-51789551D01*
X95876807Y-51858225D01*
X95918686Y-51936574D01*
X95944475Y-52021590D01*
X95953182Y-52110000D01*
X95944475Y-52198410D01*
X95918686Y-52283426D01*
X95876807Y-52361775D01*
X95820449Y-52430449D01*
X95751775Y-52486807D01*
X95673426Y-52528686D01*
X95588410Y-52554475D01*
X95522158Y-52561000D01*
X94977842Y-52561000D01*
X94911590Y-52554475D01*
X94826574Y-52528686D01*
X94748225Y-52486807D01*
X94679551Y-52430449D01*
X94623193Y-52361775D01*
X94581314Y-52283426D01*
X94555525Y-52198410D01*
X94546818Y-52110000D01*
X94555525Y-52021590D01*
X94581314Y-51936574D01*
X94623193Y-51858225D01*
X94679551Y-51789551D01*
X94748225Y-51733193D01*
X94826574Y-51691314D01*
X94911590Y-51665525D01*
X94977842Y-51659000D01*
X95522158Y-51659000D01*
X95588410Y-51665525D01*
X95588410Y-51665525D01*
G37*
G36*
X90835444Y-49350518D02*
G01*
X90901628Y-49357036D01*
X91071467Y-49408556D01*
X91227992Y-49492221D01*
X91263730Y-49521551D01*
X91365187Y-49604813D01*
X91448449Y-49706270D01*
X91477779Y-49742008D01*
X91561444Y-49898533D01*
X91612964Y-50068372D01*
X91630360Y-50244999D01*
X91612964Y-50421626D01*
X91561444Y-50591465D01*
X91477779Y-50747990D01*
X91448449Y-50783728D01*
X91365187Y-50885185D01*
X91263730Y-50968447D01*
X91227992Y-50997777D01*
X91071467Y-51081442D01*
X90901628Y-51132962D01*
X90835443Y-51139481D01*
X90769261Y-51145999D01*
X90680741Y-51145999D01*
X90614559Y-51139481D01*
X90548374Y-51132962D01*
X90378535Y-51081442D01*
X90222010Y-50997777D01*
X90186272Y-50968447D01*
X90084815Y-50885185D01*
X90001553Y-50783728D01*
X89972223Y-50747990D01*
X89888558Y-50591465D01*
X89837038Y-50421626D01*
X89819642Y-50244999D01*
X89837038Y-50068372D01*
X89888558Y-49898533D01*
X89972223Y-49742008D01*
X90001553Y-49706270D01*
X90084815Y-49604813D01*
X90186272Y-49521551D01*
X90222010Y-49492221D01*
X90378535Y-49408556D01*
X90548374Y-49357036D01*
X90614558Y-49350518D01*
X90680741Y-49343999D01*
X90769261Y-49343999D01*
X90835444Y-49350518D01*
X90835444Y-49350518D01*
G37*
M02*
