G04 #@! TF.GenerationSoftware,KiCad,Pcbnew,5.1.2-f72e74a~84~ubuntu18.04.1*
G04 #@! TF.CreationDate,2019-06-12T20:10:48-04:00*
G04 #@! TF.ProjectId,picoblade_01x04_2.54,7069636f-626c-4616-9465-5f3031783034,rev?*
G04 #@! TF.SameCoordinates,Original*
G04 #@! TF.FileFunction,Legend,Top*
G04 #@! TF.FilePolarity,Positive*
%FSLAX46Y46*%
G04 Gerber Fmt 4.6, Leading zero omitted, Abs format (unit mm)*
G04 Created by KiCad (PCBNEW 5.1.2-f72e74a~84~ubuntu18.04.1) date 2019-06-12 20:10:48*
%MOMM*%
%LPD*%
G04 APERTURE LIST*
%ADD10C,0.120000*%
%ADD11C,0.150000*%
G04 APERTURE END LIST*
D10*
X94100000Y-56110000D02*
X93800000Y-56110000D01*
X93800000Y-56110000D02*
X93800000Y-56610000D01*
X94390000Y-53985000D02*
X94390000Y-56400000D01*
X94390000Y-56400000D02*
X94090000Y-56400000D01*
X94090000Y-56400000D02*
X94090000Y-57470000D01*
X94090000Y-57470000D02*
X99810000Y-57470000D01*
X99810000Y-57470000D02*
X99810000Y-53985000D01*
X94390000Y-53985000D02*
X94390000Y-51570000D01*
X94390000Y-51570000D02*
X94090000Y-51570000D01*
X94090000Y-51570000D02*
X94090000Y-50500000D01*
X94090000Y-50500000D02*
X99810000Y-50500000D01*
X99810000Y-50500000D02*
X99810000Y-53985000D01*
X92055001Y-48914999D02*
X89395001Y-48914999D01*
X92055001Y-56594999D02*
X92055001Y-48914999D01*
X89395001Y-56594999D02*
X89395001Y-48914999D01*
X92055001Y-56594999D02*
X89395001Y-56594999D01*
X92055001Y-57864999D02*
X92055001Y-59194999D01*
X92055001Y-59194999D02*
X90725001Y-59194999D01*
D11*
X94916666Y-57852380D02*
X94916666Y-58566666D01*
X94869047Y-58709523D01*
X94773809Y-58804761D01*
X94630952Y-58852380D01*
X94535714Y-58852380D01*
X95916666Y-58852380D02*
X95345238Y-58852380D01*
X95630952Y-58852380D02*
X95630952Y-57852380D01*
X95535714Y-57995238D01*
X95440476Y-58090476D01*
X95345238Y-58138095D01*
X90391667Y-59647379D02*
X90391667Y-60361665D01*
X90344048Y-60504522D01*
X90248810Y-60599760D01*
X90105953Y-60647379D01*
X90010715Y-60647379D01*
X90820239Y-59742618D02*
X90867858Y-59694999D01*
X90963096Y-59647379D01*
X91201191Y-59647379D01*
X91296429Y-59694999D01*
X91344048Y-59742618D01*
X91391667Y-59837856D01*
X91391667Y-59933094D01*
X91344048Y-60075951D01*
X90772620Y-60647379D01*
X91391667Y-60647379D01*
M02*
